<?xml version="1.0" encoding="UTF-8"?>
<svg version="1.1" xmlns="http://www.w3.org/2000/svg" width="512" height="512">
<path d="M0 0 C1.11148509 -0.00445784 2.22297019 -0.00891569 3.36813664 -0.01350862 C4.59943075 -0.01332426 5.83072485 -0.01313989 7.0993309 -0.01294994 C9.04952389 -0.01846498 9.04952389 -0.01846498 11.03911471 -0.02409142 C14.66011591 -0.03412835 18.28110053 -0.03783093 21.90211368 -0.04048073 C25.80271407 -0.04437878 29.70330128 -0.05395746 33.60389328 -0.0626936 C43.02993731 -0.08247225 52.45598245 -0.09252603 61.88204205 -0.10142139 C66.31833092 -0.10580203 70.7546186 -0.11116942 75.19090652 -0.11641026 C89.93374127 -0.133424 104.67657527 -0.14791885 119.41941833 -0.155159 C123.24678422 -0.15706897 127.0741501 -0.15898929 130.90151596 -0.16094494 C132.32846783 -0.16167055 132.32846783 -0.16167055 133.78424701 -0.16241082 C149.19953594 -0.17071359 164.61474733 -0.19605403 180.03000239 -0.22852562 C195.84800983 -0.26157458 211.66597784 -0.2796058 227.48401999 -0.28280324 C236.36872015 -0.28497035 245.25330723 -0.29374838 254.13797379 -0.31926441 C261.70365503 -0.3409419 269.26919575 -0.34903643 276.83490452 -0.33929763 C280.69592964 -0.3347443 284.55666465 -0.33669869 288.41765022 -0.35605907 C292.60203244 -0.3768601 296.78576768 -0.36673329 300.97018051 -0.35352612 C302.19255173 -0.36449536 303.41492295 -0.37546461 304.67433572 -0.38676625 C311.04503269 -0.33804045 314.97593162 -0.18938523 319.78872299 4.13422108 C320.41612224 4.67672158 321.04352148 5.21922209 321.68993282 5.778162 C322.2335814 6.31845889 322.77722998 6.85875578 323.33735275 7.4154253 C323.97232681 8.04186939 324.60730087 8.66831348 325.26151657 9.31374073 C325.93653717 9.9896677 326.61155777 10.66559467 327.30703354 11.36200428 C328.39839615 12.44329105 328.39839615 12.44329105 329.51180649 13.546422 C331.90499251 15.92067646 334.29062712 18.30234126 336.67544174 20.68500233 C338.34105109 22.34418197 340.00680955 24.00321194 341.67271042 25.66209888 C345.15871802 29.13614695 348.6405823 32.61428875 352.12002182 36.09491444 C356.57533588 40.55043196 361.04426161 44.99201991 365.51684475 49.43019295 C368.95951348 52.85061176 372.39304073 56.28009519 375.82407188 59.71218395 C377.46786484 61.35361946 379.11489585 62.99181899 380.76523018 64.62667751 C383.0726468 66.91446811 385.36700929 69.21462236 387.65859604 71.51825428 C388.33968933 72.18810856 389.02078262 72.85796284 389.72251511 73.54811573 C390.34902969 74.18301929 390.97554428 74.81792286 391.62104416 75.47206593 C392.16356166 76.01349389 392.70607916 76.55492186 393.26503658 77.11275673 C397.14489606 82.26013979 398.16376113 87.05699729 398.16624641 93.40756607 C398.17060674 94.10885617 398.17496706 94.81014626 398.17945951 95.53268757 C398.19038487 97.87641826 398.18000682 100.21955684 398.16967392 102.56328297 C398.17313157 104.26304362 398.17789685 105.96280203 398.18385565 107.66255575 C398.19638069 112.3288049 398.19018839 116.99487001 398.180897 121.66111982 C398.17411298 126.69529269 398.18458457 131.72943378 398.19283676 136.76360035 C398.20618347 146.62401649 398.20329208 156.48436416 398.19459884 166.344783 C398.18782602 174.35847453 398.18690384 182.37214685 398.19017029 190.38584042 C398.19062999 191.52603103 398.19108969 192.66622165 398.19156332 193.8409635 C398.19252249 196.15719092 398.19349512 198.47341833 398.19448109 200.78964574 C398.20303783 222.51431771 398.19319659 244.23895171 398.17707999 265.96361745 C398.16367836 284.60570942 398.16600309 303.24774535 398.17983627 321.88983631 C398.19589016 343.53477624 398.20221193 365.17968288 398.19299948 386.82462794 C398.19204383 389.13268061 398.19110072 391.44073329 398.19017029 393.74878597 C398.18970746 394.88440879 398.18924463 396.02003161 398.18876778 397.19006724 C398.18617719 405.19392537 398.19055043 413.19776238 398.19760895 421.20161724 C398.20602209 430.95602388 398.20374776 440.71035809 398.18776672 450.46475642 C398.17988126 455.4419166 398.17679712 460.41895601 398.18671417 465.3961153 C398.1956559 469.95269721 398.19073673 474.50904645 398.17478152 479.06560726 C398.17143149 480.71357557 398.17313276 482.36156356 398.18040888 484.00951921 C398.25564035 502.46489449 398.25564035 502.46489449 393.33684194 507.67086738 C388.84320258 511.57926005 386.27094077 512.2596506 380.43737793 512.26844215 C379.77502534 512.27079438 379.11267274 512.27314661 378.43024886 512.27557012 C376.18906733 512.28227886 373.94794353 512.28180134 371.70675278 512.2813921 C370.09238018 512.28468956 368.4780084 512.28841487 366.86363769 512.29253358 C362.41032189 512.3025751 357.95701957 512.30627382 353.50369406 512.30892289 C348.70738111 512.31281957 343.91107891 512.32239832 339.1147728 512.33113575 C327.52333986 512.35091804 315.93190602 512.36096853 304.34046042 512.36986354 C298.88605735 512.37424349 293.43165526 512.37961105 287.97725296 512.38485241 C269.85282849 512.40186633 251.72840462 512.41636149 233.60397339 512.42360115 C228.89830398 512.42551114 224.19263457 512.42743146 219.48696518 512.42938709 C218.31734905 512.42987083 217.14773293 512.43035457 215.94267389 512.43085297 C196.98696868 512.4391569 178.03132649 512.46449921 159.07564881 512.49696777 C139.62804183 512.53000821 120.18046692 512.54804717 100.73283172 512.55124539 C89.80810626 512.55341327 78.88347272 512.56220247 67.95877457 512.58770657 C58.65653466 512.6093724 49.35440898 512.61748432 40.0521467 512.60773978 C35.30407542 512.60318313 30.55624004 512.60516031 25.80820084 512.62450123 C21.46303849 512.64204854 17.11828561 512.6412042 12.77311942 512.62560394 C11.19972664 512.62321498 9.62630613 512.62761773 8.0529559 512.63943259 C5.91594834 512.65448838 3.78040354 512.64492508 1.64343262 512.6292057 C0.45599213 512.63018251 -0.73144836 512.63115932 -1.95487189 512.63216573 C-7.07770083 511.84882177 -10.1569188 509.33106012 -13.52377701 505.50922108 C-16.5765335 501.21274898 -16.34114993 497.750337 -16.30893326 492.62640858 C-16.30751831 491.78578876 -16.30610336 490.94516895 -16.30464554 490.07907581 C-16.29903938 487.38908833 -16.28648587 484.69918349 -16.27377701 482.00922108 C-16.2687628 480.18760769 -16.26419976 478.36599301 -16.26010513 476.54437733 C-16.24906795 472.0742933 -16.2317992 467.60427121 -16.21127701 463.13422108 C-17.04787857 463.14993153 -17.88448013 463.16564198 -18.74643326 463.1818285 C-21.8849186 463.23331113 -25.02318689 463.27074215 -28.1619606 463.299016 C-30.17463949 463.32131516 -32.18712284 463.3594576 -34.19955826 463.39789295 C-43.88355797 463.47088792 -51.5620795 462.61941027 -59.21127701 456.13422108 C-64.34387433 449.04234188 -66.32861441 443.45713397 -66.3517189 434.71584034 C-66.35742905 433.41922474 -66.36313919 432.12260914 -66.36902237 430.78670216 C-66.37026759 429.35672484 -66.37139271 427.92674741 -66.37240982 426.49676991 C-66.37704111 424.98518217 -66.38206619 423.4735956 -66.38745499 421.96201038 C-66.40055232 417.86052659 -66.40701891 413.75905915 -66.41146564 409.65755773 C-66.41440111 407.09203927 -66.41850684 404.52652524 -66.42296982 401.96100903 C-66.43663867 393.92526929 -66.44630792 385.88953971 -66.45017171 377.85378915 C-66.45464896 368.59434199 -66.47218393 359.33504271 -66.5011723 350.0756405 C-66.5228297 342.90771142 -66.53287818 335.73982383 -66.53421283 328.5718624 C-66.53525809 324.29587148 -66.54110616 320.02001969 -66.55903244 315.74406338 C-66.57558314 311.71798695 -66.57763493 307.69215317 -66.56889343 303.66605473 C-66.56812675 302.19475432 -66.57241677 300.72344049 -66.58235168 299.25217342 C-66.64779022 288.95076744 -66.62013695 278.47260974 -59.03281021 270.6571703 C-50.48873634 263.51363286 -41.64556854 263.50038297 -31.08627701 263.82172108 C-29.63839924 263.84685784 -28.190479 263.86966145 -26.74252701 263.89008045 C-23.23121274 263.94459918 -19.72152506 264.03056574 -16.21127701 264.13422108 C-16.21496418 262.83585756 -16.21865135 261.53749405 -16.22245026 260.19978619 C-16.30907232 229.38271023 -16.37503436 198.56566713 -16.41553833 167.74849867 C-16.42054118 163.95584863 -16.42571847 160.16319885 -16.43100357 156.3705492 C-16.43205281 155.61549753 -16.43310205 154.86044585 -16.43418309 154.08251382 C-16.45159069 141.85509249 -16.48313032 129.62774635 -16.51988819 117.40036963 C-16.55728777 104.85494768 -16.57951077 92.30956512 -16.58763099 79.7640897 C-16.59312082 72.02215827 -16.61046293 64.28043936 -16.64294288 56.53857334 C-16.66657634 50.60317276 -16.66909932 44.6678814 -16.66370773 38.73243237 C-16.66480988 36.29675264 -16.67278901 33.86106501 -16.68809891 31.42543316 C-16.70795882 28.10352645 -16.70323 24.78253382 -16.69229507 21.46060658 C-16.70394644 20.4936737 -16.71559781 19.52674083 -16.72760224 18.53050697 C-16.67726091 12.88434044 -16.01914662 9.59362803 -12.21127701 5.13422108 C-7.93729916 1.36905012 -5.64812395 0.01046809 0 0 Z " fill="#EBE9EB" transform="translate(90.21127700805664,-0.13422107696533203)"/>
<path d="M0 0 C4.90875 0.103125 9.8175 0.20625 14.875 0.3125 C14.875 16.8125 14.875 33.3125 14.875 50.3125 C25.59701904 50.2810791 25.59701904 50.2810791 36.53564453 50.24902344 C59.4056736 50.18482577 82.27571251 50.14033112 105.14580608 50.10823868 C108.69811574 50.10323585 112.25042513 50.09805856 115.80273438 50.09277344 C116.86353713 50.09119957 116.86353713 50.09119957 117.94577025 50.08959392 C129.39721112 50.07218792 140.84857169 50.04064918 152.29996492 50.00388882 C164.04985782 49.96648476 175.79970866 49.94426529 187.54965866 49.93614602 C194.14958124 49.93092591 200.74932167 49.91863526 207.34918594 49.88957977 C213.55926253 49.86246141 219.76908163 49.85404789 225.97921181 49.86006927 C228.26008693 49.85896745 230.54097053 49.85099254 232.82179451 49.8356781 C235.93352609 49.81580676 239.04428272 49.82055098 242.15603638 49.83148193 C243.06071407 49.81983057 243.96539177 49.8081792 244.89748394 49.79617476 C250.38919335 49.84839741 253.52063333 50.64996083 257.875 54.3125 C261.55064588 58.48485478 262.99653705 60.78038439 263.02217102 66.29608154 C263.03290398 67.87747421 263.03290398 67.87747421 263.04385376 69.49081421 C263.04654266 70.65239044 263.04923157 71.81396667 263.05200195 73.01074219 C263.05857315 74.23034637 263.06514435 75.44995056 263.07191467 76.70651245 C263.09168521 80.75746909 263.10331878 84.8083861 263.11328125 88.859375 C263.11732876 90.25410227 263.12144568 91.64882935 263.12563133 93.04355621 C263.14468585 99.59708821 263.15891542 106.15060893 263.1672433 112.70416331 C263.17701235 120.26692316 263.20332175 127.82939006 263.24374419 135.39204669 C263.27391949 141.23841942 263.28871357 147.08470826 263.29202431 152.93115735 C263.29437356 156.42242502 263.30331664 159.91337984 263.32848549 163.4045639 C263.3561287 167.30203081 263.3519307 171.19911351 263.3449707 175.09667969 C263.36418579 176.82689865 263.36418579 176.82689865 263.38378906 178.59207153 C263.34321914 184.81759839 263.09597753 188.60440189 258.875 193.3125 C254.97684791 196.74658637 252.66543708 198.43196829 247.49703026 198.45954514 C246.57139853 198.46686968 245.6457668 198.47419422 244.69208562 198.48174071 C243.15652121 198.48627741 243.15652121 198.48627741 241.5899353 198.49090576 C240.50764605 198.49796044 239.4253568 198.50501511 238.31027091 198.51228356 C234.65916905 198.53478616 231.00807213 198.55010344 227.35693359 198.56542969 C224.74896023 198.57991145 222.14098904 198.59478782 219.53302002 198.61003113 C212.42954483 198.65045655 205.32604668 198.68334832 198.22252607 198.71461773 C193.78712551 198.73415188 189.35173255 198.75513443 184.91633987 198.77637482 C172.63722636 198.83489472 160.35810732 198.89149789 148.0789547 198.94121933 C147.29265284 198.94440651 146.50635099 198.94759368 145.69622181 198.95087744 C144.51392737 198.95566728 144.51392737 198.95566728 143.3077482 198.96055388 C141.71053655 198.96702621 140.11332491 198.97350174 138.51611328 198.97998047 C137.72383924 198.98319251 136.9315652 198.98640456 136.11528285 198.98971394 C123.28469137 199.04209453 110.45420867 199.10805949 97.62371282 199.17989931 C84.45222691 199.2534526 71.28072716 199.31562195 58.10913336 199.36640286 C50.71330385 199.39518197 43.31756839 199.428844 35.92182541 199.47505951 C28.96324532 199.51848345 22.00475202 199.54635344 15.04605865 199.56371498 C12.49187747 199.57256585 9.9377082 199.58660013 7.38358688 199.60619926 C3.89626164 199.63216128 0.40937623 199.63942611 -3.07803345 199.64202881 C-4.08835872 199.65397616 -5.098684 199.66592351 -6.13962519 199.67823291 C-14.49113855 199.65067087 -21.59504601 197.84876534 -28.125 192.3125 C-33.25759732 185.2206208 -35.2423374 179.63541289 -35.26544189 170.89411926 C-35.27115204 169.59750366 -35.27686218 168.30088806 -35.28274536 166.96498108 C-35.28399058 165.53500376 -35.28511571 164.10502633 -35.28613281 162.67504883 C-35.29076411 161.1634611 -35.29578919 159.65187453 -35.30117798 158.14028931 C-35.31427531 154.03880552 -35.3207419 149.93733808 -35.32518864 145.83583665 C-35.3281241 143.2703182 -35.33222983 140.70480417 -35.33669281 138.13928795 C-35.35036167 130.10354821 -35.36003092 122.06781863 -35.3638947 114.03206807 C-35.36837195 104.77262092 -35.38590692 95.51332163 -35.4148953 86.25391942 C-35.43655269 79.08599035 -35.44660117 71.91810275 -35.44793582 64.75014132 C-35.44898108 60.47415041 -35.45482915 56.19829861 -35.47275543 51.9223423 C-35.48930613 47.89626587 -35.49135792 43.8704321 -35.48261642 39.84433365 C-35.48184974 38.37303324 -35.48613977 36.90171941 -35.49607468 35.43045235 C-35.56146423 25.13675785 -35.53352497 14.65054362 -27.9465332 6.83544922 C-19.36105723 -0.34270373 -10.69017377 -0.31859627 0 0 Z " fill="#E15F78" transform="translate(59.125,263.6875)"/>
<path d="M0 0 C8.14936307 8.14936307 7.70120659 15.77619843 7.77319336 26.61816406 C7.6748345 36.67415385 6.01216729 45.94895801 3.56640625 55.671875 C3.2569104 56.90744141 3.2569104 56.90744141 2.94116211 58.16796875 C2.47442652 59.98741235 1.97929266 61.79954642 1.4765625 63.609375 C1.33376555 67.4978457 3.02338195 69.82067426 5.1875 72.875 C5.59548828 73.47739502 6.00347656 74.07979004 6.42382812 74.70043945 C7.72281476 76.60517499 9.04685883 78.49050823 10.375 80.375 C11.21258694 81.5869996 12.04983257 82.79923516 12.88671875 84.01171875 C17.33138215 90.39093304 21.91505962 96.63920774 27.04296875 102.4921875 C28.84831269 104.72391921 30.15607156 106.6705396 31.55078125 109.1328125 C34.21999576 113.44766332 36.78489997 117.00424766 41.375 119.375 C50.04496037 121.16692347 59.10552314 120.57270075 67.91015625 120.38232422 C78.54448483 120.35984466 91.06109131 122.41349552 99.0546875 129.9609375 C103.00270404 134.53349903 103.79602112 137.69033859 103.7109375 143.578125 C103.01488528 149.37316441 100.58319725 154.29346798 96.33203125 158.30078125 C89.3295594 163.64510858 84.15856805 163.91380684 75.375 163.375 C62.8070363 161.17963455 50.4666678 151.69610411 41.79785156 142.74682617 C38.56473229 139.53247181 38.56473229 139.53247181 34.37475586 138.03637695 C32.11304001 138.12756034 29.97955344 138.42181872 27.75 138.8125 C26.92443604 138.93012695 26.09887207 139.04775391 25.24829102 139.16894531 C23.49926 139.42094527 21.7522084 139.68703693 20.00732422 139.96630859 C17.46817183 140.36053426 14.93046286 140.68594511 12.37890625 140.98828125 C-0.93537758 142.62336874 -13.8724694 145.56028191 -26.89038086 148.75830078 C-29.625 149.375 -29.625 149.375 -32.90063477 149.82373047 C-33.79967529 150.00564941 -34.69871582 150.18756836 -35.625 150.375 C-36.86767038 152.55928569 -36.86767038 152.55928569 -37.625 155.375 C-43.10410638 165.38853925 -49.40435148 174.54846049 -56.625 183.375 C-57.3159375 184.23222656 -58.006875 185.08945312 -58.71875 185.97265625 C-64.53666906 192.88720688 -71.9996192 199.54562191 -81.30859375 200.7109375 C-87.3048463 200.79599073 -90.99667387 200.57278417 -95.625 196.375 C-100.71317703 191.20099829 -103.61877829 187.00898428 -104.0625 179.625 C-103.87080812 172.0249809 -100.14666149 166.77036514 -95.125 161.3125 C-87.41984083 154.07996212 -78.11275659 149.41537664 -68.5625 145.125 C-67.79252686 144.77816162 -67.02255371 144.43132324 -66.22924805 144.07397461 C-61.85707897 142.16665253 -57.74439953 140.92284875 -53.0625 139.9375 C-47.80855457 138.20780603 -45.61724502 135.182739 -43.125 130.4375 C-41.51656492 127.12746727 -40.06491173 123.76123554 -38.625 120.375 C-38.15562012 119.29814941 -37.68624023 118.22129883 -37.20263672 117.11181641 C-31.66544249 104.35900488 -26.49385114 91.46836924 -21.8125 78.375 C-21.29707642 76.96130127 -21.29707642 76.96130127 -20.77124023 75.51904297 C-20.46903564 74.64650879 -20.16683105 73.77397461 -19.85546875 72.875 C-19.59145264 72.1221875 -19.32743652 71.369375 -19.05541992 70.59375 C-18.03024057 65.30910452 -20.67608162 60.82155405 -22.9375 56.1875 C-23.57469311 54.84719726 -24.21011096 53.50604911 -24.84375 52.1640625 C-25.15054688 51.51469727 -25.45734375 50.86533203 -25.7734375 50.19628906 C-31.50458522 37.93873116 -35.03303725 24.6438618 -32.125 11.03515625 C-30.09173794 5.75560647 -26.39458795 2.46687342 -21.6875 -0.4375 C-14.97927331 -3.00849437 -6.48097129 -2.90526299 0 0 Z " fill="#E16079" transform="translate(281.625,78.625)"/>
<path d="M0 0 C4.90875 0.103125 9.8175 0.20625 14.875 0.3125 C14.875 16.8125 14.875 33.3125 14.875 50.3125 C9.986875 50.333125 5.09875 50.35375 0.0625 50.375 C-1.47639893 50.384104 -3.01529785 50.39320801 -4.60083008 50.40258789 C-6.41683716 50.40633423 -6.41683716 50.40633423 -8.26953125 50.41015625 C-9.51065674 50.41539307 -10.75178223 50.42062988 -12.03051758 50.42602539 C-15.125 50.3125 -15.125 50.3125 -18.125 49.3125 C-18.08774103 63.74293204 -18.02748498 78.17311331 -17.94109726 92.60333824 C-17.9013829 99.30441761 -17.86944537 106.00535862 -17.85400391 112.70654297 C-17.83882272 119.17764981 -17.8043501 125.64839653 -17.75669098 132.1193428 C-17.74189246 134.58394866 -17.73395987 137.04860593 -17.73311615 139.51325607 C-17.73074027 142.97455665 -17.70360832 146.43486706 -17.67089844 149.89599609 C-17.6759288 150.90732605 -17.68095917 151.91865601 -17.68614197 152.96063232 C-17.57056156 160.90367911 -15.87721498 167.77393788 -10.9375 174.125 C-3.44128237 179.95539149 2.40683785 182.05379291 11.90382385 181.95173645 C12.98140439 181.96009213 14.05898494 181.9684478 15.16921943 181.97705668 C18.7623165 181.99891803 22.35438477 181.98539956 25.94750977 181.97192383 C28.53009311 181.98037968 31.11267008 181.991025 33.69523621 182.00369263 C39.24618437 182.02747627 44.79691057 182.03315566 50.3479023 182.02634621 C58.37353488 182.01652756 66.39892215 182.0343114 74.424515 182.05871352 C87.44715934 182.09756511 100.4697333 182.1142638 113.49243164 182.11694336 C126.13862719 182.11959309 138.78474055 182.13273054 151.4309082 182.15991211 C152.6012507 182.16242218 152.6012507 182.16242218 153.79523648 182.16498295 C157.70962782 182.17344276 161.62401868 182.18210812 165.53840935 182.19087565 C197.98393071 182.26328213 230.42939951 182.29969952 262.875 182.3125 C261.90817414 190.04879023 261.90817414 190.04879023 259.0625 193.125 C258.56105469 193.68832031 258.05960937 194.25164062 257.54296875 194.83203125 C254.31797841 197.69449341 251.52513602 198.56178891 247.2509346 198.58259296 C245.85651386 198.59656635 245.85651386 198.59656635 244.43392301 198.61082202 C243.41603908 198.61093365 242.39815516 198.61104527 241.34942627 198.61116028 C240.26542817 198.61906938 239.18143007 198.62697848 238.06458354 198.63512725 C234.41967116 198.65922295 230.77485942 198.66906572 227.12988281 198.67895508 C224.52161208 198.69315964 221.91334575 198.70819419 219.30508423 198.72399902 C212.94754103 198.76076573 206.58999815 198.78662834 200.23238757 198.80838916 C195.06377026 198.82619488 189.89517864 198.84748409 184.72658539 198.87125206 C183.62349387 198.87630789 183.62349387 198.87630789 182.49811767 198.88146585 C181.00416765 198.88831496 179.51021763 198.89516609 178.01626763 198.90201923 C164.00015228 198.96578267 149.98401166 199.01655262 135.96783122 199.06343975 C123.15028619 199.10672753 110.33287996 199.16648848 97.51544181 199.23403481 C84.35292829 199.30324673 71.19040891 199.3612114 58.02779269 199.4070732 C50.63870797 199.43301991 43.24970632 199.46342302 35.86069489 199.50562477 C28.91028785 199.54518802 21.95997854 199.56891898 15.00947189 199.58200836 C12.4585175 199.58926188 9.90757177 199.60168465 7.35667038 199.61965752 C3.87382195 199.64337737 0.39142625 199.64840925 -3.0914917 199.64875793 C-4.60493325 199.66565578 -4.60493325 199.66565578 -6.14894938 199.682895 C-14.49490635 199.64983995 -21.59976222 197.84476681 -28.125 192.3125 C-33.25759732 185.2206208 -35.2423374 179.63541289 -35.26544189 170.89411926 C-35.27115204 169.59750366 -35.27686218 168.30088806 -35.28274536 166.96498108 C-35.28399058 165.53500376 -35.28511571 164.10502633 -35.28613281 162.67504883 C-35.29076411 161.1634611 -35.29578919 159.65187453 -35.30117798 158.14028931 C-35.31427531 154.03880552 -35.3207419 149.93733808 -35.32518864 145.83583665 C-35.3281241 143.2703182 -35.33222983 140.70480417 -35.33669281 138.13928795 C-35.35036167 130.10354821 -35.36003092 122.06781863 -35.3638947 114.03206807 C-35.36837195 104.77262092 -35.38590692 95.51332163 -35.4148953 86.25391942 C-35.43655269 79.08599035 -35.44660117 71.91810275 -35.44793582 64.75014132 C-35.44898108 60.47415041 -35.45482915 56.19829861 -35.47275543 51.9223423 C-35.48930613 47.89626587 -35.49135792 43.8704321 -35.48261642 39.84433365 C-35.48184974 38.37303324 -35.48613977 36.90171941 -35.49607468 35.43045235 C-35.56146423 25.13675785 -35.53352497 14.65054362 -27.9465332 6.83544922 C-19.36105723 -0.34270373 -10.69017377 -0.31859627 0 0 Z " fill="#DB4655" transform="translate(59.125,263.6875)"/>
<path d="M0 0 C77.55 0 155.1 0 235 0 C235 0.33 235 0.66 235 1 C163.06 1 91.12 1 17 1 C17.66565 15.40892394 17.66565 15.40892394 25 27 C32.51201914 32.88116781 40.36680919 32.70900524 49.47059631 32.63923645 C51.04167312 32.645554 52.61274238 32.65406045 54.18379682 32.66455668 C58.4848332 32.68699842 62.78533105 32.67852132 67.0863837 32.6648711 C71.73048759 32.65559218 76.37448168 32.67516338 81.01855469 32.69119263 C89.05935258 32.71501506 97.0999972 32.72064576 105.14082527 32.71384621 C116.76641212 32.70404169 128.39182915 32.72178834 140.01738852 32.74621352 C158.8800043 32.78509754 177.74257149 32.80176573 196.60522461 32.80444336 C214.92621351 32.80709172 233.24714562 32.8202151 251.56811523 32.84741211 C252.69782205 32.84908549 253.82752886 32.85075887 254.99146921 32.85248295 C260.65899678 32.86094255 266.326524 32.86960794 271.9940511 32.87837565 C318.99602414 32.95082188 365.99797541 32.98720565 413 33 C414.27158128 36.81474383 413.53486746 38.37328457 412.09375 41.99609375 C410.03086331 45.77559686 406.83360152 48.08319924 403 50 C400.88472273 50.09889268 398.76624024 50.13102974 396.64865494 50.13422108 C395.98630234 50.13657331 395.32394975 50.13892554 394.64152586 50.14134905 C392.40034434 50.14805778 390.15922053 50.14758026 387.91802979 50.14717102 C386.30365718 50.15046848 384.68928541 50.1541938 383.07491469 50.1583125 C378.6215989 50.16835402 374.16829658 50.17205274 369.71497107 50.17470181 C364.91865812 50.17859849 360.12235591 50.18817724 355.3260498 50.19691467 C343.73461687 50.21669696 332.14318303 50.22674746 320.55173743 50.23564246 C315.09733436 50.24002241 309.64293227 50.24538997 304.18852997 50.25063133 C286.06410549 50.26764526 267.93968163 50.28214041 249.8152504 50.28938007 C245.10958099 50.29129007 240.40391158 50.29321038 235.69824219 50.29516602 C234.52862606 50.29564976 233.35900994 50.2961335 232.1539509 50.2966319 C213.19824568 50.30493582 194.2426035 50.33027814 175.28692582 50.36274669 C155.83931884 50.39578714 136.39174393 50.4138261 116.94410872 50.41702431 C106.01938327 50.41919219 95.09474973 50.42798139 84.17005157 50.45348549 C74.86781166 50.47515132 65.56568599 50.48326324 56.26342371 50.47351871 C51.51535243 50.46896205 46.76751705 50.47093924 42.01947784 50.49028015 C37.6743155 50.50782747 33.32956261 50.50698312 28.98439643 50.49138286 C27.41100365 50.4889939 25.83758314 50.49339665 24.2642329 50.50521151 C22.12722535 50.5202673 19.99168055 50.510704 17.85470963 50.49498463 C16.07354889 50.49644984 16.07354889 50.49644984 14.25640512 50.49794465 C9.13357617 49.71460069 6.05435821 47.19683904 2.6875 43.375 C-5.70292899 31.56624809 0 14.48605951 0 0 Z " fill="#DAD6D9" transform="translate(74,462)"/>
<path d="M0 0 C0 103.29 0 206.58 0 313 C71.61 313 143.22 313 217 313 C217 313.33 217 313.66 217 314 C139.78 314 62.56 314 -17 314 C-17.1613254 238.20395132 -17.1613254 238.20395132 -17.1953125 206.5859375 C-17.20314415 199.34863245 -17.21122612 192.11132774 -17.21972656 184.87402344 C-17.22078156 183.96692863 -17.22183655 183.05983382 -17.22292352 182.12525129 C-17.24032704 167.47542694 -17.27186576 152.8256653 -17.30861118 138.17587815 C-17.34599984 123.14442814 -17.36823146 108.11301099 -17.37635398 93.08151639 C-17.38184606 83.80412709 -17.39920053 74.52691498 -17.43166587 65.24958022 C-17.45278814 58.89022091 -17.45920524 52.53095338 -17.45400551 46.17156152 C-17.45144015 42.50091363 -17.45540906 38.83057565 -17.4768219 35.15998268 C-17.49986211 31.18139957 -17.49196248 27.20322149 -17.48101807 23.22457886 C-17.49266943 22.06309857 -17.5043208 20.90161829 -17.51632524 19.70494163 C-17.4699251 13.48608085 -17.21630643 9.70332802 -13 5 C-8.14148362 0.71987842 -6.76206611 0 0 0 Z " fill="#DAD7DA" transform="translate(91,0)"/>
<path d="M0 0 C6.15851835 -0.4247254 9.07470541 -0.06597765 14 4 C16.58358269 6.3350784 19.05774768 8.76391646 21.51831055 11.2277832 C22.24588562 11.94864105 22.97346069 12.6694989 23.7230835 13.41220093 C26.11626952 15.78645539 28.50190413 18.16812019 30.88671875 20.55078125 C32.5523281 22.2099609 34.21808656 23.86899086 35.88398743 25.52787781 C39.36999502 29.00192588 42.8518593 32.48006767 46.33129883 35.96069336 C50.78661289 40.41621089 55.25553861 44.85779883 59.72812176 49.29597187 C63.17079048 52.71639068 66.60431774 56.14587411 70.03534889 59.57796288 C71.67914185 61.21939838 73.32617285 62.85759791 74.97650719 64.49245644 C77.2839238 66.78024703 79.5782863 69.08040128 81.86987305 71.3840332 C82.55096634 72.05388748 83.23205963 72.72374176 83.93379211 73.41389465 C88.53040454 78.07205533 91.75475163 82.15777559 92.1875 88.9375 C92.125625 89.618125 92.06375 90.29875 92 91 C80.87341787 91.09268518 69.7469276 91.1637576 58.62003803 91.20724869 C53.45334041 91.22812241 48.28690693 91.25643634 43.12036133 91.30175781 C38.13422741 91.34522292 33.14834755 91.36913873 28.1620388 91.37950897 C26.2598184 91.38689913 24.35761188 91.4013304 22.45549965 91.42292023 C19.79074699 91.45196313 17.1270437 91.45595565 14.4621582 91.45410156 C13.67597107 91.46848267 12.88978394 91.48286377 12.07977295 91.49768066 C8.37854672 91.46982024 6.20691459 91.12840721 3.03361511 89.15911865 C-0.66869727 85.22831991 -0.13714276 81.03733514 -0.11352539 75.94848633 C-0.11367142 75.12874832 -0.11381744 74.30901031 -0.1139679 73.46443176 C-0.11327096 70.75360472 -0.10548878 68.0428463 -0.09765625 65.33203125 C-0.09579129 63.45301857 -0.09436776 61.5740054 -0.09336853 59.69499207 C-0.08954948 54.74824685 -0.07972438 49.80153098 -0.06866455 44.85479736 C-0.0584373 39.80749915 -0.05386809 34.76019621 -0.04882812 29.71289062 C-0.03810159 19.80858086 -0.02103248 9.90429287 0 0 Z " fill="#DAD8DB" transform="translate(396,0)"/>
<path d="M0 0 C1.87075195 -0.00290039 1.87075195 -0.00290039 3.77929688 -0.00585938 C5.07544922 0.01798828 6.37160156 0.04183594 7.70703125 0.06640625 C8.98384766 0.05544922 10.26066406 0.04449219 11.57617188 0.03320312 C21.62115078 0.11067083 30.40291998 1.74704001 37.92578125 8.80859375 C47.84984746 20.14343407 49.5454071 32.83642239 48.73095703 47.34472656 C47.71607494 58.30920331 43.11607907 66.50078988 35.20703125 73.87890625 C27.05198255 80.25606602 19.50941384 81.30350082 9.24291992 81.20532227 C7.19224132 81.19130516 5.14600841 81.22579828 3.09570312 81.26367188 C1.79568359 81.26173828 0.49566406 81.25980469 -0.84375 81.2578125 C-2.02235596 81.2585376 -3.20096191 81.2592627 -4.4152832 81.26000977 C-7.48046875 80.62890625 -7.48046875 80.62890625 -9.63870239 78.52159119 C-11.89397079 74.97945844 -11.99263887 72.89352902 -12.01391602 68.71484375 C-12.02253159 68.03939514 -12.03114716 67.36394653 -12.0400238 66.66802979 C-12.06263571 64.44626 -12.05595532 62.22575637 -12.046875 60.00390625 C-12.05211245 58.45360948 -12.05838938 56.90331591 -12.06565857 55.35302734 C-12.07605362 52.1082456 -12.07151412 48.86390265 -12.05688477 45.61914062 C-12.03969002 41.4659489 -12.06320355 37.31413978 -12.09837437 33.16110229 C-12.12035916 29.96108883 -12.11890458 26.76140574 -12.11060905 23.56134033 C-12.10979026 22.03035973 -12.11664004 20.49935469 -12.13138008 18.96844482 C-12.14885009 16.82576041 -12.13426955 14.68555451 -12.11157227 12.54296875 C-12.1106105 11.32561035 -12.10964874 10.10825195 -12.10865784 8.85400391 C-10.78838187 2.07575986 -6.46130423 -0.00416411 0 0 Z " fill="#FEFDFE" transform="translate(163.48046875,347.37109375)"/>
<path d="M0 0 C1.80984375 0.00193359 1.80984375 0.00193359 3.65625 0.00390625 C4.90921875 0.03613281 6.1621875 0.06835938 7.453125 0.1015625 C8.690625 0.09511719 9.928125 0.08867187 11.203125 0.08203125 C20.9881951 0.19653739 28.85223336 2.11623022 36.12890625 8.91796875 C41.76300068 15.39088618 43.55366928 22.04513977 43.18359375 30.546875 C41.93577168 38.80481943 37.38823855 45.77511297 30.703125 50.7265625 C22.82944222 55.55977033 14.6307076 55.15508646 5.703125 54.7265625 C5.71883545 55.36682373 5.7345459 56.00708496 5.75073242 56.66674805 C5.81329615 59.58242881 5.85218308 62.49796805 5.890625 65.4140625 C5.91576172 66.42146484 5.94089844 67.42886719 5.96679688 68.46679688 C6.05985744 77.86591381 6.05985744 77.86591381 2.703125 81.7265625 C-0.38861252 83.27243126 -2.89117052 83.02015771 -6.296875 82.7265625 C-8.66184939 80.85947745 -9.95718215 79.40594819 -11.296875 76.7265625 C-11.41447856 74.54290942 -11.46671438 72.35564166 -11.48974609 70.16894531 C-11.49792358 69.49554108 -11.50610107 68.82213684 -11.51452637 68.12832642 C-11.53937659 65.89545581 -11.55589702 63.66264886 -11.5703125 61.4296875 C-11.57563618 60.66673119 -11.58095985 59.90377487 -11.58644485 59.11769867 C-11.61317735 55.07782496 -11.63255016 51.03798213 -11.64697266 46.99804688 C-11.66360332 42.8304424 -11.70836636 38.66363136 -11.7593441 34.49632645 C-11.79304813 31.28777183 -11.80455354 28.07940462 -11.81019974 24.87068939 C-11.81690569 23.33490702 -11.83211094 21.79913671 -11.85609055 20.26352692 C-11.8878106 18.10895272 -11.88777014 15.95650543 -11.88037109 13.80175781 C-11.88845795 12.57757141 -11.8965448 11.35338501 -11.90487671 10.09210205 C-10.69655825 3.40356238 -6.91818275 -0.03785459 0 0 Z " fill="#FEFBFC" transform="translate(93.296875,346.2734375)"/>
<path d="M0 0 C1.24128662 0.00749268 2.48257324 0.01498535 3.76147461 0.02270508 C6.09350952 0.0636731 6.09350952 0.0636731 8.47265625 0.10546875 C13.44328125 0.16734375 18.41390625 0.22921875 23.53515625 0.29296875 C23.53515625 16.79296875 23.53515625 33.29296875 23.53515625 50.29296875 C18.79140625 50.39609375 14.04765625 50.49921875 9.16015625 50.60546875 C7.68498535 50.65098877 6.20981445 50.69650879 4.68994141 50.7434082 C-4.36911088 50.83821935 -11.38708427 49.77693922 -18.33129883 43.64477539 C-23.11995665 38.75846893 -26.23430066 32.33028426 -26.625 25.48828125 C-26.17677899 17.5952185 -24.03860344 11.3773091 -18.15234375 5.98046875 C-12.64502996 1.32658858 -7.07709713 -0.08809664 0 0 Z " fill="#BD4150" transform="translate(50.46484375,263.70703125)"/>
<path d="M0 0 C1.0370105 -0.00361794 1.0370105 -0.00361794 2.0949707 -0.00730896 C3.55067708 -0.00633331 5.00642186 0.00699336 6.46191406 0.03198242 C8.6816291 0.06631544 10.8973626 0.05262782 13.1171875 0.03320312 C14.53647516 0.04010211 15.95575262 0.04977499 17.375 0.0625 C18.65761719 0.07337646 19.94023437 0.08425293 21.26171875 0.09545898 C25.24343102 0.71547333 26.90599001 1.75500119 29.6875 4.62890625 C30.75 8.06640625 30.75 8.06640625 30.6875 11.62890625 C28.92108828 14.43080071 27.65700178 16.14415536 24.6875 17.62890625 C23.09302536 17.71291154 21.49509455 17.73618092 19.8984375 17.7265625 C18.95742188 17.72333984 18.01640625 17.72011719 17.046875 17.71679688 C15.56960937 17.70422852 15.56960937 17.70422852 14.0625 17.69140625 C13.06992188 17.68689453 12.07734375 17.68238281 11.0546875 17.67773438 C8.59893278 17.66592786 6.14320894 17.64799207 3.6875 17.62890625 C3.6875 22.57890625 3.6875 27.52890625 3.6875 32.62890625 C5.65783203 32.55929687 5.65783203 32.55929687 7.66796875 32.48828125 C9.40362304 32.45075359 11.13930199 32.4143545 12.875 32.37890625 C13.73931641 32.34539062 14.60363281 32.311875 15.49414062 32.27734375 C19.68719731 32.21308234 22.05579832 32.25555436 25.734375 34.4296875 C28.45847433 37.49702335 28.75888545 39.55993537 28.6875 43.62890625 C26.92108828 46.43080071 25.65700178 48.14415536 22.6875 49.62890625 C21.23901418 49.71232784 19.78679131 49.73623486 18.3359375 49.7265625 C17.48515625 49.72333984 16.634375 49.72011719 15.7578125 49.71679688 C14.86835938 49.70841797 13.97890625 49.70003906 13.0625 49.69140625 C11.71671875 49.68463867 11.71671875 49.68463867 10.34375 49.67773438 C8.12493352 49.66593216 5.90624982 49.6494678 3.6875 49.62890625 C3.71368408 50.45092529 3.73986816 51.27294434 3.7668457 52.11987305 C3.8709144 55.85185563 3.93586128 59.58353285 4 63.31640625 C4.04189453 64.60998047 4.08378906 65.90355469 4.12695312 67.23632812 C4.14306641 68.48349609 4.15917969 69.73066406 4.17578125 71.015625 C4.20196533 72.16248779 4.22814941 73.30935059 4.25512695 74.4909668 C3.51182756 78.6000537 1.9026761 80.05658811 -1.3125 82.62890625 C-4.3125 83.25390625 -4.3125 83.25390625 -7.3125 82.62890625 C-10.61989715 80.01071699 -12.1408197 78.52149525 -12.94741821 74.32788086 C-12.95139618 73.07499268 -12.95537415 71.82210449 -12.95947266 70.53125 C-12.96823425 69.83629425 -12.97699585 69.1413385 -12.98602295 68.42532349 C-13.00794945 66.13837413 -12.993491 63.85337369 -12.9765625 61.56640625 C-12.97993265 59.97126903 -12.98478692 58.37613431 -12.99105835 56.78100586 C-12.99842043 53.44197073 -12.98774651 50.10360553 -12.96435547 46.76464844 C-12.93586698 42.49035825 -12.95227468 38.21763778 -12.98221779 33.94340515 C-13.00030939 30.65071849 -12.99452444 27.35840234 -12.98157883 24.06570435 C-12.97824991 22.49007988 -12.98231386 20.91442148 -12.99397659 19.33883667 C-13.00671745 17.13384271 -12.98726957 14.93136925 -12.95947266 12.7265625 C-12.95549469 11.47367432 -12.95151672 10.22078613 -12.94741821 8.92993164 C-11.53827511 1.60360668 -6.84227331 -0.00386812 0 0 Z " fill="#FEFCFC" transform="translate(240.3125,346.37109375)"/>
<path d="M0 0 C14 0 14 0 20 3 C26.16256381 9.16256381 28.15684065 15.24940254 28.4375 23.875 C28.25232371 31.0814439 27.22787573 37.41265629 22.28125 42.91015625 C14.9440131 49.48568847 11.38211686 48 0 48 C0 32.16 0 16.32 0 0 Z " fill="#E1647C" transform="translate(168,364)"/>
<path d="M0 0 C0.66 0 1.32 0 2 0 C3.23551506 1.68066386 4.38646829 3.42364751 5.5 5.1875 C12.30245565 15.64997255 20.16066342 25.29936842 28 35 C25.00213556 37.99786444 21.36089346 37.80202024 17.3125 38.3125 C5.72975443 39.89478961 -5.61185272 42.38853727 -17 45 C-17.33 44.34 -17.66 43.68 -18 43 C-17.09130859 40.42480469 -17.09130859 40.42480469 -15.6484375 37.171875 C-15.12636719 35.97820312 -14.60429687 34.78453125 -14.06640625 33.5546875 C-13.50323938 32.28617613 -12.93943492 31.01794764 -12.375 29.75 C-11.29345955 27.30989975 -10.21761882 24.86741655 -9.1484375 22.421875 C-8.88351501 21.81670044 -8.61859253 21.21152588 -8.34564209 20.5880127 C-5.94672418 15.02997065 -3.92579373 9.3677021 -1.96728516 3.64160156 C-1 1 -1 1 0 0 Z " fill="#EBE7E9" transform="translate(275,165)"/>
<path d="M0 0 C13.36633663 -0.44554455 13.36633663 -0.44554455 18 3 C20.61273686 6.03414603 21.00942592 7.47214842 20.9375 11.5 C19.91988128 15.2991099 18.76506348 17.23493652 16 20 C10.83608171 21.7213061 5.40708764 21.05353552 0 21 C0 14.07 0 7.14 0 0 Z " fill="#E1627B" transform="translate(99,363)"/>
<path d="M0 0 C0.66 0.33 1.32 0.66 2 1 C-13.01655099 21.43068162 -13.01655099 21.43068162 -20 25 C-22.29971238 24.81353683 -23.37457684 24.62542316 -25 23 C-25.07163139 19.41843067 -24.89601564 17.18382673 -22.7109375 14.296875 C-18.2236377 10.06655712 -12.94635641 7.05077653 -7.625 4 C-6.91077881 3.58959473 -6.19655762 3.17918945 -5.46069336 2.75634766 C-3.67621747 1.76991544 -1.84106213 0.87629502 0 0 Z " fill="#EBE3E6" transform="translate(220,238)"/>
<path d="M0 0 C9.0096623 -0.30831544 17.70379581 0.12843804 26 4 C25.25 8.75 25.25 8.75 23 11 C15.65535455 11.78356815 8.75454523 8.00830022 3.11328125 3.48828125 C1.75 2.125 1.75 2.125 0 0 Z " fill="#EBE3E6" transform="translate(342,215)"/>
<path d="M0 0 C2.4375 0.1875 2.4375 0.1875 3.4375 1.1875 C3.56637928 3.84600974 3.62724811 6.4657674 3.625 9.125 C3.6259668 10.27730103 3.6259668 10.27730103 3.62695312 11.45288086 C3.57364973 17.21025313 2.97000345 22.61849193 1.4375 28.1875 C-3.60786711 23.14213289 -4.82806415 13.89445846 -4.9375 7 C-4.87676221 2.85160894 -4.73501326 0.34646439 0 0 Z " fill="#EBE5E8" transform="translate(269.5625,92.8125)"/>
</svg>
