<?xml version="1.0" encoding="UTF-8"?>
<svg version="1.1" xmlns="http://www.w3.org/2000/svg" width="512" height="512">
<path d="M0 0 C1.0640919 -0.00445784 2.12818381 -0.00891569 3.22452092 -0.01350862 C4.98435972 -0.01323207 4.98435972 -0.01323207 6.77975082 -0.01294994 C8.02285861 -0.01662663 9.26596639 -0.02030332 10.54674411 -0.02409142 C14.00394507 -0.03322149 17.46109855 -0.03782865 20.91830707 -0.04048073 C24.64440191 -0.04438292 28.370483 -0.05396128 32.09656906 -0.0626936 C41.09802178 -0.08245975 50.09947564 -0.09252412 59.10094464 -0.10142139 C63.33885911 -0.10580378 67.57677234 -0.11117069 71.81468582 -0.11641026 C85.90045665 -0.1334222 99.9862267 -0.14791692 114.07200623 -0.155159 C117.72765987 -0.15706892 121.38331351 -0.15898925 125.03896713 -0.16094494 C126.40187437 -0.16167055 126.40187437 -0.16167055 127.7923151 -0.16241082 C142.5149483 -0.1707132 157.23750032 -0.19605376 171.96009806 -0.22852562 C187.07188431 -0.26158444 202.18362927 -0.27960667 217.29545188 -0.28280324 C225.78166599 -0.28496936 234.26776168 -0.29373295 242.75394058 -0.31926441 C249.98030914 -0.3409553 257.20653051 -0.34902978 264.43292794 -0.33929763 C268.11991621 -0.33474829 271.80660069 -0.33667558 275.49354744 -0.35605907 C279.49142542 -0.37689573 283.48862764 -0.36672056 287.48653793 -0.35352612 C288.65084091 -0.36449536 289.8151439 -0.37546461 291.01472878 -0.38676625 C300.03797904 -0.31470865 304.93257861 1.81343097 311.39785385 8.25677967 C312.20849289 9.05796223 313.01913193 9.85914478 313.85433578 10.6846056 C314.70562057 11.54196308 315.55690536 12.39932056 316.43398666 13.28265858 C317.77351395 14.61788059 317.77351395 14.61788059 319.14010239 15.98007679 C321.01969663 17.85763564 322.89599302 19.73790067 324.76748276 21.62347889 C327.15679622 24.02990763 329.55936296 26.42258016 331.96619415 28.81147289 C334.27527893 31.10706515 336.57285468 33.41410695 338.87148666 35.72015858 C339.73086838 36.5734676 340.59025009 37.42677662 341.47567368 38.30594349 C342.27370407 39.11343037 343.07173447 39.92091724 343.8939476 40.75287342 C344.59453293 41.45584553 345.29511826 42.15881763 346.01693344 42.88309193 C351.42144038 49.38848428 351.31669074 55.26940158 351.27479172 63.38762379 C351.28287002 65.25613037 351.28287002 65.25613037 351.29111153 67.16238457 C351.30293572 70.61296171 351.30132317 74.06305539 351.29394472 77.51361334 C351.28921413 81.23762574 351.3017219 84.96158636 351.31196213 88.68558216 C351.32915752 95.97836324 351.32998863 103.27105818 351.32474922 110.56385427 C351.32070774 116.49138739 351.32215082 122.41889506 351.32749748 128.34642696 C351.3282459 129.19007814 351.32899433 130.03372932 351.32976543 130.90294569 C351.3312969 132.61682137 351.33283525 134.33069705 351.3343804 136.04457272 C351.34810806 152.11659906 351.34266583 168.18857672 351.33119518 184.26060195 C351.32126204 198.96365438 351.33420438 213.66658098 351.35812937 228.369614 C351.38251246 243.46794654 351.39213022 258.56622046 351.38547665 273.6645723 C351.38198273 282.14066735 351.38422791 290.61666561 351.40172768 299.09274578 C351.41643975 306.30807891 351.41709815 313.52324709 351.39965677 320.73857694 C351.39113619 324.41949851 351.3890227 328.1001253 351.40430832 331.78103161 C351.42067715 335.77220564 351.40602731 339.76266659 351.38831711 343.75383472 C351.39792211 344.91609135 351.40752712 346.07834797 351.41742319 347.27582449 C351.34801283 354.86217061 350.33788506 359.40887001 345.07070541 365.09515858 C344.49449448 365.5617992 343.91828354 366.02843983 343.32461166 366.50922108 C342.45642807 367.23238514 342.45642807 367.23238514 341.57070541 367.97015858 C338.20228483 370.29913615 335.15699277 370.26159113 331.19638062 370.26844215 C330.00340307 370.2729 328.81042553 370.27735784 327.58129716 370.28195077 C326.2641062 370.28176641 324.94691525 370.28158205 323.58980942 370.2813921 C322.18152634 370.28469083 320.77324421 370.28841641 319.36496329 370.29253358 C315.48591596 370.30256057 311.6068841 370.30627149 307.72782564 370.30892289 C303.54773964 370.31282383 299.36766591 370.32240226 295.18758774 370.33113575 C285.08860903 370.35090538 274.98962931 370.36096668 264.89063609 370.36986354 C260.13669114 370.37424534 255.38274731 370.3796124 250.62880325 370.38485241 C234.82907594 370.40186465 219.02934932 370.41635957 203.22961426 370.42360115 C199.12879307 370.42551109 195.02797189 370.42743142 190.92715073 370.42938709 C189.90789315 370.42987083 188.88863558 370.43035457 187.83849141 370.43085297 C171.32140134 370.43915606 154.80438363 370.46449771 138.28732517 370.49696777 C121.33587891 370.53002057 104.38446945 370.54804827 87.43299079 370.55124539 C77.91279219 370.55341206 68.39269912 370.56218373 58.87253189 370.58770657 C50.76599048 370.60938921 42.65958024 370.61747599 34.55301312 370.60773978 C30.41642821 370.60318809 26.28011408 370.60513161 22.14356613 370.62450123 C18.35596577 370.64208384 14.56883471 370.64117546 10.7812297 370.62560394 C8.76343199 370.62209199 6.74562964 370.63829064 4.72789979 370.65520841 C-3.29772268 370.59798179 -8.06533825 369.88344576 -14.07382584 364.31781483 C-14.54046646 363.74160389 -15.00710709 363.16539295 -15.48788834 362.57172108 C-15.96999771 361.99293201 -16.45210709 361.41414295 -16.94882584 360.81781483 C-19.27780341 357.44939424 -19.24025839 354.40410218 -19.24710941 350.44349003 C-19.25156726 349.25051249 -19.2560251 348.05753495 -19.26061803 346.82840657 C-19.26043367 345.51121562 -19.26024931 344.19402466 -19.26005936 342.83691883 C-19.26335809 341.42863576 -19.26708367 340.02035363 -19.27120084 338.61207271 C-19.28122783 334.73302537 -19.28493875 330.85399351 -19.28759015 326.97493505 C-19.29149109 322.79484905 -19.30106952 318.61477533 -19.30980301 314.43469715 C-19.32957264 304.33571844 -19.33963394 294.23673872 -19.3485308 284.1377455 C-19.3529126 279.38380055 -19.35827966 274.62985673 -19.36351967 269.87591267 C-19.38053191 254.07618535 -19.39502683 238.27645874 -19.40226841 222.47672367 C-19.40417835 218.37590248 -19.40609868 214.2750813 -19.40805435 210.17426014 C-19.40853809 209.15500257 -19.40902183 208.13574499 -19.40952023 207.08560082 C-19.41782332 190.56851076 -19.44316497 174.05149305 -19.47563503 157.53443459 C-19.50868783 140.58298833 -19.52671553 123.63157886 -19.52991265 106.6801002 C-19.53207932 97.1599016 -19.54085099 87.63980854 -19.56637383 78.1196413 C-19.58805647 70.01309989 -19.59614324 61.90668965 -19.58640704 53.80012253 C-19.58185534 49.66353762 -19.58379887 45.5272235 -19.60316849 41.39067554 C-19.6207511 37.60307518 -19.61984272 33.81594412 -19.6042712 30.02833912 C-19.60075925 28.01054141 -19.6169579 25.99273905 -19.63387567 23.9750092 C-19.57664905 15.94938674 -18.86211301 11.18177116 -13.29648209 5.17328358 C-12.72027115 4.70664295 -12.14406021 4.24000233 -11.55038834 3.75922108 C-10.68220474 3.03605701 -10.68220474 3.03605701 -9.79648209 2.29828358 C-6.59988037 0.0881042 -3.75851398 0.00729436 0 0 Z " fill="#468BF6" transform="translate(90.11288833618164,70.86577892303467)"/>
<path d="M0 0 C1.40994201 -0.00701996 1.40994201 -0.00701996 2.84836769 -0.01418173 C5.99980377 -0.02615314 9.15080673 -0.01666596 12.30224609 -0.00723267 C14.56085464 -0.0112974 16.81946119 -0.01663873 19.07806396 -0.02316284 C25.21432102 -0.03685379 31.35042697 -0.03153037 37.48668671 -0.02202559 C43.90388908 -0.01443825 50.32107838 -0.02147202 56.73828125 -0.02618408 C68.20610332 -0.03199422 79.67384158 -0.02266243 91.14164948 -0.00740607 C101.53831475 0.0059971 111.93487952 0.003669 122.33154297 -0.01016235 C134.4063868 -0.02621879 146.48115472 -0.03219195 158.55601311 -0.02332556 C164.94729908 -0.01864484 171.33851582 -0.01803522 177.72979736 -0.02793503 C183.73802848 -0.03659118 189.74606954 -0.03060734 195.75428009 -0.01325226 C197.96138442 -0.00928021 200.1685047 -0.01043368 202.37560272 -0.01704025 C205.38440796 -0.02521728 208.39260112 -0.01498034 211.40136719 0 C212.71678214 -0.01003825 212.71678214 -0.01003825 214.05877113 -0.02027929 C220.26376771 0.039795 223.46706332 1.18708921 227.98311996 5.62275982 C230.17459166 9.14198766 230.19375938 11.37922486 230.18170166 15.51200867 C230.18512573 16.21695465 230.1885498 16.92190063 230.19207764 17.64820862 C230.19868518 20.01176731 230.17662981 22.37418576 230.15478516 24.73764038 C230.15355955 26.46036588 230.15409424 28.18309339 230.15624619 29.90581799 C230.15714893 34.51767235 230.13397242 39.12911125 230.10580444 43.74086761 C230.08301807 48.06894739 230.08195164 52.39692632 230.07910156 56.72506714 C230.05811545 69.38125006 230.00227078 82.03735574 229.95068359 94.69345093 C229.86818359 122.97032593 229.78568359 151.24720093 229.70068359 180.38095093 C147.86068359 180.38095093 66.02068359 180.38095093 -18.29931641 180.38095093 C-18.38181641 152.28970093 -18.46431641 124.19845093 -18.54931641 95.25595093 C-18.58573242 86.38317261 -18.62214844 77.51039429 -18.65966797 68.3687439 C-18.67773438 57.54135132 -18.67773438 57.54135132 -18.68109131 52.47399902 C-18.68482083 48.93166095 -18.69982196 45.38956219 -18.72161865 41.84729004 C-18.7490548 37.32867005 -18.75728123 32.81039807 -18.75160551 28.29170251 C-18.75279233 26.63350295 -18.7607248 24.97529122 -18.77617693 23.31716323 C-18.79609397 21.0757693 -18.79127147 18.83572468 -18.78033447 16.59429932 C-18.78402164 15.33881727 -18.78770882 14.08333523 -18.79150772 12.78980827 C-18.06408154 7.75174274 -15.96504314 4.80274545 -12.13052368 1.52976036 C-8.05992389 -0.1219532 -4.35448659 -0.03323013 0 0 Z " fill="#F1F2F2" transform="translate(150.29931640625,260.6190490722656)"/>
<path d="M0 0 C64.68 0 129.36 0 196 0 C196.061875 20.33625 196.12375 40.6725 196.1875 61.625 C196.21481201 68.04404785 196.24212402 74.4630957 196.27026367 81.07666016 C196.28381348 88.9206543 196.28381348 88.9206543 196.28633118 92.59384155 C196.29214419 95.83001969 196.30905696 99.0659537 196.32944983 102.30206645 C196.34549267 105.51338289 196.3415204 108.72468564 196.34057617 111.93603516 C196.3513705 113.07612345 196.36216482 114.21621174 196.37328625 115.39084816 C196.35123684 120.99023443 196.27076791 125.21770501 193 130 C188.10941197 134.52379393 184.65175972 135.12506572 178.11186218 135.14044189 C177.05468553 135.14489858 177.05468553 135.14489858 175.97615176 135.1494453 C173.60868232 135.15813403 171.24126343 135.15964069 168.8737793 135.16113281 C167.17865897 135.16576086 165.48353969 135.1707855 163.78842163 135.17617798 C159.17883969 135.18930521 154.56927231 135.19574756 149.9596746 135.20018864 C147.08028514 135.20311883 144.20089967 135.20722353 141.32151222 135.21169281 C132.31401039 135.22536856 123.30651766 135.23503485 114.29900616 135.2388947 C103.89847577 135.24337586 93.49807677 135.26092614 83.09758633 135.2898953 C75.06012855 135.31150603 67.02270774 135.32159866 58.98522121 135.32293582 C54.18395585 135.32398428 49.382814 135.32990081 44.58157921 135.34775543 C40.06472564 135.36422559 35.54808855 135.36639676 31.03121567 135.35761642 C29.37440601 135.35684548 27.71758476 135.36119628 26.06080437 135.37107468 C23.79664138 135.38378163 21.53324657 135.37792473 19.26908875 135.36749268 C18.00275447 135.36895924 16.73642019 135.3704258 15.43171215 135.3719368 C11.01929254 134.89370869 7.64930159 133.50435109 4.35546875 130.5 C0.99380508 126.18267943 -0.12576383 123.37432202 -0.12025452 117.96968079 C-0.12163201 116.93277509 -0.12300951 115.89586939 -0.12442875 114.8275423 C-0.12083064 113.68602805 -0.11723253 112.5445138 -0.11352539 111.3684082 C-0.11364593 110.14884776 -0.11376646 108.92928732 -0.11389065 107.6727705 C-0.11339383 105.04379454 -0.11110815 102.41489715 -0.10557556 99.78593445 C-0.09808832 96.01820969 -0.09547174 92.25051947 -0.09460449 88.48278809 C-0.08935617 79.42602059 -0.07539503 70.36925984 -0.0625 61.3125 C-0.0315625 30.9628125 -0.0315625 30.9628125 0 0 Z " fill="#E5E6E7" transform="translate(184,71)"/>
<path d="M0 0 C29.21551249 -0.06842431 58.4310193 -0.12152206 87.64659552 -0.15319599 C91.09504493 -0.15694815 94.54349418 -0.16083111 97.99194336 -0.16479492 C99.02173813 -0.16597532 99.02173813 -0.16597532 100.07233683 -0.16717956 C111.1914092 -0.18023674 122.31043508 -0.20389229 133.42947986 -0.23145839 C144.83697995 -0.25950394 156.24444229 -0.27594987 167.65197784 -0.28226548 C174.06012745 -0.28618184 180.4681716 -0.29540805 186.87628746 -0.31719017 C192.90494089 -0.33751687 198.93344515 -0.34384149 204.96212959 -0.33932304 C207.17730392 -0.34014995 209.39248312 -0.34613818 211.60762787 -0.35761642 C214.62761578 -0.3725006 217.64703747 -0.3689683 220.66703796 -0.36076355 C221.54739186 -0.36950207 222.42774577 -0.3782406 223.33477706 -0.38724393 C229.55539282 -0.34143579 232.75498634 0.79494769 237.28243637 5.24180889 C239.47390807 8.76103673 239.49307579 10.99827393 239.48101807 15.13105774 C239.48444214 15.83600372 239.48786621 16.54094971 239.49139404 17.26725769 C239.49800158 19.63081639 239.47594622 21.99323483 239.45410156 24.35668945 C239.45287596 26.07941495 239.45341065 27.80214246 239.45556259 29.52486706 C239.45646534 34.13672142 239.43328883 38.74816032 239.40512085 43.35991669 C239.38233448 47.68799646 239.38126805 52.01597539 239.37841797 56.34411621 C239.35743186 69.00029913 239.30158719 81.65640482 239.25 94.3125 C239.1675 122.589375 239.085 150.86625 239 180 C157.16 180 75.32 180 -9 180 C-9 173.4 -9 166.8 -9 160 C66.24 160 141.48 160 219 160 C219 107.53 219 55.06 219 1 C146.73 1 74.46 1 0 1 C0 0.67 0 0.34 0 0 Z " fill="#E3E5E8" transform="translate(141,261)"/>
<path d="M0 0 C4.82317044 3.92583641 9.31362549 8.14757525 13.75 12.5 C14.31678467 13.04551514 14.88356934 13.59103027 15.4675293 14.15307617 C16.00933838 14.69037354 16.55114746 15.2276709 17.109375 15.78125 C17.83592285 16.4937793 17.83592285 16.4937793 18.57714844 17.22070312 C23.63816587 23.54958011 23.42776246 29.48716345 23.38768005 37.25340271 C23.39306559 38.49907377 23.39845113 39.74474483 23.40399987 41.02816349 C23.41582406 44.47874063 23.4142115 47.92883431 23.40683305 51.37939227 C23.40210247 55.10340466 23.41461024 58.82736528 23.42485046 62.55136108 C23.44204585 69.84414216 23.44287697 77.13683711 23.43763756 84.42963319 C23.43359608 90.35716632 23.43503916 96.28467398 23.44038582 102.21220589 C23.44113424 103.05585707 23.44188266 103.89950824 23.44265376 104.76872461 C23.44418524 106.48260029 23.44572359 108.19647597 23.44726873 109.91035164 C23.4609964 125.98237798 23.45555417 142.05435564 23.44408352 158.12638087 C23.43415038 172.8294333 23.44709272 187.5323599 23.47101771 202.23539292 C23.49540079 217.33372546 23.50501856 232.43199938 23.49836498 247.53035122 C23.49487106 256.00644627 23.49711624 264.48244454 23.51461601 272.9585247 C23.52932809 280.17385783 23.52998649 287.38902601 23.5125451 294.60435586 C23.50402453 298.28527744 23.50191103 301.96590423 23.51719666 305.64681053 C23.53356548 309.63798457 23.51891564 313.62844551 23.50120544 317.61961365 C23.51081045 318.78187027 23.52041546 319.94412689 23.53031152 321.14160341 C23.46090117 328.72794953 22.4507734 333.27464893 17.18359375 338.9609375 C16.60738281 339.42757813 16.03117187 339.89421875 15.4375 340.375 C14.56931641 341.09816406 14.56931641 341.09816406 13.68359375 341.8359375 C10.6257692 343.95016422 7.9409213 344.12316601 4.3449707 344.11352539 C3.40422195 344.11344986 2.46347321 344.11337433 1.49421692 344.11329651 C0.48163315 344.10813522 -0.53095062 344.10297394 -1.57421875 344.09765625 C-3.13267265 344.09553383 -3.13267265 344.09553383 -4.72261047 344.09336853 C-8.04426948 344.08776656 -11.36586133 344.07521372 -14.6875 344.0625 C-16.93815007 344.05748525 -19.18880119 344.0529223 -21.43945312 344.04882812 C-26.95966133 344.03779648 -32.47981928 344.02053051 -38 344 C-38 337.4 -38 330.8 -38 324 C-36.288125 323.97421875 -34.57625 323.9484375 -32.8125 323.921875 C-30.54164192 323.86557273 -28.27080957 323.80822589 -26 323.75 C-24.87464844 323.73582031 -23.74929688 323.72164063 -22.58984375 323.70703125 C-15.20969008 323.49123728 -9.07550116 322.89031081 -3.48486328 317.55371094 C-1.17028226 314.90918785 0.49294578 312.14987908 2 309 C1.25838623 309.01571045 0.51677246 309.0314209 -0.24731445 309.04760742 C-3.60229896 309.10990714 -6.95716186 309.14897507 -10.3125 309.1875 C-12.06336914 309.22520508 -12.06336914 309.22520508 -13.84960938 309.26367188 C-14.96787109 309.27333984 -16.08613281 309.28300781 -17.23828125 309.29296875 C-18.26993408 309.3086792 -19.30158691 309.32438965 -20.36450195 309.34057617 C-23 309 -23 309 -24.83740234 307.72802734 C-26.90384867 304.65656428 -26.38660606 301.00941222 -26.3125 297.4375 C-26.31572266 296.65697266 -26.31894531 295.87644531 -26.32226562 295.07226562 C-26.26716981 289.26716981 -26.26716981 289.26716981 -24 287 C-21.29443359 286.77294922 -21.29443359 286.77294922 -17.8984375 286.8046875 C-16.68671875 286.81113281 -15.475 286.81757813 -14.2265625 286.82421875 C-12.95554687 286.84097656 -11.68453125 286.85773438 -10.375 286.875 C-9.09625 286.88402344 -7.8175 286.89304687 -6.5 286.90234375 C-3.33314833 286.92597697 -0.16666576 286.95892371 3 287 C2.91824848 251.30435599 2.82608805 215.60875405 2.71994839 179.91317403 C2.70742937 175.69992874 2.69499662 171.4866832 2.68261719 167.2734375 C2.68015119 166.43464861 2.6776852 165.59585972 2.67514448 164.73165299 C2.63541009 151.14631189 2.60266575 137.56096246 2.57250018 123.97559713 C2.54139701 110.03797017 2.50279247 96.10037858 2.45720994 82.16279137 C2.42931516 73.56108995 2.40728641 64.95941443 2.39273749 56.35767992 C2.3822034 50.4608563 2.36438945 44.5640828 2.34083296 38.66729693 C2.32745337 35.26409163 2.31730077 31.86095664 2.31578636 28.45772362 C2.31247147 24.76817548 2.29701443 21.07887221 2.2784729 17.38937378 C2.28040763 16.31349436 2.28234237 15.23761493 2.28433573 14.12913311 C2.2458772 9.02512163 2.04993179 4.77366392 0 0 Z " fill="#377DE2" transform="translate(418,97)"/>
<path d="M0 0 C17.16 0 34.32 0 52 0 C52.01458252 3.69461426 52.02916504 7.38922852 52.04418945 11.19580078 C52.09450766 23.39754026 52.16094765 35.5991418 52.23571491 47.80075264 C52.28065578 55.19918518 52.32007433 62.59756976 52.34643555 69.99609375 C52.36942954 76.44562519 52.40284308 82.89500466 52.44870156 89.34441555 C52.4726151 92.75847359 52.49135603 96.1723813 52.49761391 99.58652115 C52.50722531 103.40051949 52.5352509 107.21396849 52.56762695 111.02783203 C52.56619186 112.15640121 52.56475677 113.2849704 52.5632782 114.44773865 C52.63019516 120.01531023 52.75445917 124.24563096 56 129 C58.47661498 131.24850483 58.47661498 131.24850483 61 133 C61.99 133.99 61.99 133.99 63 135 C55.74107656 135.12718459 48.48244239 135.21451284 41.22265625 135.2746582 C38.7550991 135.29974158 36.2876158 135.33381647 33.8203125 135.37719727 C30.26543922 135.43811747 26.7115516 135.46627287 23.15625 135.48828125 C21.51203064 135.52699089 21.51203064 135.52699089 19.83459473 135.56648254 C13.85039446 135.56865459 9.66572436 134.95645566 4.61560059 131.66252136 C-0.96183854 125.92310051 -0.41166427 119.43592882 -0.34057617 111.93603516 C-0.34101425 110.72571625 -0.34145233 109.51539734 -0.34190369 108.2684021 C-0.34017613 104.96285512 -0.32516796 101.65787553 -0.30418181 98.35242891 C-0.28538271 94.893122 -0.28366204 91.4338069 -0.28010559 87.97445679 C-0.27079458 81.4297134 -0.24619371 74.88512098 -0.21605712 68.34044397 C-0.18248361 60.8870218 -0.16601971 53.43359228 -0.15097082 45.98011327 C-0.11964318 30.65330662 -0.06464308 15.32670784 0 0 Z " fill="#2266D3" transform="translate(132,71)"/>
<path d="M0 0 C4.82382991 1.92953196 7.46388914 3.56072503 10 8 C10.61523914 11.42447472 10.61523914 11.42447472 10.60127258 15.25131226 C10.60555267 15.95711426 10.60983276 16.66291626 10.61424255 17.3901062 C10.62248619 19.75079481 10.59496209 22.10968977 10.56762695 24.47021484 C10.56609457 26.19306189 10.56676396 27.91591208 10.56945324 29.63875771 C10.57058061 34.24650564 10.54163306 38.85360243 10.50640106 43.4611969 C10.47789517 47.78705871 10.47658385 52.11276333 10.47302246 56.4387207 C10.44680107 69.08423315 10.37699509 81.72962483 10.3125 94.375 C10.209375 122.63125 10.10625 150.8875 10 180 C-71.84 180 -153.68 180 -238 180 C-238 176.7 -238 173.4 -238 170 C-159.46 170 -80.92 170 0 170 C0 113.9 0 57.8 0 0 Z " fill="#D1D3D4" transform="translate(370,261)"/>
<path d="M0 0 C1.17942421 -0.00361794 1.17942421 -0.00361794 2.38267517 -0.00730896 C4.04105688 -0.00633139 5.69947158 0.00704112 7.35766602 0.03198242 C9.89777148 0.0663444 12.43440735 0.05262777 14.97460938 0.03320312 C16.5872544 0.04010037 18.19989045 0.04977167 19.8125 0.0625 C20.57192398 0.05754013 21.33134796 0.05258026 22.11378479 0.04747009 C27.32472445 0.16409114 27.32472445 0.16409114 29.53845215 2.16163635 C31.35676903 5.60892962 31.2665686 8.83394132 31.24389648 12.63867188 C31.25075974 13.44237717 31.25762299 14.24608246 31.26469421 15.07414246 C31.28297995 17.72799395 31.27912267 20.38125535 31.2734375 23.03515625 C31.2779981 24.88073926 31.28330331 26.72632058 31.2893219 28.57189941 C31.29825621 32.43879092 31.29582583 36.30547592 31.28588867 40.17236328 C31.27439215 45.12919752 31.29461919 50.08532011 31.32380581 55.04206085 C31.342145 58.85276826 31.34188003 62.66330435 31.33616829 66.4740448 C31.33601483 68.30170185 31.34207955 70.12937034 31.35445976 71.95698547 C31.36932706 74.51149265 31.35872537 77.0646751 31.34155273 79.61914062 C31.3512207 80.37458664 31.36088867 81.13003265 31.37084961 81.90837097 C31.32245966 85.34341319 31.08731758 87.29084513 29.03370667 90.09617615 C25.82254397 92.33963708 22.71414368 92.22091506 18.93359375 92.1953125 C18.17187866 92.20151108 17.41016357 92.20770966 16.62536621 92.21409607 C15.01832352 92.22118548 13.41120726 92.21803543 11.80419922 92.20532227 C9.34725746 92.19144811 6.89412053 92.22554087 4.4375 92.26367188 C2.87369699 92.26462307 1.30988921 92.26276423 -0.25390625 92.2578125 C-1.35248962 92.27769981 -1.35248962 92.27769981 -2.4732666 92.29798889 C-5.97019122 92.23424127 -7.7588773 92.00298037 -10.35302734 89.58470154 C-12.60601098 85.89965261 -12.72411503 82.89569129 -12.67773438 78.70507812 C-12.68474365 77.92234024 -12.69175293 77.13960236 -12.69897461 76.33314514 C-12.71653238 73.75428444 -12.70494032 71.17652747 -12.69140625 68.59765625 C-12.69410182 66.80073842 -12.69798478 65.00382202 -12.70300293 63.20690918 C-12.70889495 59.44427579 -12.70034467 55.68202271 -12.68164062 51.91943359 C-12.65885111 47.10057045 -12.6719758 42.28259846 -12.69593048 37.46376801 C-12.71039653 33.75422471 -12.7057788 30.0448921 -12.69541931 26.33534241 C-12.69275425 24.55876052 -12.69601403 22.7821594 -12.70533752 21.00559998 C-12.71551664 18.52079734 -12.69998438 16.03743029 -12.67773438 13.55273438 C-12.6858313 12.82115616 -12.69392822 12.08957794 -12.70227051 11.33583069 C-12.64351274 7.78725491 -12.2205527 5.72806174 -10.35975647 2.67311096 C-7.18050506 -0.28153537 -4.12381966 -0.07218706 0 0 Z " fill="#397EE2" transform="translate(326.16015625,89.37109375)"/>
<path d="M0 0 C64.68 0 129.36 0 196 0 C196.061875 20.33625 196.12375 40.6725 196.1875 61.625 C196.21481201 68.04404785 196.24212402 74.4630957 196.27026367 81.07666016 C196.28381348 88.9206543 196.28381348 88.9206543 196.28633118 92.59384155 C196.29214419 95.83001969 196.30905696 99.0659537 196.32944983 102.30206645 C196.34549267 105.51338289 196.3415204 108.72468564 196.34057617 111.93603516 C196.3513705 113.07612345 196.36216482 114.21621174 196.37328625 115.39084816 C196.35123684 120.99023443 196.27076791 125.21770501 193 130 C188.10941197 134.52379393 184.65175972 135.12506572 178.11186218 135.14044189 C177.05468553 135.14489858 177.05468553 135.14489858 175.97615176 135.1494453 C173.60868232 135.15813403 171.24126343 135.15964069 168.8737793 135.16113281 C167.17865897 135.16576086 165.48353969 135.1707855 163.78842163 135.17617798 C159.17883969 135.18930521 154.56927231 135.19574756 149.9596746 135.20018864 C147.08028514 135.20311883 144.20089967 135.20722353 141.32151222 135.21169281 C132.31401039 135.22536856 123.30651766 135.23503485 114.29900616 135.2388947 C103.89847577 135.24337586 93.49807677 135.26092614 83.09758633 135.2898953 C75.06012855 135.31150603 67.02270774 135.32159866 58.98522121 135.32293582 C54.18395585 135.32398428 49.382814 135.32990081 44.58157921 135.34775543 C40.06472564 135.36422559 35.54808855 135.36639676 31.03121567 135.35761642 C29.37440601 135.35684548 27.71758476 135.36119628 26.06080437 135.37107468 C23.79664138 135.38378163 21.53324657 135.37792473 19.26908875 135.36749268 C18.00275447 135.36895924 16.73642019 135.3704258 15.43171215 135.3719368 C10.99426356 134.89099599 7.62767196 133.48761647 4.3203125 130.46484375 C1 126.22222222 1 126.22222222 1 124 C2.32633202 124.00553076 2.32633202 124.00553076 3.67945862 124.01117325 C25.20450165 124.09954931 46.72951337 124.16572184 68.25469971 124.20724869 C78.66416951 124.22786506 89.07351814 124.25596805 99.48291016 124.30175781 C108.55680454 124.3416538 117.63061114 124.36743954 126.7045908 124.37635398 C131.50825937 124.38156403 136.31167687 124.39379038 141.11526489 124.42292023 C145.63949944 124.45013293 150.16338021 124.45843317 154.68768883 124.45243073 C156.3452821 124.45352835 158.00288759 124.46144738 159.66040993 124.4768219 C171.49505902 124.80673338 171.49505902 124.80673338 182 120 C185.93272238 114.89893658 185.44086 109.11796758 185.43237305 102.94580078 C185.44264684 101.82500059 185.45292063 100.7042004 185.46350574 99.54943657 C185.4933296 95.93133994 185.50292587 92.31351494 185.51171875 88.6953125 C185.52718734 86.45759127 185.54398464 84.21987882 185.56213379 81.98217773 C185.62002477 73.69654868 185.65220793 65.41075613 185.6875 57.125 C185.8421875 29.343125 185.8421875 29.343125 186 1 C124.95 1 63.9 1 1 1 C1 41.26 1 81.52 1 123 C0.67 123 0.34 123 0 123 C0 82.41 0 41.82 0 0 Z " fill="#CBD0D5" transform="translate(184,71)"/>
<path d="M0 0 C6.38538827 -0.4819161 6.38538827 -0.4819161 8.9122467 1.49938965 C10.43028854 4.98918015 10.4263317 8.27101105 10.40405273 12.00976562 C10.41091599 12.81347092 10.41777924 13.61717621 10.42485046 14.44523621 C10.4431362 17.0990877 10.43927892 19.7523491 10.43359375 22.40625 C10.43815435 24.25183301 10.44345956 26.09741433 10.44947815 27.94299316 C10.45841246 31.80988467 10.45598208 35.67656967 10.44604492 39.54345703 C10.4345484 44.50029127 10.45477544 49.45641386 10.48396206 54.4131546 C10.50230125 58.22386201 10.50203628 62.0343981 10.49632454 65.84513855 C10.49617108 67.6727956 10.5022358 69.50046409 10.51461601 71.32807922 C10.52948331 73.8825864 10.51888162 76.43576885 10.50170898 78.99023438 C10.51137695 79.74568039 10.52104492 80.5011264 10.53100586 81.27946472 C10.48261791 84.71436518 10.24648871 86.66282873 8.19485474 89.46925354 C4.96898596 91.71905492 1.8501621 91.55400387 -1.94140625 91.49609375 C-3.08753639 91.4982766 -3.08753639 91.4982766 -4.25682068 91.50050354 C-5.8681114 91.49884707 -7.47941835 91.48731383 -9.09057617 91.46655273 C-11.557811 91.43755511 -14.02290184 91.44595572 -16.49023438 91.45898438 C-18.05730211 91.45274786 -19.62436307 91.44435759 -21.19140625 91.43359375 C-22.29773155 91.43799721 -22.29773155 91.43799721 -23.42640686 91.44248962 C-26.35741787 91.38842033 -28.48697963 91.33658446 -30.97631836 89.70336914 C-32.65123586 86.91636714 -32.17878007 84.15844793 -32 81 C-31.16750732 80.98541748 -30.33501465 80.97083496 -29.47729492 80.95581055 C-26.38510347 80.8947137 -23.29357918 80.82055444 -20.2019043 80.73754883 C-18.2070937 80.68798681 -16.21192743 80.65348867 -14.21679688 80.61914062 C-12.96318359 80.58369141 -11.70957031 80.54824219 -10.41796875 80.51171875 C-9.26063232 80.48553467 -8.1032959 80.45935059 -6.91088867 80.43237305 C-4.08821791 80.21706574 -4.08821791 80.21706574 -2.34509277 78.93603516 C-0.31018909 76.00713304 -0.5606603 73.03398281 -0.56762695 69.59106445 C-0.5574353 68.83960144 -0.54724365 68.08813843 -0.53674316 67.31390381 C-0.50655112 64.83028773 -0.497338 62.34705693 -0.48828125 59.86328125 C-0.47143912 58.14119682 -0.45328951 56.41912471 -0.43388367 54.69706726 C-0.38632674 50.16466118 -0.35655432 45.63230506 -0.33044434 41.09973145 C-0.30066745 36.47459033 -0.2541273 31.84962152 -0.20898438 27.22460938 C-0.12288657 18.14982961 -0.05557017 9.07501444 0 0 Z " fill="#2266D3" transform="translate(347,90)"/>
<path d="M0 0 C20.13 0 40.26 0 61 0 C61 6.6 61 13.2 61 20 C54.43469612 20.09914497 47.86983155 20.17160022 41.30395508 20.21972656 C39.07210698 20.23979685 36.84031118 20.26705933 34.60864258 20.30175781 C31.39391143 20.35047672 28.17987773 20.37301516 24.96484375 20.390625 C23.47693581 20.42159271 23.47693581 20.42159271 21.95896912 20.45318604 C14.71723116 20.45551249 10.69446139 19.02474827 5.0390625 14.39453125 C4.57242188 13.87246094 4.10578125 13.35039062 3.625 12.8125 C3.14289063 12.30332031 2.66078125 11.79414063 2.1640625 11.26953125 C1 9 1 9 0 0 Z " fill="#377DE2" transform="translate(71,421)"/>
<path d="M0 0 C1.20269531 -0.00257813 2.40539062 -0.00515625 3.64453125 -0.0078125 C4.90652344 -0.00007813 6.16851562 0.00765625 7.46875 0.015625 C8.73074219 0.00789063 9.99273437 0.00015625 11.29296875 -0.0078125 C12.49566406 -0.00523437 13.69835937 -0.00265625 14.9375 0 C16.04544922 0.00225586 17.15339844 0.00451172 18.29492188 0.00683594 C20.96875 0.265625 20.96875 0.265625 22.96875 2.265625 C23.19427341 5.12127859 23.29303763 7.8481601 23.28125 10.703125 C23.29736328 11.47978516 23.31347656 12.25644531 23.33007812 13.05664062 C23.33495469 18.71833349 23.33495469 18.71833349 21.81542969 20.98925781 C19.18967686 22.80409597 17.23073685 22.63782015 14.05859375 22.62890625 C12.90423828 22.62826172 11.74988281 22.62761719 10.56054688 22.62695312 C9.35462891 22.61083984 8.14871094 22.59472656 6.90625 22.578125 C5.09157227 22.58295898 5.09157227 22.58295898 3.24023438 22.58789062 C-5.76435075 22.53252425 -5.76435075 22.53252425 -8.03125 20.265625 C-8.29003906 18.41796875 -8.29003906 18.41796875 -8.296875 16.203125 C-8.29945312 15.40648437 -8.30203125 14.60984375 -8.3046875 13.7890625 C-8.29695313 12.95632813 -8.28921875 12.12359375 -8.28125 11.265625 C-8.28898437 10.43289063 -8.29671875 9.60015625 -8.3046875 8.7421875 C-8.30210938 7.94554687 -8.29953125 7.14890625 -8.296875 6.328125 C-8.29461914 5.59722656 -8.29236328 4.86632812 -8.29003906 4.11328125 C-7.62370127 -0.64411915 -3.88626951 0.00791271 0 0 Z " fill="#2367D4" transform="translate(97.03125,383.734375)"/>
<path d="M0 0 C1.20269531 -0.00257813 2.40539062 -0.00515625 3.64453125 -0.0078125 C4.90652344 -0.00007813 6.16851562 0.00765625 7.46875 0.015625 C8.73074219 0.00789063 9.99273437 0.00015625 11.29296875 -0.0078125 C12.49566406 -0.00523437 13.69835937 -0.00265625 14.9375 0 C16.04544922 0.00225586 17.15339844 0.00451172 18.29492188 0.00683594 C20.96875 0.265625 20.96875 0.265625 22.96875 2.265625 C23.21166992 4.12915039 23.21166992 4.12915039 23.19921875 6.36328125 C23.19728516 7.16443359 23.19535156 7.96558594 23.19335938 8.79101562 C23.17499023 10.04688477 23.17499023 10.04688477 23.15625 11.328125 C23.15560547 12.16923828 23.15496094 13.01035156 23.15429688 13.87695312 C23.10898184 20.12539316 23.10898184 20.12539316 21.96875 21.265625 C19.82316173 21.35338105 17.67470579 21.37257719 15.52734375 21.36328125 C14.22216797 21.36005859 12.91699219 21.35683594 11.57226562 21.35351562 C10.1835931 21.34515901 8.79492123 21.33669405 7.40625 21.328125 C6.01367344 21.32311166 4.62109519 21.31854847 3.22851562 21.31445312 C-0.1914487 21.30261934 -3.61132844 21.2861338 -7.03125 21.265625 C-8.67301774 17.98208951 -8.21579039 14.37042862 -8.21875 10.765625 C-8.23099609 9.98058594 -8.24324219 9.19554687 -8.25585938 8.38671875 C-8.26111254 6.34498774 -8.1534518 4.30370249 -8.03125 2.265625 C-5.30890398 -0.45672102 -3.80362127 0.00774443 0 0 Z " fill="#2266D3" transform="translate(400.03125,383.734375)"/>
</svg>
