<?xml version="1.0" encoding="UTF-8"?>
<svg version="1.1" xmlns="http://www.w3.org/2000/svg" width="512" height="512">
<path d="M0 0 C0.84733704 0.00432037 1.69467407 0.00864075 2.56768799 0.01309204 C55.88717814 0.33006061 112.63066477 13.32941195 152.25 51.125 C166.88496811 66.36074676 176.0844438 83.94633516 181.0625 104.375 C181.43181641 105.80779297 181.43181641 105.80779297 181.80859375 107.26953125 C188.35087051 138.08591077 178.89029241 167.26631523 163.0625 193.375 C163.949375 194.035 164.83625 194.695 165.75 195.375 C171.32829627 200.04336142 174.79511142 206.23153709 176.0625 213.375 C176.76459924 222.2214504 176.35309957 229.51360539 172.0625 237.375 C171.711875 238.02082031 171.36125 238.66664063 171 239.33203125 C166.5776552 246.38014327 159.17249834 250.55809574 151.34765625 252.91796875 C147.53449847 253.68060031 143.93957249 253.5596225 140.0625 253.375 C139.7221875 255.23125 139.7221875 255.23125 139.375 257.125 C133.54782633 282.88512635 114.03688995 306.22644368 92.04833984 320.20800781 C85.98334982 323.77214014 79.50852094 326.581204 73.0625 329.375 C72.9375414 333.60667484 72.84753523 337.83733173 72.7878418 342.0703125 C72.76292145 343.50572448 72.72897125 344.94101257 72.68530273 346.37597656 C72.416886 355.43267301 72.84393633 362.60312678 78.0625 370.375 C78.61808594 371.26316406 79.17367187 372.15132813 79.74609375 373.06640625 C85.23951369 378.92686984 90.97892602 379.12160949 98.625 379.375 C102.10638669 379.43507641 105.58125521 379.4402139 109.0625 379.375 C109.02253906 378.40046875 108.98257812 377.4259375 108.94140625 376.421875 C108.99578028 352.32813685 125.09202704 328.04348315 141.0625 311.375 C141.75859375 310.61574219 142.4546875 309.85648437 143.171875 309.07421875 C156.84893719 294.62345414 175.97656776 284.53062788 195.0625 279.375 C196.196875 279.05660156 197.33125 278.73820312 198.5 278.41015625 C216.96828138 274.09160338 238.77581374 274.25139542 257.0625 279.375 C258.25617188 279.69210937 259.44984375 280.00921875 260.6796875 280.3359375 C291.90304319 289.64353402 316.42801251 311.45449708 331.8125 339.75 C335.81602017 347.39316162 338.80677758 355.02440408 341.0625 363.375 C341.38089844 364.509375 341.69929688 365.64375 342.02734375 366.8125 C349.43850261 398.50630377 342.94602545 431.92809569 326.0625 459.375 C316.68337476 473.82606454 303.8428596 486.55321469 289.0625 495.375 C288.43005371 495.75495117 287.79760742 496.13490234 287.14599609 496.52636719 C267.51212197 508.10152603 247.44892006 512.6923675 224.753479 512.64242554 C223.1277752 512.64616853 221.5020732 512.65077262 219.87637401 512.65615618 C215.43809169 512.66832018 210.99988512 512.66813359 206.56158996 512.66576743 C201.76404535 512.66535762 196.96652449 512.67641365 192.16899109 512.68588257 C182.78319496 512.70245431 173.39742396 512.70799027 164.01161441 512.70910732 C156.38372351 512.71005906 148.75584087 512.71417559 141.12795258 512.72050858 C119.49172281 512.73810597 97.85551284 512.74734911 76.21927586 512.74584763 C75.05427323 512.74576772 73.88927059 512.7456878 72.68896484 512.74560547 C71.52253774 512.74552371 70.35611064 512.74544195 69.15433726 512.74535771 C50.22971434 512.74454392 31.30517085 512.76370876 12.38057092 512.7918822 C-7.06058662 512.82059613 -26.50170539 512.83442351 -45.94288468 512.83269465 C-56.85410563 512.83203052 -67.76524317 512.8375338 -78.67644501 512.85905075 C-87.96045883 512.87724228 -97.24435138 512.8816261 -106.5283753 512.8680319 C-111.26460792 512.8614937 -116.00060772 512.86141616 -120.73681831 512.8787384 C-125.07305865 512.894435 -129.40888086 512.89164061 -133.74511078 512.87417014 C-135.3128536 512.87109286 -136.88062738 512.87476002 -138.44833371 512.88589029 C-147.56121007 512.94630018 -154.74448836 512.85622819 -161.9609375 506.62890625 C-162.40695313 506.07074219 -162.85296875 505.51257813 -163.3125 504.9375 C-163.77398437 504.38191406 -164.23546875 503.82632812 -164.7109375 503.25390625 C-169.52420831 495.88071115 -168.74736116 487.08577623 -167.30859375 478.71679688 C-166.44755599 474.98630072 -165.47727574 471.30960972 -164.4375 467.625 C-164.16873047 466.64953217 -164.16873047 466.64953217 -163.89453125 465.65435791 C-158.18593542 444.99043031 -149.92005114 427.97327242 -134.9375 412.375 C-134.2053125 411.59125 -133.473125 410.8075 -132.71875 410 C-127.58583499 404.65020125 -122.16652313 400.37937201 -115.9375 396.375 C-114.78507812 395.60542969 -114.78507812 395.60542969 -113.609375 394.8203125 C-95.73765343 383.3989805 -74.81664807 379.15981564 -53.875 379.33984375 C-51.75780764 379.33613275 -49.64061822 379.33020605 -47.5234375 379.32226562 C-44.22480297 379.31170253 -40.92833939 379.31260616 -37.62988281 379.35083008 C-23.63537815 380.14221709 -23.63537815 380.14221709 -11.25 374.94140625 C-9.38692247 372.77393985 -9.38692247 372.77393985 -7.9375 370.375 C-7.41325439 369.641604 -6.88900879 368.90820801 -6.34887695 368.15258789 C-1.98480228 361.00041679 -2.16145 353.4147997 -2.125 345.25 C-2.1018028 343.89839807 -2.07642681 342.54683171 -2.04882812 341.1953125 C-1.99036859 337.92157857 -1.95378463 334.64916944 -1.9375 331.375 C-2.77825073 331.2193457 -2.77825073 331.2193457 -3.63598633 331.06054688 C-9.05394793 329.9709137 -13.7196792 328.40287241 -18.625 325.875 C-19.64920044 325.35268799 -19.64920044 325.35268799 -20.6940918 324.81982422 C-49.94728663 309.45047651 -67.46432643 285.07449003 -77.9375 254.375 C-79.17113281 254.24544922 -79.17113281 254.24544922 -80.4296875 254.11328125 C-91.21260279 252.75607829 -99.67443808 249.86305908 -107.17578125 241.72265625 C-113.61613103 233.14028327 -115.25960782 223.90243794 -113.9375 213.375 C-112.34907244 206.9502986 -109.35396915 202.10560653 -105.01171875 197.1640625 C-103.76521295 195.46841126 -103.76521295 195.46841126 -104.0390625 193.6015625 C-105.35772161 190.33358122 -106.9923735 187.24316614 -108.625 184.125 C-125.11464208 151.73463164 -129.43028603 114.38988023 -118.375 79.4375 C-113.01700399 63.74561402 -104.85162456 49.80901747 -93.9375 37.375 C-93.22207031 36.55902344 -92.50664063 35.74304687 -91.76953125 34.90234375 C-78.94355828 21.25820365 -62.54398516 12.13637506 -45 6.0625 C-44.34604248 5.83199951 -43.69208496 5.60149902 -43.01831055 5.36401367 C-28.9409107 0.78915274 -14.68170886 -0.14289429 0 0 Z " fill="#FDD1A4" transform="translate(167.9375,-0.37499999999999994)"/>
<path d="M0 0 C1.79050781 0.47566406 1.79050781 0.47566406 3.6171875 0.9609375 C34.84054319 10.26853402 59.36551251 32.07949708 74.75 60.375 C78.75352017 68.01816162 81.74427758 75.64940408 84 84 C84.31839844 85.134375 84.63679688 86.26875 84.96484375 87.4375 C92.37600261 119.13130377 85.88352545 152.55309569 69 180 C59.62087476 194.45106454 46.7803596 207.17821469 32 216 C31.36755371 216.37995117 30.73510742 216.75990234 30.08349609 217.15136719 C10.44962197 228.72652603 -9.61357994 233.3173675 -32.309021 233.26742554 C-33.9347248 233.27116853 -35.5604268 233.27577262 -37.18612599 233.28115618 C-41.62440831 233.29332018 -46.06261488 233.29313359 -50.50091004 233.29076743 C-55.29845465 233.29035762 -60.09597551 233.30141365 -64.89350891 233.31088257 C-74.27930504 233.32745431 -83.66507604 233.33299027 -93.05088559 233.33410732 C-100.67877649 233.33505906 -108.30665913 233.33917559 -115.93454742 233.34550858 C-137.57077719 233.36310597 -159.20698716 233.37234911 -180.84322414 233.37084763 C-182.00822677 233.37076772 -183.17322941 233.3706878 -184.37353516 233.37060547 C-185.53996226 233.37052371 -186.70638936 233.37044195 -187.90816274 233.37035771 C-206.83278566 233.36954392 -225.75732915 233.38870876 -244.68192908 233.4168822 C-264.12308662 233.44559613 -283.56420539 233.45942351 -303.00538468 233.45769465 C-313.91660563 233.45703052 -324.82774317 233.4625338 -335.73894501 233.48405075 C-345.02295883 233.50224228 -354.30685138 233.5066261 -363.5908753 233.4930319 C-368.32710792 233.4864937 -373.06310772 233.48641616 -377.79931831 233.5037384 C-382.13555865 233.519435 -386.47138086 233.51664061 -390.80761078 233.49917014 C-392.3753536 233.49609286 -393.94312738 233.49976002 -395.51083371 233.51089029 C-404.62371007 233.57130018 -411.80698836 233.48122819 -419.0234375 227.25390625 C-419.46945312 226.69574219 -419.91546875 226.13757813 -420.375 225.5625 C-420.83648437 225.00691406 -421.29796875 224.45132813 -421.7734375 223.87890625 C-426.58670831 216.50571115 -425.80986116 207.71077623 -424.37109375 199.34179688 C-423.51005599 195.61130072 -422.53977574 191.93460972 -421.5 188.25 C-421.23123047 187.27453217 -421.23123047 187.27453217 -420.95703125 186.27935791 C-415.24843542 165.61543031 -406.98255114 148.59827242 -392 133 C-391.2678125 132.21625 -390.535625 131.4325 -389.78125 130.625 C-384.64833499 125.27520125 -379.22902313 121.00437201 -373 117 C-372.23171875 116.48695313 -371.4634375 115.97390625 -370.671875 115.4453125 C-349.63167012 101.99908885 -325.95639397 99.76888409 -301.625 99.54003906 C-299.45452977 99.5132995 -297.28418976 99.47223155 -295.11425781 99.41699219 C-291.95847134 99.33783526 -288.80507093 99.30474765 -285.6484375 99.28125 C-284.68473236 99.24825806 -283.72102722 99.21526611 -282.7281189 99.18127441 C-277.56032765 99.1965781 -274.75010109 99.65778784 -271.02636719 103.39233398 C-270.01508409 104.59279273 -269.00611062 105.79520287 -268 107 C-252.12538935 119.62294104 -235.42520924 126.25461507 -215.0703125 124.7890625 C-200.08183008 122.96119879 -183.94987931 114.80270982 -174.0625 103.5 C-169.33160127 98.96400721 -164.14058592 99.40538276 -157.9375 99.5 C-154.61925418 99.60404974 -151.31145856 99.76447019 -148 100 C-148.03996094 99.02546875 -148.07992188 98.0509375 -148.12109375 97.046875 C-148.06671972 72.95313685 -131.97047296 48.66848315 -116 32 C-115.30390625 31.24074219 -114.6078125 30.48148437 -113.890625 29.69921875 C-100.21356281 15.24845414 -81.08593224 5.15562788 -62 0 C-60.865625 -0.31839844 -59.73125 -0.63679688 -58.5625 -0.96484375 C-40.09421862 -5.28339662 -18.28668626 -5.12360458 0 0 Z " fill="#FE4C4C" transform="translate(425,279)"/>
<path d="M0 0 C0.84733704 0.00432037 1.69467407 0.00864075 2.56768799 0.01309204 C55.88717814 0.33006061 112.63066477 13.32941195 152.25 51.125 C166.88496811 66.36074676 176.0844438 83.94633516 181.0625 104.375 C181.43181641 105.80779297 181.43181641 105.80779297 181.80859375 107.26953125 C187.62654806 134.67410222 181.13709616 164.99798047 166.0625 188.375 C164.44192311 190.08651573 162.78561379 191.76676046 161.0625 193.375 C159.27213542 192.3984375 157.48177083 191.421875 155.69140625 190.4453125 C151.92690157 188.91266126 148.03861606 188.17269252 144.0625 187.375 C144.0531543 186.68986328 144.04380859 186.00472656 144.03417969 185.29882812 C143.9800809 182.15685565 143.89651176 179.01630933 143.8125 175.875 C143.79832031 174.79734375 143.78414063 173.7196875 143.76953125 172.609375 C143.53471754 164.90748519 142.38387662 159.30302076 137.3515625 153.3515625 C136.80242187 152.90554687 136.25328125 152.45953125 135.6875 152 C135.14351563 151.53851563 134.59953125 151.07703125 134.0390625 150.6015625 C128.59916293 147.22581455 123.19259928 147.08606902 117 146.9375 C71.64016315 145.14698012 22.67523636 129.16230973 -12.52734375 99.921875 C-15.26684551 98.16362104 -16.74524269 98.03236058 -19.9375 98.375 C-20.45957031 99.39078125 -20.98164063 100.4065625 -21.51953125 101.453125 C-30.75413296 118.92537487 -40.87637263 129.11501405 -59.6796875 136.02734375 C-67.76398877 139.3715691 -74.21930848 143.66959995 -79.02514648 151.04394531 C-80.33127589 154.38109371 -80.29507649 157.66730778 -80.3515625 161.203125 C-80.37092865 161.95213074 -80.3902948 162.70113647 -80.4102478 163.47283936 C-80.46985716 165.85677836 -80.51635354 168.24076614 -80.5625 170.625 C-80.60069701 172.24481231 -80.63974975 173.86460468 -80.6796875 175.484375 C-80.77554313 179.44775406 -80.85964246 183.41122819 -80.9375 187.375 C-81.82735596 187.56618408 -82.71721191 187.75736816 -83.6340332 187.9543457 C-84.80281006 188.21304443 -85.97158691 188.47174316 -87.17578125 188.73828125 C-88.33376221 188.99134033 -89.49174316 189.24439941 -90.68481445 189.50512695 C-94.66930705 190.57070881 -97.49304769 192.15524185 -100.9375 194.375 C-101.5975 194.375 -102.2575 194.375 -102.9375 194.375 C-110.32801033 182.20129136 -115.77998773 169.95760547 -119.6875 156.25 C-119.98563599 155.21311035 -119.98563599 155.21311035 -120.28979492 154.15527344 C-123.28315377 143.11589944 -124.30566114 132.09803282 -124.25 120.6875 C-124.24436035 119.46434082 -124.2387207 118.24118164 -124.23291016 116.98095703 C-123.83661557 87.21962599 -113.64344376 59.82517889 -93.9375 37.375 C-92.86435547 36.15103516 -92.86435547 36.15103516 -91.76953125 34.90234375 C-78.94355828 21.25820365 -62.54398516 12.13637506 -45 6.0625 C-44.34604248 5.83199951 -43.69208496 5.60149902 -43.01831055 5.36401367 C-28.9409107 0.78915274 -14.68170886 -0.14289429 0 0 Z " fill="#883F2E" transform="translate(167.9375,-0.37499999999999994)"/>
<path d="M0 0 C2.17047023 -0.02673957 4.34081024 -0.06780752 6.51074219 -0.12304688 C9.66652866 -0.2022038 12.81992907 -0.23529141 15.9765625 -0.25878906 C17.42212021 -0.30827698 17.42212021 -0.30827698 18.8968811 -0.35876465 C24.06467235 -0.34346096 26.87489891 0.11774878 30.59863281 3.85229492 C31.60991591 5.05275367 32.61888938 6.25516381 33.625 7.45996094 C49.49961065 20.08290198 66.19979076 26.714576 86.5546875 25.24902344 C101.54316992 23.42115973 117.67512069 15.26267076 127.5625 3.95996094 C132.29339873 -0.57603186 137.48441408 -0.13465631 143.6875 -0.04003906 C147.00574582 0.06401068 150.31354144 0.22443113 153.625 0.45996094 C153.60928955 1.224375 153.5935791 1.98878906 153.57739258 2.77636719 C152.92183025 39.55424335 161.25734156 70.94449196 186.88867188 98.12402344 C206.23947292 117.95795881 232.93478188 130.647283 260.625 132.45996094 C260.625 132.78996094 260.625 133.11996094 260.625 133.45996094 C213.88016988 133.55149816 167.13534924 133.62199037 120.39044717 133.66422226 C114.87292817 133.66922514 109.35540936 133.67440242 103.83789062 133.6796875 C102.190219 133.68126136 102.190219 133.68126136 100.50926107 133.68286702 C82.71875735 133.70027658 64.92830529 133.73181732 47.13783222 133.76857212 C28.88583653 133.80596619 10.6338679 133.82819355 -7.61816454 133.83631492 C-18.88243684 133.84180586 -30.14656314 133.85915428 -41.4107905 133.89162681 C-49.13303397 133.91275573 -56.85520187 133.91916465 -64.57747215 133.91396645 C-69.03414982 133.91140215 -73.4905722 133.91535829 -77.94720459 133.93678284 C-82.02855822 133.95626003 -86.10948508 133.95722349 -90.19085842 133.94355652 C-91.66610054 133.94186759 -93.14136937 133.94693208 -94.61655897 133.95949367 C-103.64050091 134.03185685 -110.32820733 133.81501175 -117.3984375 127.71386719 C-117.84445313 127.15570313 -118.29046875 126.59753906 -118.75 126.02246094 C-119.21148437 125.466875 -119.67296875 124.91128906 -120.1484375 124.33886719 C-124.96170831 116.96567209 -124.18486116 108.17073717 -122.74609375 99.80175781 C-121.88505599 96.07126166 -120.91477574 92.39457066 -119.875 88.70996094 C-119.60623047 87.7344931 -119.60623047 87.7344931 -119.33203125 86.73931885 C-113.62343542 66.07539125 -105.35755114 49.05823336 -90.375 33.45996094 C-89.6428125 32.67621094 -88.910625 31.89246094 -88.15625 31.08496094 C-83.02333499 25.73516219 -77.60402313 21.46433295 -71.375 17.45996094 C-70.60671875 16.94691406 -69.8384375 16.43386719 -69.046875 15.90527344 C-48.00667012 2.45904979 -24.33139397 0.22884503 0 0 Z " fill="#0592FB" transform="translate(123.375,378.5400390625)"/>
<path d="M0 0 C0 16.17 0 32.34 0 49 C3.63 49 7.26 49 11 49 C15.03529088 50.19797698 17.19911801 51.0699435 19.9375 54.25 C21.31001465 57.80239086 21.46494928 60.21398443 21 64 C17.92307692 69.53846154 17.92307692 69.53846154 15 71 C-0.51 71 -16.02 71 -32 71 C-32 102.02 -32 133.04 -32 165 C-16.49 165 -0.98 165 15 165 C20.91836735 170.91836735 20.91836735 170.91836735 21.25 175.3125 C20.97973382 179.29892615 20.53712014 180.95545584 18 184 C12.02783371 188.4408416 8.29989864 187 0 187 C0 203.17 0 219.34 0 236 C-32.65778782 236 -60.74407227 223.6980644 -84 201 C-84.96486328 200.12794922 -84.96486328 200.12794922 -85.94921875 199.23828125 C-103.38911464 183.09926338 -116.59063943 154.58684577 -118 131 C-119.28279933 96.67697828 -112.70730187 66.02470176 -89.5 39.75 C-88.00872333 38.15844783 -86.5089028 36.57485135 -85 35 C-84.30390625 34.24074219 -83.6078125 33.48148437 -82.890625 32.69921875 C-61.26373205 9.84890667 -30.69929339 0 0 0 Z " fill="#FE7E7B" transform="translate(394,276)"/>
<path d="M0 0 C3.707449 0.41251897 5.27460703 1.89148475 8.1484375 4.24609375 C14.98305623 9.6149339 22.25799958 13.96565626 29.7734375 18.30859375 C21.19464943 30.40688462 12.9343628 36.85929068 -0.96875 41.98828125 C-5.73757472 43.9209704 -9.9590006 46.45556079 -14.2265625 49.30859375 C-15.1753125 49.92734375 -16.1240625 50.54609375 -17.1015625 51.18359375 C-23.71897282 57.80100407 -23.74236637 65.0431462 -23.75669861 73.84936523 C-23.74621181 75.50244709 -23.73484166 77.15552354 -23.72265625 78.80859375 C-23.72281154 80.53002992 -23.72430546 82.25146643 -23.72706604 83.97290039 C-23.72844724 87.57730617 -23.71594939 91.18131277 -23.69311523 94.78564453 C-23.66490294 99.35997932 -23.6674249 103.93364305 -23.68020535 108.50802612 C-23.68723528 112.06530269 -23.67928811 115.62243002 -23.66694832 119.1796875 C-23.66249222 120.86343814 -23.66204468 122.54720517 -23.66601372 124.23095703 C-23.70670415 156.71055371 -12.96103302 186.90915236 9.83984375 210.46484375 C22.43918651 222.95838081 42.63832961 237.21516744 60.7734375 237.80859375 C66.1319301 237.5682392 71.19268526 236.50674197 76.375 235.16015625 C80.81095803 234.04861734 85.28472106 233.17820581 89.7734375 232.30859375 C89.77754639 233.19530762 89.78165527 234.08202148 89.78588867 234.99560547 C89.8130974 238.33248365 89.86241571 241.66759712 89.92602539 245.00390625 C89.94901156 246.439015 89.96355497 247.8742878 89.96899414 249.30957031 C90.0169621 259.89204062 91.06044623 268.12086322 98.44921875 276.25390625 C99.31933594 276.97320312 100.18945312 277.6925 101.0859375 278.43359375 C101.96894531 279.17867188 102.85195312 279.92375 103.76171875 280.69140625 C104.42558594 281.22507812 105.08945313 281.75875 105.7734375 282.30859375 C102.32288749 286.73765795 98.86333662 290.09212625 94.2734375 293.30859375 C93.66830322 293.73720703 93.06316895 294.16582031 92.43969727 294.60742188 C86.55400687 298.65903795 80.39404144 301.6129971 73.7734375 304.30859375 C72.93941406 304.66695313 72.10539063 305.0253125 71.24609375 305.39453125 C57.16665406 310.59925303 41.450035 309.40454524 27.87255859 303.47900391 C17.00857368 298.41097555 7.1164578 291.94736293 -0.2265625 282.30859375 C0.43730469 281.77492188 1.10117188 281.24125 1.78515625 280.69140625 C2.66816406 279.94632812 3.55117187 279.20125 4.4609375 278.43359375 C5.76611328 277.35464844 5.76611328 277.35464844 7.09765625 276.25390625 C14.8236099 267.74971786 15.53602119 259.36484665 15.5859375 248.18359375 C15.6091347 246.83199182 15.63451069 245.48042546 15.66210938 244.12890625 C15.72056891 240.85517232 15.75715287 237.58276319 15.7734375 234.30859375 C15.21293701 234.20482422 14.65243652 234.10105469 14.07495117 233.99414062 C8.65698957 232.90450745 3.9912583 231.33646616 -0.9140625 228.80859375 C-1.93826294 228.28628174 -1.93826294 228.28628174 -2.9831543 227.75341797 C-32.23634913 212.38407026 -49.75338893 188.00808378 -60.2265625 157.30859375 C-61.46019531 157.17904297 -61.46019531 157.17904297 -62.71875 157.046875 C-73.50166529 155.68967204 -81.96350058 152.79665283 -89.46484375 144.65625 C-95.90519353 136.07387702 -97.54867032 126.83603169 -96.2265625 116.30859375 C-93.99220543 107.27130593 -89.18427978 99.89356333 -81.2890625 94.93359375 C-75.24199489 91.59728059 -70.12638453 90.21222752 -63.2265625 90.30859375 C-63.25274658 89.32052734 -63.27893066 88.33246094 -63.3059082 87.31445312 C-63.39702302 83.61709613 -63.45403108 79.91983645 -63.5012207 76.22167969 C-63.52622663 74.62710839 -63.56024349 73.0326501 -63.60375977 71.43847656 C-64.0338973 55.26530516 -64.0338973 55.26530516 -59.6418457 49.73779297 C-52.61131498 42.63813334 -44.41436399 38.87272077 -35.2265625 35.30859375 C-22.75854198 30.10277835 -14.80837067 21.99842099 -8.2265625 10.30859375 C-7.73027344 9.42945312 -7.23398438 8.5503125 -6.72265625 7.64453125 C-5.86133018 6.09856138 -5.00957488 4.5471797 -4.171875 2.98828125 C-2.70075956 0.3743158 -2.70075956 0.3743158 0 0 Z " fill="#FEBC85" transform="translate(150.2265625,96.69140625)"/>
<path d="M0 0 C2.5751791 0.03156703 5.14974267 0.04103409 7.72509766 0.046875 C9.39567794 0.05603423 11.06625211 0.06640654 12.73681641 0.078125 C13.4901123 0.08237488 14.2434082 0.08662476 15.01953125 0.09100342 C20.25333595 0.16033592 25.35399236 0.64018504 30.54931641 1.28125 C27.20382461 3.51157787 24.14576022 4.17582642 20.29931641 5.03125 C0.12866573 9.85218181 -17.2325951 19.27197421 -32.45068359 33.28125 C-33.10166016 33.83941406 -33.75263672 34.39757813 -34.42333984 34.97265625 C-45.27184088 44.7952943 -52.54981756 59.10498935 -58.45068359 72.28125 C-58.85931641 73.17585938 -59.26794922 74.07046875 -59.68896484 74.9921875 C-64.65662435 87.15240421 -66.5373393 100.35317023 -66.64208984 113.40234375 C-66.65522469 114.60240303 -66.65522469 114.60240303 -66.66862488 115.82670593 C-66.7042861 119.86429804 -66.68697416 123.89273656 -66.59594727 127.92944336 C-66.4990538 138.95080042 -66.4990538 138.95080042 -69.17529297 142.69238281 C-71.31005859 144.4765625 -71.31005859 144.4765625 -73.43408203 145.76611328 C-76.29148 147.91296701 -77.17715233 149.95419535 -78.45068359 153.28125 C-78.76290604 156.02690354 -78.93780138 158.56066226 -78.96240234 161.3046875 C-78.98035355 162.05086334 -78.99830475 162.79703918 -79.01679993 163.56582642 C-79.07061464 165.9292449 -79.10470426 168.29246486 -79.13818359 170.65625 C-79.17138231 172.26695454 -79.20587432 173.87763298 -79.24169922 175.48828125 C-79.32632378 179.41912687 -79.39327103 183.34991659 -79.45068359 187.28125 C-80.34053955 187.47243408 -81.23039551 187.66361816 -82.1472168 187.8605957 C-83.31599365 188.11929443 -84.48477051 188.37799316 -85.68896484 188.64453125 C-86.8469458 188.89759033 -88.00492676 189.15064941 -89.19799805 189.41137695 C-93.18249065 190.47695881 -96.00623128 192.06149185 -99.45068359 194.28125 C-100.11068359 194.28125 -100.77068359 194.28125 -101.45068359 194.28125 C-108.84119393 182.10754136 -114.29317133 169.86385547 -118.20068359 156.15625 C-118.49881958 155.11936035 -118.49881958 155.11936035 -118.80297852 154.06152344 C-121.79633736 143.02214944 -122.81884473 132.00428282 -122.76318359 120.59375 C-122.75754395 119.37059082 -122.7519043 118.14743164 -122.74609375 116.88720703 C-122.34979916 87.12587599 -112.15662735 59.73142889 -92.45068359 37.28125 C-91.37753906 36.05728516 -91.37753906 36.05728516 -90.28271484 34.80859375 C-77.45674187 21.16445365 -61.05716876 12.04262506 -43.51318359 5.96875 C-42.85922607 5.73824951 -42.20526855 5.50774902 -41.53149414 5.27026367 C-27.91969321 0.84671266 -14.20758689 -0.17530086 0 0 Z " fill="#6B3125" transform="translate(166.45068359375,-0.28125)"/>
<path d="M0 0 C0.00410889 0.88671387 0.00821777 1.77342773 0.01245117 2.68701172 C0.0396599 6.0238899 0.08897821 9.35900337 0.15258789 12.6953125 C0.17557406 14.13042125 0.19011747 15.56569405 0.19555664 17.00097656 C0.2435246 27.58344687 1.28700873 35.81226947 8.67578125 43.9453125 C9.54589844 44.66460937 10.41601562 45.38390625 11.3125 46.125 C12.63701172 47.24261719 12.63701172 47.24261719 13.98828125 48.3828125 C14.65214844 48.91648437 15.31601563 49.45015625 16 50 C12.54944999 54.4290642 9.08989912 57.7835325 4.5 61 C3.89486572 61.42861328 3.28973145 61.85722656 2.66625977 62.29882812 C-3.21943063 66.3504442 -9.37939606 69.30440335 -16 72 C-16.83402344 72.35835938 -17.66804688 72.71671875 -18.52734375 73.0859375 C-32.60678344 78.29065928 -48.3234025 77.09595149 -61.90087891 71.17041016 C-72.76486382 66.1023818 -82.6569797 59.63876918 -90 50 C-89.33613281 49.46632813 -88.67226562 48.93265625 -87.98828125 48.3828125 C-87.10527344 47.63773437 -86.22226563 46.89265625 -85.3125 46.125 C-84.44238281 45.40570313 -83.57226562 44.68640625 -82.67578125 43.9453125 C-75.08379311 35.58858395 -74.23845134 27.36916585 -74.1875 16.375 C-74.16236328 15.08464844 -74.13722656 13.79429687 -74.11132812 12.46484375 C-74.05289747 9.3095884 -74.01629288 6.15570659 -74 3 C-69.38073087 3.53299259 -64.83611988 4.20601802 -60.26171875 5.04296875 C-54.08320956 6.08516197 -48.07004776 6.34546035 -41.8125 6.3125 C-40.7296875 6.30903564 -39.646875 6.30557129 -38.53125 6.30200195 C-25.39603078 6.12573604 -12.46203711 0 0 0 Z " fill="#F5A66E" transform="translate(240,329)"/>
<path d="M0 0 C1.83749565 -0.02409439 1.83749565 -0.02409439 3.71211243 -0.04867554 C5.05570787 -0.06016262 6.39931108 -0.07077122 7.74291992 -0.08056641 C8.41886389 -0.08589008 9.09480785 -0.09121376 9.79123497 -0.09669876 C13.36960084 -0.12342336 16.94793192 -0.14279965 20.52636719 -0.15722656 C23.48599166 -0.1705637 26.44492627 -0.19841074 29.40429688 -0.23925781 C32.97932944 -0.28860211 36.55373651 -0.31334946 40.12909508 -0.32045364 C41.48987339 -0.3271621 42.85063798 -0.3423741 44.21122169 -0.36634445 C54.83769402 -0.54286403 54.83769402 -0.54286403 58.10018921 1.2711792 C60.95624895 4.0386164 62.09908113 6.55007267 62.47338867 10.44287109 C62.10802466 14.82723922 60.900621 16.80849586 58.16088867 20.19287109 C43.54886927 27.4988808 25.49762301 21.19287109 9.16088867 21.19287109 C9.16088867 52.21287109 9.16088867 83.23287109 9.16088867 115.19287109 C24.67088867 115.19287109 40.18088867 115.19287109 56.16088867 115.19287109 C62.07925602 121.11123844 62.07925602 121.11123844 62.41088867 125.50537109 C62.14554468 129.41919503 61.52768955 131.12479588 59.16088867 134.19287109 C55.68747852 136.50847786 54.30981652 136.4544374 50.20825195 136.48339844 C48.98333038 136.49615814 47.75840881 136.50891785 46.49636841 136.52206421 C45.15798093 136.52512188 43.81959134 136.52734963 42.48120117 136.52880859 C41.10741029 136.53523657 39.73362077 136.54196493 38.35983276 136.54898071 C35.47984647 136.56095533 32.59998014 136.56466141 29.7199707 136.56347656 C26.03549468 136.56327346 22.35179077 136.59056434 18.66749763 136.62502098 C15.82954398 136.64729687 12.99177586 136.6513139 10.15374374 136.65025711 C8.79579891 136.65261248 7.43784892 136.66143258 6.07999039 136.67692184 C4.17753331 136.69658976 2.27484943 136.68821918 0.37231445 136.67871094 C-0.70895721 136.68156097 -1.79022888 136.68441101 -2.90426636 136.68734741 C-6.59039114 136.06629198 -8.20483056 134.80695314 -10.83911133 132.19287109 C-12.74027186 129.10389927 -13.09424667 126.76089797 -13.11326599 123.15859985 C-13.12324112 122.14365952 -13.13321625 121.12871918 -13.14349365 120.08302307 C-13.14415833 118.97539108 -13.144823 117.86775909 -13.14550781 116.7265625 C-13.15383133 115.55543411 -13.16215485 114.38430573 -13.17073059 113.1776886 C-13.19069598 109.96891502 -13.20147087 106.76029193 -13.20655704 103.55146456 C-13.21020352 101.5452884 -13.21644508 99.5391371 -13.22355843 97.53297043 C-13.24804344 90.52994442 -13.26110286 83.5269924 -13.26464844 76.52392578 C-13.26828356 70.00268944 -13.29817899 63.48192378 -13.34005302 56.96083128 C-13.37477519 51.35644061 -13.3901972 45.75220579 -13.39089447 40.1477083 C-13.39168664 36.80273674 -13.40276834 33.4586262 -13.42889214 30.11369705 C-13.45572249 26.38136963 -13.45100448 22.65034311 -13.43847656 18.91796875 C-13.45331085 17.81438522 -13.46814514 16.7108017 -13.48342896 15.57377625 C-13.4034863 7.21748098 -13.4034863 7.21748098 -10.426651 3.52255249 C-6.70150167 0.16862861 -4.92770585 0.05857498 0 0 Z " fill="#FFF4F4" transform="translate(352.839111328125,325.80712890625)"/>
<path d="M0 0 C1.17948463 0.00212242 1.17948463 0.00212242 2.38279724 0.00428772 C4.8581039 0.00981953 7.33331512 0.0223585 9.80859375 0.03515625 C11.50195181 0.04018009 13.1953113 0.04474144 14.88867188 0.04882812 C19.00784845 0.05976647 23.126955 0.07698263 27.24609375 0.09765625 C27.24609375 0.42765625 27.24609375 0.75765625 27.24609375 1.09765625 C26.32666992 1.23228271 26.32666992 1.23228271 25.38867188 1.36962891 C0.94287723 5.04015492 -20.18736261 12.11923065 -38.75390625 29.09765625 C-39.59308594 29.855625 -40.43226562 30.61359375 -41.296875 31.39453125 C-55.94218655 45.29054779 -65.28815852 62.54317878 -70.20605469 82.04248047 C-70.85751733 84.48633633 -71.58793885 86.90067247 -72.32421875 89.3203125 C-72.60120605 90.24295898 -72.87819336 91.16560547 -73.16357422 92.11621094 C-73.70925446 93.93049469 -74.26253763 95.74251543 -74.82470703 97.55175781 C-77.39070122 106.24404245 -77.94811542 113.85386581 -73.75390625 122.09765625 C-70.05913825 127.90372026 -64.75662784 130.10945932 -58.75390625 133.09765625 C-63.87673384 133.19711377 -68.99898979 133.26940034 -74.12255859 133.31738281 C-75.86256714 133.33740147 -77.60250924 133.36462511 -79.34228516 133.39941406 C-81.85465971 133.44836577 -84.366139 133.47072212 -86.87890625 133.48828125 C-87.6469458 133.50892639 -88.41498535 133.52957153 -89.20629883 133.55084229 C-95.70149695 133.55349353 -100.83742567 131.61438756 -105.77734375 127.3515625 C-106.22335938 126.79339844 -106.669375 126.23523438 -107.12890625 125.66015625 C-107.59039062 125.10457031 -108.051875 124.54898438 -108.52734375 123.9765625 C-113.34061456 116.6033674 -112.56376741 107.80843248 -111.125 99.43945312 C-110.26396224 95.70895697 -109.29368199 92.03226597 -108.25390625 88.34765625 C-107.98513672 87.37218842 -107.98513672 87.37218842 -107.7109375 86.37701416 C-102.00234167 65.71308656 -93.73645739 48.69592867 -78.75390625 33.09765625 C-78.02171875 32.31390625 -77.28953125 31.53015625 -76.53515625 30.72265625 C-71.40224124 25.3728575 -65.98292938 21.10202826 -59.75390625 17.09765625 C-58.985625 16.58460938 -58.21734375 16.0715625 -57.42578125 15.54296875 C-40.45618715 4.69816192 -19.99422541 -0.13926488 0 0 Z " fill="#0484E3" transform="translate(111.75390625,378.90234375)"/>
<path d="M0 0 C4.41589907 2.16319845 7.67848198 5.38700336 11.10546875 8.83984375 C11.95338737 9.6848922 11.95338737 9.6848922 12.81843567 10.54701233 C14.00666036 11.73388148 15.19238498 12.92325826 16.37573242 14.11499023 C18.18515018 15.93513625 20.00501352 17.74434402 21.82617188 19.55273438 C22.9824128 20.71029662 24.13803333 21.86847896 25.29296875 23.02734375 C25.83567917 23.56600571 26.37838959 24.10466766 26.93754578 24.65965271 C30.48889167 28.25539885 32.7181707 30.83930867 33.375 35.875 C32.59555972 42.3703357 27.45979046 46.82992911 22.9921875 51.23828125 C22.42549347 51.80451706 21.85879944 52.37075287 21.27493286 52.95414734 C20.08556257 54.14051515 18.89378156 55.32447063 17.69970703 56.50610352 C15.86817602 58.3192555 14.04489619 60.14040582 12.22265625 61.96289062 C11.06297286 63.11766256 9.90283271 64.27197603 8.7421875 65.42578125 C8.19634003 65.9705159 7.65049255 66.51525055 7.08810425 67.07649231 C3.62507994 70.49598055 2.1671761 71.88328239 -2.75 72.375 C-6.10058068 72.35058775 -7.84894532 71.75601354 -10.4375 69.625 C-13.78452227 66.19634304 -14.50495422 64.08495943 -14.49609375 59.23828125 C-13.5296555 54.87789448 -10.12963651 52.00955453 -7 49 C-6.67 48.67 -6.34 48.34 -6 48 C-6.84445175 47.99786247 -6.84445175 47.99786247 -7.70596313 47.99568176 C-13.57904437 47.97595605 -19.45109028 47.92162149 -25.32373047 47.84741211 C-27.51375901 47.82425177 -29.70389862 47.80984103 -31.89404297 47.80444336 C-35.04725199 47.79513975 -38.19871874 47.75411647 -41.3515625 47.70703125 C-42.32678864 47.7109639 -43.30201477 47.71489655 -44.30679321 47.71894836 C-48.77656114 47.62356547 -52.01710984 47.48254446 -55.60302734 44.64331055 C-58.4566728 41.49639474 -58.92391402 39.8217286 -59.3125 35.625 C-58.94638946 31.37811768 -57.97193191 29.97193191 -55 27 C-51.85197675 24.90131783 -51.0397817 24.74037997 -47.43676758 24.68115234 C-46.51603958 24.66128265 -45.59531158 24.64141296 -44.64668274 24.62094116 C-43.65597275 24.60938995 -42.66526276 24.59783875 -41.64453125 24.5859375 C-40.62775803 24.56657135 -39.6109848 24.5472052 -38.56340027 24.5272522 C-35.31318573 24.46743259 -32.06293583 24.42106124 -28.8125 24.375 C-26.61001052 24.33682244 -24.40753601 24.29777084 -22.20507812 24.2578125 C-16.80351817 24.16172917 -11.40186823 24.07668862 -6 24 C-6.49371094 23.51789063 -6.98742187 23.03578125 -7.49609375 22.5390625 C-8.13675781 21.90742188 -8.77742188 21.27578125 -9.4375 20.625 C-10.07558594 19.99851562 -10.71367187 19.37203125 -11.37109375 18.7265625 C-14.18621186 15.74267232 -14.389058 13.17946105 -14.359375 9.10546875 C-13.72418186 5.38406547 -11.66020984 3.59687151 -9 1 C-5.93570224 -0.53214888 -3.3834358 -0.22938548 0 0 Z " fill="#D8E5EA" transform="translate(433,358)"/>
<path d="M0 0 C14.52 0 29.04 0 44 0 C44 0.33 44 0.66 44 1 C40.04 1 36.08 1 32 1 C32 12.55 32 24.1 32 36 C25.565 36.495 25.565 36.495 19 37 C14.18624808 40.27828869 14.18624808 40.27828869 13 43 C12.62287423 47.99691647 12.90709388 50.99067725 16 55 C20.20894625 58.15931209 20.20894625 58.15931209 32 58 C32 69.55 32 81.1 32 93 C35.96 93 39.92 93 44 93 C44 93.33 44 93.66 44 94 C29.48 94 14.96 94 0 94 C0 62.98 0 31.96 0 0 Z " fill="#FE807D" transform="translate(362,347)"/>
<path d="M0 0 C0.01213028 0.92175774 0.01213028 0.92175774 0.02450562 1.86213684 C0.11108809 8.3033897 0.21060983 14.74435362 0.31738281 21.18530273 C0.35548065 23.58369056 0.39036567 25.9821318 0.421875 28.38061523 C0.46794496 31.84378041 0.5258677 35.30658391 0.5859375 38.76953125 C0.59748871 39.82831985 0.60903992 40.88710846 0.62094116 41.97798157 C0.73874307 48.02662874 1.33025591 53.7094344 2.57705688 59.63310242 C3 62 3 62 3 66 C-6.29509864 66.60951466 -14.22491635 64.7025805 -21.4375 58.5625 C-22.64573222 57.39610067 -23.83622904 56.21076408 -25 55 C-25.7425 54.236875 -26.485 53.47375 -27.25 52.6875 C-32.78576834 44.18614147 -34.13515368 36.07738471 -33 26 C-30.78498519 16.96572612 -25.94681552 9.57812082 -18.0625 4.625 C-12.01543239 1.28868684 -6.89982203 -0.09636623 0 0 Z " fill="#F1A96E" transform="translate(87,187)"/>
<path d="M0 0 C1.42812821 0.13349684 2.85558063 0.27423453 4.28271484 0.41796875 C5.07769379 0.4955542 5.87267273 0.57313965 6.69174194 0.65307617 C14.15208751 1.77434233 21.38079416 6.64576837 26.125 12.375 C32.00333143 21.05392605 33.06243049 29.61179077 32 40 C31.08680559 43.61350045 29.78271393 46.73364586 28 50 C27.4740625 50.96873047 27.4740625 50.96873047 26.9375 51.95703125 C22.50006891 59.02918705 15.24122338 62.89291098 7.53125 65.5546875 C5.05716193 65.98994373 2.84894664 66.0439035 0.34179688 66.02783203 C-0.47067505 66.02381378 -1.28314697 66.01979553 -2.12023926 66.01565552 C-2.7405603 66.0104892 -3.36088135 66.00532288 -4 66 C-3.68712036 64.48817139 -3.68712036 64.48817139 -3.36791992 62.94580078 C-0.7842433 49.5959016 -0.45374147 36.44027746 -0.3125 22.875 C-0.27923578 20.6445124 -0.24473817 18.41404283 -0.20898438 16.18359375 C-0.1251437 10.78918714 -0.05637385 5.39476005 0 0 Z " fill="#FEBB84" transform="translate(312,187)"/>
<path d="M0 0 C4.69241302 2.0733918 7.71319554 5.42639108 10 10 C10.0902835 11.63417595 10.11755658 13.27202837 10.11352539 14.90869141 C10.11344986 15.92959869 10.11337433 16.95050598 10.11329651 18.00234985 C10.10813522 19.10759003 10.10297394 20.2128302 10.09765625 21.3515625 C10.0962413 22.4807309 10.09482635 23.60989929 10.09336853 24.77328491 C10.08775744 28.39054988 10.07520303 32.00775364 10.0625 35.625 C10.05748643 38.07291577 10.05292328 40.52083252 10.04882812 42.96875 C10.03863399 48.9792094 10.01906067 54.98953593 10 61 C1.09 61 -7.82 61 -17 61 C-17.0919139 53.84603482 -17.17153143 46.69412462 -17.21972656 39.54003906 C-17.23982071 37.10735119 -17.26710088 34.67471149 -17.30175781 32.2421875 C-17.3503706 28.74206645 -17.37299139 25.24258498 -17.390625 21.7421875 C-17.41127014 20.65759247 -17.43191528 19.57299744 -17.45318604 18.45553589 C-17.45500908 12.29710329 -17.15524978 8.66357471 -13 4 C-8.64054254 0.31868036 -5.68587803 -0.7236572 0 0 Z " fill="#056BB9" transform="translate(84,451)"/>
<path d="M0 0 C8.28205128 6.21153846 8.28205128 6.21153846 12 9.3125 C29.11062582 22.57837114 50.43793819 30.58848805 72 32 C72 32.33 72 32.66 72 33 C48.24 33 24.48 33 0 33 C0 22.11 0 11.22 0 0 Z " fill="#066BB7" transform="translate(312,479)"/>
<path d="M0 0 C2.371875 -0.103125 4.74375 -0.20625 7.1875 -0.3125 C7.92508545 -0.35802002 8.6626709 -0.40354004 9.42260742 -0.45043945 C13.35619453 -0.53277652 14.85396972 -0.11951477 17.92578125 2.39453125 C21.16822685 6.46743372 21.35385004 8.78071186 21 14 C19.34860695 17.5386994 18.28394771 18.81070153 15 21 C12.3886146 21.14269866 9.91622711 21.18772704 7.3125 21.125 C4.899375 21.08375 2.48625 21.0425 0 21 C0 14.07 0 7.14 0 0 Z " fill="#D8E4E9" transform="translate(394,441)"/>
<path d="M0 0 C2.371875 -0.103125 4.74375 -0.20625 7.1875 -0.3125 C7.92508545 -0.35802002 8.6626709 -0.40354004 9.42260742 -0.45043945 C13.35619453 -0.53277652 14.85396972 -0.11951477 17.92578125 2.39453125 C21.16470386 6.46300843 21.43527735 8.77667176 21 14 C17.92307692 19.53846154 17.92307692 19.53846154 15 21 C12.44612508 21.07173806 9.92723239 21.09287732 7.375 21.0625 C4.94125 21.041875 2.5075 21.02125 0 21 C0 14.07 0 7.14 0 0 Z " fill="#D8E4E9" transform="translate(394,326)"/>
<path d="M0 0 C0 7.26 0 14.52 0 22 C-13.125 22.66964286 -13.125 22.66964286 -16.75 19.6875 C-20.20610392 15.55937587 -20.45511055 12.27928242 -20 7 C-14.66464926 -1.27899252 -9.12209239 -0.18063549 0 0 Z " fill="#FFF2F2" transform="translate(394,383)"/>
<path d="M0 0 C1.258125 0.53109375 2.51625 1.0621875 3.8125 1.609375 C17.50532665 7.29701976 31.02259618 12.27993251 46 13 C46 13.33 46 13.66 46 14 C30.82 14 15.64 14 0 14 C0 9.38 0 4.76 0 0 Z " fill="#0991F8" transform="translate(338,498)"/>
</svg>
