<?xml version="1.0" encoding="UTF-8"?>
<svg version="1.1" xmlns="http://www.w3.org/2000/svg" width="512" height="512">
<path d="M0 0 C4.35300916 4.09041464 6.53322672 8.17008268 8.15991211 13.85644531 C8.36918555 14.55719303 8.578459 15.25794075 8.79407406 15.97992325 C11.06226561 23.6692861 13.07784418 31.42506936 15.0625 39.19140625 C15.4704955 40.77459881 15.87890431 42.35768491 16.28768921 43.94067383 C17.15733239 47.31092825 18.02467049 50.68176332 18.8901062 54.05310059 C20.99034824 62.23340522 23.10353361 70.41037091 25.21621132 78.58747101 C25.70111074 80.46440345 26.18587021 82.34137206 26.67049217 84.21837616 C31.19280554 101.7324775 35.78365648 119.22796783 40.40237427 136.71685791 C50.97704196 176.75810247 61.37123184 216.84528877 71.71413136 256.9469614 C73.21215403 262.75507864 74.71126269 268.56291462 76.2109375 274.37060547 C81.06295515 293.16289011 85.90045075 311.95882582 90.70715332 330.76275635 C91.35248211 333.28691242 91.99822663 335.81096225 92.64440918 338.3348999 C94.40707423 345.22096081 96.16214202 352.10885488 97.90350342 359.00033569 C98.41220281 361.00991921 98.92320194 363.01892239 99.43682861 365.0272522 C109.44172655 404.18864078 109.44172655 404.18864078 101.39453125 420.13671875 C96.23793515 428.32660667 89.80902703 433.4239054 80.68359375 436.58203125 C76.42729738 437.51593544 72.14991696 438.07842756 67.82781982 438.61729431 C66.59974129 438.78122018 65.37166276 438.94514604 64.10636973 439.11403936 C60.30049672 439.6178578 56.49250827 440.10180619 52.68359375 440.58203125 C50.43532791 440.87231552 48.18710874 441.1629615 45.93894196 441.45401192 C39.08756675 442.33283378 32.23202541 443.17637893 25.37597656 444.01782227 C22.78025017 444.33843429 20.18455303 444.65928319 17.58888245 444.98034668 C12.06260309 445.6635356 6.5360922 446.34482301 1.00940704 447.02472115 C-7.00677166 448.01088634 -15.0225671 449.00013954 -23.03828123 449.99007296 C-36.08695173 451.60149361 -49.13590893 453.21057983 -62.18505859 454.81811523 C-74.77992796 456.36969323 -87.37467142 457.92228668 -99.96923828 459.47631836 C-100.74584017 459.57214211 -101.52244205 459.66796586 -102.32257733 459.76669336 C-106.9976885 460.34355793 -111.67279458 460.92046376 -116.3478989 461.49738391 C-123.19736011 462.34262111 -130.04682825 463.18780218 -136.89630127 464.03294373 C-137.63525073 464.12412224 -138.37420019 464.21530075 -139.13554206 464.30924224 C-149.26525548 465.55911735 -159.39505892 466.80826026 -169.52494437 468.0567403 C-171.59152598 468.31144818 -173.65810433 468.56618256 -175.72468138 468.8209275 C-176.39416645 468.90345405 -177.06365152 468.9859806 -177.75342402 469.07100796 C-178.74693322 469.19347712 -178.74693322 469.19347712 -179.76051331 469.31842041 C-185.88502616 470.07338159 -192.00957825 470.82802346 -198.13418531 471.58221996 C-200.33564013 471.85387407 -202.5369826 472.12644054 -204.73820162 472.39999878 C-210.18343806 473.07643246 -215.62977836 473.73875073 -221.07965851 474.37678337 C-222.1724588 474.50712815 -223.2652591 474.63747293 -224.39117455 474.77176756 C-226.45046082 475.01724219 -228.51037413 475.25753763 -230.570997 475.49152714 C-235.59888411 476.09722227 -240.11919454 476.93863052 -244.87890625 478.76953125 C-254.54313406 482.47011922 -265.89484673 481.75713706 -275.31640625 477.58203125 C-292.39489105 469.300772 -297.44005861 453.91604627 -303.62011719 437.14160156 C-304.56606795 434.58294631 -305.53063889 432.03181799 -306.49609375 429.48046875 C-307.10922342 427.82724915 -307.72124057 426.17361643 -308.33203125 424.51953125 C-308.6174176 423.77131104 -308.90280396 423.02309082 -309.19683838 422.25219727 C-311.92348143 414.73796748 -313.71243842 406.93934944 -310.3203125 399.39453125 C-305.15232843 390.06400748 -296.43072091 387.45476031 -286.91796875 384.05078125 C-285.60546646 383.57408997 -285.60546646 383.57408997 -284.26644897 383.08776855 C-281.4930569 382.08130734 -278.71738746 381.08132647 -275.94140625 380.08203125 C-273.17298446 379.08162429 -270.40508474 378.07980567 -267.63778687 377.07629395 C-265.92435643 376.45534636 -264.21023344 375.83630488 -262.49526978 375.21960449 C-257.39691121 373.37675108 -252.36683086 371.41114205 -247.35946655 369.33288574 C-245.31640625 368.58203125 -245.31640625 368.58203125 -243.31640625 368.58203125 C-243.62137527 367.50893204 -243.9263443 366.43583282 -244.24055481 365.33021545 C-247.44695904 353.96702675 -250.35733909 342.55135751 -253.140625 331.078125 C-253.60051455 329.19246847 -254.06070885 327.30688624 -254.5211792 325.42137146 C-255.50510789 321.39055067 -256.48746503 317.35935187 -257.46847534 313.32781982 C-260.11457666 302.45398008 -262.76958429 291.58231488 -265.42578125 280.7109375 C-265.70185652 279.58064621 -265.97793179 278.45035492 -266.26237297 277.28581238 C-270.6821416 259.1959331 -275.15063216 241.11847058 -279.64453125 223.046875 C-280.24785656 220.61920363 -280.85115366 218.19152525 -281.454422 215.76383972 C-284.08344417 205.18631586 -286.71510051 194.60946963 -289.35626411 184.03497028 C-290.44365809 179.67744298 -291.52732893 175.3189957 -292.61008453 170.9603138 C-293.1137556 168.936455 -293.61908915 166.9130091 -294.12621307 164.89001274 C-294.8207333 162.11895704 -295.50952748 159.34653636 -296.19702148 156.57373047 C-296.39889415 155.77440818 -296.60076681 154.97508589 -296.80875683 154.15154171 C-299.97778219 141.28710883 -299.97778219 141.28710883 -298.53466797 137.56665039 C-298.10943848 137.08832764 -297.68420898 136.61000488 -297.24609375 136.1171875 C-296.76833496 135.55370605 -296.29057617 134.99022461 -295.79833984 134.40966797 C-295.26805176 133.82717285 -294.73776367 133.24467773 -294.19140625 132.64453125 C-293.07463086 131.33780774 -291.96012946 130.0291381 -290.84765625 128.71875 C-289.97367188 127.70627197 -289.97367188 127.70627197 -289.08203125 126.67333984 C-286.1520611 123.20291336 -283.42806597 119.58046181 -280.69140625 115.95703125 C-279.59936852 114.52182321 -278.50692662 113.08692262 -277.4140625 111.65234375 C-276.89086426 110.96430664 -276.36766602 110.27626953 -275.82861328 109.56738281 C-273.6050669 106.6481256 -271.36816292 103.73924549 -269.12890625 100.83203125 C-267.93201172 99.27742188 -267.93201172 99.27742188 -266.7109375 97.69140625 C-265.92074219 96.6653125 -265.13054687 95.63921875 -264.31640625 94.58203125 C-262.64945333 92.41558474 -260.98293212 90.24880628 -259.31640625 88.08203125 C-258.48308078 86.99869187 -257.64974745 85.91535853 -256.81640625 84.83203125 C-256.40390625 84.29578125 -255.99140625 83.75953125 -255.56640625 83.20703125 C-241.81640625 65.33203125 -241.81640625 65.33203125 -240.56713867 63.70800781 C-239.73133249 62.62144346 -238.8955579 61.5348548 -238.05981445 60.44824219 C-236.01456989 57.78914577 -233.96870634 55.13053185 -231.921875 52.47265625 C-228.25308596 47.70737937 -224.58776128 42.93964981 -220.9375 38.16015625 C-220.35782471 37.4012207 -219.77814941 36.64228516 -219.1809082 35.86035156 C-218.04739906 34.37573299 -216.91439842 32.89072599 -215.78198242 31.40527344 C-215.25967041 30.72110352 -214.7373584 30.03693359 -214.19921875 29.33203125 C-213.73918457 28.72875 -213.27915039 28.12546875 -212.80517578 27.50390625 C-212.31388184 26.8696875 -211.82258789 26.23546875 -211.31640625 25.58203125 C-210.76985162 24.74665423 -210.22329699 23.91127722 -209.66018009 23.05058575 C-206.60671827 19.83456004 -204.69326852 19.69759125 -200.32725525 19.1632843 C-199.63336563 19.07208561 -198.93947601 18.98088691 -198.22455943 18.88692462 C-195.93036637 18.59044972 -193.63366918 18.32523184 -191.33569336 18.05981445 C-189.7100879 17.8557222 -188.08474121 17.6495592 -186.45964718 17.44143391 C-183.08246851 17.01236207 -179.70410162 16.59575214 -176.32410812 16.18945694 C-171.64671569 15.62593667 -166.97439576 15.02818165 -162.30300903 14.41708374 C-154.00521503 13.33466443 -145.70385153 12.28216023 -137.40111279 11.2384088 C-134.95914764 10.93138138 -132.51724723 10.62384335 -130.07536125 10.3161869 C-122.37691644 9.34646073 -114.67823113 8.37867752 -106.97918183 7.41376227 C-98.18964871 6.31214387 -89.40102833 5.20356583 -80.61308819 4.08931273 C-73.73224521 3.21730345 -66.8506392 2.35149556 -59.9684338 1.49030572 C-55.89189581 0.98005738 -51.81571443 0.46729888 -47.74032784 -0.05207253 C-43.92817037 -0.53773857 -40.11511419 -1.01562654 -36.30126381 -1.48780823 C-34.9147046 -1.66078048 -33.52847519 -1.83642375 -32.14264297 -2.01512718 C-7.41016659 -5.19866921 -7.41016659 -5.19866921 0 0 Z " fill="#B8DDF4" transform="translate(359.31640625,17.41796875)"/>
<path d="M0 0 C4.35300916 4.09041464 6.53322672 8.17008268 8.15991211 13.85644531 C8.36918555 14.55719303 8.578459 15.25794075 8.79407406 15.97992325 C11.06226561 23.6692861 13.07784418 31.42506936 15.0625 39.19140625 C15.4704955 40.77459881 15.87890431 42.35768491 16.28768921 43.94067383 C17.15733239 47.31092825 18.02467049 50.68176332 18.8901062 54.05310059 C20.99034824 62.23340522 23.10353361 70.41037091 25.21621132 78.58747101 C25.70111074 80.46440345 26.18587021 82.34137206 26.67049217 84.21837616 C31.39171906 102.50283357 36.1897927 120.76647532 41.0117836 139.02457428 C49.38710122 170.7418943 57.65596661 202.4861039 65.84155273 234.25292969 C66.74444171 237.75590766 67.64754705 241.25882978 68.55078125 244.76171875 C68.77026239 245.61313446 68.98974354 246.46455017 69.21587563 247.34176636 C72.00618085 258.16082807 74.834634 268.96872257 77.7169075 279.76364517 C78.90057743 284.20230438 80.07479653 288.64347775 81.25128174 293.08404541 C82.15696633 296.48212655 83.07888037 299.87551899 84.00146484 303.26904297 C84.53178171 305.26897862 85.06129889 307.26912657 85.58984375 309.26953125 C85.83646759 310.15472443 86.08309143 311.0399176 86.33718872 311.95193481 C87.87062231 317.85624512 87.87062231 317.85624512 86.93920898 321.47070312 C85.17227547 324.44181747 83.27546419 327.28670557 81.24609375 330.08203125 C80.80579834 330.69224121 80.36550293 331.30245117 79.91186523 331.93115234 C71.96112508 342.80225782 62.89750882 352.77668244 53.68359375 362.58203125 C53.27343018 363.11965088 52.8632666 363.65727051 52.44067383 364.21118164 C49.79341422 366.27653703 47.59005599 365.93278513 44.2578125 365.9765625 C32.81349122 366.39598789 21.62634942 368.61355343 10.36907959 370.58990479 C6.44291184 371.27886354 2.51504435 371.95752301 -1.41357422 372.63232422 C-6.63315386 373.52949469 -11.85219412 374.42970016 -17.07080078 375.33251953 C-25.91772689 376.86065531 -34.76804995 378.36663493 -43.62686157 379.82437134 C-45.14978728 380.07615417 -46.67224666 380.33077682 -48.19418335 380.58847046 C-55.61334948 381.84449362 -62.76937173 382.89857354 -70.31640625 382.58203125 C-69.45015625 381.63328125 -68.58390625 380.68453125 -67.69140625 379.70703125 C-58.35082687 368.81706666 -54.62056461 357.84678484 -55.31640625 343.58203125 C-55.61127684 340.90891115 -55.96018181 338.2480602 -56.31640625 335.58203125 C-43.18616695 332.77654628 -30.08371814 330.62065656 -16.76904297 328.90673828 C-11.60448988 328.22299793 -6.46009176 327.40696194 -1.31640625 326.58203125 C-1.31640625 325.59203125 -1.31640625 324.60203125 -1.31640625 323.58203125 C-6.79348941 324.39860059 -12.27036743 325.21652859 -17.74707031 326.03564453 C-19.60508923 326.31334982 -21.46316095 326.59070206 -23.32128906 326.86767578 C-26.01251428 327.26889719 -28.7035639 327.67127169 -31.39453125 328.07421875 C-32.26646118 328.20447449 -33.13839111 328.33473022 -34.03674316 328.46893311 C-39.65190617 329.31368149 -45.24962116 330.22828002 -50.83496094 331.25439453 C-53.71079631 331.6341044 -56.41941078 331.74857485 -59.31640625 331.58203125 C-60.96875 329.82421875 -60.96875 329.82421875 -62.25390625 327.45703125 C-64.69561466 323.34433937 -67.20249084 320.65559036 -70.99609375 317.7734375 C-71.43179688 317.38027344 -71.8675 316.98710937 -72.31640625 316.58203125 C-72.31640625 315.92203125 -72.31640625 315.26203125 -72.31640625 314.58203125 C-65.22259664 312.56705809 -58.01372864 311.59539156 -50.72406006 310.57974243 C-37.85427811 308.78151104 -25.08969623 306.69714849 -12.32592773 304.24902344 C-5.37594737 302.92762622 1.51119892 301.90103197 8.54296875 301.1171875 C17.64302876 300.02490201 26.66722066 298.21038254 35.68359375 296.58203125 C36.01359375 295.59203125 36.34359375 294.60203125 36.68359375 293.58203125 C17.06833551 296.52619994 -2.52309119 299.56531578 -22.06640625 302.95703125 C-38.81713956 305.8626168 -55.5974501 308.54292922 -72.39675903 311.15206909 C-88.08485909 313.58904261 -103.75586034 316.10619733 -119.4074707 318.76782227 C-125.69871291 319.83499837 -131.97323788 320.87361578 -138.31640625 321.58203125 C-138.31640625 322.32453125 -138.31640625 323.06703125 -138.31640625 323.83203125 C-139.46772036 326.99814505 -139.93822832 327.23367826 -142.81640625 328.70703125 C-156.45924101 334.73241249 -156.45924101 334.73241249 -161.31640625 333.58203125 C-163.13295675 332.17993644 -164.8060705 330.6647732 -166.5 329.1171875 C-171.69685084 324.72501034 -176.82729367 324.05871572 -183.31640625 324.58203125 C-184.99083015 325.22896775 -186.65943246 325.89162551 -188.31640625 326.58203125 C-190.37890625 326.58203125 -190.37890625 326.58203125 -192.31640625 325.58203125 C-197.73840075 318.45598134 -198.00512051 312.30236919 -197.31640625 303.58203125 C-196.34868851 299.15537647 -194.99257893 295.80019849 -191.2578125 293.0859375 C-189.68298621 292.14847767 -188.1033477 291.2190649 -186.51953125 290.296875 C-183.83853594 288.21007191 -183.04725122 286.36308893 -181.69140625 283.26953125 C-178.17165108 276.12365468 -172.17508687 273.24675497 -165.41455078 269.68798828 C-162.57077166 268.18899836 -159.76421144 266.62688389 -156.95874023 265.05761719 C-155.57754136 264.28522237 -154.19293752 263.51888363 -152.80493164 262.75878906 C-149.32821716 260.83112269 -146.34154228 258.88530712 -143.37890625 256.20703125 C-139.87534135 253.4554634 -136.31754372 252.82910938 -132.01953125 252.16796875 C-130.48443907 251.91465563 -128.9493652 251.6612316 -127.41430664 251.40771484 C-126.17935959 251.20888702 -126.17935959 251.20888702 -124.91946411 251.00604248 C-121.27325535 250.41211275 -117.63402087 249.77967738 -113.9940033 249.14907837 C-110.01442859 248.46047523 -106.03319951 247.78168641 -102.05200195 247.10253906 C-100.02515686 246.75642503 -97.99846297 246.40942435 -95.97192383 246.06152344 C-84.97723296 244.17412964 -73.98062839 242.34897714 -62.94392395 240.72412109 C-52.17367144 239.13181435 -41.43459059 237.34608462 -30.69140625 235.58203125 C-28.57423761 235.23556183 -26.45705016 234.88920731 -24.33984375 234.54296875 C-22.25650467 234.20185801 -20.17317126 233.86071263 -18.08984375 233.51953125 C-17.0833075 233.35493408 -16.07677124 233.19033691 -15.03973389 233.02075195 C-10.34429119 232.25102298 -5.65099065 231.47173362 -0.96191406 230.6640625 C-0.13720612 230.52299072 0.68750183 230.38191895 1.53720093 230.23657227 C3.05378932 229.97631081 4.56981602 229.71274326 6.08511353 229.44506836 C9.65888434 228.83334618 13.05642676 228.44127289 16.68359375 228.58203125 C16.98652344 229.42765625 17.28945313 230.27328125 17.6015625 231.14453125 C22.56948054 244.72944671 22.56948054 244.72944671 32.68359375 254.58203125 C36.26950846 255.41586427 36.26950846 255.41586427 39.68359375 254.58203125 C43.56811948 251.01246706 45.37803734 246.71046713 45.89038086 241.46484375 C46.48614331 226.78278111 45.34470406 213.33868129 38.87109375 199.95703125 C38.55205078 199.29348633 38.23300781 198.62994141 37.90429688 197.94628906 C35.51595071 193.35567104 32.91194326 190.5847722 28.68359375 187.58203125 C25.1481861 186.34963254 25.1481861 186.34963254 21.68359375 186.58203125 C17.45618773 189.04801809 16.59679261 193.20194513 15.30322266 197.65600586 C14.20859373 202.8250869 14.37147459 207.94746346 14.49609375 213.20703125 C14.50962891 214.30660156 14.52316406 215.40617188 14.53710938 216.5390625 C14.57208575 219.22058457 14.62116303 221.90103198 14.68359375 224.58203125 C8.85775467 226.12011966 3.06557088 227.26510647 -2.8828125 228.2109375 C-3.8094873 228.36120392 -4.73616211 228.51147034 -5.69091797 228.66629028 C-8.75308358 229.16217028 -11.81598733 229.65332765 -14.87890625 230.14453125 C-17.04750416 230.49483041 -19.2160414 230.84550539 -21.38452148 231.1965332 C-24.80390368 231.74999023 -28.22332934 232.30316478 -31.64295959 232.85508728 C-41.17731462 234.39433869 -50.70802693 235.95522934 -60.23794556 237.52168274 C-70.56059195 239.21829649 -80.88485973 240.90482038 -91.20996094 242.58642578 C-95.06784748 243.21481368 -98.92529402 243.84576431 -102.78222656 244.47998047 C-106.67283359 245.11943425 -110.56452841 245.75165477 -114.45748901 246.37661743 C-116.43484523 246.69588068 -118.41093285 247.02297058 -120.38696289 247.3503418 C-121.53285889 247.53250244 -122.67875488 247.71466309 -123.859375 247.90234375 C-124.8289917 248.05977051 -125.7986084 248.21719727 -126.79760742 248.37939453 C-129.2686919 248.57819264 -130.97638258 248.34723104 -133.31640625 247.58203125 C-132.99027344 247.10894531 -132.66414063 246.63585937 -132.328125 246.1484375 C-126.85776805 237.87028672 -123.79436247 229.63033878 -125.31640625 219.58203125 C-127.30397813 213.89536725 -129.46903805 210.14505403 -134.31640625 206.58203125 C-134.31640625 205.92203125 -134.31640625 205.26203125 -134.31640625 204.58203125 C-111.67534856 200.48981035 -89.025971 196.46538904 -66.31640625 192.76953125 C-65.45735687 192.62909393 -64.5983075 192.48865662 -63.71322632 192.34396362 C-50.93668105 190.25937828 -38.13694843 188.37526597 -25.31640625 186.58203125 C-24.98640625 185.59203125 -24.65640625 184.60203125 -24.31640625 183.58203125 C-41.73847454 186.21847602 -59.13317134 189.00075619 -76.51776123 191.87335205 C-80.54574439 192.53671454 -84.57468621 193.19392859 -88.60400391 193.84912109 C-104.83170533 196.4802508 -104.83170533 196.4802508 -121.01953125 199.34375 C-135.55125999 201.98778353 -149.69676112 203.03564421 -164.44140625 203.08203125 C-165.72540314 203.08931244 -165.72540314 203.08931244 -167.03533936 203.09674072 C-169.46563137 203.1018601 -171.89414702 203.08201439 -174.32421875 203.05078125 C-175.04454285 203.05032806 -175.76486694 203.04987488 -176.50701904 203.04940796 C-182.00197234 202.92257625 -186.14448315 201.62646201 -190.1796875 197.828125 C-190.89705078 196.93287109 -190.89705078 196.93287109 -191.62890625 196.01953125 C-192.12003906 195.42011719 -192.61117187 194.82070312 -193.1171875 194.203125 C-196.53133478 189.58790962 -195.89938108 184.07961946 -195.31640625 178.58203125 C-192.47600572 170.04755677 -185.51376251 162.96903341 -177.69140625 158.76953125 C-168.80906791 155.07784809 -158.79069893 154.64925454 -149.31640625 153.58203125 C-133.86623623 151.76477852 -119.01505506 149.6150359 -108.3046875 137.26171875 C-104.61814751 131.91666543 -103.62773674 127.16358465 -103.51953125 120.734375 C-105.98893662 110.96569787 -113.10076178 106.10913576 -121.25390625 101.01953125 C-138.80674613 89.94773994 -138.80674613 89.94773994 -141.875 80.1640625 C-144.00370366 67.71208801 -142.71512988 56.87436357 -135.7421875 46.1640625 C-134.03666893 43.85425763 -132.23426631 41.71818432 -130.31640625 39.58203125 C-129.6821875 38.855 -129.04796875 38.12796875 -128.39453125 37.37890625 C-114.2145733 22.13278605 -93.54096975 12.71778626 -74.31640625 5.58203125 C-74.81140625 4.59203125 -74.81140625 4.59203125 -75.31640625 3.58203125 C-67.58064654 2.57356543 -59.84328955 1.57810719 -52.10473633 0.59130859 C-49.47692494 0.25562896 -46.84984442 -0.08473686 -44.22290039 -0.42724609 C-40.42819683 -0.92148696 -36.63225503 -1.40505106 -32.8359375 -1.88671875 C-31.67810257 -2.03983521 -30.52026764 -2.19295166 -29.3273468 -2.35070801 C-7.28204727 -5.10878595 -7.28204727 -5.10878595 0 0 Z " fill="#DAEFF9" transform="translate(359.31640625,17.41796875)"/>
<path d="M0 0 C0.84083557 2.02708435 0.84083557 2.02708435 1.50219727 4.72827148 C1.88257896 6.24136147 1.88257896 6.24136147 2.27064514 7.78501892 C2.53324631 8.88592361 2.79584747 9.98682831 3.06640625 11.12109375 C3.34596664 12.2501564 3.62552704 13.37921906 3.91355896 14.54249573 C4.80864954 18.17131106 5.68546692 21.80428304 6.5625 25.4375 C7.15706875 27.85379504 7.75275828 30.26981459 8.34960938 32.68554688 C15.38488864 61.31349744 15.38488864 61.31349744 15.3125 71.875 C15.30686035 72.74487549 15.3012207 73.61475098 15.29541016 74.51098633 C15.05324032 87.40473184 11.70467046 95.907707 3.6875 105.875 C-4.103715 112.03549558 -13.44887939 111.73627482 -23 111 C-34.12569678 109.16104186 -43.46895908 103.09979245 -50 94 C-54.90221781 85.75436766 -58.00051554 76.52538638 -61.30371094 67.55957031 C-62.2496617 65.00091506 -63.21423264 62.44978674 -64.1796875 59.8984375 C-64.79281717 58.2452179 -65.40483432 56.59158518 -66.015625 54.9375 C-66.30101135 54.18927979 -66.58639771 53.44105957 -66.88043213 52.67016602 C-69.60707518 45.15593623 -71.39603217 37.35731819 -68.00390625 29.8125 C-62.83592218 20.48197623 -54.11431466 17.87272906 -44.6015625 14.46875 C-43.72656097 14.15095581 -42.85155945 13.83316162 -41.95004272 13.5057373 C-39.17665065 12.49927609 -36.40098121 11.49929522 -33.625 10.5 C-30.85657821 9.49959304 -28.08867849 8.49777442 -25.32138062 7.4942627 C-23.60795018 6.87331511 -21.89382719 6.25427363 -20.17886353 5.63757324 C-15.09084999 3.79845914 -10.10209651 1.8134083 -5.14071655 -0.34680176 C-3 -1 -3 -1 0 0 Z " fill="#503B4E" transform="translate(117,387)"/>
<path d="M0 0 C0.66 0 1.32 0 2 0 C2.23952393 0.94576904 2.23952393 0.94576904 2.48388672 1.91064453 C9.84795179 30.72093418 18.40362927 59.96554048 32.28515625 86.40625 C34.55396224 91.16092315 34.99969632 94.84639311 34 100 C32.32662143 103.33304093 30.10483936 105.43339413 26.75634766 107.15063477 C23.38984354 108.18801898 20.60828108 108.17539637 17.0859375 108.08984375 C15.68914069 108.06642576 14.29232975 108.0438405 12.89550781 108.02197266 C12.16029907 108.00741028 11.42509033 107.9928479 10.66760254 107.97784424 C-20.20024582 107.43464505 -49.85023201 110.88218626 -79.94482422 117.66357422 C-80.82799316 117.85580566 -81.71116211 118.04803711 -82.62109375 118.24609375 C-83.37704834 118.41681396 -84.13300293 118.58753418 -84.91186523 118.76342773 C-87.20357052 119.02306323 -88.81526965 118.69240287 -91 118 C-89.92685547 116.67162109 -89.92685547 116.67162109 -88.83203125 115.31640625 C-81.58147244 106.31291098 -74.50919112 97.18680585 -67.51220703 87.98535156 C-65.28866065 85.06609435 -63.05175667 82.15721424 -60.8125 79.25 C-60.01457031 78.21359375 -59.21664062 77.1771875 -58.39453125 76.109375 C-57.60433594 75.08328125 -56.81414062 74.0571875 -56 73 C-54.33304708 70.83355349 -52.66652587 68.66677503 -51 66.5 C-50.16667453 65.41666062 -49.3333412 64.33332728 -48.5 63.25 C-48.0875 62.71375 -47.675 62.1775 -47.25 61.625 C-33.5 43.75 -33.5 43.75 -32.25073242 42.12597656 C-31.41492624 41.03941221 -30.57915165 39.95282355 -29.7434082 38.86621094 C-27.69816364 36.20711452 -25.65230009 33.5485006 -23.60546875 30.890625 C-18.74751195 24.58077481 -13.90062682 18.26257096 -9.0625 11.9375 C-8.50651123 11.21079102 -7.95052246 10.48408203 -7.37768555 9.73535156 C-6.85215088 9.04795898 -6.32661621 8.36056641 -5.78515625 7.65234375 C-5.29418457 7.01280762 -4.80321289 6.37327148 -4.29736328 5.71435547 C-3.25142542 4.33223736 -2.24259133 2.92208433 -1.24609375 1.50390625 C-0.62927734 0.75947266 -0.62927734 0.75947266 0 0 Z " fill="#347DBD" transform="translate(151,39)"/>
<path d="M0 0 C7.75705929 5.51790815 12.5185739 11.34675986 17.2734375 19.6171875 C17.8715625 20.5865625 18.4696875 21.5559375 19.0859375 22.5546875 C23.70877058 34.47673071 22.93735309 45.90654585 18.2734375 57.6171875 C12.18603801 68.68182245 2.14864261 74.99211913 -9.4765625 78.8671875 C-21.99620527 81.58884897 -34.87248434 79.16812891 -45.9765625 72.9296875 C-58.04989918 64.99974551 -67.18226766 54.84958752 -70.7265625 40.6171875 C-71.15353979 37.4987696 -71.25243259 34.44984367 -71.2265625 31.3046875 C-71.22011719 30.47727051 -71.21367187 29.64985352 -71.20703125 28.79736328 C-70.89525086 18.27682633 -67.27666487 10.17669221 -59.9609375 2.5859375 C-56.19845781 -0.7292544 -52.21459528 -3.17070156 -47.7265625 -5.3828125 C-47.06527344 -5.723125 -46.40398437 -6.0634375 -45.72265625 -6.4140625 C-31.21995939 -12.54436098 -12.62337079 -8.21131886 0 0 Z " fill="#EC2B61" transform="translate(326.7265625,55.3828125)"/>
<path d="M0 0 C-1.36013631 3.1586426 -2.75754813 4.885763 -5.4921875 6.953125 C-6.54019531 7.75302856 -6.54019531 7.75302856 -7.609375 8.5690918 C-8.73085938 9.40114136 -8.73085938 9.40114136 -9.875 10.25 C-10.64585937 10.82339111 -11.41671875 11.39678223 -12.2109375 11.98754883 C-13.76107879 13.13513781 -15.31410212 14.27884499 -16.87011719 15.41845703 C-18.67981541 16.76224716 -20.44218891 18.14269739 -22.1953125 19.55859375 C-27.55156912 23.62427601 -31.7129447 25.38758076 -38.4375 25.9765625 C-45.31490718 26.65976464 -52.11675455 27.58364469 -58.9375 28.69921875 C-59.89985062 28.8563031 -60.86220123 29.01338745 -61.85371399 29.17523193 C-64.90301648 29.67610088 -67.95151961 30.18165362 -71 30.6875 C-73.15515719 31.04212276 -75.31034982 31.3965302 -77.46557617 31.75073242 C-93.03876597 34.3164004 -108.6005885 36.94922153 -124.15039062 39.65307617 C-135.40994367 41.60356549 -146.69332783 43.34509342 -158 45 C-158.33 45.99 -158.66 46.98 -159 48 C-156.92690021 47.66153473 -154.85380043 47.32306941 -152.78070068 46.98460388 C-150.88987236 46.67589743 -148.99904391 46.36719181 -147.10821533 46.05848694 C-141.72472831 45.17955413 -136.34124383 44.30060575 -130.95776367 43.42163086 C-120.46773708 41.7089126 -109.97769501 39.99628938 -99.48756409 38.28421021 C-95.00617682 37.55280418 -90.52480125 36.82132651 -86.04342651 36.08984375 C-83.89623592 35.73938467 -81.74903951 35.38896126 -79.60183716 35.03857422 C-76.59522044 34.54794189 -73.58862377 34.05718685 -70.58203125 33.56640625 C-69.25392426 33.34973045 -69.25392426 33.34973045 -67.89898682 33.12867737 C-67.07485291 32.99412643 -66.25071899 32.8595755 -65.40161133 32.72094727 C-64.639151 32.59675919 -63.87669067 32.47257111 -63.09112549 32.34461975 C-61.25075854 32.04132528 -59.41242764 31.7257305 -57.57446289 31.40820312 C-54.88056872 30.98106315 -52.34998132 30.90067593 -49.625 30.9375 C-48.31402344 30.95103516 -48.31402344 30.95103516 -46.9765625 30.96484375 C-46.32429688 30.97644531 -45.67203125 30.98804688 -45 31 C-45 31.66 -45 32.32 -45 33 C-73.31982694 46.95577317 -119.40512628 68.37073715 -151.5625 57.8125 C-156.41841885 55.25210643 -159.90966238 52.63550643 -163 48 C-164.06527068 42.89899231 -163.28956612 38.76097056 -160.625 34.3125 C-154.65741411 26.26679009 -144.88439897 22.07147626 -135.18115234 20.5612793 C-134.11848145 20.42117432 -133.05581055 20.28106934 -131.9609375 20.13671875 C-126.07609789 19.32039999 -120.22192608 18.38812642 -114.3671875 17.37890625 C-113.51660767 17.23236603 -112.66602783 17.08582581 -111.78967285 16.93484497 C-108.27831452 16.32799154 -104.76755393 15.71772315 -101.25683594 15.10717773 C-90.9739501 13.32182082 -80.68751023 11.62016821 -70.36242676 10.09632874 C-62.45361576 8.92793739 -54.56195605 7.6631765 -46.671875 6.375 C-44.36738796 5.99875722 -42.06262752 5.62422789 -39.7578125 5.25 C-38.61484711 5.06401245 -38.61484711 5.06401245 -37.4487915 4.87426758 C-35.92393549 4.62617352 -34.39899327 4.37860874 -32.8739624 4.1315918 C-28.95335075 3.49371743 -25.03767835 2.83507253 -21.12597656 2.14453125 C-20.32592194 2.0053125 -19.52586731 1.86609375 -18.7015686 1.72265625 C-17.1894886 1.45874669 -15.67830294 1.18963232 -14.16830444 0.9140625 C-9.37986964 0.08394719 -4.86073561 -0.11464321 0 0 Z " fill="#D8EDF7" transform="translate(403,387)"/>
<path d="M0 0 C0 3.60648031 -0.89987686 4.65229471 -2.9375 7.5625 C-5.59844736 11.39350931 -7.15610923 13.66481305 -7.25 18.375 C-7.27578125 19.14585937 -7.3015625 19.91671875 -7.328125 20.7109375 C-6.90548157 23.65937854 -6.15342689 24.94340815 -4 27 C-1.40292013 27.5505159 -1.40292013 27.5505159 1.4375 27.5 C6.7028434 27.8134133 6.7028434 27.8134133 9.6875 29.6875 C11.42189232 32.74333409 11.32270053 34.50477609 11 38 C9.3767596 41.37484931 7.47242651 44.48296343 5.53125 47.68359375 C3.79862958 51.43613135 3.62710262 53.91304469 4 58 C5.04374022 60.04451019 5.04374022 60.04451019 7 61 C9.42860203 61.41702674 9.42860203 61.41702674 12 61 C13.93127804 59.30703223 13.93127804 59.30703223 15.5 57.0625 C17.44113829 54.46668535 18.46816146 53.19779798 21.53125 52.05859375 C24 52 24 52 25.78515625 52.94140625 C27.94956136 56.60906379 27.43571241 60.95149205 27.43945312 65.10742188 C27.5345156 68.64440171 27.69725225 70.61305247 29.91015625 73.44140625 C33.75077722 76.30571983 36.10487261 76.15848345 40.74609375 75.5625 C44.33201494 74.66757339 45.83746143 72.92578748 48 70 C51.32428876 63.87461563 51.43217698 58.57575743 51.3125 51.6875 C51.3019458 50.62877686 51.2913916 49.57005371 51.28051758 48.47924805 C51.06605728 35.61260069 49.87793298 23.16642934 46.5859375 10.69921875 C46.00911762 8.04200185 45.8914422 5.70901068 46 3 C48.38498635 6.57747952 49.15777866 10.09057084 50.12890625 14.2109375 C50.32346909 15.01608795 50.51803192 15.8212384 50.7184906 16.65078735 C51.3387867 19.22421012 51.95061785 21.7995652 52.5625 24.375 C52.97798677 26.10168984 53.39399649 27.82825394 53.81054688 29.5546875 C57.87686451 46.46612607 62.32172036 66.28229404 53.640625 82.546875 C49.52756129 89.03449096 45.35562474 94.28435421 37.78515625 96.49609375 C24.8453876 98.83723001 13.31662444 96.7375449 2.3203125 89.72265625 C-9.3654984 81.04682694 -13.473291 66.67071013 -18.30371094 53.55957031 C-19.2496617 51.00091506 -20.21423264 48.44978674 -21.1796875 45.8984375 C-21.79281717 44.2452179 -22.40483432 42.59158518 -23.015625 40.9375 C-23.30101135 40.18927979 -23.58639771 39.44105957 -23.88043213 38.67016602 C-26.60707518 31.15593623 -28.39603217 23.35731819 -25.00390625 15.8125 C-19.50849953 5.89083184 -10.12860363 3.50032625 0 0 Z " fill="#36283B" transform="translate(74,401)"/>
<path d="M0 0 C0.66 0 1.32 0 2 0 C3.24016426 4.32485959 4.43628494 8.66074316 5.625 13 C5.975625 14.22074219 6.32625 15.44148438 6.6875 16.69921875 C8.5828611 23.71205481 9.42114555 28.13497972 7 35 C5.85341233 45.66593179 8.29391897 51.6001801 14.6875 59.875 C15.28949219 60.61492187 15.89148438 61.35484375 16.51171875 62.1171875 C19.1066365 65.39999684 19.17267373 67.86902223 19.328125 72.02734375 C19 74 19 74 17.8828125 75.66796875 C15.25185465 77.52928955 12.78562486 77.81809356 9.625 78.375 C4.26458482 79.52790526 1.32834177 80.42353006 -2 85 C-2.37898438 85.6084375 -2.75796875 86.216875 -3.1484375 86.84375 C-5.40389272 90.34904346 -6.43549358 91.77419743 -10.4375 93.375 C-14.28723202 92.96976505 -14.69738507 92.77718508 -17.125 90.0625 C-19.61077545 86.75256371 -21.82070811 83.26419857 -23.921875 79.69921875 C-25.01539045 77.83911739 -25.01539045 77.83911739 -27 76 C-29.95862429 75.61261875 -31.45303317 75.63317195 -33.95703125 77.3125 C-34.56933594 77.869375 -35.18164062 78.42625 -35.8125 79 C-38.60551306 81.21442279 -40.52774807 82.48803479 -44.125 82.6875 C-49.06927612 81.81028972 -50.56436878 80.5992327 -54 77 C-54.70420841 75.68610779 -55.38008503 74.3557019 -56 73 C-33.5 43.75 -33.5 43.75 -32.25073242 42.12597656 C-31.41492624 41.03941221 -30.57915165 39.95282355 -29.7434082 38.86621094 C-27.69816364 36.20711452 -25.65230009 33.5485006 -23.60546875 30.890625 C-18.74751195 24.58077481 -13.90062682 18.26257096 -9.0625 11.9375 C-8.50651123 11.21079102 -7.95052246 10.48408203 -7.37768555 9.73535156 C-6.58938354 8.7042627 -6.58938354 8.7042627 -5.78515625 7.65234375 C-5.29418457 7.01280762 -4.80321289 6.37327148 -4.29736328 5.71435547 C-3.25142542 4.33223736 -2.24259133 2.92208433 -1.24609375 1.50390625 C-0.62927734 0.75947266 -0.62927734 0.75947266 0 0 Z " fill="#42B3E6" transform="translate(151,39)"/>
<path d="M0 0 C0 0.33 0 0.66 0 1 C-0.61746094 1.08636719 -1.23492187 1.17273437 -1.87109375 1.26171875 C-9.22485461 2.48174909 -15.96222703 4.31127568 -20.859375 10.2578125 C-25.03852474 16.44693425 -26.67686673 20.50523935 -26 28 C-24.72220256 32.03514981 -23.66618232 34.38381958 -20.55395508 37.26245117 C-17.59527438 40.43381975 -16.63744715 42.93599894 -15.32421875 47.05078125 C-15.10933304 47.70958786 -14.89444733 48.36839447 -14.67304993 49.04716492 C-13.99684226 51.13130732 -13.34193789 53.22143234 -12.6875 55.3125 C-12.2299124 56.73547596 -11.77094113 58.15800776 -11.31054688 59.58007812 C-10.19098999 63.04839544 -9.09042134 66.52239715 -8 70 C-4.37 70 -0.74 70 3 70 C2.71125 69.02417969 2.4225 68.04835938 2.125 67.04296875 C1.74978981 65.75787385 1.37480138 64.47271419 1 63.1875 C0.62875 61.92292969 0.2575 60.65835938 -0.125 59.35546875 C-1 56 -1 56 -1 53 C3.49507119 51.24582588 7.1784417 50.71637892 12 51 C13 52 13 52 13.125 55.375 C13 59 13 59 12 62 C11.60515378 65.06287855 11.52004196 67.94371548 12 71 C14.60400196 74.23527516 16.24204516 74.87129069 20.3125 75.5625 C27.15699046 74.51842518 31.42056985 71.03227482 35.75 65.75 C38.46583579 62.04433796 40.46262909 58.29871778 42.17578125 54.04296875 C43.01369359 51.96605808 43.97564443 49.99055994 45 48 C45.67927604 58.52877862 42.24512357 66.54332677 35.61328125 74.70703125 C28.35374582 82.77513479 17.81033958 87.32359711 7.11328125 88.25 C-8.17940461 88.84030874 -20.66253678 83.51773218 -32.1875 73.8125 C-40.53884501 65.99952786 -46.70051558 55.98767306 -47.46875 44.38671875 C-47.50295941 42.82065146 -47.51288413 41.2538879 -47.5 39.6875 C-47.49355469 38.86008301 -47.48710937 38.03266602 -47.48046875 37.18017578 C-47.16868836 26.65963883 -43.55010237 18.55950471 -36.234375 10.96875 C-25.17395465 1.2232048 -14.24819529 -0.5068528 0 0 Z " fill="#A91F38" transform="translate(303,47)"/>
<path d="M0 0 C7.84616512 2.57029547 11.20320953 7.51180261 14.875 14.625 C20.21019205 25.62702094 21.83867267 36.45344147 22.0625 48.5625 C22.09633789 49.79274902 22.09633789 49.79274902 22.13085938 51.04785156 C22.10399337 57.68644052 20.52229956 63.72414072 16.18920898 68.90380859 C14.625 70.1875 14.625 70.1875 11.4375 70.8125 C5.8811632 69.90162511 3.13268737 67.51891044 -0.375 63.1875 C-4.14232142 56.92314859 -7.68256708 50.58444213 -8.375 43.1875 C-6.40677114 41.21927114 -3.02691291 41.52501619 -0.375 41.1875 C-0.375 40.5275 -0.375 39.8675 -0.375 39.1875 C-3.675 39.1875 -6.975 39.1875 -10.375 39.1875 C-12.91537018 29.08747983 -13.18926572 14.56468423 -8.375 5.1875 C-5.69232746 1.38704724 -4.66903329 0.25939074 0 0 Z " fill="#B8DDF4" transform="translate(384.375,202.8125)"/>
<path d="M0 0 C5.47683936 2.41279863 9.49168356 6.44873129 12.81640625 11.3828125 C14.49065285 16.15246852 14.32954629 21.41041321 13.81640625 26.3828125 C11.29719963 31.61501086 7.04566567 35.76818279 1.81640625 38.3828125 C-5.37094953 39.09543984 -11.5852648 39.31858982 -17.53515625 34.875 C-22.7834584 30.12416725 -25.8533525 25.74026526 -26.55859375 18.5703125 C-26.39709997 13.22083096 -24.40165316 8.72541536 -20.72265625 4.83984375 C-14.40597839 -0.62712871 -8.14887734 -2.3032605 0 0 Z " fill="#6C739B" transform="translate(208.18359375,409.6171875)"/>
<path d="M0 0 C4.37431678 2.88358576 7.2358327 6.66275823 9.26953125 11.49609375 C10.25016505 18.14375864 9.67103644 23.35445909 5.703125 28.83984375 C2.12431928 32.97448579 -1.06944066 35.20492863 -6.55078125 35.8046875 C-13.40534737 36.07206419 -18.34197232 35.77323184 -23.8515625 31.4609375 C-28.30396296 26.80489294 -30.92082543 21.32387539 -31.35546875 14.87109375 C-30.97056882 8.65770916 -27.61729363 4.28857739 -23.23046875 0.12109375 C-15.05892521 -5.19040955 -8.30618948 -4.50397064 0 0 Z " fill="#6C749B" transform="translate(191.73046875,344.50390625)"/>
<path d="M0 0 C4.80245686 2.98819538 7.28174325 6.6807158 9 12 C9.92039621 17.36897792 9.59538078 21.6370574 6.8125 26.375 C3.87724293 30.49101204 0.85715334 33.38094889 -4 35 C-11.80859116 35.85440263 -17.83917689 35.69992024 -24.19140625 30.79296875 C-26.91361959 28.09427346 -28.39440134 25.4787971 -30 22 C-30.33 21.34 -30.66 20.68 -31 20 C-31.55674965 14.04706147 -31.54141118 9.02651909 -28 4 C-19.26893616 -4.96820385 -10.98465498 -5.95777897 0 0 Z " fill="#6C739B" transform="translate(171,277)"/>
<path d="M0 0 C5.86178 2.8497581 9.72220702 7.44230382 12.875 13.0625 C14.48401548 20.03490042 13.11056265 25.50178759 9.4375 31.5 C6.03382582 35.25026241 2.66583864 37.31631263 -2.453125 37.73828125 C-9.44872015 37.8928351 -13.99991256 37.90371506 -19.5625 33.5 C-24.39043927 28.77560902 -26.83336118 23.96087791 -27 17.1875 C-26.86142221 11.46731681 -25.57772199 7.6272747 -21.5625 3.5 C-14.54209038 -1.9721824 -8.27472682 -3.12227425 0 0 Z " fill="#6C749B" transform="translate(145.5625,206.5)"/>
<path d="M0 0 C1.85776765 3.13498292 2.20140476 5.37471432 2 9 C-4.86102966 11.46293372 -11.66129099 13.37634405 -19 13 C-18.01 16.3 -17.02 19.6 -16 23 C-14.74703125 22.69964844 -13.4940625 22.39929688 -12.203125 22.08984375 C-10.55219443 21.70525197 -8.90114651 21.32116365 -7.25 20.9375 C-6.425 20.73833984 -5.6 20.53917969 -4.75 20.33398438 C-3.95078125 20.15029297 -3.1515625 19.96660156 -2.328125 19.77734375 C-1.5949707 19.60452881 -0.86181641 19.43171387 -0.10644531 19.25366211 C2 19 2 19 6 20 C6.66 22.64 7.32 25.28 8 28 C3.84157778 29.85715944 -0.36005628 30.78990051 -4.8125 31.625 C-5.50537109 31.7590625 -6.19824219 31.893125 -6.91210938 32.03125 C-8.60722609 32.35858288 -10.30350146 32.67990594 -12 33 C-11.71125 33.80824219 -11.4225 34.61648437 -11.125 35.44921875 C-10.75375 36.51785156 -10.3825 37.58648437 -10 38.6875 C-9.443125 40.27111328 -9.443125 40.27111328 -8.875 41.88671875 C-8.0608143 44.78362056 -7.82290204 47.01700623 -8 50 C-11.67410785 51.17571451 -15.16929183 51.07366746 -19 51 C-22.33308936 43.02646657 -25.19581802 34.9082356 -28.00146484 26.73852539 C-28.75751508 24.54065333 -29.5211875 22.34552099 -30.28515625 20.15039062 C-30.76869197 18.74755527 -31.25178156 17.34456604 -31.734375 15.94140625 C-32.07647003 14.96174644 -32.07647003 14.96174644 -32.42547607 13.96229553 C-33.37952723 11.16361109 -34 8.98203026 -34 6 C-30.12397123 5.13747081 -26.24620606 4.28327549 -22.36669922 3.43652344 C-20.40366834 3.00628328 -18.44205433 2.56959485 -16.48046875 2.1328125 C-15.23652344 1.86210938 -13.99257813 1.59140625 -12.7109375 1.3125 C-10.99849854 0.93544922 -10.99849854 0.93544922 -9.25146484 0.55078125 C-6.0963858 0.01632725 -3.19251777 -0.10148401 0 0 Z " fill="#FEFAFB" transform="translate(314,67)"/>
<path d="M0 0 C-0.33 1.32 -0.66 2.64 -1 4 C-11.98876424 6.102352 -22.96378392 8.07238088 -34.0625 9.5 C-41.84957174 10.50719094 -49.51364101 11.81466868 -57.21128845 13.35501099 C-64.43898632 14.76829009 -71.69442015 15.90032019 -78.97939682 16.97508621 C-91.40663173 18.81191054 -103.81550649 20.74897767 -116.2109375 22.7890625 C-116.91796751 22.90539913 -117.62499752 23.02173576 -118.35345268 23.14159775 C-122.64173006 23.84790208 -126.9295003 24.55724635 -131.21710205 25.26763916 C-134.85286765 25.86974374 -138.48892937 26.47005319 -142.125 27.0703125 C-142.83856281 27.18814968 -143.55212563 27.30598686 -144.28731155 27.42739487 C-147.77453074 28.00306451 -151.26192453 28.57764159 -154.74969482 29.14996338 C-155.40800922 29.2579916 -156.06632362 29.36601982 -156.74458694 29.47732162 C-157.38929317 29.5830965 -158.0339994 29.68887138 -158.69824219 29.79785156 C-163.17502207 30.53236515 -167.64960277 31.27778697 -172.12207031 32.03808594 C-173.84437129 32.32504839 -175.56669932 32.61184862 -177.2890625 32.8984375 C-178.03682953 33.0293277 -178.78459656 33.1602179 -179.55502319 33.29507446 C-182.95929986 33.85321673 -185.71983247 34.22913965 -189 33 C-188.67 32.01 -188.34 31.02 -188 30 C-173.2207388 27.06298116 -158.39934801 24.56122296 -143.50994873 22.2515564 C-137.24503873 21.27939342 -130.98203346 20.29507773 -124.71875 19.3125 C-123.46798676 19.11657761 -122.21722351 18.92065521 -120.92855835 18.71879578 C-109.40469231 16.91186028 -97.88768755 15.06426763 -86.375 13.1875 C-85.48503326 13.04244019 -84.59506653 12.89738037 -83.6781311 12.7479248 C-73.29150935 11.05249163 -62.91358747 9.31652876 -52.5480957 7.49584961 C-44.20771573 6.03144782 -35.86448 4.58456318 -27.51583862 3.16799927 C-25.89964349 2.89263231 -24.28384611 2.61491898 -22.66848755 2.33468628 C-20.39589744 1.94080863 -18.12200519 1.55544851 -15.84765625 1.171875 C-15.17460449 1.05334671 -14.50155273 0.93481842 -13.80810547 0.81269836 C-9.13235427 0.03652454 -4.72019813 -0.09850848 0 0 Z " fill="#5E4D5F" transform="translate(373,171)"/>
<path d="M0 0 C0 1.32 0 2.64 0 4 C-0.74263596 4.11639832 -1.48527191 4.23279663 -2.25041199 4.35272217 C-9.35231139 5.46648262 -16.45366905 6.58361607 -23.55448437 7.70426559 C-27.20246982 8.27987569 -30.8506308 8.85431302 -34.49926758 9.42578125 C-54.1965194 12.48342211 -54.1965194 12.48342211 -73.80078125 16.078125 C-82.79832362 17.86606449 -91.83819389 19.16095897 -100.92337036 20.41859436 C-115.05831543 22.39216554 -129.11798233 24.79820485 -143.1875 27.1875 C-147.18621096 27.86565247 -151.18519117 28.54214566 -155.18464661 29.21589661 C-157.64037692 29.62967171 -160.09571803 30.04576625 -162.55058289 30.46464539 C-168.69199592 31.50032656 -174.80193499 32.3846679 -181 33 C-181 31.68 -181 30.36 -181 29 C-156.54796275 24.51503201 -132.06289789 20.31343301 -107.51757812 16.37199402 C-99.62688743 15.10413619 -91.73973005 13.81522129 -83.85310364 12.52235413 C-73.60373195 10.84216656 -63.35290037 9.17104028 -53.10131836 7.50439453 C-51.01158884 7.16452354 -48.92190882 6.824348 -46.83227539 6.48388672 C-40.63175322 5.4736706 -34.43049019 4.46826022 -28.22799683 3.47021484 C-26.30254123 3.15967504 -24.37734351 2.84753154 -22.4524231 2.53369141 C-19.79840589 2.10133162 -17.14349879 1.67491687 -14.48828125 1.25 C-13.71248718 1.12230225 -12.93669312 0.99460449 -12.13739014 0.86303711 C-8.049722 0.21599445 -4.13818154 -0.13091627 0 0 Z " fill="#5B4A5D" transform="translate(384,241)"/>
<path d="M0 0 C-0.33 1.32 -0.66 2.64 -1 4 C-28.54534504 8.89908237 -28.54534504 8.89908237 -41.125 10.5 C-50.27885897 11.67135492 -59.30377866 13.32072287 -68.36532593 15.05914307 C-76.19252851 16.53724203 -84.02202995 17.76099553 -91.9140625 18.83203125 C-102.16349019 20.26033658 -112.375546 21.84685413 -122.578125 23.578125 C-123.86794281 23.79678726 -125.15776062 24.01544952 -126.48666382 24.24073792 C-131.75861685 25.13765802 -137.0296812 26.03966141 -142.29980469 26.94726562 C-146.22475264 27.62275074 -150.1514387 28.28781905 -154.078125 28.953125 C-155.26142395 29.15931458 -156.4447229 29.36550415 -157.66387939 29.57794189 C-163.5323922 30.56793338 -169.04822758 31.23850786 -175 31 C-175 30.01 -175 29.02 -175 28 C-168.3264904 26.20520178 -161.62840594 25.03024913 -154.80859375 23.93359375 C-153.61556641 23.73893524 -152.42253906 23.54427673 -151.19335938 23.34371948 C-147.95088916 22.81527034 -144.70795716 22.28977555 -141.46479416 21.7655983 C-138.04196958 21.21164666 -134.61976319 20.65390288 -131.19750977 20.09643555 C-126.26137495 19.29265304 -121.32506048 18.48999104 -116.38851833 17.68871403 C-108.01798543 16.32987687 -99.64912739 14.96104591 -91.28125 13.5859375 C-78.93402065 11.55708848 -66.58518413 9.53828936 -54.23504639 7.52722168 C-50.97570589 6.99604074 -47.71659855 6.4634467 -44.45751953 5.93066406 C-39.27148998 5.08350257 -34.08451613 4.24236853 -28.89675903 3.40585327 C-26.99091333 3.09771267 -25.08536515 2.78772521 -23.18014526 2.47573853 C-20.57924017 2.05023133 -17.97731126 1.63165186 -15.375 1.21484375 C-14.62352188 1.09033844 -13.87204376 0.96583313 -13.09779358 0.83755493 C-8.65680878 0.13551395 -4.4765861 -0.11419113 0 0 Z " fill="#5D4C5F" transform="translate(396,311)"/>
<path d="M0 0 C0 1.32 0 2.64 0 4 C-16.24355111 6.72708633 -32.49224244 9.4213919 -48.75 12.0625 C-49.54056793 12.19103363 -50.33113586 12.31956726 -51.1456604 12.45199585 C-59.70919745 13.8427528 -68.27512079 15.20420955 -76.85571289 16.48632812 C-88.88594091 18.28400431 -100.84644239 20.38527568 -112.8125 22.5625 C-148.57547226 29.06250222 -148.57547226 29.06250222 -166 30 C-165.67 28.68 -165.34 27.36 -165 26 C-140.66725447 21.99642206 -116.33400642 17.99590745 -92 14 C-91.32484344 13.88912552 -90.64968689 13.77825104 -89.95407104 13.66401672 C-74.30515533 11.09425367 -58.65473592 8.53408424 -43 6 C-42.07193542 5.8496228 -41.14387085 5.69924561 -40.18768311 5.54431152 C-34.71694933 4.65839991 -29.24547342 3.77733487 -23.77279663 2.90350342 C-22.11619987 2.63854252 -20.4598001 2.37234649 -18.80361938 2.10479736 C-16.56237306 1.74315882 -14.32039226 1.38649543 -12.078125 1.03125 C-10.82418945 0.83080078 -9.57025391 0.63035156 -8.27832031 0.42382812 C-5.46445929 0.06004627 -2.83054059 -0.0886643 0 0 Z " fill="#5C4C5E" transform="translate(407,382)"/>
<path d="M0 0 C-0.33 1.32 -0.66 2.64 -1 4 C-1.60025497 4.08484146 -2.20050995 4.16968292 -2.81895447 4.25709534 C-17.85308158 6.39823877 -32.84068367 8.76390725 -47.81640625 11.27734375 C-48.69175396 11.42416218 -49.56710167 11.57098061 -50.46897507 11.72224808 C-57.74672172 12.94375103 -65.02354782 14.17070237 -72.29998779 15.39996338 C-78.61730356 16.46718729 -84.93512592 17.53132312 -91.25390625 18.58984375 C-92.12882343 18.73642803 -93.00374062 18.88301231 -93.90517044 19.03403854 C-111.23555431 21.93011604 -128.60356897 24.53437862 -146 27 C-146 25.68 -146 24.36 -146 23 C-116.16796255 17.17660816 -86.1154602 12.57260194 -56.10546875 7.77734375 C-54.97066574 7.59598373 -53.83586273 7.41462372 -52.66667175 7.22776794 C-47.1973572 6.3540654 -41.72775566 5.4822358 -36.25756836 4.61401367 C-35.24926468 4.45353043 -34.240961 4.29304718 -33.20210266 4.12770081 C-31.34100381 3.83148906 -29.47976066 3.53618163 -27.61833191 3.24205017 C-22.24248068 2.38525634 -16.89450066 1.43265035 -11.55111694 0.39120483 C-7.66436791 -0.2048145 -3.92503466 -0.12868966 0 0 Z " fill="#5B4A5C" transform="translate(335,201)"/>
<path d="M0 0 C0 0.99 0 1.98 0 3 C-9.79133201 5.22735844 -19.53396139 7.17715361 -29.5 8.4375 C-37.77297786 9.48629063 -45.93584481 10.86452537 -54.125 12.4375 C-64.54903221 14.43474576 -74.98064894 16.04464279 -85.49609375 17.47583008 C-94.89339743 18.77977159 -104.18451141 20.48211894 -113.49926758 22.27416992 C-122.63093306 24.00229698 -131.74485203 25.18941841 -141 26 C-141 24.68 -141 23.36 -141 22 C-128.05051231 19.69777358 -115.09081545 17.45832289 -102.125 15.25 C-101.11597626 15.07803101 -100.10695251 14.90606201 -99.06735229 14.72888184 C-82.27864591 11.87023627 -65.47824229 9.08890275 -48.66479492 6.37963867 C-41.21562186 5.17870692 -33.76901353 3.97312924 -26.3359375 2.67578125 C-25.22984131 2.4840332 -24.12374512 2.29228516 -22.98413086 2.09472656 C-21.06178412 1.75890511 -19.14053609 1.41667287 -17.22094727 1.06542969 C-11.43455108 0.05753136 -5.8692756 -0.17540005 0 0 Z " fill="#5E4E60" transform="translate(347,271)"/>
<path d="M0 0 C0 0.99 0 1.98 0 3 C-3.72699214 3.78157831 -7.45697181 4.54799364 -11.1875 5.3125 C-12.20392578 5.52583984 -13.22035156 5.73917969 -14.26757812 5.95898438 C-21.92652943 7.51871002 -29.59351401 8.68792982 -37.33299255 9.76132202 C-49.33897222 11.44105695 -61.29035613 13.45907043 -73.25 15.4375 C-75.59241208 15.82378511 -77.9348599 16.20985349 -80.27734375 16.59570312 C-81.4334314 16.7861319 -82.58951904 16.97656067 -83.78063965 17.17276001 C-88.37420429 17.92847211 -92.96821965 18.6814257 -97.56225586 19.43426514 C-101.06120636 20.01007247 -104.55891177 20.59309242 -108.05664062 21.17626953 C-110.30334265 21.54615827 -112.55008581 21.91579732 -114.796875 22.28515625 C-115.82347229 22.4583287 -116.85006958 22.63150116 -117.90777588 22.80992126 C-123.01267325 23.64247149 -127.82746602 24.19800684 -133 24 C-132.67 22.68 -132.34 21.36 -132 20 C-125.52137748 18.93416657 -119.04216113 17.87200101 -112.5625 16.8125 C-111.09818039 16.57299118 -111.09818039 16.57299118 -109.60427856 16.3286438 C-97.06050946 14.27971381 -84.51050859 12.29809023 -71.9375 10.4375 C-59.12725185 8.53733958 -46.37908407 6.3715967 -33.63842773 4.05444336 C-9.23986488 -0.3695946 -9.23986488 -0.3695946 0 0 Z " fill="#5B4B5E" transform="translate(358,341)"/>
<path d="M0 0 C0 0.99 0 1.98 0 3 C-2.01774257 5.01774257 -5.8035266 4.87834069 -8.5703125 5.3125 C-9.37398758 5.44203064 -10.17766266 5.57156128 -11.00569153 5.70501709 C-13.71154962 6.14036638 -16.41827144 6.57009867 -19.125 7 C-22.0249491 7.46509296 -24.9246671 7.93161017 -27.8243866 8.39813232 C-29.89625952 8.73133662 -31.96821214 9.06404574 -34.04023743 9.39630127 C-42.16128384 10.69953785 -50.27854382 12.02502111 -58.39453125 13.359375 C-60.20869537 13.65745056 -60.20869537 13.65745056 -62.05950928 13.96154785 C-66.85125739 14.74901555 -71.64296822 15.53670379 -76.43438721 16.32617188 C-87.70074805 18.18159535 -98.96875444 20.02751991 -110.25390625 21.765625 C-111.05747055 21.89241638 -111.86103485 22.01920776 -112.68894958 22.14984131 C-116.8364575 22.7781289 -120.78971031 23.13239641 -125 23 C-124.67 21.68 -124.34 20.36 -124 19 C-117.00022608 17.85278326 -110.00019248 16.70715996 -103 15.5625 C-101.9264325 15.38692566 -100.85286499 15.21135132 -99.74676514 15.03045654 C-86.38881176 12.84689516 -73.02854477 10.67841757 -59.6640625 8.53515625 C-57.77466949 8.2321032 -57.77466949 8.2321032 -55.84710693 7.92292786 C-49.69785017 6.93705047 -43.54830951 5.95297922 -37.3984375 4.97094727 C-35.13280934 4.60825539 -32.8671842 4.24554472 -30.6015625 3.8828125 C-29.58881256 3.72164444 -28.57606262 3.56047638 -27.53262329 3.39442444 C-21.82143149 2.47901901 -16.13461837 1.48502427 -10.45614624 0.3835144 C-6.92475743 -0.16789351 -3.56687806 -0.13459917 0 0 Z " fill="#5C4B5D" transform="translate(369,412)"/>
<path d="M0 0 C3.81603075 1.85019673 5.61047731 4.87718207 7.16015625 8.7265625 C8.15444767 12.33355908 8.36298191 15.44987401 8.375 19.1875 C8.39175781 20.39792969 8.40851563 21.60835938 8.42578125 22.85546875 C8.0625 26 8.0625 26 6.6640625 27.92578125 C5.0625 29 5.0625 29 3.125 29 C-0.84349168 27.07588282 -2.53338069 23.96988634 -4.1875 20 C-5.52636216 14.54805681 -5.63434304 8.54477255 -4.9375 3 C-2.71849174 0 -2.71849174 0 0 0 Z " fill="#B8DEF5" transform="translate(401.9375,277)"/>
<path d="M0 0 C1.84533351 2.76800026 2.48504127 4.330843 3.25830078 7.46899414 C3.48738129 8.38479752 3.71646179 9.30060089 3.95248413 10.24415588 C4.19761749 11.247686 4.44275085 12.25121613 4.6953125 13.28515625 C5.24429912 15.48376567 5.7934612 17.68233129 6.34277344 19.88085938 C6.63277222 21.05028076 6.922771 22.21970215 7.22155762 23.42456055 C12.7546986 45.70515337 18.61107731 67.87960614 24.75 90 C25.09951721 91.26014923 25.44903442 92.52029846 25.80914307 93.81863403 C27.37669953 99.46508168 28.94813437 105.11043303 30.52636719 110.75390625 C30.77994995 111.66342041 31.03353271 112.57293457 31.2947998 113.51000977 C31.73623232 115.06866311 32.18811584 116.62443666 32.65539551 118.17553711 C34.3194434 123.70139151 34.3194434 123.70139151 33 127 C31.04634837 124.06952256 30.35895979 122.11845354 29.484375 118.7578125 C29.2061792 117.70368164 28.9279834 116.64955078 28.64135742 115.56347656 C28.34720947 114.4287793 28.05306152 113.29408203 27.75 112.125 C27.11724768 109.72620275 26.48311852 107.32776829 25.84765625 104.9296875 C25.53328613 103.74213867 25.21891602 102.55458984 24.89501953 101.33105469 C23.71859486 96.95267548 22.45980128 92.60125228 21.1875 88.25 C14.38203516 64.77208757 8.37413043 41.02431586 2.56591797 17.28222656 C2.18992752 15.76593719 1.80358691 14.25217534 1.40673828 12.74121094 C0.23907954 8.27391497 -0.19080415 4.57929956 0 0 Z " fill="#9FD4EE" transform="translate(84,182)"/>
<path d="M0 0 C0 0.66 0 1.32 0 2 C-12.2782457 5.523929 -24.59506693 8.65864553 -37.0625 11.4375 C-37.92073364 11.62976166 -38.77896729 11.82202332 -39.66320801 12.02011108 C-103.9769846 26.38488383 -103.9769846 26.38488383 -124 26 C-124 25.34 -124 24.68 -124 24 C-123.43120117 23.91024902 -122.86240234 23.82049805 -122.27636719 23.72802734 C-115.86237207 22.71376226 -109.45075508 21.68517184 -103.04003906 20.65039062 C-100.26647041 20.20306828 -97.49232411 19.75954842 -94.71777344 19.31835938 C-76.1669701 16.36392846 -57.77441144 13.13606376 -39.48193359 8.81933594 C-36.27777083 8.06536242 -33.07100512 7.32436559 -29.86260986 6.58869934 C-26.38679971 5.79164979 -22.91211218 4.98975306 -19.4375 4.1875 C-18.77308899 4.0344339 -18.10867798 3.8813678 -17.4241333 3.72366333 C-15.55164277 3.29121094 -13.68009431 2.85468552 -11.80859375 2.41796875 C-10.73407959 2.16813232 -9.65956543 1.9182959 -8.55249023 1.66088867 C-2.13779091 0 -2.13779091 0 0 0 Z " fill="#F1F8FD" transform="translate(422,431)"/>
<path d="M0 0 C0.89396484 -0.01224609 1.78792969 -0.02449219 2.70898438 -0.03710938 C7.26273054 -0.04725135 10.93476536 0.00729778 15.0625 2.1875 C15.0625 2.5175 15.0625 2.8475 15.0625 3.1875 C8.97660139 4.21092365 2.88938716 5.22596194 -3.19921875 6.2331543 C-5.27154545 6.57718783 -7.34348935 6.92353527 -9.41503906 7.2722168 C-12.38770207 7.77216467 -15.36162928 8.2638541 -18.3359375 8.75390625 C-19.26618744 8.91218399 -20.19643738 9.07046173 -21.15487671 9.23353577 C-22.01561798 9.37375656 -22.87635925 9.51397736 -23.76318359 9.65844727 C-24.52263275 9.78502213 -25.28208191 9.91159698 -26.06454468 10.04200745 C-27.9375 10.1875 -27.9375 10.1875 -29.9375 9.1875 C-27.35659233 7.87003667 -24.77299542 6.55840383 -22.1875 5.25 C-21.45789063 4.87681641 -20.72828125 4.50363281 -19.9765625 4.11914062 C-19.26757812 3.76142578 -18.55859375 3.40371094 -17.828125 3.03515625 C-16.85407715 2.5402771 -16.85407715 2.5402771 -15.86035156 2.03540039 C-10.68154919 -0.24824367 -5.5644958 0.00399461 0 0 Z " fill="#B7DBF2" transform="translate(263.9375,326.8125)"/>
<path d="M0 0 C3.25625077 0.88006778 4.74554762 1.66657964 6.8125 4.375 C8.51984901 9.58690749 9.5430107 16.91397859 7 22 C4.75 22 4.75 22 2 21 C-2.14414107 16.04821483 -2.42255385 10.53936618 -2.3359375 4.3203125 C-2 2 -2 2 0 0 Z " fill="#B8DEF5" transform="translate(365,183)"/>
<path d="M0 0 C0.66 0 1.32 0 2 0 C1.49547781 3.74787912 0.91840767 7.32636934 0 11 C3.465 13.97 3.465 13.97 7 17 C6.67 17.99 6.34 18.98 6 20 C2.40608886 18.66511872 -0.75490696 17.03977277 -4 15 C-4.12375 15.763125 -4.2475 16.52625 -4.375 17.3125 C-5 20 -5 20 -7 23 C-7.99 22.67 -8.98 22.34 -10 22 C-9.39009109 18.44219804 -8.4216319 15.3171411 -7 12 C-9.31 10.02 -11.62 8.04 -14 6 C-13.67 5.01 -13.34 4.02 -13 3 C-9.88801935 4.49836105 -6.9465385 6.19933758 -4 8 C-3.71125 7.05125 -3.4225 6.1025 -3.125 5.125 C-2 2 -2 2 0 0 Z " fill="#F3F3F6" transform="translate(184,349)"/>
<path d="M0 0 C0.99 0.33 1.98 0.66 3 1 C2.32829194 4.8063457 1.27253436 8.35206816 0 12 C0.8971875 12.433125 0.8971875 12.433125 1.8125 12.875 C4 14 4 14 7 16 C6.67 17.32 6.34 18.64 6 20 C3.03 18.35 0.06 16.7 -3 15 C-3.309375 15.94875 -3.61875 16.8975 -3.9375 17.875 C-5 21 -5 21 -6 23 C-6.99 23 -7.98 23 -9 23 C-8.40075776 18.80530429 -7.42500059 14.99000166 -6 11 C-6.8971875 10.566875 -6.8971875 10.566875 -7.8125 10.125 C-10 9 -10 9 -13 7 C-13 5.68 -13 4.36 -13 3 C-9.40608886 4.33488128 -6.24509304 5.96022723 -3 8 C-2.690625 6.865625 -2.38125 5.73125 -2.0625 4.5625 C-1 1 -1 1 0 0 Z " fill="#F3F4F7" transform="translate(142,214)"/>
<path d="M0 0 C0.99 0.33 1.98 0.66 3 1 C1.65150163 5.35970831 -0.04907846 9.31341438 -2.125 13.375 C-2.66382813 14.43460937 -3.20265625 15.49421875 -3.7578125 16.5859375 C-4.16773438 17.38257813 -4.57765625 18.17921875 -5 19 C-8.33561571 18.25018723 -10.49457375 17.41594674 -13 15 C-13 13.68 -13 12.36 -13 11 C-10.83125748 11.50603992 -9.00032373 11.99983813 -7 13 C-3.535 6.565 -3.535 6.565 0 0 Z " fill="#F2F3F6" transform="translate(207,418)"/>
<path d="M0 0 C0.99 0 1.98 0 3 0 C2.4253379 4.78642607 1.01754357 8.53788787 -1.0625 12.875 C-1.61035156 14.02742188 -2.15820312 15.17984375 -2.72265625 16.3671875 C-3.14417969 17.23601562 -3.56570312 18.10484375 -4 19 C-8.31085759 18.32084333 -10.10640878 17.3222714 -13 14 C-12.67 13.01 -12.34 12.02 -12 11 C-10 12 -8 13 -6 14 C-5.7525 13.175 -5.505 12.35 -5.25 11.5 C-3.81295189 7.47626529 -1.97645485 3.78020976 0 0 Z " fill="#F2F2F6" transform="translate(165,283)"/>
<path d="M0 0 C2.875 -0.125 2.875 -0.125 6 0 C8 2 8 2 8 6 C6.02 6.33 4.04 6.66 2 7 C1.34 4.69 0.68 2.38 0 0 Z " fill="#AB243B" transform="translate(296,83)"/>
<path d="M0 0 C-1.32 2.31 -2.64 4.62 -4 7 C-5.4606285 4.35261084 -6 3.10551666 -6 0 C-3.50907189 -1.24546405 -2.58919267 -0.7767578 0 0 Z " fill="#E63465" transform="translate(308,100)"/>
</svg>
