<?xml version="1.0" encoding="UTF-8"?>
<svg version="1.1" xmlns="http://www.w3.org/2000/svg" width="512" height="512">
<path d="M0 0 C89.76 0 179.52 0 272 0 C272 10.56 272 21.12 272 32 C282.56 32 293.12 32 304 32 C304 58.4 304 84.8 304 112 C306.64 112 309.28 112 312 112 C321.49696897 114.3163339 327.94557659 119.6651084 332.95703125 127.875 C335.23180253 132.50973999 336.25037391 136.667366 336.22705078 141.82177734 C336.22689972 142.94248627 336.22674866 144.06319519 336.22659302 145.21786499 C336.21627045 146.41182892 336.20594788 147.60579285 336.1953125 148.8359375 C336.19106766 150.68767075 336.19106766 150.68767075 336.18673706 152.57681274 C336.17556522 156.50964149 336.15046564 160.44224037 336.125 164.375 C336.11383825 167.04556959 336.10584119 169.71613701 336.09765625 172.38671875 C336.07563565 178.92455725 336.04218759 185.4622622 336 192 C337.31137939 191.98187256 338.62275879 191.96374512 339.97387695 191.94506836 C341.70784157 191.93040853 343.44180995 191.9161902 345.17578125 191.90234375 C346.03852661 191.88925171 346.90127197 191.87615967 347.79016113 191.8626709 C357.42191464 191.80496809 363.19493848 194.58974332 370.2109375 201.14453125 C377.89042595 209.10906622 379.405291 216.87476318 379.24266243 227.85964584 C378.91836485 235.00838286 377.51735262 241.98319282 376.17358398 248.99658203 C375.86852286 250.64296021 375.56464918 252.28955878 375.26185608 253.93635559 C374.4428534 258.37193433 373.60741133 262.80426878 372.76879001 267.23617411 C371.88418249 271.92687568 371.01501917 276.6204393 370.14405823 281.31369019 C368.48805094 290.22431525 366.81829794 299.13230619 365.14354998 308.03942573 C363.2649579 318.03444949 361.40202755 328.03237035 359.54033935 338.03055406 C357.25655067 350.2934914 354.96902197 362.55573017 352.67198181 374.81619263 C352.50996015 375.68122992 352.34793849 376.54626722 352.18100709 377.43751776 C351.38562688 381.68123586 350.58762939 385.92443549 349.78455257 390.16670418 C348.35767383 397.71160669 346.9454056 405.25774539 345.60398549 412.81838381 C344.99985039 416.21593545 344.3844487 419.61140185 343.76795971 423.00673079 C343.48252937 424.59632427 343.20249926 426.18689909 342.92848289 427.77849984 C340.83682581 439.91682097 338.20340198 451.11754343 328 459 C319.23305251 464.49404328 310.62201472 464.70056456 300.60554504 464.60127258 C298.95850148 464.60345605 297.31145964 464.60783963 295.66442698 464.61421841 C291.16262967 464.62534736 286.6614322 464.60547004 282.15971124 464.58032811 C277.29619272 464.55866768 272.43270604 464.56604748 267.56915283 464.56983948 C259.15075018 464.57245694 250.7325418 464.55681447 242.314188 464.52865028 C230.14280431 464.48795666 217.97151424 464.47498706 205.80006989 464.46871033 C186.05114899 464.45777635 166.30233155 464.42452645 146.5534668 464.37719727 C127.37313351 464.33127849 108.19282835 464.29589791 89.01245117 464.2746582 C87.82950389 464.27334459 86.6465566 464.27203097 85.42776243 464.27067754 C79.49306329 464.2641522 73.55836396 464.2578337 67.6236645 464.25161803 C18.41570484 464.19981294 -30.79214252 464.11177204 -80 464 C-80.09157424 422.38497927 -80.16204824 380.76997018 -80.20426132 339.15486864 C-80.20926409 334.24077815 -80.21444138 329.32668785 -80.21972656 324.41259766 C-80.22130043 322.94514984 -80.22130043 322.94514984 -80.22290608 321.44805662 C-80.24030685 305.61179159 -80.27184275 289.77558469 -80.30861118 273.93935414 C-80.34602972 257.68747113 -80.36823779 241.43561856 -80.37635398 225.18369424 C-80.38183985 215.15701121 -80.39916069 205.13049251 -80.43166587 195.10386007 C-80.452825 188.22632924 -80.45919687 181.34888326 -80.45400551 174.47132225 C-80.45144591 170.50449875 -80.45534361 166.53796223 -80.4768219 162.57118988 C-80.49636565 158.9350504 -80.49721988 155.29938942 -80.48359558 151.66322736 C-80.48111982 149.73398723 -80.4983016 147.80475227 -80.51632524 145.87559474 C-80.44930295 136.0929337 -78.52375601 127.83414785 -71.703125 120.53125 C-63.15562144 112.84633854 -54.79266923 111.70399918 -43.625 111.875 C-41.94857422 111.88853516 -41.94857422 111.88853516 -40.23828125 111.90234375 C-37.49196538 111.92581654 -34.74609528 111.95865272 -32 112 C-32.02094727 111.32533691 -32.04189453 110.65067383 -32.06347656 109.95556641 C-32.14754586 106.84553433 -32.19894444 103.73574241 -32.25 100.625 C-32.28351563 99.56410156 -32.31703125 98.50320312 -32.3515625 97.41015625 C-32.46960763 87.78947786 -30.39126552 79.69228935 -23.703125 72.53125 C-16.41287513 65.97671342 -9.8214775 64 0 64 C0 42.88 0 21.76 0 0 Z " fill="#FECC00" transform="translate(104,24)"/>
<path d="M0 0 C89.76 0 179.52 0 272 0 C272 10.56 272 21.12 272 32 C282.56 32 293.12 32 304 32 C304 84.8 304 137.6 304 192 C203.68 192 103.36 192 0 192 C0 128.64 0 65.28 0 0 Z " fill="#56A3FE" transform="translate(104,24)"/>
<path d="M0 0 C0 42.24 0 84.48 0 128 C-3.63 128.33 -7.26 128.66 -11 129 C-19.67795686 131.37563977 -26.13955214 135.3221335 -31.203125 142.76953125 C-36.43678024 152.04559931 -37.43344592 163.8695517 -39.19921875 174.2265625 C-39.39515121 175.35626968 -39.59108368 176.48597687 -39.79295349 177.6499176 C-40.21082504 180.05977148 -40.62724097 182.46987817 -41.04229736 184.88021851 C-42.14579184 191.2849439 -43.26155489 197.68752312 -44.37890625 204.08984375 C-44.713992 206.01021202 -44.713992 206.01021202 -45.05584717 207.96937561 C-46.99720523 219.05778319 -49.03901279 230.12552608 -51.125 241.1875 C-54.02679468 256.59273306 -56.7676707 272.02040697 -59.42712402 287.46923828 C-62.99223719 308.16164192 -66.7771033 328.81214744 -70.60545349 349.45729065 C-71.43058488 353.90800995 -72.24888899 358.35987042 -73.05789185 362.81355286 C-73.32379214 364.27705532 -73.32379214 364.27705532 -73.59506416 365.77012348 C-73.72869299 366.50598273 -73.86232182 367.24184198 -74 368 C-32.76708968 367.96400067 8.46574464 367.90706164 49.69858455 367.82207905 C54.56761075 367.81206171 59.43663729 367.80221756 64.30566406 367.79248047 C65.27499076 367.7905391 66.24431746 367.78859772 67.24301769 367.78659752 C82.93375159 367.75558493 98.62447087 367.73859893 114.31522964 367.72680578 C130.41799633 367.71439039 146.52068634 367.68688019 162.62340462 367.64538693 C172.55791928 367.62026269 182.49230674 367.60688194 192.42685361 367.60857043 C199.24135184 367.60860021 206.0557206 367.59395443 212.87016837 367.56783572 C216.80050535 367.55320263 220.73057682 367.5449757 224.66093636 367.55419731 C228.26382005 367.56250735 231.86617117 367.55226689 235.46897604 367.52766338 C237.38028044 367.51932618 239.29163973 367.53049251 241.20292461 367.54249835 C250.55293808 367.44958706 258.78467541 365.72493792 265.875 359.25 C266.57367188 358.63640625 267.27234375 358.0228125 267.9921875 357.390625 C273.44265281 350.90096591 274.97946712 343.68578118 276.453125 335.55859375 C276.66148987 334.46437607 276.86985474 333.37015839 277.08453369 332.24278259 C277.51867127 329.95697567 277.94771969 327.67019665 278.37182617 325.38250732 C278.96517647 322.18751313 279.57378545 318.99593544 280.18945312 315.80517578 C281.3926685 309.56067483 282.57348213 303.31207925 283.75 297.0625 C283.96309814 295.93270721 284.17619629 294.80291443 284.39575195 293.6388855 C287.69981796 276.10930185 290.90582174 258.56359184 294.04711914 241.00418091 C297.06065809 224.15930957 300.13379419 207.32618597 303.25 190.5 C303.45278564 189.40325958 303.65557129 188.30651917 303.86450195 187.17654419 C306.28732837 174.07872581 308.75414933 160.99025528 311.28814697 147.91345215 C312.57096153 141.28338645 313.80293431 134.64610873 315 128 C311.37 128 307.74 128 304 128 C304 101.6 304 75.2 304 48 C313.52216077 48 320.42838175 49.72143673 327.46875 56.296875 C333.03737064 62.4905449 336.26509486 69.41403494 336.22705078 77.82177734 C336.22689972 78.94248627 336.22674866 80.06319519 336.22659302 81.21786499 C336.21627045 82.41182892 336.20594788 83.60579285 336.1953125 84.8359375 C336.19106766 86.68767075 336.19106766 86.68767075 336.18673706 88.57681274 C336.17556522 92.50964149 336.15046564 96.44224037 336.125 100.375 C336.11383825 103.04556959 336.10584119 105.71613701 336.09765625 108.38671875 C336.07563565 114.92455725 336.04218759 121.4622622 336 128 C337.31137939 127.98187256 338.62275879 127.96374512 339.97387695 127.94506836 C341.70784157 127.93040853 343.44180995 127.9161902 345.17578125 127.90234375 C346.03852661 127.88925171 346.90127197 127.87615967 347.79016113 127.8626709 C357.42191464 127.80496809 363.19493848 130.58974332 370.2109375 137.14453125 C377.89042595 145.10906622 379.405291 152.87476318 379.24266243 163.85964584 C378.91836485 171.00838286 377.51735262 177.98319282 376.17358398 184.99658203 C375.86852286 186.64296021 375.56464918 188.28955878 375.26185608 189.93635559 C374.4428534 194.37193433 373.60741133 198.80426878 372.76879001 203.23617411 C371.88418249 207.92687568 371.01501917 212.6204393 370.14405823 217.31369019 C368.48805094 226.22431525 366.81829794 235.13230619 365.14354998 244.03942573 C363.2649579 254.03444949 361.40202755 264.03237035 359.54033935 274.03055406 C357.25655067 286.2934914 354.96902197 298.55573017 352.67198181 310.81619263 C352.50996015 311.68122992 352.34793849 312.54626722 352.18100709 313.43751776 C351.38562688 317.68123586 350.58762939 321.92443549 349.78455257 326.16670418 C348.35767383 333.71160669 346.9454056 341.25774539 345.60398549 348.81838381 C344.99985039 352.21593545 344.3844487 355.61140185 343.76795971 359.00673079 C343.48252937 360.59632427 343.20249926 362.18689909 342.92848289 363.77849984 C340.83682581 375.91682097 338.20340198 387.11754343 328 395 C319.23305251 400.49404328 310.62201472 400.70056456 300.60554504 400.60127258 C298.95850148 400.60345605 297.31145964 400.60783963 295.66442698 400.61421841 C291.16262967 400.62534736 286.6614322 400.60547004 282.15971124 400.58032811 C277.29619272 400.55866768 272.43270604 400.56604748 267.56915283 400.56983948 C259.15075018 400.57245694 250.7325418 400.55681447 242.314188 400.52865028 C230.14280431 400.48795666 217.97151424 400.47498706 205.80006989 400.46871033 C186.05114899 400.45777635 166.30233155 400.42452645 146.5534668 400.37719727 C127.37313351 400.33127849 108.19282835 400.29589791 89.01245117 400.2746582 C87.82950389 400.27334459 86.6465566 400.27203097 85.42776243 400.27067754 C79.49306329 400.2641522 73.55836396 400.2578337 67.6236645 400.25161803 C18.41570484 400.19981294 -30.79214252 400.11177204 -80 400 C-80.09157424 358.38497927 -80.16204824 316.76997018 -80.20426132 275.15486864 C-80.20926409 270.24077815 -80.21444138 265.32668785 -80.21972656 260.41259766 C-80.22130043 258.94514984 -80.22130043 258.94514984 -80.22290608 257.44805662 C-80.24030685 241.61179159 -80.27184275 225.77558469 -80.30861118 209.93935414 C-80.34602972 193.68747113 -80.36823779 177.43561856 -80.37635398 161.18369424 C-80.38183985 151.15701121 -80.39916069 141.13049251 -80.43166587 131.10386007 C-80.452825 124.22632924 -80.45919687 117.34888326 -80.45400551 110.47132225 C-80.45144591 106.50449875 -80.45534361 102.53796223 -80.4768219 98.57118988 C-80.49636565 94.9350504 -80.49721988 91.29938942 -80.48359558 87.66322736 C-80.48111982 85.73398723 -80.4983016 83.80475227 -80.51632524 81.87559474 C-80.44930295 72.0929337 -78.52375601 63.83414785 -71.703125 56.53125 C-63.15562144 48.84633854 -54.79266923 47.70399918 -43.625 47.875 C-41.94857422 47.88853516 -41.94857422 47.88853516 -40.23828125 47.90234375 C-37.49196538 47.92581654 -34.74609528 47.95865272 -32 48 C-32.02094727 47.32533691 -32.04189453 46.65067383 -32.06347656 45.95556641 C-32.14754586 42.84553433 -32.19894444 39.73574241 -32.25 36.625 C-32.28351563 35.56410156 -32.31703125 34.50320312 -32.3515625 33.41015625 C-32.46960763 23.78947786 -30.39126552 15.69228935 -23.703125 8.53125 C-16.41287513 1.97671342 -9.8214775 0 0 0 Z " fill="#EBBF00" transform="translate(104,88)"/>
<path d="M0 0 C0 42.24 0 84.48 0 128 C-3.63 128.33 -7.26 128.66 -11 129 C-19.67795686 131.37563977 -26.13955214 135.3221335 -31.203125 142.76953125 C-36.43678024 152.04559931 -37.43344592 163.8695517 -39.19921875 174.2265625 C-39.39515121 175.35626968 -39.59108368 176.48597687 -39.79295349 177.6499176 C-40.21082504 180.05977148 -40.62724097 182.46987817 -41.04229736 184.88021851 C-42.14579184 191.2849439 -43.26155489 197.68752312 -44.37890625 204.08984375 C-44.713992 206.01021202 -44.713992 206.01021202 -45.05584717 207.96937561 C-46.99720523 219.05778319 -49.03901279 230.12552608 -51.125 241.1875 C-53.84867631 255.64712687 -56.44066745 270.12448956 -58.9375 284.625 C-62.06666022 302.79571234 -65.34485008 320.9354274 -68.69482422 339.06665039 C-69.06742103 341.08348903 -69.43997988 343.10033469 -69.8125 345.1171875 C-69.99491241 346.10466476 -70.17732483 347.09214203 -70.36526489 348.10954285 C-72.29792083 358.58783094 -74.18505614 369.07419753 -76.0625 379.5625 C-76.21470001 380.41262665 -76.36690002 381.2627533 -76.52371216 382.13864136 C-77.35057503 386.75883895 -78.17600884 391.37928942 -79 396 C-79.33 396 -79.66 396 -80 396 C-80.09157583 354.89455535 -80.16204904 313.78912402 -80.20426132 272.68359772 C-80.20926408 267.82959232 -80.21444138 262.97558713 -80.21972656 258.12158203 C-80.2207758 257.15524595 -80.22182505 256.18890987 -80.22290608 255.19329087 C-80.24030647 239.55102125 -80.27184216 223.90881049 -80.30861118 208.26657577 C-80.34603077 192.21357499 -80.36823801 176.16060502 -80.37635398 160.10756242 C-80.38183963 150.20371635 -80.39915928 140.30003667 -80.43166587 130.39624183 C-80.4528263 123.60280991 -80.45919658 116.80946389 -80.45400551 110.01600142 C-80.45144611 106.09778291 -80.45534128 102.17985495 -80.4768219 98.26168823 C-80.49636854 94.66995704 -80.49721806 91.07871023 -80.48359558 87.48695616 C-80.48112035 85.58157524 -80.49829956 83.67619954 -80.51632524 81.77090228 C-80.44880602 72.03383551 -78.48936027 63.79732008 -71.703125 56.53125 C-63.15562144 48.84633854 -54.79266923 47.70399918 -43.625 47.875 C-41.94857422 47.88853516 -41.94857422 47.88853516 -40.23828125 47.90234375 C-37.49196538 47.92581654 -34.74609528 47.95865272 -32 48 C-32.02094727 47.32533691 -32.04189453 46.65067383 -32.06347656 45.95556641 C-32.14754586 42.84553433 -32.19894444 39.73574241 -32.25 36.625 C-32.28351563 35.56410156 -32.31703125 34.50320312 -32.3515625 33.41015625 C-32.46960763 23.78947786 -30.39126552 15.69228935 -23.703125 8.53125 C-16.41287513 1.97671342 -9.8214775 0 0 0 Z " fill="#CCA400" transform="translate(104,88)"/>
<path d="M0 0 C89.76 0 179.52 0 272 0 C272 10.56 272 21.12 272 32 C192.8 32 113.6 32 32 32 C32 84.8 32 137.6 32 192 C21.44 192 10.88 192 0 192 C0 128.64 0 65.28 0 0 Z " fill="#005ECE" transform="translate(104,24)"/>
<path d="M0 0 C0.33 0 0.66 0 1 0 C1 48.51 1 97.02 1 147 C-60.38 147 -121.76 147 -185 147 C-185 146.67 -185 146.34 -185 146 C-183.91912109 145.96132813 -183.91912109 145.96132813 -182.81640625 145.921875 C-164.19173609 144.9380989 -145.77173674 141.61722469 -128 136 C-127.25169922 135.77054688 -126.50339844 135.54109375 -125.73242188 135.3046875 C-123.42066171 134.59337668 -121.11577372 133.86329541 -118.8125 133.125 C-118.14871338 132.91697754 -117.48492676 132.70895508 -116.80102539 132.49462891 C-112.66544457 131.12190036 -108.90685129 129.42909663 -105.04988575 127.39226818 C-96.44082158 122.98329853 -88.92809521 122.01786756 -79.23828125 122.16796875 C-77.78955243 122.16364594 -76.34083022 122.15595124 -74.89213562 122.14509583 C-71.13031284 122.12444349 -67.36981824 122.14298188 -63.60809326 122.17236328 C-57.55193906 122.21229645 -51.49564028 122.18879425 -45.43944359 122.16936684 C-43.33646928 122.16799208 -41.23407487 122.18231741 -39.13117981 122.19950867 C-37.85852768 122.20223282 -36.58587555 122.20495697 -35.2746582 122.20776367 C-33.59712212 122.21944832 -33.59712212 122.21944832 -31.88569641 122.23136902 C-29.01483883 122.00118975 -27.38105741 121.58517471 -25 120 C-23.61449803 117.22899606 -23.8122533 115.0665294 -24 112 C-25.72226496 108.75150023 -25.72226496 108.75150023 -29 108 C-31.80160502 107.8460737 -34.58298425 107.74261955 -37.38671875 107.68359375 C-38.20372757 107.66281265 -39.02073639 107.64203156 -39.86250305 107.62062073 C-42.47075034 107.55526921 -45.07909775 107.49630727 -47.6875 107.4375 C-49.45639054 107.39430108 -51.22527097 107.35068635 -52.99414062 107.30664062 C-57.32932463 107.19960257 -61.66460929 107.09829456 -66 107 C-62.75929394 103.72141468 -59.51126222 100.71061733 -55.875 97.875 C-52.56175751 95.34275799 -52.56175751 95.34275799 -49.62524414 92.41088867 C-47.55053844 90.60981848 -46.41033521 90.60705795 -43.69140625 90.55859375 C-42.44713867 90.51895508 -42.44713867 90.51895508 -41.17773438 90.47851562 C-40.31470703 90.46498047 -39.45167969 90.45144531 -38.5625 90.4375 C-36.85527821 90.40292011 -35.14819717 90.36023444 -33.44140625 90.30859375 C-32.30747437 90.29010376 -32.30747437 90.29010376 -31.15063477 90.27124023 C-28.70486688 89.96277751 -27.09017533 89.29481659 -25 88 C-23.61449803 85.22899606 -23.8122533 83.0665294 -24 80 C-26.40436026 76.39345961 -27.94679607 76.14547068 -32 75 C-31.6596875 74.57332031 -31.319375 74.14664063 -30.96875 73.70703125 C-14.17151371 52.04038338 -3.71459394 27.09468522 0 0 Z " fill="#2488FE" transform="translate(407,69)"/>
<path d="M0 0 C0.87054095 -0.00638882 1.7410819 -0.01277764 2.63800287 -0.01936007 C5.5548314 -0.03461973 8.47030375 -0.01414236 11.38708496 0.00622559 C13.47820994 0.00272469 15.56933227 -0.00293353 17.66044617 -0.0105896 C23.34023323 -0.02485158 29.019537 -0.00776189 34.69927788 0.01569557 C40.64001166 0.03578379 46.58072498 0.02992607 52.52148438 0.02758789 C62.49841292 0.02764148 72.47515221 0.04741158 82.45202637 0.07946777 C93.99063706 0.11636143 105.52899979 0.12514352 117.06766176 0.11817026 C128.1623447 0.11186745 139.25694251 0.12261547 150.35160828 0.14213562 C155.07558911 0.15031551 159.79952647 0.15301808 164.52351379 0.15144348 C170.08527209 0.15056526 175.64679434 0.16476418 181.20849037 0.19067001 C183.25110543 0.19783902 185.29374559 0.19991192 187.33637047 0.19655228 C190.1218836 0.19284432 192.90670523 0.20756133 195.69213867 0.22705078 C196.50293585 0.22172286 197.31373303 0.21639493 198.14909983 0.21090555 C202.71164422 0.26608636 205.72975588 0.75873678 209.34606934 3.62145996 C210.75064671 6.4306147 210.59502091 8.5095653 210.34606934 11.62145996 C208.56622529 14.75737566 207.82298727 15.46248732 204.34606934 16.62145996 C201.5336111 16.72612619 198.74550588 16.77364558 195.93264771 16.77536011 C194.62939956 16.78193349 194.62939956 16.78193349 193.29982316 16.78863966 C190.37724811 16.80203561 187.4547032 16.80820826 184.53210449 16.81433105 C182.4412777 16.82223122 180.35045228 16.83050012 178.2596283 16.83911133 C171.3848094 16.86533538 164.50998439 16.88063666 157.63513184 16.89489746 C155.2705421 16.90025647 152.90595241 16.90563398 150.54136276 16.91102982 C140.70874116 16.93265669 130.8761212 16.95139527 121.04348183 16.96265221 C106.93925307 16.97890464 92.83529922 17.01211622 78.73117411 17.06905305 C68.8202894 17.10770278 58.90947838 17.12727885 48.99852026 17.13257277 C43.07547379 17.13623225 37.1527205 17.14831755 31.2297554 17.18067551 C25.65977913 17.2106695 20.09027478 17.21709886 14.52023506 17.20529175 C12.47436708 17.20507031 10.42847775 17.21343347 8.38268471 17.23094559 C5.59236947 17.2535337 2.80378067 17.24539071 0.01345825 17.22946167 C-1.20478388 17.2502848 -1.20478388 17.2502848 -2.44763696 17.2715286 C-6.51158655 17.21424871 -8.41670619 16.80716135 -11.65657997 14.27095985 C-13.65393066 11.62145996 -13.65393066 11.62145996 -14.27893066 8.62145996 C-12.66446194 0.87201006 -6.96569013 -0.10754286 0 0 Z " fill="#F0F1F2" transform="translate(173.6539306640625,175.3785400390625)"/>
<path d="M0 0 C0.87054095 -0.00638882 1.7410819 -0.01277764 2.63800287 -0.01936007 C5.5548314 -0.03461973 8.47030375 -0.01414236 11.38708496 0.00622559 C13.47820994 0.00272469 15.56933227 -0.00293353 17.66044617 -0.0105896 C23.34023323 -0.02485158 29.019537 -0.00776189 34.69927788 0.01569557 C40.64001166 0.03578379 46.58072498 0.02992607 52.52148438 0.02758789 C62.49841292 0.02764148 72.47515221 0.04741158 82.45202637 0.07946777 C93.99063706 0.11636143 105.52899979 0.12514352 117.06766176 0.11817026 C128.1623447 0.11186745 139.25694251 0.12261547 150.35160828 0.14213562 C155.07558911 0.15031551 159.79952647 0.15301808 164.52351379 0.15144348 C170.08527209 0.15056526 175.64679434 0.16476418 181.20849037 0.19067001 C183.25110543 0.19783902 185.29374559 0.19991192 187.33637047 0.19655228 C190.1218836 0.19284432 192.90670523 0.20756133 195.69213867 0.22705078 C196.50293585 0.22172286 197.31373303 0.21639493 198.14909983 0.21090555 C202.71164422 0.26608636 205.72975588 0.75873678 209.34606934 3.62145996 C210.75064671 6.4306147 210.59502091 8.5095653 210.34606934 11.62145996 C208.56622529 14.75737566 207.82298727 15.46248732 204.34606934 16.62145996 C201.5336111 16.72612619 198.74550588 16.77364558 195.93264771 16.77536011 C194.62939956 16.78193349 194.62939956 16.78193349 193.29982316 16.78863966 C190.37724811 16.80203561 187.4547032 16.80820826 184.53210449 16.81433105 C182.4412777 16.82223122 180.35045228 16.83050012 178.2596283 16.83911133 C171.3848094 16.86533538 164.50998439 16.88063666 157.63513184 16.89489746 C155.2705421 16.90025647 152.90595241 16.90563398 150.54136276 16.91102982 C140.70874116 16.93265669 130.8761212 16.95139527 121.04348183 16.96265221 C106.93925307 16.97890464 92.83529922 17.01211622 78.73117411 17.06905305 C68.8202894 17.10770278 58.90947838 17.12727885 48.99852026 17.13257277 C43.07547379 17.13623225 37.1527205 17.14831755 31.2297554 17.18067551 C25.65977913 17.2106695 20.09027478 17.21709886 14.52023506 17.20529175 C12.47436708 17.20507031 10.42847775 17.21343347 8.38268471 17.23094559 C5.59236947 17.2535337 2.80378067 17.24539071 0.01345825 17.22946167 C-1.20478388 17.2502848 -1.20478388 17.2502848 -2.44763696 17.2715286 C-6.51158655 17.21424871 -8.41670619 16.80716135 -11.65657997 14.27095985 C-13.65393066 11.62145996 -13.65393066 11.62145996 -14.27893066 8.62145996 C-12.66446194 0.87201006 -6.96569013 -0.10754286 0 0 Z " fill="#F0F1F2" transform="translate(173.6539306640625,143.3785400390625)"/>
<path d="M0 0 C0.87054095 -0.00638882 1.7410819 -0.01277764 2.63800287 -0.01936007 C5.5548314 -0.03461973 8.47030375 -0.01414236 11.38708496 0.00622559 C13.47820994 0.00272469 15.56933227 -0.00293353 17.66044617 -0.0105896 C23.34023323 -0.02485158 29.019537 -0.00776189 34.69927788 0.01569557 C40.64001166 0.03578379 46.58072498 0.02992607 52.52148438 0.02758789 C62.49841292 0.02764148 72.47515221 0.04741158 82.45202637 0.07946777 C93.99063706 0.11636143 105.52899979 0.12514352 117.06766176 0.11817026 C128.1623447 0.11186745 139.25694251 0.12261547 150.35160828 0.14213562 C155.07558911 0.15031551 159.79952647 0.15301808 164.52351379 0.15144348 C170.08527209 0.15056526 175.64679434 0.16476418 181.20849037 0.19067001 C183.25110543 0.19783902 185.29374559 0.19991192 187.33637047 0.19655228 C190.1218836 0.19284432 192.90670523 0.20756133 195.69213867 0.22705078 C196.50293585 0.22172286 197.31373303 0.21639493 198.14909983 0.21090555 C202.71164422 0.26608636 205.72975588 0.75873678 209.34606934 3.62145996 C210.75064671 6.4306147 210.59502091 8.5095653 210.34606934 11.62145996 C208.56622529 14.75737566 207.82298727 15.46248732 204.34606934 16.62145996 C201.5336111 16.72612619 198.74550588 16.77364558 195.93264771 16.77536011 C194.62939956 16.78193349 194.62939956 16.78193349 193.29982316 16.78863966 C190.37724811 16.80203561 187.4547032 16.80820826 184.53210449 16.81433105 C182.4412777 16.82223122 180.35045228 16.83050012 178.2596283 16.83911133 C171.3848094 16.86533538 164.50998439 16.88063666 157.63513184 16.89489746 C155.2705421 16.90025647 152.90595241 16.90563398 150.54136276 16.91102982 C140.70874116 16.93265669 130.8761212 16.95139527 121.04348183 16.96265221 C106.93925307 16.97890464 92.83529922 17.01211622 78.73117411 17.06905305 C68.8202894 17.10770278 58.90947838 17.12727885 48.99852026 17.13257277 C43.07547379 17.13623225 37.1527205 17.14831755 31.2297554 17.18067551 C25.65977913 17.2106695 20.09027478 17.21709886 14.52023506 17.20529175 C12.47436708 17.20507031 10.42847775 17.21343347 8.38268471 17.23094559 C5.59236947 17.2535337 2.80378067 17.24539071 0.01345825 17.22946167 C-1.20478388 17.2502848 -1.20478388 17.2502848 -2.44763696 17.2715286 C-6.51158655 17.21424871 -8.41670619 16.80716135 -11.65657997 14.27095985 C-13.65393066 11.62145996 -13.65393066 11.62145996 -14.27893066 8.62145996 C-12.66446194 0.87201006 -6.96569013 -0.10754286 0 0 Z " fill="#F0F1F2" transform="translate(173.6539306640625,111.3785400390625)"/>
<path d="M0 0 C0.87054095 -0.00638882 1.7410819 -0.01277764 2.63800287 -0.01936007 C5.5548314 -0.03461973 8.47030375 -0.01414236 11.38708496 0.00622559 C13.47820994 0.00272469 15.56933227 -0.00293353 17.66044617 -0.0105896 C23.34023323 -0.02485158 29.019537 -0.00776189 34.69927788 0.01569557 C40.64001166 0.03578379 46.58072498 0.02992607 52.52148438 0.02758789 C62.49841292 0.02764148 72.47515221 0.04741158 82.45202637 0.07946777 C93.99063706 0.11636143 105.52899979 0.12514352 117.06766176 0.11817026 C128.1623447 0.11186745 139.25694251 0.12261547 150.35160828 0.14213562 C155.07558911 0.15031551 159.79952647 0.15301808 164.52351379 0.15144348 C170.08527209 0.15056526 175.64679434 0.16476418 181.20849037 0.19067001 C183.25110543 0.19783902 185.29374559 0.19991192 187.33637047 0.19655228 C190.1218836 0.19284432 192.90670523 0.20756133 195.69213867 0.22705078 C196.50293585 0.22172286 197.31373303 0.21639493 198.14909983 0.21090555 C202.71164422 0.26608636 205.72975588 0.75873678 209.34606934 3.62145996 C210.75064671 6.4306147 210.59502091 8.5095653 210.34606934 11.62145996 C208.56622529 14.75737566 207.82298727 15.46248732 204.34606934 16.62145996 C201.5336111 16.72612619 198.74550588 16.77364558 195.93264771 16.77536011 C194.62939956 16.78193349 194.62939956 16.78193349 193.29982316 16.78863966 C190.37724811 16.80203561 187.4547032 16.80820826 184.53210449 16.81433105 C182.4412777 16.82223122 180.35045228 16.83050012 178.2596283 16.83911133 C171.3848094 16.86533538 164.50998439 16.88063666 157.63513184 16.89489746 C155.2705421 16.90025647 152.90595241 16.90563398 150.54136276 16.91102982 C140.70874116 16.93265669 130.8761212 16.95139527 121.04348183 16.96265221 C106.93925307 16.97890464 92.83529922 17.01211622 78.73117411 17.06905305 C68.8202894 17.10770278 58.90947838 17.12727885 48.99852026 17.13257277 C43.07547379 17.13623225 37.1527205 17.14831755 31.2297554 17.18067551 C25.65977913 17.2106695 20.09027478 17.21709886 14.52023506 17.20529175 C12.47436708 17.20507031 10.42847775 17.21343347 8.38268471 17.23094559 C5.59236947 17.2535337 2.80378067 17.24539071 0.01345825 17.22946167 C-1.20478388 17.2502848 -1.20478388 17.2502848 -2.44763696 17.2715286 C-6.51158655 17.21424871 -8.41670619 16.80716135 -11.65657997 14.27095985 C-13.65393066 11.62145996 -13.65393066 11.62145996 -14.27893066 8.62145996 C-12.66446194 0.87201006 -6.96569013 -0.10754286 0 0 Z " fill="#F0F1F2" transform="translate(173.6539306640625,79.3785400390625)"/>
<path d="M0 0 C9.52216077 0 16.42838175 1.72143673 23.46875 8.296875 C29.03737064 14.4905449 32.26509486 21.41403494 32.22705078 29.82177734 C32.22689972 30.94248627 32.22674866 32.06319519 32.22659302 33.21786499 C32.21627045 34.41182892 32.20594788 35.60579285 32.1953125 36.8359375 C32.1924826 38.07042633 32.18965271 39.30491516 32.18673706 40.57681274 C32.17556522 44.50964149 32.15046564 48.44224037 32.125 52.375 C32.11383825 55.04556959 32.10584119 57.71613701 32.09765625 60.38671875 C32.07733953 66.92463843 32.03818393 73.46206267 32 80 C21.44 80 10.88 80 0 80 C0 53.6 0 27.2 0 0 Z " fill="#CCA300" transform="translate(408,136)"/>
</svg>
