<?xml version="1.0" encoding="UTF-8"?>
<svg version="1.1" xmlns="http://www.w3.org/2000/svg" width="512" height="512">
<path d="M0 0 C0.69123962 0.43491257 1.38247925 0.86982513 2.09466553 1.31791687 C10.15524403 6.42744606 18.04434213 11.79071072 25.93603516 17.15576172 C41.82966073 27.95672167 57.80665093 38.62300894 73.87109375 49.16796875 C89.33183279 59.3191997 104.70519262 69.59008352 120.01913452 79.96133423 C135.98082659 90.76798329 152.0514504 101.4027265 168.18359375 111.953125 C205.92501095 136.67263441 205.92501095 136.67263441 211.44798279 156.5382843 C212.30694606 160.86178543 212.19720453 165.24752359 212.20703125 169.640625 C212.21368805 170.68190048 212.22034485 171.72317596 212.22720337 172.79600525 C212.23729209 174.98874147 212.24202156 177.18150817 212.24169922 179.37426758 C212.2460844 182.72333161 212.28247814 186.07108954 212.3203125 189.41992188 C212.32617907 191.5559851 212.33014953 193.69205455 212.33203125 195.828125 C212.34640228 196.82513931 212.36077332 197.82215363 212.37557983 198.84938049 C212.33764406 204.63197855 211.8416313 208.13947985 207.87109375 212.66796875 C202.36799116 216.85032672 197.70214289 217.58405315 190.87109375 216.66796875 C185.5938264 214.87568927 183.03120442 212.09212369 179.87109375 207.66796875 C178.99362331 204.95601423 178.74376739 202.4931319 178.72924805 199.65307617 C178.72221359 198.87514206 178.71517914 198.09720795 178.70793152 197.29570007 C178.70376724 196.46335342 178.69960297 195.63100677 178.6953125 194.7734375 C178.67211243 192.99543089 178.64799502 191.21743606 178.62304688 189.43945312 C178.58797629 186.648276 178.55860369 183.85753254 178.54516602 181.06616211 C178.52962611 178.36389201 178.48938156 175.6628738 178.4453125 172.9609375 C178.44817513 171.72152657 178.44817513 171.72152657 178.45109558 170.45707703 C178.33927019 165.11776479 177.47109123 160.81390711 173.87109375 156.66796875 C171.20509977 154.38202577 168.3370802 152.52678887 165.3671875 150.66015625 C164.51379288 150.10566803 163.66039825 149.55117981 162.78114319 148.97988892 C160.93410996 147.78205258 159.08256346 146.59115288 157.22705078 145.40649414 C153.2346922 142.85724928 149.26434398 140.27460745 145.29251099 137.69354248 C143.22529392 136.35044611 141.15698092 135.00903515 139.08761597 133.66925049 C129.64714497 127.55046945 120.31711822 121.27607713 111.00906372 114.95831299 C95.7081861 104.57387405 80.32835766 94.31802346 64.87109375 84.16796875 C47.24098835 72.59062573 29.72137727 60.8576986 12.25570679 49.03390503 C8.12982579 46.24181277 4.0010669 43.45400361 -0.12890625 40.66796875 C-1.07340637 40.0302655 -2.01790649 39.39256226 -2.99102783 38.73553467 C-5.8898417 36.78070751 -8.79209393 34.8310904 -11.6953125 32.8828125 C-12.59434799 32.27578995 -13.49338348 31.6687674 -14.41966248 31.04335022 C-15.25385208 30.48497971 -16.08804169 29.92660919 -16.94750977 29.35131836 C-17.68389175 28.85635361 -18.42027374 28.36138885 -19.17897034 27.85142517 C-23.86429618 25.00780405 -28.82089978 24.95566502 -34.12890625 25.66796875 C-37.46716836 27.02153662 -40.27591623 28.93124878 -43.21875 30.9921875 C-44.06365494 31.55658035 -44.90855988 32.12097321 -45.77906799 32.70246887 C-48.55660279 34.56545203 -51.31091773 36.46006396 -54.06640625 38.35546875 C-56.02721582 39.67920404 -57.9894824 41.0007834 -59.953125 42.3203125 C-65.03693823 45.74371356 -70.10271044 49.1928665 -75.16473389 52.64837646 C-79.77871072 55.79203712 -84.40831509 58.91236743 -89.0390625 62.03125 C-90.80935588 63.22391423 -92.57961967 64.4166224 -94.34985352 65.609375 C-95.220867 66.1962207 -96.09188049 66.78306641 -96.98928833 67.38769531 C-99.64161105 69.17653742 -102.29168109 70.96867094 -104.94116211 72.76171875 C-122.44180069 84.59919404 -140.09306683 96.20452329 -157.74862671 107.80903625 C-168.33805881 114.77263921 -178.88000966 121.80674487 -189.41455078 128.85302734 C-192.76014984 131.0900469 -196.10862132 133.32273333 -199.45776367 135.55444336 C-200.91004549 136.52226085 -202.36204671 137.49049956 -203.8137207 138.45922852 C-207.55462819 140.95536143 -211.30009789 143.44435724 -215.05078125 145.92578125 C-215.86861084 146.46799316 -216.68644043 147.01020508 -217.52905273 147.56884766 C-219.08717725 148.60171028 -220.64650219 149.63276532 -222.20727539 150.66162109 C-230.01249255 155.42345436 -230.01249255 155.42345436 -235.12890625 162.66796875 C-235.4277454 164.90503968 -235.4277454 164.90503968 -235.38617516 167.31323814 C-235.39262405 168.24756876 -235.39907294 169.18189938 -235.40571725 170.14454305 C-235.40262005 171.16768216 -235.39952285 172.19082127 -235.39633179 173.2449646 C-235.4008629 174.33445738 -235.40539401 175.42395017 -235.41006243 176.54645789 C-235.42275794 180.20988831 -235.42108273 183.87317106 -235.41943359 187.53662109 C-235.4254156 190.15798637 -235.43222038 192.77934988 -235.43978882 195.40071106 C-235.45640478 201.78969579 -235.46189863 208.17864363 -235.46301357 214.56764816 C-235.46396374 219.76058492 -235.46807245 224.9535095 -235.47441483 230.14644241 C-235.49202864 244.86754211 -235.50125344 259.58861264 -235.49975388 274.30972295 C-235.49963401 275.50025774 -235.49963401 275.50025774 -235.49951172 276.71484375 C-235.49942996 277.50950203 -235.4993482 278.3041603 -235.49926396 279.12289913 C-235.49845095 292.00319565 -235.51759187 304.88337525 -235.54578845 317.76363795 C-235.5745083 330.98720701 -235.58832925 344.21071904 -235.5866009 357.43432009 C-235.5859367 364.85910963 -235.59144209 372.28377659 -235.612957 379.70853806 C-235.63305823 386.69021245 -235.6325043 393.67162372 -235.61792374 400.65331078 C-235.61582722 403.21798899 -235.62058637 405.78268318 -235.63264465 408.34733391 C-235.64802304 411.84419865 -235.63883697 415.34016106 -235.62338257 418.83700562 C-235.63366969 419.85568328 -235.64395682 420.87436095 -235.65455568 421.92390764 C-235.59869698 427.62994697 -235.19985376 431.30791656 -231.12890625 435.66796875 C-226.03419285 439.25737638 -221.14343649 439.09790266 -215.14419556 439.06669617 C-213.64192557 439.07666641 -213.64192557 439.07666641 -212.10930669 439.08683807 C-208.75587308 439.10547967 -205.4027959 439.10286193 -202.04931641 439.1003418 C-199.64451595 439.10935822 -197.23972009 439.11968514 -194.83493042 439.13122559 C-189.65885322 439.15311641 -184.48283884 439.16589423 -179.30672073 439.17035484 C-171.82298197 439.17681989 -164.33936468 439.19976347 -156.85567491 439.22669814 C-144.71320792 439.26995416 -132.57074605 439.29992767 -120.42822266 439.3215332 C-108.63457728 439.34254645 -96.84097376 439.36982455 -85.04736328 439.40551758 C-84.3201127 439.4077164 -83.59286212 439.40991523 -82.84357364 439.41218068 C-79.19508375 439.42325042 -75.54659424 439.43444322 -71.89810491 439.44569719 C-41.64174091 439.53886552 -11.38535986 439.61024969 18.87109375 439.66796875 C18.81052288 424.77733623 18.73299731 409.88686351 18.63537884 394.99642754 C18.59044488 388.08226929 18.55102477 381.16816228 18.5246582 374.25390625 C18.4991997 367.58186092 18.45827894 360.91007439 18.40790749 354.23816299 C18.39121643 351.69209758 18.37971614 349.1459927 18.37347984 346.59988022 C18.36386347 343.03493053 18.33583211 339.47056735 18.3034668 335.90576172 C18.30561943 334.32511681 18.30561943 334.32511681 18.30781555 332.71253967 C18.23817839 327.29250294 17.97508605 323.32077394 14.87109375 318.66796875 C10.02665115 314.18685935 6.58726004 313.54261242 0.1081543 313.50683594 C-0.57514954 313.50187103 -1.25845337 313.49690613 -1.96246338 313.49179077 C-4.22238169 313.47718971 -6.48222978 313.47037023 -8.7421875 313.46484375 C-10.31536358 313.45909013 -11.88853965 313.45333242 -13.4617157 313.4475708 C-16.76118292 313.43706634 -20.06062583 313.4312202 -23.36010742 313.42773438 C-27.58014752 313.42225407 -31.79986425 313.39823383 -36.01980305 313.36976242 C-39.27039009 313.35110237 -42.5208998 313.34592863 -45.77153587 313.3443985 C-47.32681227 313.34137849 -48.88208751 313.33337198 -50.43731117 313.32021332 C-52.6177158 313.30308353 -54.79733787 313.30504958 -56.9777832 313.31152344 C-58.21671829 313.30787781 -59.45565338 313.30423218 -60.73213196 313.30047607 C-64.46767119 313.7046193 -66.86462084 314.86677077 -70.12890625 316.66796875 C-70.78890625 316.66796875 -71.44890625 316.66796875 -72.12890625 316.66796875 C-72.43828125 317.45171875 -72.74765625 318.23546875 -73.06640625 319.04296875 C-74.12890625 321.66796875 -74.12890625 321.66796875 -75.12890625 323.66796875 C-75.22946107 325.93332097 -75.26453091 328.20166397 -75.27075195 330.46923828 C-75.27422638 331.16869064 -75.27770081 331.86814301 -75.28128052 332.58879089 C-75.28864055 334.11058886 -75.29398461 335.63239759 -75.29757118 337.15420914 C-75.30473806 339.56780935 -75.32040849 341.98120642 -75.33891296 344.39474487 C-75.39135545 351.25825118 -75.43930708 358.12164945 -75.45483398 364.98535156 C-75.46495254 369.18298392 -75.49437974 373.3801097 -75.53615379 377.57754135 C-75.54841944 379.17297395 -75.55359319 380.76847827 -75.55135536 382.36395645 C-75.53480863 398.01948117 -75.53480863 398.01948117 -80.12890625 404.66796875 C-85.23689541 408.92462638 -89.75002412 409.29685947 -96.3203125 409.05078125 C-101.54283334 408.33894948 -104.05995298 406.00739006 -107.25379944 402.00543213 C-109.41621379 398.15659607 -109.68978143 395.18615437 -109.63061523 390.89355469 C-109.63871971 389.76053673 -109.63871971 389.76053673 -109.64698792 388.60462952 C-109.65944218 386.1201292 -109.64300083 383.63679582 -109.625 381.15234375 C-109.62515513 379.41367533 -109.62664643 377.67500656 -109.62940979 375.93634033 C-109.63079253 372.29480673 -109.61826199 368.65366756 -109.59545898 365.01220703 C-109.56715938 360.36772514 -109.56979031 355.7239024 -109.5825491 351.07937241 C-109.58954154 347.48802162 -109.58167513 343.89682028 -109.56929207 340.30548859 C-109.56480612 338.59445013 -109.56441552 336.88339545 -109.56835747 335.17235565 C-109.58818998 318.98130665 -106.97959237 305.71920494 -95.62890625 293.41796875 C-85.99795017 284.28165392 -73.51014261 279.34512745 -60.25097656 279.39331055 C-59.13696976 279.38564415 -59.13696976 279.38564415 -58.00045776 279.37782288 C-55.5692313 279.36403568 -53.13829193 279.36487587 -50.70703125 279.3671875 C-48.99843239 279.36329363 -47.28983448 279.35895754 -45.58123779 279.35420227 C-42.00725157 279.34676266 -38.43336415 279.34701417 -34.859375 279.35229492 C-30.30935685 279.35807601 -25.75974757 279.34118056 -21.20979691 279.31795025 C-17.68188159 279.30311922 -14.1540625 279.30235404 -10.62612152 279.30545998 C-8.95021508 279.30495111 -7.27430261 279.29979631 -5.59842682 279.28964806 C11.1128687 279.20088583 25.39277562 281.52581036 38.18359375 293.35546875 C48.95653903 305.00371583 52.36951632 318.34604831 52.21166992 333.86230469 C52.212108 335.01497833 52.21254608 336.16765198 52.21299744 337.35525513 C52.21092684 341.12113072 52.18767753 344.88654705 52.1640625 348.65234375 C52.1584604 351.28077959 52.15419321 353.90921859 52.15119934 356.53765869 C52.14192617 362.72096445 52.11737753 368.90410847 52.08715087 375.08734345 C52.0534583 382.13462311 52.03708376 389.18191106 52.02206457 396.22925138 C51.9908229 410.70890674 51.9381559 425.18843548 51.87109375 439.66796875 C66.8748613 439.63076101 81.87841106 439.57083997 96.88197422 439.48406601 C103.84881018 439.44429934 110.81553357 439.41189491 117.7824707 439.39697266 C124.50644047 439.38254995 131.23001103 439.34741184 137.95384026 439.29965973 C140.51861475 439.28482674 143.08343905 439.27692664 145.6482563 439.2760849 C149.2418751 439.27371941 152.83452645 439.24667075 156.42797852 439.21386719 C157.48749725 439.21889755 158.54701599 439.22392792 159.63864136 439.22911072 C165.89114322 439.14085566 169.89195259 438.58936225 174.87109375 434.66796875 C177.62954123 430.18222607 178.24539572 426.81175644 178.24290466 421.5843811 C178.24672923 420.89477873 178.25055379 420.20517636 178.25449425 419.49467695 C178.26374031 417.19627455 178.2518129 414.89848076 178.23999023 412.60009766 C178.24245951 410.9471868 178.24629922 409.2942775 178.25140381 407.64137268 C178.25973082 404.08752852 178.25894353 400.53384466 178.2512188 396.97999954 C178.23961987 391.35682027 178.25181196 385.7338465 178.26783752 380.11068726 C178.3040051 366.14364861 178.31026289 352.17661491 178.30773926 338.20953369 C178.30602711 327.35402542 178.31317635 316.49868536 178.34771782 305.64322412 C178.36449 300.0572251 178.36273587 294.47163668 178.3468951 288.88563943 C178.34108725 285.40532145 178.35185783 281.92519705 178.36714172 278.44491386 C178.37085954 276.83571273 178.36778425 275.22647875 178.35727119 273.61730766 C178.2643082 258.36728377 178.2643082 258.36728377 182.87109375 251.66796875 C187.97908291 247.41131112 192.49221162 247.03907803 199.0625 247.28515625 C204.29765082 247.99870949 206.81632416 250.33066564 209.99559784 254.36154842 C212.19053833 258.2311361 212.37376721 260.52186905 212.37902832 264.94569397 C212.38838826 266.01155775 212.38838826 266.01155775 212.3979373 267.09895414 C212.41383127 269.46873691 212.40127766 271.83748586 212.38867188 274.20727539 C212.39409496 275.91118975 212.40121867 277.61509943 212.40991211 279.31900024 C212.42813591 283.94138832 212.42107928 288.56341892 212.40839577 293.18581319 C212.3982517 298.03375142 212.40766642 302.88165953 212.41394043 307.729599 C212.4212176 315.87797519 212.41163238 324.02620638 212.39257812 332.17456055 C212.37086038 341.56988173 212.3778233 350.96485498 212.39988375 360.36016756 C212.41809696 368.44283285 212.42056571 376.52539397 212.41012907 384.60807317 C212.40391998 389.42796767 212.4029858 394.24769931 212.41627502 399.06758308 C212.42791746 403.60757771 212.41965618 408.14712929 212.396698 412.68707657 C212.39145317 414.34416026 212.39285128 416.00128188 212.40174866 417.65834999 C212.46935189 431.54009106 210.58890904 443.43319892 201.87109375 454.66796875 C200.75734375 456.21484375 200.75734375 456.21484375 199.62109375 457.79296875 C191.49997831 466.2832258 180.58057149 472.31489983 168.69383621 472.79676992 C167.48463894 472.79855849 166.27544167 472.80034706 165.02960205 472.80218983 C164.35068974 472.80454206 163.67177742 472.80689429 162.97229201 472.8093178 C160.6927749 472.81598539 158.41331509 472.81555025 156.13378906 472.81513977 C154.48469297 472.81843979 152.83559767 472.82216566 151.18650341 472.82628125 C146.65086581 472.83629367 142.11524145 472.84001683 137.57959437 472.84267056 C132.68913 472.84657587 127.79867608 472.85615408 122.90821838 472.86488342 C111.09552968 472.8846417 99.28284012 472.89471337 87.47013903 472.90361121 C81.90606665 472.90799527 76.34199521 472.91336179 70.77792358 472.91860008 C52.27937518 472.93561194 33.78082736 472.95010576 15.28227234 472.95734882 C10.48228962 472.95925869 5.68230691 472.96117903 0.88232422 472.96313477 C-0.90717425 472.96386038 -0.90717425 472.96386038 -2.73282421 472.96460065 C-22.05543448 472.97289964 -41.37798282 472.99823457 -60.70056605 473.03071544 C-80.54267611 473.06379745 -100.3847547 473.08179863 -120.22689247 473.08499306 C-131.36585963 473.08715713 -142.50473649 473.09589067 -153.64367676 473.12145424 C-163.13082811 473.14317681 -172.61786721 473.15120397 -182.10504061 473.14148746 C-186.94311024 473.13694727 -191.78094835 473.13881271 -196.61898613 473.1582489 C-201.05444563 473.1759134 -205.48950526 473.17485628 -209.9249692 473.15935161 C-211.52329568 473.15698052 -213.1216501 473.16127303 -214.71993399 473.17318026 C-230.20534087 473.28133251 -243.45908451 470.22925713 -255.34375 459.70703125 C-262.82893855 451.9776043 -269.23967485 440.81596504 -269.26312733 429.88049221 C-269.26758517 428.91441113 -269.27204301 427.94833005 -269.27663594 426.95297378 C-269.27645158 425.89433579 -269.27626722 424.83569779 -269.27607727 423.74497986 C-269.27975396 422.61817938 -269.28343065 421.4913789 -269.28721875 420.33043295 C-269.29826477 416.54051518 -269.30210101 412.75062482 -269.3059082 408.96069336 C-269.31164016 406.24891932 -269.31880614 403.5371494 -269.32582092 400.82537842 C-269.34557331 392.67712949 -269.35565045 384.52887934 -269.36454871 376.38061246 C-269.36893403 372.5411967 -269.37430025 368.70178231 -269.37953758 364.86236763 C-269.39654941 352.09505849 -269.41104253 339.32775021 -269.41828632 326.56043148 C-269.42019615 323.24805131 -269.42211649 319.93567116 -269.42407227 316.62329102 C-269.42455601 315.80003814 -269.42503975 314.97678527 -269.42553815 314.12858535 C-269.43383452 300.79901703 -269.459165 287.46953856 -269.49165294 274.14000946 C-269.52475287 260.44746765 -269.54273777 246.75497145 -269.54593056 233.06238943 C-269.54809306 225.37753926 -269.5568033 217.69282008 -269.58239174 210.00800896 C-269.60413896 203.46176202 -269.61212951 196.91567791 -269.60242496 190.36939894 C-269.59789157 187.03219157 -269.60190795 183.69559118 -269.6191864 180.35838509 C-269.63690859 176.73192316 -269.62979627 173.10630613 -269.61665344 169.47984314 C-269.62762269 168.4368202 -269.63859193 167.39379725 -269.64989358 166.31916755 C-269.57083003 157.24959256 -267.03021549 149.18828255 -262.31640625 141.41796875 C-261.87683594 140.6703125 -261.43726563 139.92265625 -260.984375 139.15234375 C-256.39986535 133.01392662 -250.81660776 128.45388967 -244.42578125 124.31640625 C-243.68783829 123.82864212 -242.94989532 123.34087799 -242.18959045 122.83833313 C-240.59413578 121.78499203 -238.99623891 120.73534239 -237.39614868 119.6890564 C-233.9157596 117.41314312 -230.44731 115.11931021 -226.97810364 112.82640076 C-225.14517553 111.61504574 -223.31165997 110.40457918 -221.47758484 109.19496155 C-212.47253205 103.25112348 -203.53550459 97.20865769 -194.60241699 91.15744019 C-174.32712768 77.42750982 -153.90300079 63.93120976 -133.44113159 50.48153687 C-126.25701877 45.75730962 -119.09229273 41.00480919 -111.94140625 36.23046875 C-110.9155542 35.54573486 -109.88970215 34.86100098 -108.83276367 34.15551758 C-104.24069021 31.08824753 -99.65082896 28.01769137 -95.0625 24.94482422 C-91.40976927 22.49862519 -87.75545784 20.05480026 -84.10043335 17.61203003 C-82.02966384 16.22699968 -79.96072111 14.8392733 -77.8918457 13.45141602 C-71.17202738 8.95321993 -64.41250005 4.52171032 -57.578125 0.19921875 C-56.61299736 -0.41777893 -56.61299736 -0.41777893 -55.62837219 -1.04724121 C-37.97363694 -12.11539829 -17.38491972 -10.99600147 0 0 Z " fill="#73C5FE" transform="translate(285.12890625,24.33203125)"/>
</svg>
