<?xml version="1.0" encoding="UTF-8"?>
<svg version="1.1" xmlns="http://www.w3.org/2000/svg" width="512" height="512">
<path d="M0 0 C10.64084391 7.80179522 10.31844039 27.76127734 12.21484375 39.8828125 C12.52403967 41.83727745 12.8336424 43.79167807 13.14363098 45.74601746 C13.95154415 50.84650549 14.75399148 55.94783829 15.55523682 61.04937744 C16.37657269 66.27238026 17.20316719 71.49455055 18.02929688 76.71679688 C19.64442077 86.93149143 21.25376165 97.14708776 22.859375 107.36328125 C22.86302063 106.69723877 22.86666626 106.03119629 22.87042236 105.3449707 C22.91263427 98.33510976 22.98224326 91.32588023 23.06689453 84.31640625 C23.09490632 81.70970005 23.11621791 79.10291203 23.13037109 76.49609375 C23.25570093 54.70541374 23.48431591 36.23613561 39.171875 19.55078125 C50.12283453 9.17521112 63.17125841 4.98855558 78.12890625 5.21484375 C94.97463806 6.13063461 109.13808878 12.82748792 120.7890625 24.9453125 C124.08501941 28.79474143 126.5585216 32.8603841 128.859375 37.36328125 C129.23835938 38.06195313 129.61734375 38.760625 130.0078125 39.48046875 C133.20381459 46.23292428 133.83670888 53.42042796 134.46948242 60.78833008 C135.08706029 66.46262092 136.35407464 69.85444847 140.21337891 74.09692383 C143.7095178 76.78670022 147.8940737 76.58656275 152.1640625 76.86328125 C153.38738281 76.94578125 154.61070312 77.02828125 155.87109375 77.11328125 C157.14597656 77.19578125 158.42085938 77.27828125 159.734375 77.36328125 C162.25278149 77.52724668 164.77101964 77.69382306 167.2890625 77.86328125 C168.40522949 77.93546875 169.52139648 78.00765625 170.67138672 78.08203125 C173.77469107 78.35581028 176.79499363 78.8085375 179.859375 79.36328125 C179.58673828 78.78884277 179.31410156 78.2144043 179.03320312 77.62255859 C177.79665199 74.99990761 176.57793133 72.36933832 175.359375 69.73828125 C174.93011719 68.83464844 174.50085938 67.93101562 174.05859375 67 C170.13307139 58.46354661 170.13307139 58.46354661 170.859375 53.36328125 C171.984375 51.48828125 171.984375 51.48828125 173.859375 50.36328125 C176.796875 49.92578125 176.796875 49.92578125 179.859375 50.36328125 C183.34686614 53.20409355 184.70073077 55.91506608 186.1640625 60.1171875 C189.71558726 71.48665379 189.71558726 71.48665379 196.60791016 80.71142578 C199.56924917 81.89162889 202.44839546 82.00501127 205.609375 82.13671875 C210.18456507 82.45566229 212.25006541 84.28314893 215.37109375 87.484375 C219.44774695 92.63101591 220.19511876 97.38531598 220.2578125 103.73828125 C219.72726614 107.23364548 218.28368425 110.14220188 216.859375 113.36328125 C217.89174789 113.36874969 217.89174789 113.36874969 218.94497681 113.37432861 C226.11551547 113.41617468 233.28541533 113.48553602 240.45556641 113.57080078 C243.13082709 113.60121069 245.80548053 113.62022169 248.48095703 113.63427734 C252.32888421 113.65571028 256.17581024 113.70236642 260.0234375 113.75390625 C261.21740143 113.75513489 262.41136536 113.75636353 263.64151001 113.75762939 C269.98858016 113.8693047 274.07412996 114.01995064 278.859375 118.36328125 C283.69044277 123.84719601 284.20962243 127.16867524 284.140625 134.37890625 C283.63875524 139.704302 281.10552124 142.26548575 277.234375 145.67578125 C273.17194121 148.56224736 270.136141 148.50033084 265.28857422 148.47680664 C264.11770767 148.47702568 264.11770767 148.47702568 262.92318726 148.47724915 C260.33678431 148.47655111 257.75045291 148.46876382 255.1640625 148.4609375 C253.37330159 148.45907293 251.58254017 148.45764921 249.79177856 148.45664978 C245.07353309 148.45282766 240.3553183 148.44299996 235.63708496 148.4319458 C230.82446711 148.42172514 226.01184432 148.41715075 221.19921875 148.41210938 C211.75259067 148.40137744 202.30598538 148.38430465 192.859375 148.36328125 C193.47546631 149.51223877 194.09155762 150.66119629 194.72631836 151.8449707 C196.81757518 156.04213826 198.00150743 160.0898884 198.98828125 164.65625 C199.17528091 165.47974442 199.36228058 166.30323883 199.5549469 167.15168762 C200.18739041 169.94921158 200.80463219 172.74986717 201.421875 175.55078125 C201.87593229 177.57636441 202.33088208 179.60174767 202.78662109 181.62695312 C203.84660427 186.34683587 204.89939741 191.06826584 205.94873047 195.79052734 C207.77480258 204.00387617 209.62455035 212.21184623 211.47489929 220.41975403 C213.43136637 229.09841702 215.38147734 237.77850767 217.33149338 246.45862198 C217.98383174 249.36086429 218.63711436 252.2628928 219.29055786 255.16488647 C220.33270063 259.79482721 221.37078069 264.42566231 222.40595818 269.05716515 C222.79260957 270.78429055 223.18055725 272.51112633 223.56988716 274.23764992 C224.10889189 276.62900997 224.64314128 279.02138651 225.17626953 281.4140625 C225.41148489 282.45016804 225.41148489 282.45016804 225.65145206 283.50720501 C227.905866 293.69517461 228.81598105 301.86877862 223.296875 311.11328125 C219.4079928 316.49933602 214.8221759 319.35204019 208.41015625 320.98828125 C201.20478548 322.074177 194.79002706 320.80977331 188.59375 316.953125 C177.96280735 308.62555325 176.85155634 293.43816868 174.12890625 281.0234375 C173.68939252 279.04934125 173.24908715 277.07542111 172.80802917 275.10166931 C171.65529422 269.9342097 170.5123406 264.76463765 169.37176514 259.59448242 C167.98038132 253.29509441 166.57857191 246.99802003 165.17705059 240.700881 C164.08779367 235.80670043 163.00051362 230.91211237 161.91938782 226.01612854 C161.52804739 224.24911461 161.13670532 222.48210104 160.74536133 220.71508789 C160.56822601 219.90936844 160.3910907 219.10364899 160.20858765 218.27351379 C159.53723881 215.24799861 158.84019972 212.30575542 157.859375 209.36328125 C156.7146875 210.32234375 156.7146875 210.32234375 155.546875 211.30078125 C151.18782862 214.64609591 147.43818519 214.48970472 142.171875 214.42578125 C141.46998047 214.42126953 140.76808594 214.41675781 140.04492188 214.41210938 C138.31636962 214.40035052 136.58786135 214.38241579 134.859375 214.36328125 C135.29492455 216.10309265 135.29492455 216.10309265 135.73927307 217.87805176 C138.47675114 228.82075271 141.19940533 239.76704922 143.90767002 250.71701813 C145.30041872 256.34610263 146.69831862 261.97380133 148.1081543 267.59863281 C149.4690812 273.02914556 150.81626194 278.46290127 152.15406609 283.89915466 C152.66630074 285.97033985 153.18343787 288.04031906 153.70559883 290.10902405 C154.43735839 293.01167805 155.15140805 295.9181705 155.86157227 298.82617188 C156.08023453 299.67637909 156.29889679 300.5265863 156.52418518 301.40255737 C157.81059006 306.77127511 158.02136481 310.93726309 156.859375 316.36328125 C154.3471883 319.162575 152.48668004 320.16307752 148.921875 321.30078125 C144.99090745 321.38100508 143.09204567 320.59023215 139.859375 318.36328125 C137.14776622 313.77369825 135.8548461 309.14860674 134.62280273 304.0222168 C134.42075226 303.20674377 134.21870178 302.39127075 134.01052856 301.55108643 C133.34782001 298.86902644 132.69531142 296.18459829 132.04296875 293.5 C131.58181896 291.62426835 131.1200632 289.74868558 130.6577301 287.87324524 C129.44379787 282.94142454 128.23864366 278.00749837 127.03515625 273.07312012 C126.05506547 269.06087347 125.0689071 265.05013055 124.08238125 261.03946209 C122.03740829 252.72538036 119.99649333 244.41029483 117.96655273 236.0925293 C117.78209091 235.33950027 117.59762909 234.58647125 117.40757751 233.81062317 C116.88448631 231.66311535 116.36965163 229.51386827 115.859375 227.36328125 C115.57466182 226.17438262 115.57466182 226.17438262 115.28419685 224.96146584 C115.1005451 224.17152418 114.91689335 223.38158253 114.72767639 222.56770325 C114.56106538 221.85756482 114.39445436 221.1474264 114.22279453 220.41576862 C113.859375 218.36328125 113.859375 218.36328125 113.859375 214.36328125 C92.409375 214.69328125 70.959375 215.02328125 48.859375 215.36328125 C47.16167969 222.37964844 45.46398437 229.39601563 43.71484375 236.625 C42.63568982 241.06858846 41.5560435 245.51204556 40.47460938 249.95507812 C38.75808952 257.00754271 37.04341247 264.06041997 35.33959961 271.1159668 C33.96586805 276.80413333 32.58396709 282.49025778 31.19637489 288.17505836 C30.66837322 290.34446273 30.14332115 292.51458717 29.62126732 294.68543053 C28.88966173 297.72543185 28.1476188 300.76270585 27.40307617 303.79956055 C27.18944427 304.69795654 26.97581238 305.59635254 26.75570679 306.52197266 C25.30507099 312.37524184 24.09459065 316.87313749 18.859375 320.36328125 C19.59802643 329.15229831 21.66014814 337.51440338 23.77539062 346.0625 C25.97674071 355.45421635 28.49821089 366.78621527 23.26171875 375.58203125 C19.38827556 380.50205936 14.89702577 384.49196259 8.859375 386.36328125 C1.00545975 387.17025462 -6.71994056 387.45193558 -13.140625 382.36328125 C-20.00047448 376.02145244 -22.36469265 368.34089926 -24.30126953 359.4621582 C-24.49517273 358.59949341 -24.68907593 357.73682861 -24.88885498 356.84802246 C-25.52348023 354.01726274 -26.14849044 351.1844731 -26.7734375 348.3515625 C-27.21455 346.37561161 -27.65628104 344.3997987 -28.09860229 342.42411804 C-29.258246 337.23698651 -30.40980413 332.04809327 -31.55957031 326.85876465 C-32.73168385 321.5747293 -33.91092511 316.2922861 -35.08984375 311.00976562 C-36.41395284 305.07583385 -37.73737805 299.14175963 -39.05496216 293.20637512 C-39.25522003 292.304832 -39.45547791 291.40328888 -39.6618042 290.47442627 C-40.03508254 288.79346934 -40.40794378 287.11241971 -40.78030396 285.43125916 C-41.52819709 282.06441886 -42.29368303 278.70653296 -43.140625 275.36328125 C-44.06875 276.00265625 -44.996875 276.64203125 -45.953125 277.30078125 C-50.51723964 280.2540319 -53.97539259 280.58202779 -59.328125 280.92578125 C-61.23658203 281.05146484 -61.23658203 281.05146484 -63.18359375 281.1796875 C-64.15941406 281.24027344 -65.13523438 281.30085938 -66.140625 281.36328125 C-65.86500732 282.46860199 -65.58938965 283.57392273 -65.30541992 284.71273804 C-62.70318554 295.15508654 -60.11329151 305.60042884 -57.53529358 316.04878807 C-56.20968578 321.41965398 -54.87982884 326.78939099 -53.54003906 332.15673828 C-52.24602526 337.34138132 -50.96346421 342.5287374 -49.68862915 347.7181282 C-49.20149359 349.6925497 -48.71031431 351.66597826 -48.2149353 353.63834763 C-47.51911362 356.41177355 -46.83805905 359.18845654 -46.16015625 361.96630859 C-45.95444 362.7719223 -45.74872375 363.57753601 -45.53677368 364.40756226 C-44.19233263 370.00738854 -43.4480243 375.6078123 -44.140625 381.36328125 C-46.078125 384.48828125 -46.078125 384.48828125 -49.140625 386.36328125 C-53.60788939 387.25996542 -56.8095959 387.24731636 -60.66485596 384.68675232 C-63.53490066 381.99325962 -64.11756814 380.40893695 -65.03417969 376.62133789 C-65.32536682 375.45856827 -65.61655396 374.29579865 -65.91656494 373.09779358 C-66.21222351 371.83575607 -66.50788208 370.57371857 -66.8125 369.2734375 C-67.1383116 367.94311383 -67.46580071 366.61320001 -67.79486084 365.28367615 C-68.66843284 361.73446075 -69.5189365 358.18009036 -70.36502075 354.62423706 C-71.23957072 350.96623875 -72.13539327 347.31346369 -73.02929688 343.66015625 C-74.60816242 337.19512263 -76.16990884 330.72611688 -77.7233429 324.2549305 C-79.39393428 317.29957502 -81.09327282 310.35138286 -82.79742432 303.40419006 C-84.59695774 296.06150933 -86.36669538 288.71241826 -88.140625 281.36328125 C-120.315625 280.86828125 -120.315625 280.86828125 -153.140625 280.36328125 C-153.470625 283.00328125 -153.800625 285.64328125 -154.140625 288.36328125 C-154.42110064 289.81580898 -154.72694259 291.26407666 -155.07589722 292.70169067 C-155.25804779 293.46129089 -155.44019836 294.22089111 -155.62786865 295.00350952 C-155.82527649 295.80688751 -156.02268433 296.6102655 -156.22607422 297.43798828 C-156.43597992 298.30734009 -156.64588562 299.17669189 -156.8621521 300.0723877 C-157.55188963 302.92310775 -158.24824847 305.77215702 -158.9453125 308.62109375 C-159.4301255 310.61306362 -159.91475189 312.60507891 -160.39920044 314.59713745 C-161.41326495 318.76197274 -162.43084535 322.9259304 -163.45068359 327.08935547 C-164.75547214 332.41807361 -166.04952102 337.74933478 -167.34071159 343.08136177 C-168.33770693 347.19186857 -169.34136395 351.30072711 -170.34692764 355.40914536 C-170.82682804 357.3741301 -171.30443891 359.3396755 -171.77968979 361.30578995 C-172.44501686 364.05472433 -173.11953564 366.80124708 -173.79638672 369.54736328 C-173.98974609 370.35478973 -174.18310547 371.16221619 -174.38232422 371.99411011 C-177.12913013 383.02228467 -177.12913013 383.02228467 -182.140625 386.36328125 C-186.52326357 387.06909945 -190.12969422 386.84768558 -194.140625 384.92578125 C-197.32942955 380.84012541 -197.4811376 376.13765013 -196.85760689 371.05735588 C-196.36023946 368.61547869 -195.77252267 366.21557599 -195.14282227 363.80444336 C-194.91863617 362.89604706 -194.69445007 361.98765076 -194.46347046 361.05172729 C-193.72569297 358.0775603 -192.9665869 355.1092975 -192.20703125 352.140625 C-191.68860672 350.06873739 -191.17153168 347.99651168 -190.65574646 345.92396545 C-189.29972566 340.49054095 -187.92550333 335.06188313 -186.54736328 329.6340332 C-185.14223951 324.08627299 -183.7544838 318.53417428 -182.36523438 312.98242188 C-179.64062211 302.10507342 -176.89674984 291.23268436 -174.140625 280.36328125 C-175.03845703 280.37633301 -175.93628906 280.38938477 -176.86132812 280.40283203 C-178.03630859 280.4129834 -179.21128906 280.42313477 -180.421875 280.43359375 C-181.58783203 280.44664551 -182.75378906 280.45969727 -183.95507812 280.47314453 C-189.35703459 280.28684162 -191.92586527 278.46504007 -195.828125 274.92578125 C-202.23502444 266.55383622 -202.35158096 252.73668846 -203.9597168 242.52587891 C-204.22574119 240.86204855 -204.49220269 239.19828804 -204.75906372 237.53459167 C-205.47688403 233.04978639 -206.18783703 228.56391959 -206.89689231 224.07772112 C-207.34144642 221.26721155 -207.78753859 218.45695049 -208.23417091 215.64677048 C-209.79575195 205.82135881 -211.35180944 195.99509109 -212.90258789 186.16796875 C-214.34295239 177.0414547 -215.79533999 167.91690948 -217.25337285 158.793203 C-218.50957693 150.92905892 -219.75737223 143.06361007 -220.99874622 135.19711149 C-221.73816778 130.51233241 -222.48085091 125.82813108 -223.23203087 121.14522171 C-223.93853788 116.73893401 -224.63446966 112.33109844 -225.32266617 107.92191505 C-225.57530148 106.31463202 -225.83153779 104.70790968 -226.09186363 103.10185432 C-230.07113659 78.51030614 -230.07113659 78.51030614 -226.453125 70.73828125 C-221.77741116 65.93619677 -218.25180763 63.2657785 -211.453125 62.98828125 C-206.02471504 63.05960342 -202.02064634 64.50867489 -198.140625 68.36328125 C-195.09537509 73.1345365 -193.54004863 76.87675353 -192.6484375 82.53833008 C-192.53723572 83.21935287 -192.42603394 83.90037567 -192.3114624 84.60203552 C-191.94950854 86.83955991 -191.60747766 89.07963671 -191.265625 91.3203125 C-191.01308539 92.90731179 -190.7593174 94.49411604 -190.50439453 96.08073425 C-189.83594053 100.26260489 -189.18440701 104.4469417 -188.53637695 108.63201904 C-187.88875264 112.79473317 -187.22488133 116.95484781 -186.5625 121.11523438 C-185.06740372 130.52798346 -183.59841398 139.94468848 -182.140625 149.36328125 C-182.03194092 150.06545525 -181.92325684 150.76762924 -181.8112793 151.49108124 C-180.58043632 159.44736373 -179.35616488 167.40464576 -178.140625 175.36328125 C-178.13475876 174.63824402 -178.12889252 173.91320679 -178.12284851 173.16619873 C-178.06457956 166.282586 -177.992312 159.39924186 -177.90491009 152.51594162 C-177.86046976 148.97842503 -177.82115862 145.44101666 -177.79418945 141.90332031 C-177.76283857 137.82198284 -177.70806415 133.74123436 -177.65234375 129.66015625 C-177.64275887 127.78441925 -177.64275887 127.78441925 -177.63298035 125.87078857 C-177.37480088 110.21451243 -173.27131179 96.98470029 -162.3984375 85.4296875 C-150.98986631 74.98827892 -137.26615284 70.94148373 -122.06640625 71.0859375 C-104.63845841 72.31716566 -90.88181657 79.71063316 -79.13671875 92.5546875 C-70.99204518 102.38810548 -67.26482703 113.24558304 -66.953125 125.86328125 C-66.55334196 131.59160107 -66.20862241 135.91723556 -61.921875 139.984375 C-55.75860287 143.04004222 -48.6053211 142.86361926 -41.84326172 143.20117188 C-37.50645816 143.46130174 -33.20386385 143.97766893 -28.890625 144.48828125 C-27.38550066 144.65829736 -25.88030025 144.82764226 -24.375 144.99609375 C-23.30765625 145.11726562 -22.2403125 145.2384375 -21.140625 145.36328125 C-21.54958008 144.50162354 -21.54958008 144.50162354 -21.96679688 143.62255859 C-23.20334801 140.99990761 -24.42206867 138.36933832 -25.640625 135.73828125 C-26.28451172 134.38283203 -26.28451172 134.38283203 -26.94140625 133 C-30.86692861 124.46354661 -30.86692861 124.46354661 -30.140625 119.36328125 C-29.015625 117.48828125 -29.015625 117.48828125 -27.140625 116.36328125 C-24.140625 115.98828125 -24.140625 115.98828125 -21.140625 116.36328125 C-18.52797525 118.46767512 -17.27516698 120.79738624 -15.87890625 123.8125 C-15.52094971 124.57651123 -15.16299316 125.34052246 -14.79418945 126.12768555 C-14.35163818 127.09230713 -13.90908691 128.05692871 -13.453125 129.05078125 C-12.70692319 130.66398778 -11.96019666 132.27695166 -11.21305847 133.88972473 C-10.82490558 134.72766477 -10.43675268 135.5656048 -10.03683758 136.42893696 C-9.74108743 137.06727057 -9.44533728 137.70560419 -9.140625 138.36328125 C-10.96730323 124.47674098 -12.9910406 110.63533951 -15.23575401 96.81039047 C-15.73093332 93.75623175 -16.22153554 90.70136765 -16.71089172 87.64627075 C-18.09932269 78.97921458 -19.49075528 70.31266733 -20.89672852 61.6484375 C-21.76413271 56.30105027 -22.62233958 50.95225451 -23.47471046 45.60245132 C-23.79783091 43.58548693 -24.12431086 41.56905745 -24.45438194 39.55321884 C-28.93323877 12.17979003 -28.93323877 12.17979003 -25.140625 4.86328125 C-18.6904932 -3.85802372 -9.15769873 -4.59777023 0 0 Z M134.859375 116.36328125 C134.859375 118.01328125 134.859375 119.66328125 134.859375 121.36328125 C136.8993469 120.00004382 136.8993469 120.00004382 138.859375 118.36328125 C138.859375 117.70328125 138.859375 117.04328125 138.859375 116.36328125 C137.539375 116.36328125 136.219375 116.36328125 134.859375 116.36328125 Z M-8.140625 141.36328125 C-7.140625 143.36328125 -7.140625 143.36328125 -7.140625 143.36328125 Z M31.859375 168.36328125 C32.519375 172.32328125 33.179375 176.28328125 33.859375 180.36328125 C36.829375 180.36328125 39.799375 180.36328125 42.859375 180.36328125 C39.33349792 176.18142704 35.78384174 172.1723225 31.859375 168.36328125 Z M-67.140625 182.36328125 C-67.140625 184.34328125 -67.140625 186.32328125 -67.140625 188.36328125 C-65.12007696 186.72158597 -63.12019442 185.05416347 -61.140625 183.36328125 C-61.140625 183.03328125 -61.140625 182.70328125 -61.140625 182.36328125 C-63.120625 182.36328125 -65.100625 182.36328125 -67.140625 182.36328125 Z M-9.140625 214.36328125 C-7.820625 217.00328125 -6.500625 219.64328125 -5.140625 222.36328125 C-4.12811279 225.67907715 -4.12811279 225.67907715 -3.40136719 228.96289062 C-3.12137878 230.203573 -2.84139038 231.44425537 -2.55291748 232.72253418 C-2.26421694 234.05065032 -1.97574975 235.3788172 -1.6875 236.70703125 C-1.38025112 238.08585747 -1.07206892 239.46447601 -0.76300049 240.84289551 C0.0419288 244.44439993 0.83427495 248.04855645 1.62390137 251.65344238 C2.43429339 255.34228491 3.25673664 259.02843722 4.078125 262.71484375 C5.68358303 269.92843144 7.27573767 277.14486804 8.859375 284.36328125 C9.519375 284.36328125 10.179375 284.36328125 10.859375 284.36328125 C13.07725947 275.38440438 15.29390489 266.40522281 17.50894928 257.42564487 C18.53741524 253.25651157 19.56631495 249.08748629 20.59619141 244.91870117 C21.58923183 240.89895531 22.58115188 236.87893453 23.57228088 232.85871696 C23.9514591 231.32155354 24.33104755 229.78449126 24.71104431 228.24752998 C25.24137748 226.10221305 25.77027808 223.95654785 26.29882812 221.81079102 C26.75183289 219.97545555 26.75183289 219.97545555 27.21398926 218.1030426 C27.89758952 215.6701797 27.89758952 215.6701797 27.859375 214.36328125 C15.649375 214.36328125 3.439375 214.36328125 -9.140625 214.36328125 Z M-169.140625 234.36328125 C-169.00019623 236.00958453 -168.85313171 237.65532304 -168.703125 239.30078125 C-168.62191406 240.21730469 -168.54070312 241.13382813 -168.45703125 242.078125 C-168.38017524 244.32487857 -168.38017524 244.32487857 -167.140625 245.36328125 C-164.80765067 245.40421062 -162.47357275 245.40569848 -160.140625 245.36328125 C-161.07504035 244.09017813 -162.01329611 242.81989325 -162.953125 241.55078125 C-163.47519531 240.84308594 -163.99726563 240.13539063 -164.53515625 239.40625 C-165.97191377 237.57796732 -167.45878263 235.96431437 -169.140625 234.36328125 Z " fill="#E54937" transform="translate(228.140625,107.63671875)"/>
<path d="M0 0 C4.84282782 2.77122417 7.31245263 6.09172478 9.70703125 11.12890625 C10.61669922 14.60505676 10.61669922 14.60505676 11.19921875 18.30395508 C11.31042053 18.98497787 11.42162231 19.66600067 11.53619385 20.36766052 C11.89814771 22.60518491 12.24017859 24.84526171 12.58203125 27.0859375 C12.83457086 28.67293679 13.08833885 30.25974104 13.34326172 31.84635925 C14.01171572 36.02822989 14.66324924 40.2125667 15.3112793 44.39764404 C15.95890361 48.56035817 16.62277492 52.72047281 17.28515625 56.88085938 C18.78025253 66.29360846 20.24924227 75.71031348 21.70703125 85.12890625 C21.81571533 85.83108025 21.92439941 86.53325424 22.03637695 87.25670624 C23.26721993 95.21298873 24.49149137 103.17027076 25.70703125 111.12890625 C25.71289749 110.40386902 25.71876373 109.67883179 25.72480774 108.93182373 C25.78307669 102.048211 25.85534425 95.16486686 25.94274616 88.28156662 C25.98718649 84.74405003 26.02649763 81.20664166 26.0534668 77.66894531 C26.08481768 73.58760784 26.1395921 69.50685936 26.1953125 65.42578125 C26.20489738 63.55004425 26.20489738 63.55004425 26.2146759 61.63641357 C26.47285537 45.98013743 30.57634446 32.75032529 41.44921875 21.1953125 C52.85778994 10.75390392 66.58150341 6.70710873 81.78125 6.8515625 C99.20919784 8.08279066 112.96583968 15.47625816 124.7109375 28.3203125 C132.84791424 38.14443776 136.75271173 49.3010984 137.14453125 61.94140625 C137.18449219 63.22660156 137.22445312 64.51179688 137.265625 65.8359375 C136.70703125 69.12890625 136.70703125 69.12890625 134.66796875 70.625 C133.20230469 71.36943359 133.20230469 71.36943359 131.70703125 72.12890625 C128.99605081 74.43058399 126.45765459 76.9146428 123.89453125 79.37890625 C118.60656562 84.42903993 113.24909363 89.35768006 107.70703125 94.12890625 C109.35915026 97.65339602 111.25990806 99.86148087 114.08203125 102.56640625 C116.54945758 104.96311017 118.75563491 107.19323462 120.83203125 109.94140625 C125.25730289 115.10422317 130.08293429 116.33749682 136.70703125 117.12890625 C136.6913208 117.99841919 136.6913208 117.99841919 136.67529297 118.88549805 C136.6335451 121.52908946 136.60764587 124.1726113 136.58203125 126.81640625 C136.55689453 128.18442383 136.55689453 128.18442383 136.53125 129.58007812 C136.49741768 134.23202257 136.52584577 137.90386919 138.70703125 142.12890625 C139.03703125 143.11890625 139.36703125 144.10890625 139.70703125 145.12890625 C141.48932061 146.27100442 141.48932061 146.27100442 143.70703125 147.12890625 C144.49078125 147.47953125 145.27453125 147.83015625 146.08203125 148.19140625 C148.94530274 149.21400321 151.70094128 149.70945184 154.70703125 150.12890625 C154.95195312 149.57589844 155.196875 149.02289063 155.44921875 148.453125 C158.11925323 143.51936563 162.11615774 139.41033236 165.70703125 135.12890625 C166.40828125 134.23171875 167.10953125 133.33453125 167.83203125 132.41015625 C172.73733822 126.35516796 172.73733822 126.35516796 177.45703125 125.25390625 C180.70703125 126.12890625 180.70703125 126.12890625 183.20703125 128.25390625 C185.11460744 131.91009394 184.82026668 133.19197064 183.70703125 137.12890625 C182.07560653 139.42126714 180.50753475 141.42820771 178.64453125 143.50390625 C178.17208984 144.04917969 177.69964844 144.59445312 177.21289062 145.15625 C176.05486046 146.48973928 174.88237114 147.81064844 173.70703125 149.12890625 C174.31699951 149.11730469 174.92696777 149.10570312 175.55541992 149.09375 C178.33645064 149.06415613 181.11356715 149.0959521 183.89453125 149.12890625 C184.85423828 149.10957031 185.81394531 149.09023438 186.80273438 149.0703125 C187.73408203 149.08964844 188.66542969 149.10898437 189.625 149.12890625 C190.47860107 149.12890625 191.33220215 149.12890625 192.21166992 149.12890625 C196.42401 150.81697444 197.91374056 154.09585272 199.70703125 158.12890625 C201.09948968 162.51555736 202.08150001 166.95780973 203.0390625 171.45703125 C203.32053635 172.72359558 203.60201019 173.99015991 203.89201355 175.29510498 C204.48345914 177.9591193 205.06499839 180.62501931 205.63842773 183.29296875 C206.3724589 186.70774717 207.12358241 190.1184634 207.88112354 193.52809525 C208.60620402 196.79481795 209.32283241 200.06335571 210.0390625 203.33203125 C210.30773636 204.55496887 210.57641022 205.77790649 210.85322571 207.03790283 C211.09735703 208.17298279 211.34148834 209.30806274 211.59301758 210.47753906 C211.91681145 211.97356659 211.91681145 211.97356659 212.24714661 213.49981689 C212.70703125 216.12890625 212.70703125 216.12890625 212.70703125 220.12890625 C213.36703125 220.12890625 214.02703125 220.12890625 214.70703125 220.12890625 C214.80306641 219.09950928 214.89910156 218.0701123 214.99804688 217.00952148 C215.80769819 210.57450235 217.49133759 204.32461345 219.05078125 198.0390625 C219.3835559 196.68532964 219.71602977 195.33152281 220.04821777 193.97764587 C220.74132221 191.15714328 221.43758577 188.33744577 222.13623047 185.51831055 C223.03292845 181.89916827 223.92229553 178.27827164 224.80944061 174.65677738 C225.49307243 171.86898209 226.18016379 169.08204882 226.86836243 166.29537773 C227.197892 164.95952187 227.52641647 163.62341766 227.85392761 162.28706551 C228.30995054 160.42888334 228.77105534 158.57195052 229.23242188 156.71508789 C229.62427673 155.1291256 229.62427673 155.1291256 230.02404785 153.51112366 C230.70703125 151.12890625 230.70703125 151.12890625 231.70703125 150.12890625 C233.2687587 150.04205022 234.83432469 150.02188406 236.3984375 150.03125 C237.34267578 150.03447266 238.28691406 150.03769531 239.25976562 150.04101562 C240.25298828 150.04939453 241.24621094 150.05777344 242.26953125 150.06640625 C243.26662109 150.07091797 244.26371094 150.07542969 245.29101562 150.08007812 C247.76307974 150.09190618 250.23502643 150.10838776 252.70703125 150.12890625 C249.97243205 161.52116935 247.23641222 172.91308158 244.47680664 184.29931641 C244.23745219 185.28693435 244.23745219 185.28693435 243.99326229 186.29450417 C243.34385072 188.97363228 242.69430265 191.65272707 242.04424858 194.33169937 C240.09573751 202.36244206 238.16408338 210.39682731 236.26249695 218.43884277 C235.29544903 222.51548031 234.31347463 226.5884148 233.32754517 230.66052246 C232.87399652 232.54864338 232.42713953 234.43838486 231.9871521 236.32971191 C231.37856275 238.9417817 230.74692489 241.5472163 230.109375 244.15234375 C229.93899719 244.91008087 229.76861938 245.66781799 229.59307861 246.44851685 C228.3608428 251.34111785 226.67962778 253.17649034 222.70703125 256.12890625 C222.703721 259.45239433 223.00407476 261.92635508 223.70703125 265.12890625 C223.92633301 266.13501953 224.14563477 267.14113281 224.37158203 268.17773438 C225.40878292 272.7395164 226.49931474 277.28691002 227.62304688 281.828125 C229.82439696 291.21984135 232.34586714 302.55184027 227.109375 311.34765625 C223.23593181 316.26768436 218.74468202 320.25758759 212.70703125 322.12890625 C204.853116 322.93587962 197.12771569 323.21756058 190.70703125 318.12890625 C183.84718177 311.78707744 181.4829636 304.10652426 179.54638672 295.2277832 C179.35248352 294.36511841 179.15858032 293.50245361 178.95880127 292.61364746 C178.32417602 289.78288774 177.69916581 286.9500981 177.07421875 284.1171875 C176.63310625 282.14123661 176.19137521 280.1654237 175.74905396 278.18974304 C174.58941025 273.00261151 173.43785212 267.81371827 172.28808594 262.62438965 C171.1159724 257.3403543 169.93673114 252.0579111 168.7578125 246.77539062 C167.43370341 240.84145885 166.1102782 234.90738463 164.79269409 228.97200012 C164.49230728 227.61968544 164.49230728 227.61968544 164.18585205 226.24005127 C163.81257371 224.55909434 163.43971247 222.87804471 163.06735229 221.19688416 C162.31945916 217.83004386 161.55397322 214.47215796 160.70703125 211.12890625 C159.77890625 211.76828125 158.85078125 212.40765625 157.89453125 213.06640625 C153.33041661 216.0196569 149.87226366 216.34765279 144.51953125 216.69140625 C143.24722656 216.77519531 141.97492188 216.85898437 140.6640625 216.9453125 C139.68824219 217.00589844 138.71242187 217.06648437 137.70703125 217.12890625 C137.98264893 218.23422699 138.2582666 219.33954773 138.54223633 220.47836304 C141.14447071 230.92071154 143.73436474 241.36605384 146.31236267 251.81441307 C147.63797047 257.18527898 148.96782741 262.55501599 150.30761719 267.92236328 C151.60163099 273.10700632 152.88419204 278.2943624 154.1590271 283.4837532 C154.64616266 285.4581747 155.13734194 287.43160326 155.63272095 289.40397263 C156.32854263 292.17739855 157.0095972 294.95408154 157.6875 297.73193359 C157.89321625 298.5375473 158.0989325 299.34316101 158.31088257 300.17318726 C159.65532362 305.77301354 160.39963195 311.3734373 159.70703125 317.12890625 C157.76953125 320.25390625 157.76953125 320.25390625 154.70703125 322.12890625 C150.23976686 323.02559042 147.03806035 323.01294136 143.18280029 320.45237732 C140.31275559 317.75888462 139.73008811 316.17456195 138.81347656 312.38696289 C138.52228943 311.22419327 138.23110229 310.06142365 137.93109131 308.86341858 C137.63543274 307.60138107 137.33977417 306.33934357 137.03515625 305.0390625 C136.70934465 303.70873883 136.38185554 302.37882501 136.05279541 301.04930115 C135.17922341 297.50008575 134.32871975 293.94571536 133.4826355 290.38986206 C132.60808553 286.73186375 131.71226298 283.07908869 130.81835938 279.42578125 C129.23949383 272.96074763 127.67774741 266.49174188 126.12431335 260.0205555 C124.45372197 253.06520002 122.75438343 246.11700786 121.05023193 239.16981506 C119.25069851 231.82713433 117.48096087 224.47804326 115.70703125 217.12890625 C83.53203125 216.63390625 83.53203125 216.63390625 50.70703125 216.12890625 C50.21203125 220.08890625 50.21203125 220.08890625 49.70703125 224.12890625 C49.42655561 225.58143398 49.12071366 227.02970166 48.77175903 228.46731567 C48.58960846 229.22691589 48.40745789 229.98651611 48.2197876 230.76913452 C48.02237976 231.57251251 47.82497192 232.3758905 47.62158203 233.20361328 C47.41167633 234.07296509 47.20177063 234.94231689 46.98550415 235.8380127 C46.29576662 238.68873275 45.59940778 241.53778202 44.90234375 244.38671875 C44.41753075 246.37868862 43.93290436 248.37070391 43.44845581 250.36276245 C42.4343913 254.52759774 41.4168109 258.6915554 40.39697266 262.85498047 C39.09218411 268.18369861 37.79813523 273.51495978 36.50694466 278.84698677 C35.50994932 282.95749357 34.5062923 287.06635211 33.50072861 291.17477036 C33.02082821 293.1397551 32.54321734 295.1053005 32.06796646 297.07141495 C31.40263939 299.82034933 30.72812061 302.56687208 30.05126953 305.31298828 C29.85791016 306.12041473 29.66455078 306.92784119 29.46533203 307.75973511 C26.71852612 318.78790967 26.71852612 318.78790967 21.70703125 322.12890625 C17.32439268 322.83472445 13.71796203 322.61331058 9.70703125 320.69140625 C6.5182267 316.60575041 6.36651865 311.90327513 6.99004936 306.82298088 C7.48741679 304.38110369 8.07513358 301.98120099 8.70483398 299.57006836 C8.92902008 298.66167206 9.15320618 297.75327576 9.38418579 296.81735229 C10.12196328 293.8431853 10.88106935 290.8749225 11.640625 287.90625 C12.15904953 285.83436239 12.67612457 283.76213668 13.19190979 281.68959045 C14.54793059 276.25616595 15.92215292 270.82750813 17.30029297 265.3996582 C18.70541674 259.85189799 20.09317245 254.29979928 21.48242188 248.74804688 C24.20703414 237.87069842 26.95090641 226.99830936 29.70703125 216.12890625 C28.3602832 216.14848389 28.3602832 216.14848389 26.98632812 216.16845703 C25.81134766 216.1786084 24.63636719 216.18875977 23.42578125 216.19921875 C22.25982422 216.21227051 21.09386719 216.22532227 19.89257812 216.23876953 C14.49062166 216.05246662 11.92179098 214.23066507 8.01953125 210.69140625 C1.61263181 202.31946122 1.49607529 188.50231346 -0.11206055 178.29150391 C-0.37808494 176.62767355 -0.64454644 174.96391304 -0.91140747 173.30021667 C-1.62922778 168.81541139 -2.34018078 164.32954459 -3.04923606 159.84334612 C-3.49379017 157.03283655 -3.93988234 154.22257549 -4.38651466 151.41239548 C-5.9480957 141.58698381 -7.50415319 131.76071609 -9.05493164 121.93359375 C-10.49529614 112.8070797 -11.94768374 103.68253448 -13.4057166 94.558828 C-14.66192068 86.69468392 -15.90971598 78.82923507 -17.15108997 70.96273649 C-17.89051153 66.27795741 -18.63319466 61.59375608 -19.38437462 56.91084671 C-20.09088163 52.50455901 -20.78681341 48.09672344 -21.47500992 43.68754005 C-21.72764523 42.08025702 -21.98388154 40.47353468 -22.24420738 38.86747932 C-26.22348034 14.27593114 -26.22348034 14.27593114 -22.60546875 6.50390625 C-16.2167285 -0.05750265 -9.10027149 -3.45717298 0 0 Z M34.70703125 170.12890625 C34.84746002 171.77520953 34.99452454 173.42094804 35.14453125 175.06640625 C35.22574219 175.98292969 35.30695312 176.89945313 35.390625 177.84375 C35.46748101 180.09050357 35.46748101 180.09050357 36.70703125 181.12890625 C39.04000558 181.16983562 41.3740835 181.17132348 43.70703125 181.12890625 C42.7726159 179.85580313 41.83436014 178.58551825 40.89453125 177.31640625 C40.37246094 176.60871094 39.85039063 175.90101563 39.3125 175.171875 C37.87574248 173.34359232 36.38887362 171.72993937 34.70703125 170.12890625 Z " fill="#A46941" transform="translate(24.29296875,171.87109375)"/>
<path d="M0 0 C11.35494055 8.87628096 20.63929023 20.19639727 23.7109375 34.62109375 C24.1233392 38.01504826 24.33165251 41.39780321 24.4375 44.8125 C24.49744141 46.74029297 24.49744141 46.74029297 24.55859375 48.70703125 C24 52 24 52 21.9609375 53.49609375 C20.49527344 54.24052734 20.49527344 54.24052734 19 55 C16.28901956 57.30167774 13.75062334 59.78573655 11.1875 62.25 C5.89953437 67.30013368 0.54206238 72.22877381 -5 77 C-3.34788099 80.52448977 -1.44712319 82.73257462 1.375 85.4375 C3.84242633 87.83420392 6.04860366 90.06432837 8.125 92.8125 C12.55027164 97.97531692 17.37590304 99.20859057 24 100 C26.21509514 120.82432849 26.21509514 120.82432849 22.75488281 127.34716797 C19.62414966 131.2072524 15.79468304 134.08348807 11.69140625 136.84814453 C9.62618116 138.25457235 7.82609145 139.86055074 6 141.5625 C4.6700523 142.71226124 3.33615389 143.85745696 2 145 C0.29992294 146.45475492 -1.39998904 147.90970171 -3.09960938 149.36499023 C-4.27829804 150.37348302 -5.45790467 151.3809045 -6.63867188 152.38696289 C-7.20005859 152.86641357 -7.76144531 153.34586426 -8.33984375 153.83984375 C-8.94183594 154.33194336 -9.54382813 154.82404297 -10.1640625 155.33105469 C-12.07938521 156.97268968 -12.07938521 156.97268968 -13.6328125 159.12988281 C-17.22674102 163.36235524 -20.42843395 165.14458775 -25.91479492 165.7331543 C-30.92902284 166.04494891 -35.92645919 166.03360927 -40.94775391 165.93310547 C-44.12483586 165.875003 -47.29526705 165.8919447 -50.47265625 165.91796875 C-52.50524055 165.90549621 -54.53780395 165.88871599 -56.5703125 165.8671875 C-57.51214386 165.87305878 -58.45397522 165.87893005 -59.42434692 165.88497925 C-65.20612512 165.72043135 -68.3868397 164.68228954 -72.56686401 160.62380981 C-82.57463339 149.28454105 -82.72257508 132.90414929 -84.65869141 118.50024414 C-84.9180208 116.60053575 -85.20767646 114.70493838 -85.51126099 112.8117981 C-85.9998249 109.00136562 -86.1406579 105.35116397 -86.16113281 101.51098633 C-86.16609772 100.79772186 -86.17106262 100.0844574 -86.17617798 99.34957886 C-86.19067675 97.01038617 -86.19758158 94.67126133 -86.203125 92.33203125 C-86.20595238 91.52598639 -86.20877975 90.71994152 -86.21169281 89.88947105 C-86.22663696 85.62219292 -86.23589605 81.35494817 -86.24023438 77.08764648 C-86.24570623 72.71137685 -86.26972075 68.33542033 -86.29820633 63.95924854 C-86.31696032 60.56602627 -86.32204509 57.17287746 -86.32357025 53.77960777 C-86.32656954 52.16788716 -86.3345042 50.55616699 -86.34775543 48.94449806 C-86.47987234 31.63841596 -83.47774737 17.05299102 -71.2578125 4.06640625 C-51.86921724 -13.67851917 -21.43309702 -14.93017594 0 0 Z " fill="#64AEFE" transform="translate(137,189)"/>
<path d="M0 0 C3.375 0.6875 3.375 0.6875 5.8125 2.3125 C7.88862991 5.46821747 7.87869096 6.94324864 7.375 10.6875 C5.82000267 13.24268742 3.89570007 15.36660456 1.875 17.5625 C0.06 19.58375 -1.755 21.605 -3.625 23.6875 C7.265 24.1825 7.265 24.1825 18.375 24.6875 C21.25954069 30.45658138 23.18860059 34.89380418 24.50390625 40.98046875 C24.69090591 41.80396317 24.87790558 42.62745758 25.0705719 43.47590637 C25.70301541 46.27343033 26.32025719 49.07408592 26.9375 51.875 C27.39155729 53.90058316 27.84650708 55.92596642 28.30224609 57.95117188 C29.36222927 62.67105462 30.41502241 67.39248459 31.46435547 72.11474609 C33.29042758 80.32809492 35.14017535 88.53606498 36.99052429 96.74397278 C38.94699137 105.42263577 40.89710234 114.10272642 42.84711838 122.78284073 C43.49945674 125.68508304 44.15273936 128.58711155 44.80618286 131.48910522 C45.84832563 136.11904596 46.88640569 140.74988106 47.92158318 145.3813839 C48.30823457 147.1085093 48.69618225 148.83534508 49.08551216 150.56186867 C49.62451689 152.95322872 50.15876628 155.34560526 50.69189453 157.73828125 C50.84870477 158.42901828 51.005515 159.11975531 51.16707706 159.83142376 C53.421491 170.01939336 54.33160605 178.19299737 48.8125 187.4375 C44.9236178 192.82355477 40.3378009 195.67625894 33.92578125 197.3125 C26.72041048 198.39839575 20.30565206 197.13399206 14.109375 193.27734375 C3.47843235 184.949772 2.36718134 169.76238743 -0.35546875 157.34765625 C-0.79498248 155.37356 -1.23528785 153.39963986 -1.67634583 151.42588806 C-2.82908078 146.25842845 -3.9720344 141.0888564 -5.11260986 135.91870117 C-6.50399368 129.61931316 -7.90580309 123.32223878 -9.30732441 117.02509975 C-10.39658133 112.13091918 -11.48386138 107.23633112 -12.56498718 102.34034729 C-12.95632761 100.57333336 -13.34766968 98.80631979 -13.73901367 97.03930664 C-13.91614899 96.23358719 -14.0932843 95.42786774 -14.27578735 94.59773254 C-14.94713619 91.57221736 -15.64417528 88.62997417 -16.625 85.6875 C-17.7696875 86.6465625 -17.7696875 86.6465625 -18.9375 87.625 C-23.29654638 90.97031466 -27.04618981 90.81392347 -32.3125 90.75 C-33.01439453 90.74548828 -33.71628906 90.74097656 -34.43945312 90.73632812 C-36.16800538 90.72456927 -37.89651365 90.70663454 -39.625 90.6875 C-39.33463364 91.84737427 -39.04426727 93.00724854 -38.74510193 94.20227051 C-36.00762386 105.14497146 -33.28496967 116.09126797 -30.57670498 127.04123688 C-29.18395628 132.67032138 -27.78605638 138.29802008 -26.3762207 143.92285156 C-25.0152938 149.35336431 -23.66811306 154.78712002 -22.33030891 160.22337341 C-21.81807426 162.2945586 -21.30093713 164.36453781 -20.77877617 166.4332428 C-20.04701661 169.3358968 -19.33296695 172.24238925 -18.62280273 175.15039062 C-18.40414047 176.00059784 -18.18547821 176.85080505 -17.96018982 177.72677612 C-16.67378494 183.09549386 -16.46301019 187.26148184 -17.625 192.6875 C-20.1371867 195.48679375 -21.99769496 196.48729627 -25.5625 197.625 C-29.49346755 197.70522383 -31.39232933 196.9144509 -34.625 194.6875 C-37.33660878 190.097917 -38.6295289 185.47282549 -39.86157227 180.34643555 C-40.06362274 179.53096252 -40.26567322 178.7154895 -40.47384644 177.87530518 C-41.13655499 175.19324519 -41.78906358 172.50881704 -42.44140625 169.82421875 C-42.90255604 167.9484871 -43.3643118 166.07290433 -43.8266449 164.19746399 C-45.04057713 159.26564329 -46.24573134 154.33171712 -47.44921875 149.39733887 C-48.42930953 145.38509222 -49.4154679 141.3743493 -50.40199375 137.36368084 C-52.44696671 129.04959911 -54.48788167 120.73451358 -56.51782227 112.41674805 C-56.70228409 111.66371902 -56.88674591 110.91069 -57.07679749 110.13484192 C-57.59988869 107.9873341 -58.11472337 105.83808702 -58.625 103.6875 C-58.81480879 102.89490091 -59.00461758 102.10230183 -59.20017815 101.28568459 C-59.3838299 100.49574293 -59.56748165 99.70580128 -59.75669861 98.891922 C-59.92330962 98.18178357 -60.08992064 97.47164515 -60.26158047 96.73998737 C-60.625 94.6875 -60.625 94.6875 -60.625 90.6875 C-75.145 90.6875 -89.665 90.6875 -104.625 90.6875 C-102.45487456 89.05990592 -100.27715544 87.4414636 -98.0625 85.875 C-94.78697094 82.93542264 -92.98523806 80.154884 -92.33984375 75.734375 C-92.13228502 71.00564571 -92.95173566 67.69739651 -95.625 63.6875 C-98.59466856 60.68455784 -101.81717754 58.49683249 -105.625 56.6875 C-105.07150879 56.70433838 -104.51801758 56.72117676 -103.94775391 56.73852539 C-91.04234444 57.37299849 -91.04234444 57.37299849 -80.0625 51.6875 C-78.57092451 50.0319293 -77.09166571 48.36517801 -75.625 46.6875 C-73.90249536 45.23752682 -72.15101752 43.82140976 -70.375 42.4375 C-65.28524622 38.32682192 -60.53587886 33.92632151 -55.77783203 29.44360352 C-50.93274445 24.90595901 -45.90591857 20.71511301 -40.625 16.6875 C-37.21763997 18.30418359 -34.54928638 20.30189796 -31.625 22.6875 C-28.35875798 24.32062101 -26.23911226 24.19847356 -22.625 23.6875 C-19.98164074 21.51407128 -18.07317939 18.87786021 -16.0625 16.125 C-14.97873249 14.70636779 -13.89410224 13.28839424 -12.80859375 11.87109375 C-12.0182373 10.82731567 -12.0182373 10.82731567 -11.21191406 9.76245117 C-9.64971594 7.71981704 -8.07464663 5.69587119 -6.44921875 3.703125 C-5.99248779 3.13754883 -5.53575684 2.57197266 -5.06518555 1.98925781 C-3.625 0.6875 -3.625 0.6875 0 0 Z " fill="#414A82" transform="translate(402.625,231.3125)"/>
<path d="M0 0 C3.25 0.875 3.25 0.875 5.75 3 C7.65757619 6.65618769 7.36323543 7.93806439 6.25 11.875 C4.61857528 14.16736089 3.0505035 16.17430146 1.1875 18.25 C0.71505859 18.79527344 0.24261719 19.34054687 -0.24414062 19.90234375 C-1.40217079 21.23583303 -2.57466011 22.55674219 -3.75 23.875 C-3.14003174 23.86339844 -2.53006348 23.85179687 -1.90161133 23.83984375 C0.87941939 23.81024988 3.6565359 23.84204585 6.4375 23.875 C7.39720703 23.85566406 8.35691406 23.83632813 9.34570312 23.81640625 C10.27705078 23.83574219 11.20839844 23.85507812 12.16796875 23.875 C13.02156982 23.875 13.8751709 23.875 14.75463867 23.875 C18.96697875 25.56306819 20.45670931 28.84194647 22.25 32.875 C23.64245843 37.26165111 24.62446876 41.70390348 25.58203125 46.203125 C26.00424202 48.1029715 26.00424202 48.1029715 26.4349823 50.04119873 C27.02642789 52.70521305 27.60796714 55.37111306 28.18139648 58.0390625 C28.91542765 61.45384092 29.66655116 64.86455715 30.42409229 68.274189 C31.14917277 71.5409117 31.86580116 74.80944946 32.58203125 78.078125 C32.85070511 79.30106262 33.11937897 80.52400024 33.39619446 81.78399658 C33.64032578 82.91907654 33.88445709 84.05415649 34.13598633 85.22363281 C34.35184891 86.2209845 34.56771149 87.21833618 34.79011536 88.24591064 C35.25 90.875 35.25 90.875 35.25 94.875 C35.91 94.875 36.57 94.875 37.25 94.875 C37.39405273 93.33090454 37.39405273 93.33090454 37.54101562 91.75561523 C38.35066694 85.3205961 40.03430634 79.0707072 41.59375 72.78515625 C41.92652465 71.43142339 42.25899852 70.07761656 42.59118652 68.72373962 C43.28429096 65.90323703 43.98055452 63.08353952 44.67919922 60.2644043 C45.5758972 56.64526202 46.46526428 53.02436539 47.35240936 49.40287113 C48.03604118 46.61507584 48.72313254 43.82814257 49.41133118 41.04147148 C49.74086075 39.70561562 50.06938522 38.36951141 50.39689636 37.03315926 C50.85291929 35.17497709 51.31402409 33.31804427 51.77539062 31.46118164 C52.16724548 29.87521935 52.16724548 29.87521935 52.5670166 28.25721741 C53.25 25.875 53.25 25.875 54.25 24.875 C55.81172745 24.78814397 57.37729344 24.76797781 58.94140625 24.77734375 C59.88564453 24.78056641 60.82988281 24.78378906 61.80273438 24.78710938 C62.79595703 24.79548828 63.78917969 24.80386719 64.8125 24.8125 C65.80958984 24.81701172 66.80667969 24.82152344 67.83398438 24.82617188 C70.30604849 24.83799993 72.77799518 24.85448151 75.25 24.875 C72.5154008 36.2672631 69.77938097 47.65917533 67.01977539 59.04541016 C66.86020576 59.70382212 66.70063612 60.36223408 66.53623104 61.04059792 C65.88681947 63.71972603 65.2372714 66.39882082 64.58721733 69.07779312 C62.63870626 77.10853581 60.70705213 85.14292106 58.8054657 93.18493652 C57.83841778 97.26157406 56.85644338 101.33450855 55.87051392 105.40661621 C55.41696527 107.29473713 54.97010828 109.18447861 54.53012085 111.07580566 C53.9215315 113.68787545 53.28989364 116.29331005 52.65234375 118.8984375 C52.48196594 119.65617462 52.31158813 120.41391174 52.13604736 121.1946106 C50.90381155 126.0872116 49.22259653 127.92258409 45.25 130.875 C45.24668975 134.19848808 45.54704351 136.67244883 46.25 139.875 C46.57895264 141.38416992 46.57895264 141.38416992 46.91455078 142.92382812 C47.95175167 147.48561015 49.04228349 152.03300377 50.16601562 156.57421875 C52.36736571 165.9659351 54.88883589 177.29793402 49.65234375 186.09375 C45.77890056 191.01377811 41.28765077 195.00368134 35.25 196.875 C27.39608475 197.68197337 19.67068444 197.96365433 13.25 192.875 C6.26925577 186.42140579 3.96519353 178.56319907 1.94995117 169.54663086 C1.74147552 168.6384108 1.53299988 167.73019073 1.31820679 166.79444885 C0.63579073 163.81119567 -0.03632891 160.82575075 -0.70703125 157.83984375 C-1.17822434 155.75668827 -1.64955517 153.67356393 -2.12101746 151.59046936 C-3.10513577 147.23321648 -4.08339985 142.87469381 -5.05834961 138.51538086 C-6.30838624 132.93106225 -7.57934811 127.35173276 -8.85551929 121.77333736 C-9.83483328 117.47691579 -10.79977971 113.17736078 -11.76074791 108.87680244 C-12.22325988 106.81796137 -12.6909893 104.76028513 -13.16404152 102.70384026 C-13.82345492 99.83036273 -14.4625963 96.95307821 -15.09692383 94.07397461 C-15.29576675 93.22757416 -15.49460968 92.38117371 -15.69947815 91.50912476 C-16.75277182 86.60904524 -16.80015754 83.61401554 -14.75 78.875 C-14.11647611 73.63001154 -14.09836743 69.25345351 -16.375 64.4375 C-21.03992229 59.40429437 -24.88947555 57.42384196 -31.75 56.875 C-32.01570801 57.45314453 -32.28141602 58.03128906 -32.55517578 58.62695312 C-33.79403003 60.95784195 -35.18648 62.81135802 -36.8671875 64.84375 C-37.77791016 65.94783203 -37.77791016 65.94783203 -38.70703125 67.07421875 C-39.33996094 67.83347656 -39.97289062 68.59273438 -40.625 69.375 C-41.56279297 70.51388672 -41.56279297 70.51388672 -42.51953125 71.67578125 C-50.84305685 81.72384281 -50.84305685 81.72384281 -54.75 82.375 C-57.75 81.875 -57.75 81.875 -60.125 80.3125 C-61.75 77.875 -61.75 77.875 -61.75 70.875 C-58.12 66.585 -54.49 62.295 -50.75 57.875 C-62.3 57.545 -73.85 57.215 -85.75 56.875 C-82.70678534 53.07098167 -80.5753723 50.75431705 -76.875 47.875 C-72.3077093 44.22116744 -68.00383401 40.3879192 -63.75 36.375 C-57.95457545 30.91973823 -51.97412113 25.83984621 -45.75 20.875 C-43.74184823 19.21778737 -41.745762 17.54712492 -39.75 15.875 C-39.5025 16.49375 -39.255 17.1125 -39 17.75 C-37.4926938 20.31242053 -36.47710032 20.78415987 -33.75 21.875 C-32.96625 22.225625 -32.1825 22.57625 -31.375 22.9375 C-28.51172851 23.96009696 -25.75608997 24.45554559 -22.75 24.875 C-22.50507813 24.32199219 -22.26015625 23.76898438 -22.0078125 23.19921875 C-19.33777802 18.26545938 -15.34087351 14.15642611 -11.75 9.875 C-11.04875 8.9778125 -10.3475 8.080625 -9.625 7.15625 C-4.71969303 1.10126171 -4.71969303 1.10126171 0 0 Z " fill="#414B82" transform="translate(201.75,297.125)"/>
<path d="M0 0 C3.0852566 1.19203096 3.50441758 1.93872756 5.34765625 4.546875 C7.75571359 7.42998375 9.30860618 8.57636995 13.04296875 9.11328125 C14.67245514 9.23249157 16.30464995 9.31809909 17.9375 9.375 C19.73055359 9.49351494 21.52352111 9.61333838 23.31640625 9.734375 C24.22277832 9.78529297 25.12915039 9.83621094 26.06298828 9.88867188 C30.18415062 10.15527805 34.27383443 10.64860629 38.375 11.125 C45.44602199 11.90649524 52.50283929 12.4025138 59.61376953 12.63305664 C67.78159838 12.96868154 75.3190659 14.39205595 81.1953125 20.5859375 C84.82200106 24.8343441 85.92965319 27.16386949 86.0625 32.6875 C86.11857422 34.19183594 86.11857422 34.19183594 86.17578125 35.7265625 C85.7736383 38.87729716 85.1576417 40.51534231 83.72338867 43.27099609 C83.17227669 44.33959366 83.17227669 44.33959366 82.61003113 45.42977905 C82.32622086 45.96857697 82.04241058 46.50737488 81.75 47.0625 C82.76024986 47.05250725 82.76024986 47.05250725 83.79090881 47.04231262 C90.81522843 46.97582381 97.83945829 46.93064297 104.86401367 46.89770508 C107.48384229 46.88264021 110.10364578 46.86218446 112.72338867 46.83618164 C116.49404105 46.79969838 120.26435926 46.78275012 124.03515625 46.76953125 C125.20208511 46.75404739 126.36901398 46.73856354 127.57130432 46.72261047 C134.61522064 46.72116028 140.20073333 46.95158897 145.7109375 51.78125 C146.41089844 52.66296875 146.41089844 52.66296875 147.125 53.5625 C147.84816406 54.44421875 147.84816406 54.44421875 148.5859375 55.34375 C151.21189623 59.2210045 151.44341631 63.54723099 150.75 68.0625 C148.2255297 74.47984505 143.93899857 78.20159339 137.75 81.0625 C134.33848914 81.72257421 131.03638231 81.6981732 127.5703125 81.63012695 C126.09089424 81.63122215 126.09089424 81.63122215 124.58158875 81.63233948 C121.3454853 81.6288765 118.11084971 81.59007533 114.875 81.55078125 C112.62199693 81.54144857 110.36898367 81.53433461 108.1159668 81.52934265 C102.20399657 81.51030895 96.29264662 81.46123863 90.38092041 81.40582275 C84.34127186 81.35455239 78.30152248 81.33181194 72.26171875 81.30664062 C60.42420758 81.25311702 48.5871555 81.16784763 36.75 81.0625 C37.68789944 79.80401429 38.6269242 78.5463672 39.56640625 77.2890625 C40.08920166 76.58861816 40.61199707 75.88817383 41.15063477 75.16650391 C42.17140519 73.82365557 43.21554993 72.49804933 44.28881836 71.19677734 C46.65590509 68.21942929 47.76043661 66.61564037 47.6875 62.75 C46.93017502 59.95284231 46.93017502 59.95284231 44.75 58.0625 C41.371516 57.49927799 41.371516 57.49927799 37.75 58.0625 C35.06666704 60.00293828 35.06666704 60.00293828 32.875 62.8125 C32.02292969 63.8025 31.17085937 64.7925 30.29296875 65.8125 C28.55142042 67.97342003 26.95999937 70.18785923 25.42578125 72.5 C19.85297495 80.7473643 19.85297495 80.7473643 16.3984375 81.734375 C10.50432577 81.30069454 5.86829033 78.39992381 1.9375 74.0625 C-1.19935794 68.77937084 -0.88954021 62.62066086 0.5625 56.8125 C1.69674778 54.18582094 3.00238013 52.30328383 4.75 50.0625 C3.904375 49.91554688 3.05875 49.76859375 2.1875 49.6171875 C-9.80435338 47.24607104 -15.29527794 42.52460713 -23.171875 33.4296875 C-25.11862353 31.21215065 -27.14052211 29.12446712 -29.25 27.0625 C-27.91196542 24.05375902 -26.47415624 22.07864357 -24.0546875 19.85546875 C-23.42457764 19.2718457 -22.79446777 18.68822266 -22.14526367 18.08691406 C-21.47857666 17.48073242 -20.81188965 16.87455078 -20.125 16.25 C-19.11046753 15.31559082 -19.11046753 15.31559082 -18.07543945 14.36230469 C-13.99262534 10.61347212 -9.87799645 6.90281484 -5.66796875 3.296875 C-1.94272678 0.05396463 -1.94272678 0.05396463 0 0 Z " fill="#A46841" transform="translate(160.25,240.9375)"/>
<path d="M0 0 C3.375 0.6875 3.375 0.6875 5.8125 2.3125 C7.87517114 5.44776013 7.84903641 6.97123345 7.375 10.6875 C5.75304756 13.02510596 4.22833947 14.9399609 2.3125 17 C1.28644594 18.15508369 0.26170423 19.31133448 -0.76171875 20.46875 C-1.25978027 21.02433594 -1.7578418 21.57992187 -2.27099609 22.15234375 C-3.93492345 24.03888815 -5.47862933 25.99718291 -7 28 C-10.8312168 33.00933916 -14.83103157 37.87877585 -18.83154297 42.75317383 C-22.55492757 47.30830631 -26.1302482 51.95477814 -29.625 56.6875 C-28.1090625 56.749375 -28.1090625 56.749375 -26.5625 56.8125 C-21.74331456 57.5065409 -18.8182006 60.15600167 -15.625 63.6875 C-12.70177991 68.11947885 -11.99976402 71.41765387 -12.625 76.6875 C-14.40222118 82.32492202 -16.44769417 86.50146564 -21.625 89.6875 C-25.24367559 90.8937252 -28.55006251 90.79566918 -32.3125 90.75 C-33.01439453 90.74548828 -33.71628906 90.74097656 -34.43945312 90.73632812 C-36.16800538 90.72456927 -37.89651365 90.70663454 -39.625 90.6875 C-39.33463364 91.84737427 -39.04426727 93.00724854 -38.74510193 94.20227051 C-36.00762386 105.14497146 -33.28496967 116.09126797 -30.57670498 127.04123688 C-29.18395628 132.67032138 -27.78605638 138.29802008 -26.3762207 143.92285156 C-25.0152938 149.35336431 -23.66811306 154.78712002 -22.33030891 160.22337341 C-21.81807426 162.2945586 -21.30093713 164.36453781 -20.77877617 166.4332428 C-20.04701661 169.3358968 -19.33296695 172.24238925 -18.62280273 175.15039062 C-18.40414047 176.00059784 -18.18547821 176.85080505 -17.96018982 177.72677612 C-16.67378494 183.09549386 -16.46301019 187.26148184 -17.625 192.6875 C-20.1371867 195.48679375 -21.99769496 196.48729627 -25.5625 197.625 C-29.49346755 197.70522383 -31.39232933 196.9144509 -34.625 194.6875 C-37.33660878 190.097917 -38.6295289 185.47282549 -39.86157227 180.34643555 C-40.06362274 179.53096252 -40.26567322 178.7154895 -40.47384644 177.87530518 C-41.13655499 175.19324519 -41.78906358 172.50881704 -42.44140625 169.82421875 C-42.90255604 167.9484871 -43.3643118 166.07290433 -43.8266449 164.19746399 C-45.04057713 159.26564329 -46.24573134 154.33171712 -47.44921875 149.39733887 C-48.42930953 145.38509222 -49.4154679 141.3743493 -50.40199375 137.36368084 C-52.44696671 129.04959911 -54.48788167 120.73451358 -56.51782227 112.41674805 C-56.70228409 111.66371902 -56.88674591 110.91069 -57.07679749 110.13484192 C-57.59988869 107.9873341 -58.11472337 105.83808702 -58.625 103.6875 C-58.81480879 102.89490091 -59.00461758 102.10230183 -59.20017815 101.28568459 C-59.3838299 100.49574293 -59.56748165 99.70580128 -59.75669861 98.891922 C-59.92330962 98.18178357 -60.08992064 97.47164515 -60.26158047 96.73998737 C-60.625 94.6875 -60.625 94.6875 -60.625 90.6875 C-75.145 90.6875 -89.665 90.6875 -104.625 90.6875 C-102.45487456 89.05990592 -100.27715544 87.4414636 -98.0625 85.875 C-94.78697094 82.93542264 -92.98523806 80.154884 -92.33984375 75.734375 C-92.13228502 71.00564571 -92.95173566 67.69739651 -95.625 63.6875 C-98.59466856 60.68455784 -101.81717754 58.49683249 -105.625 56.6875 C-105.07150879 56.70433838 -104.51801758 56.72117676 -103.94775391 56.73852539 C-91.04234444 57.37299849 -91.04234444 57.37299849 -80.0625 51.6875 C-78.57092451 50.0319293 -77.09166571 48.36517801 -75.625 46.6875 C-73.90249536 45.23752682 -72.15101752 43.82140976 -70.375 42.4375 C-65.28524622 38.32682192 -60.53587886 33.92632151 -55.77783203 29.44360352 C-50.93274445 24.90595901 -45.90591857 20.71511301 -40.625 16.6875 C-37.21763997 18.30418359 -34.54928638 20.30189796 -31.625 22.6875 C-28.35875798 24.32062101 -26.23911226 24.19847356 -22.625 23.6875 C-19.98164074 21.51407128 -18.07317939 18.87786021 -16.0625 16.125 C-14.97873249 14.70636779 -13.89410224 13.28839424 -12.80859375 11.87109375 C-12.0182373 10.82731567 -12.0182373 10.82731567 -11.21191406 9.76245117 C-9.64971594 7.71981704 -8.07464663 5.69587119 -6.44921875 3.703125 C-5.99248779 3.13754883 -5.53575684 2.57197266 -5.06518555 1.98925781 C-3.625 0.6875 -3.625 0.6875 0 0 Z " fill="#955028" transform="translate(402.625,231.3125)"/>
<path d="M0 0 C10.3103679 7.79886803 16.3141242 17.59530037 18.40625 30.4296875 C19.88505225 42.62980607 16.84707665 53.79343887 9.6875 63.75 C9.23503906 64.39710937 8.78257812 65.04421875 8.31640625 65.7109375 C2.16176368 73.69628112 -8.4402017 79.14644872 -18.3125 80.75 C-31.51901949 81.78291214 -42.93642069 80.16760778 -53.8125 71.9375 C-63.21718978 63.67183975 -69.5708944 52.70462898 -70.515625 40.0234375 C-70.74706172 25.71293374 -66.56150948 14.49463962 -56.8046875 4.08203125 C-52.99729724 0.51931654 -48.98850844 -1.97943821 -44.3125 -4.25 C-43.3225 -4.75853516 -43.3225 -4.75853516 -42.3125 -5.27734375 C-28.89771629 -10.96290638 -11.74462915 -7.69475703 0 0 Z " fill="#FFB69E" transform="translate(362.3125,25.25)"/>
<path d="M0 0 C7.10216291 6.50423955 13.32154228 16.24312272 14.17700195 26.02368164 C14.61735373 41.37634469 12.92539299 53.52640629 1.96484375 65.16015625 C-8.11562987 74.67171425 -19.00486523 78.50316145 -32.69140625 78.25 C-44.79521392 77.33542658 -55.78931593 71.95553516 -64 63 C-72.31975713 51.31092947 -75.00603298 40.24032595 -74 26 C-71.61955235 14.39701802 -65.23973439 4.38867649 -56 -3 C-38.22754212 -14.35322734 -16.42978028 -13.40570308 0 0 Z " fill="#FFB59E" transform="translate(165,94)"/>
<path d="M0 0 C11.05590364 8.10611423 10.60741441 29.68418085 12.546875 42.20703125 C12.8937534 44.42506618 13.24100994 46.64304201 13.58862305 48.86096191 C14.31421434 53.49671169 15.03676617 58.13292066 15.75683594 62.76953125 C16.6703974 68.6518869 17.58917824 74.53341079 18.50999451 80.4146347 C19.3991399 86.09514469 20.28558957 91.77607447 21.171875 97.45703125 C21.33650238 98.51081467 21.50112976 99.56459808 21.67074585 100.65031433 C23.4828761 112.26197141 25.24973949 123.8774584 26.88407135 135.515625 C27.79036208 141.96306319 28.81402946 148.38479234 29.921875 154.80078125 C31.36636575 163.30814392 32.6933703 171.81258014 33.859375 180.36328125 C27.259375 180.36328125 20.659375 180.36328125 13.859375 180.36328125 C14.519375 178.71328125 15.179375 177.06328125 15.859375 175.36328125 C17.87076447 169.32911285 17.93694002 162.59823092 15.171875 156.86328125 C7.21265979 148.25872427 -0.30241931 147.34624022 -11.515625 146.80078125 C-12.34707031 146.75759766 -13.17851562 146.71441406 -14.03515625 146.66992188 C-16.07015728 146.5646632 -18.10537203 146.46355053 -20.140625 146.36328125 C-21.434799 143.80202061 -22.72603284 141.23934767 -24.015625 138.67578125 C-24.38042969 137.95455078 -24.74523437 137.23332031 -25.12109375 136.49023438 C-30.77806407 125.22772073 -30.77806407 125.22772073 -30.140625 119.36328125 C-29.015625 117.48828125 -29.015625 117.48828125 -27.140625 116.36328125 C-24.140625 115.98828125 -24.140625 115.98828125 -21.140625 116.36328125 C-18.52797525 118.46767512 -17.27516698 120.79738624 -15.87890625 123.8125 C-15.34197144 124.95851685 -15.34197144 124.95851685 -14.79418945 126.12768555 C-14.35163818 127.09230713 -13.90908691 128.05692871 -13.453125 129.05078125 C-12.70692319 130.66398778 -11.96019666 132.27695166 -11.21305847 133.88972473 C-10.82490558 134.72766477 -10.43675268 135.5656048 -10.03683758 136.42893696 C-9.74108743 137.06727057 -9.44533728 137.70560419 -9.140625 138.36328125 C-10.96730323 124.47674098 -12.9910406 110.63533951 -15.23575401 96.81039047 C-15.73093332 93.75623175 -16.22153554 90.70136765 -16.71089172 87.64627075 C-18.09932269 78.97921458 -19.49075528 70.31266733 -20.89672852 61.6484375 C-21.76413271 56.30105027 -22.62233958 50.95225451 -23.47471046 45.60245132 C-23.79783091 43.58548693 -24.12431086 41.56905745 -24.45438194 39.55321884 C-28.93323877 12.17979003 -28.93323877 12.17979003 -25.140625 4.86328125 C-18.6904932 -3.85802372 -9.15769873 -4.59777023 0 0 Z M-8.140625 141.36328125 C-7.140625 143.36328125 -7.140625 143.36328125 -7.140625 143.36328125 Z " fill="#965028" transform="translate(228.140625,107.63671875)"/>
<path d="M0 0 C1.07383942 -0.00852997 2.14767883 -0.01705994 3.25405884 -0.02584839 C4.427146 -0.02494202 5.60023315 -0.02403564 6.80886841 -0.02310181 C8.04827179 -0.02981903 9.28767517 -0.03653625 10.56463623 -0.04345703 C13.96146306 -0.05920228 17.35804539 -0.06581218 20.75489187 -0.0670886 C22.87832402 -0.06851106 25.00173061 -0.07278245 27.1251564 -0.07808304 C34.53667068 -0.0965818 41.94811306 -0.10475386 49.35964966 -0.10317993 C56.26253279 -0.10197861 63.16510321 -0.12307919 70.06790721 -0.15466726 C75.99925767 -0.18084021 81.93050605 -0.19154681 87.8619138 -0.19026911 C91.40231582 -0.18975976 94.9424399 -0.19542738 98.48278427 -0.21662521 C102.4327485 -0.23963033 106.38228562 -0.23048037 110.33230591 -0.21841431 C111.5013446 -0.22965332 112.6703833 -0.24089233 113.87484741 -0.25247192 C120.12819102 -0.20387519 123.97533258 0.01663361 128.69998169 4.26742554 C133.53104946 9.7513403 134.05022912 13.07281953 133.98123169 20.28305054 C133.47936193 25.60844629 130.94612793 28.16963004 127.07498169 31.57992554 C123.92803086 33.81591692 122.34503336 34.39229786 118.54919434 34.38768005 C117.67978714 34.38905472 116.81037994 34.39042938 115.91462708 34.3918457 C114.4807238 34.38645279 114.4807238 34.38645279 113.01785278 34.38095093 C111.51048805 34.38116997 111.51048805 34.38116997 109.97267151 34.38139343 C106.63956571 34.38069483 103.30651527 34.37290486 99.97341919 34.36508179 C97.6669925 34.36321742 95.36056541 34.36179361 93.05413818 34.36079407 C86.97466952 34.35697035 80.89522463 34.3471413 74.81576538 34.33609009 C68.61571576 34.32587284 62.4156623 34.32129577 56.21560669 34.31625366 C44.04372123 34.30551892 31.87185343 34.28844423 19.69998169 34.26742554 C20.63790419 32.99758206 21.57854245 31.72974424 22.52029419 30.46273804 C23.0438147 29.75649292 23.56733521 29.0502478 24.10671997 28.32260132 C25.52051549 26.49892209 27.00830098 24.83292367 28.57498169 23.14242554 C30.92727602 20.42363263 30.92727602 20.42363263 31.19998169 17.07992554 C30.8718353 14.32800161 30.8718353 14.32800161 29.63748169 12.39242554 C26.28809421 10.4476199 24.51588704 10.51675563 20.69998169 11.26742554 C16.39735219 14.81504817 13.25248787 19.49940494 9.99295044 23.98226929 C9.52018677 24.61761597 9.0474231 25.25296265 8.56033325 25.90756226 C7.62531885 27.17082639 6.71100316 28.44972624 5.82009888 29.74447632 C4.50857544 31.52133179 4.50857544 31.52133179 1.69998169 34.26742554 C-2.58702823 34.86016324 -4.58381019 34.63985376 -8.42501831 32.64242554 C-11.99452931 29.69369906 -15.23347934 26.7286693 -17.11251831 22.39242554 C-17.6723664 16.04748058 -17.90839466 11.74220344 -14.30001831 6.26742554 C-9.76878045 2.08474444 -6.18263135 0.02222378 0 0 Z " fill="#965028" transform="translate(378.3000183105469,221.73257446289063)"/>
<path d="M0 0 C3.48749114 2.8408123 4.84135577 5.55178483 6.3046875 9.75390625 C9.85621226 21.12337254 9.85621226 21.12337254 16.74853516 30.34814453 C19.70987417 31.52834764 22.58902046 31.64173002 25.75 31.7734375 C30.32519007 32.09238104 32.39069041 33.91986768 35.51171875 37.12109375 C39.5487553 42.21771995 40.33849133 46.98375372 40.49609375 53.27734375 C40.00381058 55.9790868 39.21533538 57.74594344 37.96899414 60.17016602 C37.41883385 61.24706444 37.41883385 61.24706444 36.8575592 62.34571838 C36.57456467 62.89163132 36.29157013 63.43754425 36 64 C35.12383026 64.00808685 34.24766052 64.01617371 33.34494019 64.02450562 C25.07621114 64.10253966 16.80764296 64.18985694 8.53912163 64.28752708 C4.28848389 64.33741139 0.03787006 64.38374196 -4.21289062 64.421875 C-8.31732473 64.45882739 -12.42155494 64.50521403 -16.52581406 64.55806351 C-18.08940926 64.57655467 -19.65304809 64.591682 -21.21670914 64.60334396 C-23.41177367 64.62029723 -25.60637663 64.64935293 -27.80126953 64.68115234 C-29.67324509 64.70113785 -29.67324509 64.70113785 -31.58303833 64.7215271 C-35.03105359 65.00253078 -37.75671595 65.8464025 -41 67 C-44 66.8984375 -44 66.8984375 -47 66.375 C-47.99 66.21773438 -48.98 66.06046875 -50 65.8984375 C-57.58651316 63.62643486 -62.48220692 57.76161733 -67.875 52.25 C-68.65875 51.45722656 -69.4425 50.66445312 -70.25 49.84765625 C-72.17130714 47.90291853 -74.08776547 45.95365247 -76 44 C-74.18480305 40.02879576 -71.60607157 37.54510618 -68.375 34.6875 C-67.83665527 34.2032959 -67.29831055 33.7190918 -66.74365234 33.22021484 C-65.16827344 31.80675119 -63.58552514 30.40206313 -62 29 C-60.83210938 27.96166016 -60.83210938 27.96166016 -59.640625 26.90234375 C-55.81767481 23.53133147 -51.93151319 20.24349838 -48 17 C-43.08333432 18.40476162 -41.19159597 21.15371768 -38 25 C-34.68769352 26.22889238 -31.19767367 26.27302795 -27.6953125 26.5 C-25.86033203 26.62375 -25.86033203 26.62375 -23.98828125 26.75 C-22.71339844 26.8325 -21.43851562 26.915 -20.125 27 C-17.60659351 27.16396543 -15.08835536 27.33054181 -12.5703125 27.5 C-11.45414551 27.5721875 -10.33797852 27.644375 -9.18798828 27.71875 C-6.08468393 27.99252903 -3.06438137 28.44525625 0 29 C-0.27263672 28.42556152 -0.54527344 27.85112305 -0.82617188 27.25927734 C-2.06272301 24.63662636 -3.28144367 22.00605707 -4.5 19.375 C-5.14388672 18.01955078 -5.14388672 18.01955078 -5.80078125 16.63671875 C-9.72630361 8.10026536 -9.72630361 8.10026536 -9 3 C-6.79244709 -0.67925486 -4.01747809 -0.57392544 0 0 Z " fill="#FEB59D" transform="translate(408,158)"/>
<path d="M0 0 C3.0852566 1.19203096 3.50441758 1.93872756 5.34765625 4.546875 C7.75571359 7.42998375 9.30860618 8.57636995 13.04296875 9.11328125 C14.67245514 9.23249157 16.30464995 9.31809909 17.9375 9.375 C19.73055359 9.49351494 21.52352111 9.61333838 23.31640625 9.734375 C24.22277832 9.78529297 25.12915039 9.83621094 26.06298828 9.88867188 C30.18415062 10.15527805 34.27383443 10.64860629 38.375 11.125 C45.44602199 11.90649524 52.50283929 12.4025138 59.61376953 12.63305664 C67.78159838 12.96868154 75.3190659 14.39205595 81.1953125 20.5859375 C86.35173671 26.62632014 86.3385502 31.28957839 85.75 39.0625 C84.42075969 42.56686082 83.3665916 44.4459084 80.75 47.0625 C77.90344238 47.33424377 77.90344238 47.33424377 74.22070312 47.36547852 C73.55062729 47.37391785 72.88055145 47.38235718 72.19017029 47.39105225 C69.97052319 47.41688699 67.75100917 47.42898333 65.53125 47.44140625 C63.99189187 47.45757489 62.45254405 47.47475421 60.91320801 47.49290466 C56.85667684 47.53865107 52.80013203 47.57342465 48.74346924 47.60510254 C42.24967845 47.65692189 35.75603931 47.72204776 29.26243591 47.79331779 C26.99011573 47.81619118 24.71781486 47.83243702 22.44543457 47.84803772 C21.05671985 47.86144274 19.66800714 47.8750574 18.27929688 47.88891602 C16.45634094 47.90318382 16.45634094 47.90318382 14.59655762 47.91773987 C11.80269109 47.86898382 11.80269109 47.86898382 9.75 49.0625 C0.85627776 49.8710202 -7.17548767 48.68300401 -14.203125 42.9765625 C-17.40661879 39.98092899 -20.30217703 36.74325961 -23.171875 33.4296875 C-25.11862353 31.21215065 -27.14052211 29.12446712 -29.25 27.0625 C-27.91196542 24.05375902 -26.47415624 22.07864357 -24.0546875 19.85546875 C-23.42457764 19.2718457 -22.79446777 18.68822266 -22.14526367 18.08691406 C-21.47857666 17.48073242 -20.81188965 16.87455078 -20.125 16.25 C-19.11046753 15.31559082 -19.11046753 15.31559082 -18.07543945 14.36230469 C-13.99262534 10.61347212 -9.87799645 6.90281484 -5.66796875 3.296875 C-1.94272678 0.05396463 -1.94272678 0.05396463 0 0 Z " fill="#FEB59D" transform="translate(160.25,240.9375)"/>
<path d="M0 0 C0.79921875 -0.04898438 1.5984375 -0.09796875 2.421875 -0.1484375 C10.51918869 1.35023658 16.30709084 8.02265817 21.8125 13.6875 C22.52857422 14.40873047 23.24464844 15.12996094 23.98242188 15.87304688 C27.35954636 19.29933787 30.6378124 22.77576349 33.78125 26.41796875 C37.39335862 30.60136181 41.25584241 34.49350095 45.1875 38.375 C45.87134766 39.05433594 46.55519531 39.73367187 47.25976562 40.43359375 C48.92087159 42.08308359 50.58428513 43.7301668 52.25 45.375 C49.01665075 52.11157815 43.0445087 56.67033175 37.43359375 61.4609375 C35.80787949 62.8859822 34.22262162 64.35744026 32.66015625 65.8515625 C31.78230469 66.68429687 30.90445313 67.51703125 30 68.375 C28.78570312 69.550625 28.78570312 69.550625 27.546875 70.75 C25.25 72.375 25.25 72.375 23.31640625 72.47265625 C20.17145133 70.80208473 17.87876774 68.35303148 15.4375 65.8125 C14.94185547 65.31169922 14.44621094 64.81089844 13.93554688 64.29492188 C11.15973323 61.46194862 8.51924027 58.5457558 5.9375 55.53515625 C1.18364906 50.05115366 -4.08908352 45.08689612 -9.34179688 40.0859375 C-14.82769866 34.72440124 -18.86216059 29.93526604 -20.3515625 22.28515625 C-20.41347637 14.7626206 -18.92188596 9.93813974 -13.75 4.375 C-9.47960618 1.12136662 -5.29669359 0.21928986 0 0 Z " fill="#4699F1" transform="translate(106.75,193.625)"/>
<path d="M0 0 C0.89203125 -0.03996094 1.7840625 -0.07992187 2.703125 -0.12109375 C11.6078456 1.51143836 17.76214117 9.05373952 23.8125 15.25 C25.10124023 16.54647461 25.10124023 16.54647461 26.41601562 17.86914062 C30.81921266 22.32615825 35.04781686 26.87122728 39.13061523 31.62182617 C42.172977 35.03295906 45.54462988 38.12624567 48.9140625 41.2109375 C52.71670288 44.86070791 52.71670288 44.86070791 52.87109375 47.53515625 C51.36512522 50.09058021 49.56690731 51.69415817 47.3125 53.625 C46.41144531 54.40746094 45.51039063 55.18992188 44.58203125 55.99609375 C43.64746094 56.80175781 42.71289062 57.60742188 41.75 58.4375 C39.99648689 60.01694174 38.24635409 61.60014628 36.5 63.1875 C35.67757812 63.92226562 34.85515625 64.65703125 34.0078125 65.4140625 C32.63517379 66.64421276 31.27275559 67.88606878 29.9296875 69.1484375 C28.375 70.5625 28.375 70.5625 25.75 72.4375 C22.11477411 72.13517898 20.40051528 70.43834176 17.9375 67.875 C17.31230469 67.23433594 16.68710937 66.59367187 16.04296875 65.93359375 C14.20049429 63.92790179 12.42662524 61.89232342 10.65625 59.82421875 C5.19888808 53.55668273 -0.83574232 47.8438117 -6.77539062 42.0390625 C-7.67837891 41.14703125 -8.58136719 40.255 -9.51171875 39.3359375 C-10.73314575 38.13976807 -10.73314575 38.13976807 -11.97924805 36.91943359 C-17.69371906 30.67351248 -19.67477414 25.62560692 -19.59765625 17.296875 C-18.90017891 11.56031982 -15.81835746 7.89109959 -11.6875 4.0625 C-7.69212031 1.39891354 -4.86252687 0.11808994 0 0 Z " fill="#D13D2C" transform="translate(307.25,127.5625)"/>
<path d="M0 0 C3.25 0.875 3.25 0.875 5.75 3 C7.65640509 6.65394309 7.36487341 7.94184146 6.25 11.875 C4.62209663 14.1294602 3.04819858 16.08860652 1.1875 18.125 C0.17212018 19.27901884 -0.84219665 20.4339738 -1.85546875 21.58984375 C-2.35353027 22.15171387 -2.8515918 22.71358398 -3.36474609 23.29248047 C-5.18552739 25.37254821 -6.91125825 27.51871762 -8.625 29.6875 C-12.03245262 33.98324984 -15.47750845 38.24656323 -18.9375 42.5 C-19.76628662 43.51900391 -19.76628662 43.51900391 -20.61181641 44.55859375 C-21.7500758 45.9579158 -22.88842323 47.35716623 -24.02685547 48.75634766 C-26.29999257 51.55123059 -28.57067102 54.34810581 -30.84130859 57.14501953 C-32.984513 59.78411992 -35.12975478 62.42156105 -37.27490234 65.05908203 C-38.66091738 66.7653349 -40.0437488 68.47411473 -41.42578125 70.18359375 C-42.21339844 71.15425781 -43.00101563 72.12492187 -43.8125 73.125 C-44.48410156 73.95515625 -45.15570313 74.7853125 -45.84765625 75.640625 C-51.05730051 81.75955008 -51.05730051 81.75955008 -54.75 82.375 C-57.75 81.875 -57.75 81.875 -60.125 80.3125 C-61.75 77.875 -61.75 77.875 -61.75 70.875 C-58.12 66.585 -54.49 62.295 -50.75 57.875 C-62.3 57.545 -73.85 57.215 -85.75 56.875 C-82.70678534 53.07098167 -80.5753723 50.75431705 -76.875 47.875 C-72.3077093 44.22116744 -68.00383401 40.3879192 -63.75 36.375 C-57.95457545 30.91973823 -51.97412113 25.83984621 -45.75 20.875 C-43.74184823 19.21778737 -41.745762 17.54712492 -39.75 15.875 C-39.5025 16.49375 -39.255 17.1125 -39 17.75 C-37.4926938 20.31242053 -36.47710032 20.78415987 -33.75 21.875 C-32.96625 22.225625 -32.1825 22.57625 -31.375 22.9375 C-28.51172851 23.96009696 -25.75608997 24.45554559 -22.75 24.875 C-22.50507813 24.32199219 -22.26015625 23.76898438 -22.0078125 23.19921875 C-19.33777802 18.26545938 -15.34087351 14.15642611 -11.75 9.875 C-11.04875 8.9778125 -10.3475 8.080625 -9.625 7.15625 C-4.71969303 1.10126171 -4.71969303 1.10126171 0 0 Z " fill="#6C99A8" transform="translate(201.75,297.125)"/>
<path d="M0 0 C3.375 0.6875 3.375 0.6875 5.8125 2.3125 C7.87517114 5.44776013 7.84903641 6.97123345 7.375 10.6875 C5.75304756 13.02510596 4.22833947 14.9399609 2.3125 17 C1.28644594 18.15508369 0.26170423 19.31133448 -0.76171875 20.46875 C-1.25978027 21.02433594 -1.7578418 21.57992187 -2.27099609 22.15234375 C-3.93492345 24.03888815 -5.47862933 25.99718291 -7 28 C-14.49206816 37.77931012 -22.42476681 47.22877377 -30.23046875 56.7578125 C-33.30602689 60.52073029 -36.37250012 64.2909801 -39.4375 68.0625 C-39.98921875 68.74119141 -40.5409375 69.41988281 -41.109375 70.11914062 C-41.63660156 70.76818359 -42.16382813 71.41722656 -42.70703125 72.0859375 C-43.46040771 73.01164551 -43.46040771 73.01164551 -44.22900391 73.95605469 C-45.46605651 75.49036338 -46.67830015 77.04460175 -47.88671875 78.6015625 C-50.12200455 81.28390545 -51.02298615 81.62206371 -54.5 82 C-57.625 81.6875 -57.625 81.6875 -60 80.0625 C-62.16384345 76.89995957 -62.13569604 75.48636173 -61.625 71.6875 C-60.06762201 68.98828912 -58.13813615 66.68318811 -56.125 64.3125 C-53.4025 61.033125 -53.4025 61.033125 -50.625 57.6875 C-62.175 57.3575 -73.725 57.0275 -85.625 56.6875 C-77.30193484 48.36443484 -68.73205751 40.47602166 -59.53125 33.12890625 C-55.31263057 29.58503912 -51.33915906 25.78524305 -47.39477539 21.93969727 C-46.55160767 21.13423462 -46.55160767 21.13423462 -45.69140625 20.3125 C-45.19584229 19.83039063 -44.70027832 19.34828125 -44.18969727 18.8515625 C-42.33681431 17.47310316 -40.9061793 16.99837255 -38.625 16.6875 C-36.7734375 17.8671875 -36.7734375 17.8671875 -35 19.5625 C-32.04531402 22.33655016 -30.51836952 23.538786 -26.41015625 24.22265625 C-21.61202751 23.54428304 -20.55687322 22.03852449 -17.68164062 18.34179688 C-16.88016602 17.24448242 -16.88016602 17.24448242 -16.0625 16.125 C-14.97873249 14.70636779 -13.89410224 13.28839424 -12.80859375 11.87109375 C-12.0182373 10.82731567 -12.0182373 10.82731567 -11.21191406 9.76245117 C-9.64971594 7.71981704 -8.07464663 5.69587119 -6.44921875 3.703125 C-5.99248779 3.13754883 -5.53575684 2.57197266 -5.06518555 1.98925781 C-3.625 0.6875 -3.625 0.6875 0 0 Z " fill="#6C99A8" transform="translate(402.625,231.3125)"/>
<path d="M0 0 C6.93 0 13.86 0 21 0 C24.03100006 12.11425986 27.05004976 24.23132782 30.04829502 36.35373688 C31.44104372 41.98282138 32.83894362 47.61052008 34.2487793 53.23535156 C35.6097062 58.66586431 36.95688694 64.09962002 38.29469109 69.53587341 C38.80692574 71.6070586 39.32406287 73.67703781 39.84622383 75.7457428 C40.57798339 78.6483968 41.29203305 81.55488925 42.00219727 84.46289062 C42.22085953 85.31309784 42.43952179 86.16330505 42.66481018 87.03927612 C43.95121506 92.40799386 44.16198981 96.57398184 43 102 C40.4878133 104.79929375 38.62730504 105.79979627 35.0625 106.9375 C31.13153245 107.01772383 29.23267067 106.2269509 26 104 C23.28839122 99.410417 21.9954711 94.78532549 20.76342773 89.65893555 C20.56137726 88.84346252 20.35932678 88.0279895 20.15115356 87.18780518 C19.48844501 84.50574519 18.83593642 81.82131704 18.18359375 79.13671875 C17.72244396 77.2609871 17.2606882 75.38540433 16.7983551 73.50996399 C15.58442287 68.57814329 14.37926866 63.64421712 13.17578125 58.70983887 C12.19569047 54.69759222 11.2095321 50.6868493 10.22300625 46.67618084 C8.17803329 38.36209911 6.13711833 30.04701358 4.10717773 21.72924805 C3.92271591 20.97621902 3.73825409 20.22319 3.54820251 19.44734192 C3.02511131 17.2998341 2.51027663 15.15058702 2 13 C1.71528682 11.81110137 1.71528682 11.81110137 1.42482185 10.59818459 C1.2411701 9.80824293 1.05751835 9.01830128 0.86830139 8.204422 C0.70169038 7.49428357 0.53507936 6.78414515 0.36341953 6.05248737 C0 4 0 4 0 0 Z " fill="#6B9BAA" transform="translate(342,322)"/>
<path d="M0 0 C6.93 0 13.86 0 21 0 C19.87493006 9.00055954 19.87493006 9.00055954 19.06472778 12.33840942 C18.88257721 13.09800964 18.70042664 13.85760986 18.51275635 14.64022827 C18.31534851 15.44360626 18.11794067 16.24698425 17.91455078 17.07470703 C17.70464508 17.94405884 17.49473938 18.81341064 17.2784729 19.70910645 C16.58873537 22.5598265 15.89237653 25.40887577 15.1953125 28.2578125 C14.7104995 30.24978237 14.22587311 32.24179766 13.74142456 34.2338562 C12.72736005 38.39869149 11.70977965 42.56264915 10.68994141 46.72607422 C9.38515286 52.05479236 8.09110398 57.38605353 6.79991341 62.71808052 C5.80291807 66.82858732 4.79926105 70.93744586 3.79369736 75.04586411 C3.31379696 77.01084885 2.83618609 78.97639425 2.36093521 80.9425087 C1.69560814 83.69144308 1.02108936 86.43796583 0.34423828 89.18408203 C0.15087891 89.99150848 -0.04248047 90.79893494 -0.24169922 91.63082886 C-2.98850513 102.65900342 -2.98850513 102.65900342 -8 106 C-12.38263857 106.7058182 -15.98906922 106.48440433 -20 104.5625 C-23.18880455 100.47684416 -23.3405126 95.77436888 -22.71698189 90.69407463 C-22.21961446 88.25219744 -21.63189767 85.85229474 -21.00219727 83.44116211 C-20.77801117 82.53276581 -20.55382507 81.62436951 -20.32284546 80.68844604 C-19.58506797 77.71427905 -18.8259619 74.74601625 -18.06640625 71.77734375 C-17.54798172 69.70545614 -17.03090668 67.63323043 -16.51512146 65.5606842 C-15.15910066 60.1272597 -13.78487833 54.69860188 -12.40673828 49.27075195 C-11.00161451 43.72299174 -9.6138588 38.17089303 -8.22460938 32.61914062 C-5.49999268 21.74177448 -2.75452509 10.86983086 0 0 Z " fill="#6B9BAA" transform="translate(54,388)"/>
<path d="M0 0 C6.93 0 13.86 0 21 0 C22.93820639 5.81461916 24.7238036 11.46597367 26.17651367 17.39038086 C26.37202316 18.17542496 26.56753265 18.96046906 26.76896667 19.76930237 C27.40612977 22.33347315 28.03757399 24.89900116 28.66796875 27.46484375 C28.88586878 28.34877871 29.10376881 29.23271366 29.32827187 30.14343452 C30.48004627 34.81589307 31.62751269 39.48938382 32.77124023 44.16381836 C33.94772623 48.96872672 35.13839192 53.77000118 36.33240795 58.57057858 C37.25384937 62.28605876 38.16489093 66.0040336 39.07317543 69.72274971 C39.50749936 71.49336229 39.94563244 73.26304532 40.38777733 75.03172112 C45.21930348 94.39211759 45.21930348 94.39211759 44 101 C42.0625 104.125 42.0625 104.125 39 106 C34.53235852 106.89675986 31.33073689 106.88436391 27.47576904 104.32247925 C24.60942903 101.63361164 24.02418157 100.0549195 23.10644531 96.27392578 C22.81525818 95.11434357 22.52407104 93.95476135 22.22406006 92.76004028 C21.92840149 91.50118011 21.63274292 90.24231995 21.328125 88.9453125 C21.00228392 87.61775706 20.67479518 86.29060509 20.34576416 84.96383667 C19.47194948 81.4201708 18.62146982 77.87128756 17.77560425 74.32086182 C16.90086226 70.6663774 16.00486955 67.01711142 15.11132812 63.3671875 C13.20263591 55.55257505 11.32485748 47.7307532 9.45584106 39.90657043 C8.76636205 37.0228015 8.07352715 34.13984035 7.38085938 31.25683594 C4.88213836 20.84667471 2.41908711 10.42895331 0 0 Z " fill="#6B9BAA" transform="translate(140,388)"/>
<path d="M0 0 C0.87454834 0.00523682 1.74909668 0.01047363 2.65014648 0.01586914 C3.59438477 0.0190918 4.53862305 0.02231445 5.51147461 0.02563477 C6.50469727 0.03401367 7.49791992 0.04239258 8.52124023 0.05102539 C9.51833008 0.05553711 10.51541992 0.06004883 11.54272461 0.06469727 C14.01478872 0.07652532 16.48673541 0.0930069 18.95874023 0.11352539 C16.22414103 11.50578849 13.48812121 22.89770073 10.72851562 34.28393555 C10.56894599 34.94234751 10.40937635 35.60075947 10.24497128 36.27912331 C9.59555971 38.95825142 8.94601164 41.63734621 8.29595757 44.31631851 C6.3474465 52.3470612 4.41579236 60.38144645 2.51420593 68.42346191 C1.54715801 72.50009945 0.56518362 76.57303394 -0.42074585 80.6451416 C-0.87429449 82.53326252 -1.32115149 84.423004 -1.76113892 86.31433105 C-2.36972827 88.92640084 -3.00136612 91.53183544 -3.63891602 94.13696289 C-3.80929382 94.89470001 -3.97967163 95.65243713 -4.1552124 96.43313599 C-5.04950625 99.98393605 -5.94507859 102.01350155 -8.50390625 104.67456055 C-9.34123291 105.14941895 -10.17855957 105.62427734 -11.04125977 106.11352539 C-12.03125977 105.78352539 -13.02125977 105.45352539 -14.04125977 105.11352539 C-14.93261719 102.6484375 -14.93261719 102.6484375 -15.64672852 99.39086914 C-15.90776367 98.21202148 -16.16879883 97.03317383 -16.43774414 95.81860352 C-16.6987793 94.57530273 -16.95981445 93.33200195 -17.22875977 92.05102539 C-17.50139648 90.83479492 -17.7740332 89.61856445 -18.05493164 88.36547852 C-20.00622391 79.35236663 -20.7298482 71.88785982 -18.49658203 62.88720703 C-18.33237762 62.21464874 -18.16817322 61.54209045 -17.99899292 60.84915161 C-17.46084936 58.65500331 -16.90955729 56.46440855 -16.35766602 54.27368164 C-15.97820667 52.74068988 -15.59946948 51.2075192 -15.22142029 49.67417908 C-14.43096715 46.47632827 -13.63443957 43.28007768 -12.83300781 40.08496094 C-11.80408304 35.98235354 -10.78653898 31.87703184 -9.77296543 27.77060795 C-8.99278715 24.61212502 -8.2087165 21.45461983 -7.42323112 18.29745293 C-7.04651112 16.7829056 -6.67053954 15.26817191 -6.29532051 13.75325203 C-5.77232575 11.64592409 -5.24459085 9.53984418 -4.71533203 7.43408203 C-4.41554947 6.23465469 -4.11576691 5.03522736 -3.80690002 3.79945374 C-2.76772061 0.15392777 -2.76772061 0.15392777 0 0 Z " fill="#6B9BAA" transform="translate(258.041259765625,321.886474609375)"/>
<path d="M0 0 C0.99 0.66 1.98 1.32 3 2 C3 2.66 3 3.32 3 4 C6.00950123 5.61725534 8.97103608 6.67582623 12.25 7.625 C13.14203125 7.88539063 14.0340625 8.14578125 14.953125 8.4140625 C15.62859375 8.60742188 16.3040625 8.80078125 17 9 C13.02284262 14.44324677 8.86749162 19.70315371 4.49389648 24.83447266 C2.73131394 26.97697146 1.44460321 28.94936811 0.02099609 31.3828125 C-5.14167551 40.04382159 -5.14167551 40.04382159 -10.04174805 41.68301392 C-15.72571023 42.61700961 -21.40653589 42.18788317 -27.125 41.8125 C-28.86176151 41.74718506 -30.59876031 41.68788781 -32.3359375 41.63476562 C-36.56322039 41.49250353 -40.7789611 41.26894721 -45 41 C-42.26426954 37.49918628 -39.63471279 34.73096193 -36.125 32 C-31.55773894 28.34619115 -27.25354633 24.51319681 -23 20.5 C-17.96701048 15.75659481 -12.83479962 11.28569708 -7.40234375 7 C-4.7711684 4.80949304 -2.38763691 2.45147747 0 0 Z " fill="#414C82" transform="translate(161,313)"/>
<path d="M0 0 C2.5543822 0.96890359 4.19930226 2.17715757 6.25 4 C9.79808106 6.58042259 12.72082585 7.12965949 17 8 C13.20966566 14.09749438 8.57608895 19.48241907 4 25 C2.37324489 26.97772432 0.74818455 28.95684414 -0.875 30.9375 C-1.59429687 31.81277344 -2.31359375 32.68804687 -3.0546875 33.58984375 C-5.01370917 35.85160221 -5.01370917 35.85160221 -6.09741211 38.1262207 C-8.59287717 40.58389995 -10.57931451 40.4545739 -13.98112488 40.45318604 C-14.77497086 40.43254089 -15.56881683 40.41189575 -16.38671875 40.390625 C-17.20372757 40.38496521 -18.02073639 40.37930542 -18.86250305 40.37347412 C-21.47143203 40.35108697 -24.07898636 40.30088846 -26.6875 40.25 C-28.45636037 40.22993792 -30.22524227 40.21168664 -31.99414062 40.1953125 C-36.32995656 40.1512148 -40.66474525 40.08217294 -45 40 C-36.69874807 31.66549406 -28.09761171 23.79637265 -18.9140625 16.44140625 C-14.65570913 12.87375095 -10.62461299 9.07357196 -6.59399414 5.25219727 C-2.19487162 1.09743581 -2.19487162 1.09743581 0 0 Z " fill="#424B81" transform="translate(362,248)"/>
<path d="M0 0 C3.43666364 2.83462341 5.04799484 5.76880269 6.796875 9.82421875 C7.28027344 10.93474609 7.76367188 12.04527344 8.26171875 13.18945312 C8.75285156 14.34380859 9.24398438 15.49816406 9.75 16.6875 C10.25660156 17.85345703 10.76320313 19.01941406 11.28515625 20.22070312 C15 28.81691164 15 28.81691164 15 30 C10.38 30 5.76 30 1 30 C-0.10675619 27.8137775 -1.21044378 25.62609052 -2.3125 23.4375 C-2.62123047 22.82841797 -2.92996094 22.21933594 -3.24804688 21.59179688 C-9.76676879 8.62297116 -9.76676879 8.62297116 -9 3 C-6.79244709 -0.67925486 -4.01747809 -0.57392544 0 0 Z " fill="#3C5972" transform="translate(408,158)"/>
<path d="M0 0 C2.92782445 2.28164169 4.17260572 5.10851652 5.69921875 8.4375 C6.18583984 9.49710938 6.67246094 10.55671875 7.17382812 11.6484375 C7.67333984 12.75445312 8.17285156 13.86046875 8.6875 15 C9.19861328 16.10601562 9.70972656 17.21203125 10.23632812 18.3515625 C14 26.61254589 14 26.61254589 14 30 C9.71 30 5.42 30 1 30 C-0.294174 27.43873936 -1.58540784 24.87606642 -2.875 22.3125 C-3.23980469 21.59126953 -3.60460937 20.87003906 -3.98046875 20.12695312 C-9.63743907 8.86443948 -9.63743907 8.86443948 -9 3 C-6.79086995 -0.68188342 -4.01844539 -0.50230567 0 0 Z " fill="#3C5A72" transform="translate(207,224)"/>
</svg>
