<?xml version="1.0" encoding="UTF-8"?>
<svg version="1.1" xmlns="http://www.w3.org/2000/svg" width="512" height="512">
<path d="M0 0 C1.49235207 1.12860682 2.97299459 2.27298639 4.4375 3.4375 C5.05753906 3.89511719 5.67757812 4.35273437 6.31640625 4.82421875 C23.657964 18.36382424 28.80771352 41.28714402 31.50244141 61.95776367 C32.59416578 71.3610987 32.90401373 80.77813263 33.05932617 90.23876953 C33.42403452 108.54073046 37.97318153 122.02003788 47.84545898 137.20385742 C62.51288189 159.87292575 72.79904392 186.01041238 67.3125 213.3125 C64.71988558 222.93182638 60.27920491 231.07991997 53.66015625 238.5 C52.25338162 240.3070951 52.25338162 240.3070951 52.55859375 242.2109375 C52.84863281 242.94570313 53.13867188 243.68046875 53.4375 244.4375 C53.870625 245.60539062 54.30375 246.77328125 54.75 247.9765625 C57.92450343 255.8224506 61.12604674 261.73844073 67.11328125 267.84765625 C81.78206202 284.19286911 88.79521601 307.7289324 93.203125 328.75292969 C96.19207725 342.84028314 101.13274243 353.5429975 109.73168945 365.11694336 C122.65200291 382.83757225 128.14392485 405.72918388 126.4375 427.4375 C124.01430132 440.51116476 117.33672923 451.72705455 106.4375 459.4375 C97.32471986 464.83543969 88.81847946 467.75706726 78.20658875 467.69146729 C77.41782799 467.69458727 76.62906724 467.69770725 75.81640464 467.70092177 C73.19482667 467.70884757 70.57348366 467.70259957 67.9519043 467.69628906 C66.0639889 467.69900122 64.17607457 467.70256342 62.28816223 467.70690918 C57.17700077 467.71600551 52.06592028 467.71250112 46.95475745 467.70615101 C41.60434234 467.70108048 36.25393407 467.70578505 30.90351868 467.70892334 C21.9248429 467.71255833 12.94620007 467.70777448 3.9675293 467.69824219 C-6.41973353 467.68734197 -16.80691793 467.69089646 -27.19417888 467.701895 C-36.11321603 467.71096142 -45.03222954 467.71225682 -53.95126981 467.70701766 C-59.27826454 467.70389654 -64.60522236 467.70349287 -69.93221474 467.71009064 C-74.9349963 467.71585465 -79.9376763 467.71188459 -84.94044685 467.70030212 C-86.77911968 467.69765118 -88.61780101 467.69842799 -90.45647049 467.70282745 C-92.95993254 467.70826684 -95.46306602 467.70146867 -97.96650696 467.69146729 C-98.69937355 467.69592873 -99.43224014 467.70039017 -100.18731481 467.70498681 C-103.8716849 467.67630014 -105.40949298 467.53950468 -108.5625 465.4375 C-109.25 463.3125 -109.25 463.3125 -109.5625 461.4375 C-110.67625 462.1490625 -110.67625 462.1490625 -111.8125 462.875 C-118.00771154 466.39500656 -124.59075626 466.16825666 -131.375 464.5 C-144.59094848 458.87340807 -163.30601674 442.79992889 -168.78515625 429.4609375 C-170.19908876 423.9615216 -169.76129118 418.47988498 -166.875 413.5625 C-166.441875 412.86125 -166.00875 412.16 -165.5625 411.4375 C-166.74301777 408.40148884 -168.56370245 405.97250945 -170.546875 403.41015625 C-171.14532227 402.62890381 -171.74376953 401.84765137 -172.36035156 401.04272461 C-173.00456055 400.20362549 -173.64876953 399.36452637 -174.3125 398.5 C-184.59620171 384.92536478 -194.10947135 370.90416215 -202.6875 356.1875 C-203.12481445 355.43782959 -203.56212891 354.68815918 -204.01269531 353.91577148 C-212.1487668 339.66169329 -212.1487668 339.66169329 -212.0625 333.375 C-212.0728125 332.62089844 -212.083125 331.86679687 -212.09375 331.08984375 C-210.57955827 323.53001885 -206.82184903 319.13948064 -200.5625 314.9375 C-199.8931543 314.46812012 -199.22380859 313.99874023 -198.53417969 313.51513672 C-196.556335 312.13611066 -194.56339913 310.78278977 -192.5625 309.4375 C-191.57765625 308.76976562 -190.5928125 308.10203125 -189.578125 307.4140625 C-187.69296087 306.15196109 -185.80206764 304.89838518 -183.90625 303.65234375 C-179.67212177 300.86321658 -175.49473873 297.99108563 -171.3125 295.125 C-170.49861816 294.56731934 -169.68473633 294.00963867 -168.84619141 293.43505859 C-166.41772636 291.77003171 -163.98998284 290.10395847 -161.5625 288.4375 C-160.46953613 287.68750732 -160.46953613 287.68750732 -159.35449219 286.92236328 C-157.29846024 285.51127709 -155.24293719 284.09945234 -153.1875 282.6875 C-152.54184082 282.2445459 -151.89618164 281.8015918 -151.23095703 281.34521484 C-148.05802349 279.16558959 -144.89559021 276.9728445 -141.75 274.75390625 C-141.14849121 274.33141602 -140.54698242 273.90892578 -139.92724609 273.47363281 C-138.2953306 272.32584156 -136.667064 271.1728673 -135.0390625 270.01953125 C-132.5625 268.4375 -132.5625 268.4375 -130.5625 268.4375 C-130.2325 265.7975 -129.9025 263.1575 -129.5625 260.4375 C-130.119375 260.10878906 -130.67625 259.78007812 -131.25 259.44140625 C-141.65075483 252.95850332 -147.79170386 245.35779176 -151.09301758 233.53808594 C-154.9392065 216.32924066 -149.2038384 199.12119067 -140.5625 184.4375 C-138.074791 180.61061308 -135.42022012 176.99470392 -132.5625 173.4375 C-132.04945313 172.78394531 -131.53640625 172.13039062 -131.0078125 171.45703125 C-127.86761545 167.61241162 -124.35472351 164.41538637 -120.5859375 161.1953125 C-113.44512288 155.17970611 -113.44512288 155.17970611 -108.5625 147.4375 C-109.33889876 145.06412044 -109.33889876 145.06412044 -110.5625 142.4375 C-111.4375 140.39583333 -112.3125 138.35416667 -113.1875 136.3125 C-113.63351563 135.27867187 -114.07953125 134.24484375 -114.5390625 133.1796875 C-115.5625 130.4375 -115.5625 130.4375 -115.5625 127.4375 C-116.5525 127.540625 -117.5425 127.64375 -118.5625 127.75 C-123.46043925 127.75 -126.82509759 125.41765094 -130.5625 122.4375 C-133.51461959 119.25231834 -136.38653924 115.86721266 -136.71020508 111.39794922 C-136.66790771 110.68654785 -136.62561035 109.97514648 -136.58203125 109.2421875 C-136.54964355 108.44852783 -136.51725586 107.65486816 -136.48388672 106.8371582 C-136.4479541 106.004021 -136.41202148 105.17088379 -136.375 104.3125 C-136.21342995 97.56663224 -136.42659599 92.53103966 -140.2734375 86.73828125 C-146.96030438 74.80323703 -145.12563139 54.94947901 -142 42.125 C-137.74524845 29.01737945 -130.99992423 17.63388407 -118.90625 10.53125 C-113.24594218 7.88977302 -107.00944031 5.96021198 -100.83203125 5.0234375 C-98.10531085 4.31946494 -97.51883838 3.58758683 -95.9375 1.3125 C-74.38541557 -25.46266612 -24.95871993 -16.96442317 0 0 Z " fill="#3F3F52" transform="translate(298.5625,29.5625)"/>
<path d="M0 0 C16.89764424 14.84944494 21.43236821 35.66035168 23.578125 57.265625 C24.01189849 64.7249454 24.08641641 72.21024295 24.07446289 79.68066406 C24.16244101 98.67131097 29.83299929 114.93984964 40.34228516 130.69140625 C45.11542558 137.90830436 48.9583602 145.41708285 52.578125 153.265625 C52.99835938 154.16667969 53.41859375 155.06773437 53.8515625 155.99609375 C60.39050898 171.06516967 62.30958689 188.66923056 56.578125 204.265625 C53.93813583 210.03366856 51.24353303 214.91258771 46.578125 219.265625 C46.10503906 218.65976562 45.63195312 218.05390625 45.14453125 217.4296875 C36.55329746 206.17600384 36.55329746 206.17600384 26.203125 196.640625 C23.5636512 194.25252966 23.17930485 193.58761402 22.203125 190.390625 C20.24747949 184.36450801 15.63042745 181.04046296 10.30078125 177.94140625 C4.46801102 175.09980024 -0.23153231 174.53684684 -6.63671875 176 C-11.45500601 176.33812542 -14.16738056 175.0125696 -18.359375 172.828125 C-19.04322266 172.48974609 -19.72707031 172.15136719 -20.43164062 171.80273438 C-22.10301965 170.97288884 -23.76363426 170.12142235 -25.421875 169.265625 C-25.57140394 164.58843645 -25.67963451 159.91267067 -25.75146484 155.23364258 C-25.78143876 153.64583062 -25.82223409 152.05818143 -25.87451172 150.47094727 C-26.37910919 134.74432622 -26.37910919 134.74432622 -20.85205078 128.02661133 C-18.92624892 125.65535683 -18.36421831 123.27058406 -17.671875 120.328125 C-16.73828125 117.515625 -16.73828125 117.515625 -15.421875 115.265625 C-12.88130454 114.12259154 -10.7221127 113.83924934 -7.95703125 113.56640625 C-3.93429171 113.08913207 -1.70797905 111.63161991 1.578125 109.265625 C6.22457534 103.27414956 6.8033962 98.72800727 6.890625 91.453125 C6.91962891 90.65841797 6.94863281 89.86371094 6.97851562 89.04492188 C7.03681103 83.62344936 6.2245514 80.5360388 2.578125 76.265625 C0.95145989 74.84673649 0.95145989 74.84673649 -0.796875 74.015625 C-1.61285156 73.57476562 -1.61285156 73.57476562 -2.4453125 73.125 C-7.42145179 70.96146118 -11.68547168 70.0485438 -17.109375 69.890625 C-37.27822812 68.68444849 -56.31877127 63.55295881 -70.421875 48.265625 C-77.39499874 40.38296339 -80.49779114 31.96302302 -82.7109375 21.76953125 C-83.24387988 19.11889753 -83.24387988 19.11889753 -85.421875 17.265625 C-88.86550748 17.39967244 -90.76976924 17.64074704 -93.29296875 20.05859375 C-103.27603453 35.31948981 -109.85283769 51.16733233 -112.421875 69.265625 C-113.09734375 69.38679688 -113.7728125 69.50796875 -114.46875 69.6328125 C-115.36078125 69.80039063 -116.2528125 69.96796875 -117.171875 70.140625 C-118.05359375 70.30304688 -118.9353125 70.46546875 -119.84375 70.6328125 C-122.29135244 71.23358764 -124.22787357 72.04559617 -126.421875 73.265625 C-132.2134754 60.17157192 -132.99558554 43.43134038 -128.296875 29.765625 C-124.09353396 19.19823672 -117.08684559 11.04814945 -106.78125 6.03515625 C-103.86130175 5.08278902 -101.10612424 4.94369976 -98.046875 4.703125 C-90.8513387 3.80057787 -88.35935117 0.48485124 -83.9453125 -4.96484375 C-64.29656514 -26.52980022 -19.75372963 -15.95087259 0 0 Z " fill="#585874" transform="translate(296.421875,41.734375)"/>
<path d="M0 0 C11.4022231 4.2855736 18.0060725 23.30303354 22.58984375 33.390625 C25.69241413 40.46662108 28.08322086 47.5141062 30 55 C30.20818359 55.77988281 30.41636719 56.55976563 30.63085938 57.36328125 C37.91446544 84.83166074 48.88767543 129.39801453 34.6796875 155.41796875 C31.45466638 160.1145159 27.52663504 164.25343727 22 166 C19.61109924 165.6620636 19.61109924 165.6620636 17.01000977 164.86450195 C16.03943634 164.57257965 15.06886292 164.28065735 14.06887817 163.97988892 C13.05614838 163.65652557 12.04341858 163.33316223 11 163 C9.52598221 162.53827896 9.52598221 162.53827896 8.02218628 162.06723022 C4.85032109 161.05849779 1.68827332 160.02294414 -1.47265625 158.98046875 C-2.63518417 158.59941483 -3.7977121 158.2183609 -4.99546814 157.82575989 C-8.68532227 156.61555894 -12.37391038 155.40154887 -16.0625 154.1875 C-18.50968653 153.38452452 -20.95695155 152.58178822 -23.40429688 151.77929688 C-36.28109398 147.55408257 -49.14891614 143.30280404 -62 139 C-61.26298419 135.72513067 -60.24494555 133.71477127 -58.25 131 C-52.13853082 122.02377964 -49.27346557 112.71991915 -48 102 C-42.04460003 103.65749573 -36.21935281 105.60299675 -30.41796875 107.734375 C-29.75072784 107.97812866 -29.08348694 108.22188232 -28.39602661 108.47302246 C-25.61882294 109.48841624 -22.84236559 110.50522858 -20.07250977 111.54052734 C-18.02496403 112.30398672 -15.97219902 113.05162186 -13.91796875 113.796875 C-12.70906982 114.24385742 -11.5001709 114.69083984 -10.25463867 115.15136719 C-6.9631694 116.00960342 -5.2095404 115.98988305 -2 115 C-0.4276647 108.09583536 -1.6567591 101.73256307 -2.75 94.8125 C-2.92015625 93.65685547 -3.0903125 92.50121094 -3.265625 91.31054688 C-4.48237997 78.20915933 -4.48237997 78.20915933 -10 67 C-12.5 66.66666667 -12.5 66.66666667 -15 67 C-15.66 67.66 -16.32 68.32 -17 69 C-16.58772467 73.74406959 -15.51584395 78.30635137 -14.4375 82.9375 C-13.2965661 88.1270877 -12.68236785 92.70613078 -13 98 C-17.76980488 96.35106355 -21.77586251 93.76298642 -26 91.0625 C-27.39560093 90.1780186 -28.79142902 89.29389552 -30.1875 88.41015625 C-30.84105469 87.99523926 -31.49460937 87.58032227 -32.16796875 87.15283203 C-34.42438974 85.73294665 -36.70572386 84.35774545 -39 83 C-37.64735143 75.64402353 -35.20214542 69.29979324 -32.125 62.5 C-31.6388623 61.41412598 -31.15272461 60.32825195 -30.65185547 59.20947266 C-29.11564205 55.79954066 -27.56168791 52.39833466 -26 49 C-25.51144531 47.93491211 -25.02289063 46.86982422 -24.51953125 45.77246094 C-6.2852753 6.2852753 -6.2852753 6.2852753 0 0 Z " fill="#787895" transform="translate(323,254)"/>
<path d="M0 0 C0.03440186 0.61818604 0.06880371 1.23637207 0.10424805 1.87329102 C1.18662365 19.95483698 3.68144457 40.60689817 16.54296875 54.68945312 C18.62240156 57.98699872 18.83715053 61.31476881 19.1796875 65.11328125 C19.29967606 66.34948967 19.29967606 66.34948967 19.42208862 67.610672 C20.41596319 79.1129875 20.21299852 90.6538826 20.125 102.1875 C20.11493919 104.50976172 20.10581888 106.83202771 20.09765625 109.15429688 C20.07591371 114.76962657 20.04268721 120.38479242 20 126 C17.32370332 124.7738306 15.91260076 123.90488906 13.875 121.6875 C8.86693499 117.00604792 3.06485281 113.78186203 -3.875 113.3125 C-9.40644381 113.54881168 -13.65415477 116.10339003 -18.3359375 118.8828125 C-21 120 -21 120 -23.0078125 119.58984375 C-25.9569987 117.23627751 -28.19782755 114.39845839 -30.5 111.4375 C-31.02335937 110.77129639 -31.54671875 110.10509277 -32.0859375 109.41870117 C-42.8385507 95.60011409 -52.24588768 81.15647053 -61 66 C-61.39687012 65.32291992 -61.79374023 64.64583984 -62.20263672 63.94824219 C-68.89741818 52.48583049 -68.89741818 52.48583049 -68 47 C-64.30266497 42.29698984 -59.14400688 39.11184795 -54.25 35.75 C-53.38600586 35.15082764 -52.52201172 34.55165527 -51.63183594 33.93432617 C-42.43416208 27.57203158 -33.17768155 21.29493601 -23.91796875 15.0234375 C-20.23882432 12.52888177 -16.57279015 10.01786428 -12.92578125 7.4765625 C-12.17844727 6.95666748 -11.43111328 6.43677246 -10.66113281 5.90112305 C-9.30224901 4.95341383 -7.94594814 4.00198574 -6.59277344 3.04614258 C-2.22036598 0 -2.22036598 0 0 0 Z " fill="#FBABD7" transform="translate(166,313)"/>
<path d="M0 0 C2.96340123 2.96340123 3.10794529 6.64172 3.9375 10.625 C6.13759853 20.51045872 9.19002264 30.00656336 12.5 39.5625 C12.84960281 40.57815033 12.84960281 40.57815033 13.20626831 41.61431885 C15.88854695 49.38199827 18.74592714 57.01717237 22.09960938 64.52709961 C23 67 23 67 23 71 C22.113125 71.680625 21.22625 72.36125 20.3125 73.0625 C12.64666111 78.95651764 10.12920907 91.35395464 8.3125 100.4375 C7.59885361 108.57306883 7.51387382 114.46996745 11 122 C11.14652884 123.39202395 11.24746729 124.78929682 11.3125 126.1875 C12.83897379 141.76806006 26.30291685 152.38902692 37.5625 161.75 C39.3682903 163.17520949 41.18093406 164.59177424 43 166 C44.4540625 167.16208984 44.4540625 167.16208984 45.9375 168.34765625 C58.75020805 178.45367973 72.32102297 187.34818898 86.64453125 195.16015625 C89.47625761 196.71282577 92.28219605 198.2554287 95 200 C95 200.33 95 200.66 95 201 C82.12657914 201.06939468 69.25320249 201.1227576 56.37963295 201.15543652 C50.40243568 201.17111775 44.42536601 201.19240083 38.44824219 201.22631836 C32.68407302 201.25882417 26.92002688 201.27683448 21.15577316 201.28463173 C18.95244789 201.29019105 16.74912962 201.30104645 14.54585648 201.31719017 C11.46873471 201.33884769 8.39212664 201.34197182 5.31494141 201.34057617 C3.93714256 201.35675491 3.93714256 201.35675491 2.5315094 201.3732605 C1.69575882 201.36913651 0.86000824 201.36501251 -0.00106812 201.36076355 C-0.72928457 201.36352893 -1.45750103 201.36629431 -2.20778465 201.36914349 C-4 201 -4 201 -6 198 C-6.375 195.125 -6.375 195.125 -6 192 C-5.34749268 191.25878906 -4.69498535 190.51757812 -4.02270508 189.75390625 C-1.46153517 186.26688192 -1.41365502 184.10942191 -1.26171875 179.8125 C-1.23341476 179.11616455 -1.20511078 178.4198291 -1.1759491 177.70239258 C-1.09375934 175.46824779 -1.04294323 173.23522222 -1 171 C-0.9831012 170.27522461 -0.96620239 169.55044922 -0.9487915 168.80371094 C-0.83335084 163.53549916 -0.80633543 158.26933971 -0.8125 153 C-0.81243958 152.20027771 -0.81237915 151.40055542 -0.81231689 150.57659912 C-0.82321145 140.39778685 -1.03051299 130.27500657 -1.875 120.125 C-1.99258667 118.71154297 -1.99258667 118.71154297 -2.11254883 117.26953125 C-2.79174506 110.23662687 -3.747873 104.10571845 -8.25 98.4375 C-18.58173556 84.2313636 -23.15850423 66.21182841 -20.69091797 48.82177734 C-17.95436745 32.73449507 -11.87574585 11.87574585 0 0 Z " fill="#787895" transform="translate(197,261)"/>
<path d="M0 0 C1.68372936 2.52559404 2.86770016 4.8236965 4.125 7.5625 C12.3767915 24.16287821 26.26669018 33.49369077 43.23046875 39.83203125 C50.68076038 42.14046358 58.34349687 43.55278346 66 45 C66.10051836 49.03426587 66.17222514 53.06802545 66.21972656 57.10327148 C66.23957267 58.4696119 66.26665914 59.83587059 66.30175781 61.2019043 C66.66380333 75.67840079 64.125867 87.99960022 54.2578125 98.9296875 C45.74183488 107.16297707 34.42277451 110.43944442 22.84375 110.34375 C12.52899087 109.42129187 2.78217672 104.67760488 -3.8984375 96.74609375 C-5.78567921 94.20190082 -7.45978978 91.7723784 -9 89 C-9.53391357 88.06293213 -9.53391357 88.06293213 -10.07861328 87.10693359 C-13.9169431 79.2447405 -13.53864735 71.21648582 -13.41162109 62.66943359 C-13.37517677 60.137282 -13.3706025 57.60660532 -13.37109375 55.07421875 C-13.33273794 46.20233053 -12.89376626 37.70337653 -11 29 C-10.85949219 28.30825684 -10.71898437 27.61651367 -10.57421875 26.90380859 C-8.4724032 17.06700275 -4.8122682 8.77292714 0 0 Z " fill="#FDCFBF" transform="translate(206,76)"/>
<path d="M0 0 C8.83415016 10.41838985 11.68818947 26.3929969 14.52050781 39.38818359 C17.76550488 54.13476439 22.06341195 66.94652518 31.5 78.9375 C39.77612828 89.47596093 44.84427679 101.80548727 47 115 C47.226875 116.299375 47.45375 117.59875 47.6875 118.9375 C47.81559492 120.28961307 47.91602672 121.64443128 48 123 C48.07605469 124.04800781 48.15210938 125.09601563 48.23046875 126.17578125 C48.67339315 137.12918184 46.27216191 145.46944257 39.1875 153.9375 C31.14204347 162.25364479 21.93271207 166.06865363 10.35693359 166.34057617 C7.87071763 166.3401069 5.38446605 166.32349927 2.8984375 166.29296875 C0.92201767 166.28660149 0.92201767 166.28660149 -1.09432983 166.28010559 C-4.56318881 166.26876133 -8.0316588 166.23938711 -11.50036621 166.20599365 C-15.05357606 166.17506511 -18.60685001 166.16155206 -22.16015625 166.14648438 C-29.10692859 166.11450482 -36.05344551 166.0634382 -43 166 C-43.09304432 163.75208681 -43.15959419 161.50306575 -43.21484375 159.25390625 C-43.25472412 158.0016626 -43.29460449 156.74941895 -43.33569336 155.45922852 C-42.96594062 151.6490274 -42.35958054 150.45546556 -39.5625 147.9375 C-36.93018662 146.38908036 -35.58016383 145.93196177 -32.53515625 146.2890625 C-30.23092819 147.02850684 -28.1516434 147.89739436 -26 149 C-21.10924478 151.44537761 -13.69167324 150.74768701 -8.5390625 149.31640625 C-3.09339847 146.80222037 0.54590781 143.10857165 3.10546875 137.63671875 C4.90515834 132.33195685 4.92182465 126.78691172 3.16015625 121.4609375 C0.68912727 116.48559969 -2.1524492 113.68086874 -7.03515625 111.0703125 C-9.19177642 109.89553332 -11.06546535 108.50798915 -13 107 C-12.43152344 106.62230469 -11.86304688 106.24460937 -11.27734375 105.85546875 C-2.66020966 99.71270371 3.21220492 91.62537827 5.5703125 81.203125 C9.01654916 55.51299716 5.12255961 25.23133085 0 0 Z " fill="#80A0E8" transform="translate(366,320)"/>
<path d="M0 0 C0.03440186 0.61818604 0.06880371 1.23637207 0.10424805 1.87329102 C1.18662365 19.95483698 3.68144457 40.60689817 16.54296875 54.68945312 C18.62240156 57.98699872 18.83715053 61.31476881 19.1796875 65.11328125 C19.29967606 66.34948967 19.29967606 66.34948967 19.42208862 67.610672 C20.41596319 79.1129875 20.21299852 90.6538826 20.125 102.1875 C20.11493919 104.50976172 20.10581888 106.83202771 20.09765625 109.15429688 C20.07591371 114.76962657 20.04268721 120.38479242 20 126 C17.32370332 124.7738306 15.91260076 123.90488906 13.875 121.6875 C8.86693499 117.00604792 3.06485281 113.78186203 -3.875 113.3125 C-9.40644381 113.54881168 -13.65415477 116.10339003 -18.3359375 118.8828125 C-21 120 -21 120 -23.2265625 119.4296875 C-25.24493743 117.80253943 -26.04439647 116.38900882 -27 114 C-25.93072266 113.36384766 -25.93072266 113.36384766 -24.83984375 112.71484375 C-13.61723141 105.84231533 -7.48845517 99.65202129 -3 87 C-0.54067063 73.7679027 -0.78276729 63.48196113 -8 52 C-15.91129078 39.04720039 -18.97105273 27.97117155 -21 13 C-17.88016876 10.82581478 -14.75331652 8.66195438 -11.625 6.5 C-10.73554688 5.87996094 -9.84609375 5.25992187 -8.9296875 4.62109375 C-8.07890625 4.03457031 -7.228125 3.44804687 -6.3515625 2.84375 C-5.56604004 2.29912109 -4.78051758 1.75449219 -3.97119141 1.19335938 C-2 0 -2 0 0 0 Z " fill="#E87CA9" transform="translate(166,313)"/>
<path d="M0 0 C4.56960427 0.59235611 7.8000432 2.5791449 11.375 5.4375 C13.375 8.4375 13.375 8.4375 13.19848633 10.76928711 C12.23784426 13.88190411 10.88030985 16.33705727 9.19921875 19.12890625 C8.54211914 20.22831543 7.88501953 21.32772461 7.20800781 22.46044922 C6.49293797 23.64035975 5.77776638 24.82020861 5.0625 26 C4.32971498 27.22110392 3.59762502 28.4426252 2.86621094 29.66455078 C1.04413054 32.7049203 -0.7858427 35.74043304 -2.6194458 38.77386475 C-17.60051566 63.41382434 -17.60051566 63.41382434 -31.38671875 88.73046875 C-31.70368713 89.34974747 -32.02065552 89.96902618 -32.347229 90.60707092 C-33.91173879 93.66934188 -35.46239289 96.73761842 -36.99365234 99.81665039 C-37.55391113 100.92387451 -38.11416992 102.03109863 -38.69140625 103.171875 C-39.18584229 104.16413086 -39.68027832 105.15638672 -40.18969727 106.17871094 C-41.625 108.4375 -41.625 108.4375 -44.625 109.4375 C-47.2572353 108.63853233 -49.70908121 107.77448699 -52.25 106.75 C-52.94351563 106.49283203 -53.63703125 106.23566406 -54.3515625 105.97070312 C-59.38384127 103.97056889 -59.38384127 103.97056889 -60.44750977 101.61938477 C-60.67681586 98.80052839 -59.97132412 97.3285649 -58.73828125 94.7890625 C-58.30064453 93.87737305 -57.86300781 92.96568359 -57.41210938 92.02636719 C-56.92548828 91.04829102 -56.43886719 90.07021484 -55.9375 89.0625 C-55.43927734 88.04317383 -54.94105469 87.02384766 -54.42773438 85.97363281 C-49.15040838 75.28391817 -43.47915344 64.82044833 -37.625 54.4375 C-37.1609375 53.61266113 -36.696875 52.78782227 -36.21875 51.93798828 C-7.59424827 1.26570804 -7.59424827 1.26570804 0 0 Z " fill="#9FD0FC" transform="translate(296.625,226.5625)"/>
<path d="M0 0 C8.76227868 2.24566048 17.31383931 5.03462718 25.875 7.9375 C28.43416636 8.80295765 30.99402296 9.66632882 33.5546875 10.52734375 C34.18411758 10.73900177 34.81354767 10.95065979 35.46205139 11.16873169 C40.53070995 12.86357503 45.63203398 14.43495878 50.74414062 15.99243164 C66.62141016 20.90586081 82.62653689 25.9143226 97.19970703 34.01464844 C99.17470513 35.09562109 101.17457328 36.11655495 103.18359375 37.1328125 C104.56019908 37.83794996 105.93651076 38.54366106 107.3125 39.25 C107.9420459 39.56727051 108.5715918 39.88454102 109.22021484 40.21142578 C112.64983548 42.01384723 115.12230157 43.56084709 117 47 C117.82057048 50.76094804 117.83869433 54.45114687 115.98046875 57.8828125 C113.84579702 60.55276445 112.26005253 61.91331582 109 63 C103.74259358 63.36711335 100.35613521 62.6277189 95.640625 60.32421875 C94.76719955 59.90308052 94.76719955 59.90308052 93.87612915 59.47343445 C91.99313349 58.55948746 90.1214375 57.62485947 88.25 56.6875 C86.94170572 56.04285398 85.63327351 55.39848783 84.32470703 54.75439453 C73.94796434 49.61212595 63.85617951 44.0809667 54 38 C53.2147998 37.51821289 52.42959961 37.03642578 51.62060547 36.54003906 C40.5124474 29.69842858 29.65249192 22.5301249 19 15 C18.19981445 14.43506836 17.39962891 13.87013672 16.57519531 13.28808594 C14.06607004 11.51131221 11.56306051 9.72630346 9.0625 7.9375 C8.27415771 7.37683838 7.48581543 6.81617676 6.67358398 6.23852539 C5.94727783 5.71508545 5.22097168 5.19164551 4.47265625 4.65234375 C3.82562744 4.18820068 3.17859863 3.72405762 2.51196289 3.24584961 C1 2 1 2 0 0 Z " fill="#7FA0E7" transform="translate(243,398)"/>
<path d="M0 0 C5.11844618 1.79958672 10.08274581 3.91385652 15.0625 6.0625 C16.41816058 6.63715225 17.7742775 7.21072917 19.13085938 7.78320312 C22.42592768 9.17644097 25.71457837 10.58413897 29 12 C27.84723049 25.87267096 25.04318861 36.38229792 15.25 46.875 C9.45637794 49.77181103 0.67793336 45.95019176 -5.1875 44.1875 C-6.06341797 43.93935547 -6.93933594 43.69121094 -7.84179688 43.43554688 C-12.66052107 41.99979357 -16.33844505 40.61752823 -20 37 C-23.73541721 29.52916559 -20.46717904 18.46479811 -18 11 C-14.45975661 1.74090191 -10.29059529 -2.35563597 0 0 Z " fill="#FDCFBE" transform="translate(236,340)"/>
<path d="M0 0 C4.22840611 3.06766718 8.29685737 6.22347515 12.24633789 9.64501953 C21.10054158 17.30532047 30.50171634 24.16496821 40 31 C41.10746582 31.79954102 41.10746582 31.79954102 42.23730469 32.61523438 C64.63884643 48.75082296 88.17437142 63.84210923 113 76 C113 76.66 113 77.32 113 78 C96.13684029 79.12605854 82.25812434 79.78087524 68.09912109 69.51025391 C65.88871081 67.91993081 63.62691565 66.44592244 61.33203125 64.98046875 C45.11361113 54.55840882 29.86411683 42.80898871 15.796875 29.62109375 C14.09815397 28.02913591 12.3833615 26.4538053 10.640625 24.91015625 C4.93919571 19.66955677 0.65251941 13.38116655 -0.30078125 5.51953125 C-0.3125 3.3125 -0.3125 3.3125 0 0 Z " fill="#585874" transform="translate(208,384)"/>
<path d="M0 0 C3.74020498 1.68152073 5.56134348 3.69039473 8 7 C7.3090625 8.07765625 6.618125 9.1553125 5.90625 10.265625 C-18.77797877 48.26831875 -18.77797877 48.26831875 -31 90 C-29.92621094 90.59167969 -28.85242188 91.18335938 -27.74609375 91.79296875 C-26.30977298 92.59092473 -24.87358198 93.38911434 -23.4375 94.1875 C-22.38079102 94.76854492 -22.38079102 94.76854492 -21.30273438 95.36132812 C-17.76045075 97.33651854 -14.41345013 99.37429134 -11.16015625 101.80078125 C-8.23127985 104.28560656 -8.23127985 104.28560656 -5 104 C-5 105.98 -5 107.96 -5 110 C-11.29831167 108.7638964 -17.19064527 107.00492416 -23.19140625 104.7421875 C-24.02212143 104.43427277 -24.85283661 104.12635803 -25.70872498 103.80911255 C-28.32872852 102.83655711 -30.94562434 101.85593634 -33.5625 100.875 C-35.35201325 100.20909692 -37.14172512 99.54372734 -38.93164062 98.87890625 C-43.29007874 97.25875697 -47.6457514 95.63137359 -52 94 C-51.38576664 89.7591917 -49.90799016 86.56105754 -47.89453125 82.79296875 C-47.42129929 81.90285095 -47.42129929 81.90285095 -46.93850708 80.99475098 C-45.90381488 79.05498244 -44.85885385 77.12099995 -43.8125 75.1875 C-43.45374786 74.52005768 -43.09499573 73.85261536 -42.72537231 73.16494751 C-35.78925548 60.26187305 -28.51544389 47.57466052 -21 35 C-20.35047363 33.91187012 -19.70094727 32.82374023 -19.03173828 31.70263672 C-15.25906034 25.38819309 -11.47272761 19.08210251 -7.67578125 12.78222656 C-5.11151508 8.52488722 -2.55546842 4.26262429 0 0 Z " fill="#585874" transform="translate(316,247)"/>
<path d="M0 0 C36.63 0 73.26 0 111 0 C111 4.29 111 8.58 111 13 C74.37 13 37.74 13 0 13 C0 8.71 0 4.42 0 0 Z " fill="#464659" transform="translate(201,473)"/>
<path d="M0 0 C6.32764318 2.55325953 11.50936676 7.09831081 15 13 C15.34353018 15.87911006 15.19551799 18.46220475 14.96484375 21.34765625 C15.02352512 25.77483974 17.17205965 28.73144572 20 32 C22.12139833 33.95408024 22.12139833 33.95408024 24 35 C24 37.86862912 23.43601324 39.53506751 21.46875 41.6328125 C17.5156974 44.87996285 13.66646989 47.24493445 8.47265625 47.4765625 C-1.63725253 45.52804928 -10.87389947 35.02341896 -18 28 C-19.12535156 26.89398438 -19.12535156 26.89398438 -20.2734375 25.765625 C-23.14760894 22.7389465 -24.8636827 20.33782983 -26.4375 16.4375 C-25.94058686 12.5331825 -25.42463389 11.99588287 -22.625 9.4375 C-21.10209335 8.26684828 -19.55941949 7.12155294 -18 6 C-17.26652344 5.41476562 -16.53304687 4.82953125 -15.77734375 4.2265625 C-10.60392716 0.33965691 -6.45919952 -1.34417964 0 0 Z " fill="#FCCFBE" transform="translate(166,437)"/>
<path d="M0 0 C2.53618256 19.62858985 2.53618256 19.62858985 -1.45751953 26.51220703 C-5.07853559 30.81804883 -9.36274243 34.23612708 -13.93798828 37.48144531 C-16.61561735 39.45336727 -18.98907458 41.69688384 -21.37475586 44.00927734 C-23 45 -23 45 -25.06982422 44.79711914 C-27.98604729 43.59278467 -29.29073079 41.5428905 -31.1875 39.0625 C-31.88230469 38.16660156 -32.57710937 37.27070313 -33.29296875 36.34765625 C-35.88687122 32.78029838 -36.12069448 30.93195111 -36.09765625 26.5546875 C-36.09443359 25.47832031 -36.09121094 24.40195313 -36.08789062 23.29296875 C-36.07951172 22.16503906 -36.07113281 21.03710938 -36.0625 19.875 C-36.05798828 18.73933594 -36.05347656 17.60367188 -36.04882812 16.43359375 C-36.03701615 13.62234362 -36.02054507 10.8111977 -36 8 C-34.93523437 7.98582031 -33.87046875 7.97164062 -32.7734375 7.95703125 C-21.4578607 7.64394687 -9.79416174 0 0 0 Z " fill="#FDCFBE" transform="translate(261,188)"/>
<path d="M0 0 C6.12665295 6.12665295 6.12665295 6.12665295 6.53515625 10.8125 C6.62216797 11.80636719 6.70917969 12.80023438 6.79882812 13.82421875 C6.88583984 14.87222656 6.97285156 15.92023438 7.0625 17 C7.15337891 18.01707031 7.24425781 19.03414063 7.33789062 20.08203125 C7.59153118 23.05324923 7.80196427 26.0246153 8 29 C8.07283203 29.80203857 8.14566406 30.60407715 8.22070312 31.43041992 C8.5789226 37.74403819 6.49340309 41.92268804 3.375 47.3125 C2.45737869 48.97082628 1.54071167 50.62968097 0.625 52.2890625 C0.17640625 53.08860352 -0.2721875 53.88814453 -0.734375 54.71191406 C-2.45813049 57.82824053 -4.0475309 60.99464188 -5.625 64.1875 C-6.32496094 65.60095703 -6.32496094 65.60095703 -7.0390625 67.04296875 C-7.35617188 67.68878906 -7.67328125 68.33460938 -8 69 C-8.33 69 -8.66 69 -9 69 C-9.38879403 57.18546148 -8.46153411 45.95368906 -6.60131836 34.28686523 C-6.18540834 31.67436143 -5.78951168 29.059394 -5.39648438 26.44335938 C-4.02874769 17.5022204 -2.45518784 8.7203778 0 0 Z " fill="#F76A8A" transform="translate(237,249)"/>
<path d="M0 0 C2.27780107 0.96123953 4.50242679 1.9162645 6.69140625 3.06640625 C7.38878906 3.42863281 8.08617187 3.79085937 8.8046875 4.1640625 C9.58392578 4.57978516 9.58392578 4.57978516 10.37890625 5.00390625 C9.76676091 8.01840973 8.81471394 10.16687898 7.12109375 12.7265625 C6.66323486 13.42531494 6.20537598 14.12406738 5.73364258 14.84399414 C5.24532959 15.57739014 4.7570166 16.31078613 4.25390625 17.06640625 C3.25487715 18.58702205 2.25617972 20.10785581 1.2578125 21.62890625 C0.76812988 22.37140625 0.27844727 23.11390625 -0.22607422 23.87890625 C-2.11553957 26.75708379 -3.96480877 29.65875355 -5.80859375 32.56640625 C-6.35902344 33.43394531 -6.90945313 34.30148438 -7.4765625 35.1953125 C-7.85425781 35.79214844 -8.23195313 36.38898438 -8.62109375 37.00390625 C-14.24329221 32.33867774 -19.78120171 27.4913122 -24.62109375 22.00390625 C-24.62109375 21.34390625 -24.62109375 20.68390625 -24.62109375 20.00390625 C-23.109375 18.734375 -23.109375 18.734375 -20.93359375 17.19140625 C-17.80140886 14.86336392 -14.99680244 12.43184758 -12.3046875 9.6171875 C-11.73645264 9.02333252 -11.16821777 8.42947754 -10.58276367 7.81762695 C-9.45134284 6.61875014 -8.33265588 5.4077129 -7.2277832 4.18432617 C-3.27057143 0.00487418 -3.27057143 0.00487418 0 0 Z " fill="#FAFAFA" transform="translate(269.62109375,220.99609375)"/>
<path d="M0 0 C0.5671875 0.71542969 1.134375 1.43085937 1.71875 2.16796875 C18.27056811 22.71603062 35.91828024 29.20496534 61 34 C61 43.9 61 53.8 61 64 C60.67 64 60.34 64 60 64 C60 56.74 60 49.48 60 42 C57.834375 41.938125 55.66875 41.87625 53.4375 41.8125 C37.46541662 40.9380645 22.07369383 34.21570875 11.0390625 22.5390625 C7.42621616 18.04030748 4.66561213 13.10232127 2 8 C1.60683594 7.30519531 1.21367187 6.61039062 0.80859375 5.89453125 C0 4 0 4 0 0 Z " fill="#F39B9B" transform="translate(211,87)"/>
<path d="M0 0 C-1.28336016 3.33209776 -2.70953452 6.49104583 -4.3828125 9.64453125 C-4.82753906 10.48564453 -5.27226562 11.32675781 -5.73046875 12.19335938 C-6.19066406 13.05767578 -6.65085937 13.92199219 -7.125 14.8125 C-7.59292969 15.69615234 -8.06085938 16.57980469 -8.54296875 17.49023438 C-9.69307603 19.66135525 -10.84548146 21.8312226 -12 24 C-13.57168016 23.5503259 -15.14166393 23.0947207 -16.7109375 22.63671875 C-17.58540527 22.38365967 -18.45987305 22.13060059 -19.36083984 21.86987305 C-23.14378979 20.62300435 -26.49444186 18.88261456 -30 17 C-29.39644592 13.14974121 -28.23227397 10.13898841 -26.4375 6.6875 C-25.98246094 5.80449219 -25.52742187 4.92148437 -25.05859375 4.01171875 C-24.53458984 3.01591797 -24.53458984 3.01591797 -24 2 C-22.81921875 1.93941406 -21.6384375 1.87882812 -20.421875 1.81640625 C-18.8645723 1.73197418 -17.30728121 1.64732751 -15.75 1.5625 C-14.97269531 1.52318359 -14.19539062 1.48386719 -13.39453125 1.44335938 C-12.64042969 1.40146484 -11.88632813 1.35957031 -11.109375 1.31640625 C-10.41811523 1.27974854 -9.72685547 1.24309082 -9.01464844 1.20532227 C-6.97357542 1.04616823 -6.97357542 1.04616823 -4.93066406 0.48022461 C-3 0 -3 0 0 0 Z " fill="#7FA0E7" transform="translate(266,312)"/>
<path d="M0 0 C3.33333333 3.33333333 6.66666667 6.66666667 10 10 C8.45872649 13.71268094 6.19156766 15.98115698 3.3125 18.75 C-1.02347933 22.9915821 -5.09013408 27.36512583 -9 32 C-9.66 31.67 -10.32 31.34 -11 31 C-12.56544213 26.06406511 -13.25739086 20.81008317 -11.08935547 15.96484375 C-8.43796927 11.36663551 -5.24864006 7.18806909 -2 3 C-1.34 2.01 -0.68 1.02 0 0 Z " fill="#F8F8F8" transform="translate(219,230)"/>
<path d="M0 0 C1.11246094 -0.00257813 2.22492188 -0.00515625 3.37109375 -0.0078125 C4.53769531 -0.00007812 5.70429688 0.00765625 6.90625 0.015625 C8.07285156 0.00789062 9.23945313 0.00015625 10.44140625 -0.0078125 C11.55386719 -0.00523437 12.66632813 -0.00265625 13.8125 0 C14.83666016 0.00225586 15.86082031 0.00451172 16.91601562 0.00683594 C19.40625 0.265625 19.40625 0.265625 21.40625 2.265625 C21.84375 5.203125 21.84375 5.203125 21.40625 8.265625 C15.11194094 13.33604063 7.10280888 12.82902075 -0.59375 12.265625 C-3.36270726 11.44500676 -5.51982315 10.33955185 -7.59375 8.265625 C-7.78125 5.328125 -7.78125 5.328125 -7.59375 2.265625 C-4.94675384 -0.38137116 -3.68980591 0.00812733 0 0 Z " fill="#F99D9D" transform="translate(227.59375,161.734375)"/>
<path d="M0 0 C4.40159106 0.88031821 6.46412916 1.51533401 10 4 C12.97190438 8.45785657 12.50528391 12.77107708 12 18 C10.39701349 21.74030185 9.40262302 22.73158465 6 25 C4.02 25 2.04 25 0 25 C0 16.75 0 8.5 0 0 Z " fill="#EF9798" transform="translate(282,121)"/>
<path d="M0 0 C0 2.64 0 5.28 0 8 C-2.22763988 8.81690177 -4.4569486 9.62861872 -6.6875 10.4375 C-7.31333984 10.66759766 -7.93917969 10.89769531 -8.58398438 11.13476562 C-15.23732551 13.53832865 -20.81561215 14.13874438 -27.8125 14.0625 C-28.60076172 14.05798828 -29.38902344 14.05347656 -30.20117188 14.04882812 C-32.13414761 14.03711312 -34.06708393 14.01917998 -36 14 C-36 12.02 -36 10.04 -36 8 C-34.93523437 7.98582031 -33.87046875 7.97164062 -32.7734375 7.95703125 C-21.4578607 7.64394687 -9.79416174 0 0 0 Z " fill="#F3999A" transform="translate(261,188)"/>
<path d="M0 0 C3.19035144 1.17370789 6.56283092 2.56283092 9 5 C9.29431219 7.7959658 9.33772308 9.43712819 7.875 11.875 C4.99185914 13.60488451 3.24719247 12.76751822 0 12 C-0.83917969 11.86207031 -1.67835938 11.72414062 -2.54296875 11.58203125 C-3.43628906 11.43121094 -4.32960937 11.28039062 -5.25 11.125 C-6.10078125 10.98320312 -6.9515625 10.84140625 -7.828125 10.6953125 C-10 10 -10 10 -12 7 C-11.75 3.875 -11.75 3.875 -11 1 C-7.51734124 -0.74132938 -3.80767143 -0.45933814 0 0 Z " fill="#F99D9D" transform="translate(219,131)"/>
<path d="M0 0 C1.299375 -0.03867188 1.299375 -0.03867188 2.625 -0.078125 C5 0.25 5 0.25 6.82421875 1.60546875 C8 3.25 8 3.25 7.8125 5.8125 C7 8.25 7 8.25 5 10.25 C-0.19186942 11.96299969 -5.54880239 12.69499572 -11 12.25 C-13 10.25 -13 10.25 -13.4375 7.875 C-13 5.25 -13 5.25 -10.6875 3 C-7.03398824 0.62096909 -4.27796338 0.0763922 0 0 Z " fill="#F99D9C" transform="translate(252,130.75)"/>
<path d="M0 0 C0 7.92 0 15.84 0 24 C-5 23 -5 23 -7.27734375 20.84375 C-10.29536256 15.86162371 -9.84370734 10.6319268 -9 5 C-6.9084318 0.85819894 -4.65486461 0 0 0 Z " fill="#F59A9A" transform="translate(182,122)"/>
<path d="M0 0 C1.18059748 3.53384765 0.85403283 6.28253598 0.29296875 9.9375 C0.11830078 11.07960938 -0.05636719 12.22171875 -0.23632812 13.3984375 C-0.42646484 14.58695312 -0.61660156 15.77546875 -0.8125 17 C-0.99103516 18.18851562 -1.16957031 19.37703125 -1.35351562 20.6015625 C-2.86359548 30.2617123 -2.86359548 30.2617123 -5 34 C-6.06568704 30.75738142 -7.09824262 27.50513474 -8.125 24.25 C-8.42792969 23.32960938 -8.73085937 22.40921875 -9.04296875 21.4609375 C-9.32011719 20.57148438 -9.59726563 19.68203125 -9.8828125 18.765625 C-10.14465332 17.94868164 -10.40649414 17.13173828 -10.67626953 16.29003906 C-11.07362829 13.47916033 -10.52092956 12.35354831 -9 10 C-7.34375 8.18359375 -7.34375 8.18359375 -5.5 6.4375 C-3.27903267 4.32475777 -1.72257583 2.58386374 0 0 Z " fill="#C3CCE1" transform="translate(223,262)"/>
<path d="M0 0 C5.03218032 5.03218032 6.1715086 6.53106441 6.5625 13.5625 C6.60568359 14.27341797 6.64886719 14.98433594 6.69335938 15.71679688 C6.79971777 17.47761912 6.90038846 19.2387832 7 21 C3.7 20.01 0.4 19.02 -3 18 C-2.5332314 11.69862387 -1.99796233 5.993887 0 0 Z " fill="#DC476C" transform="translate(237,249)"/>
</svg>
