<?xml version="1.0" encoding="UTF-8"?>
<svg version="1.1" xmlns="http://www.w3.org/2000/svg" width="512" height="512">
<path d="M0 0 C1.03841018 -0.00872064 1.03841018 -0.00872064 2.09779835 -0.01761746 C4.42903379 -0.03227313 6.75922547 -0.01830731 9.0904541 -0.00457001 C10.7739796 -0.00917675 12.45750108 -0.01552814 14.1410141 -0.02347898 C18.77620523 -0.04022669 23.41106829 -0.03190134 28.04626083 -0.01953411 C33.04156504 -0.01050813 38.03681162 -0.02444113 43.03210449 -0.0354538 C52.82142172 -0.05326987 62.61061649 -0.0493853 72.39993858 -0.03780323 C80.35367211 -0.02878132 88.30737123 -0.02753952 96.2611084 -0.0318985 C97.39175893 -0.03251143 98.52240947 -0.03312436 99.68732214 -0.03375587 C101.98398909 -0.03503473 104.28065603 -0.03633158 106.57732296 -0.03764623 C128.12923685 -0.04906108 149.68108276 -0.03592414 171.2329855 -0.01444477 C189.73824346 0.00342702 208.24340107 0.00032317 226.74865723 -0.01811981 C248.22178043 -0.03951055 269.69484401 -0.04796236 291.16797638 -0.03567076 C293.4563446 -0.03439652 295.74471282 -0.03313904 298.03308105 -0.0318985 C299.72210234 -0.03097285 299.72210234 -0.03097285 301.44524527 -0.03002849 C309.39234437 -0.0265702 317.33940576 -0.03241425 325.28649902 -0.04181671 C334.96718653 -0.05301813 344.64774425 -0.05003583 354.32841682 -0.02869374 C359.27066316 -0.01815827 364.21269286 -0.01410387 369.15493774 -0.02729034 C373.67510598 -0.03916855 378.19485582 -0.03272768 382.71498585 -0.01138014 C384.35422252 -0.00689459 385.9934942 -0.00922384 387.63270855 -0.01888329 C389.85371135 -0.03097183 392.0732636 -0.0186515 394.29418945 0 C395.52990944 0.00064941 396.76562943 0.00129882 398.03879547 0.00196791 C401.14709473 0.50336456 401.14709473 0.50336456 403.54394102 2.23145723 C405.40802236 4.87313784 405.64800231 6.15313151 405.65045929 9.3572464 C405.66089028 10.33809456 405.67132127 11.31894272 405.68206835 12.32951355 C405.67314546 13.40459923 405.66422257 14.47968491 405.6550293 15.58734894 C405.66126926 16.73133904 405.66750922 17.87532913 405.67393827 19.0539856 C405.68714656 22.22987472 405.68237444 25.40515392 405.6699934 28.58102798 C405.66095533 32.0057757 405.67490641 35.43043998 405.68591309 38.8551712 C405.7037163 45.56438258 405.69985038 52.27341515 405.68826252 58.98263359 C405.67923552 64.43446446 405.67800101 69.88624516 405.68235779 75.33808136 C405.68297072 76.11348566 405.68358365 76.88888995 405.68421516 77.68779135 C405.68549404 79.2629223 405.68679089 80.83805324 405.68810552 82.41318417 C405.6995166 97.18941437 405.68638938 111.96554537 405.66490406 126.7417593 C405.64703258 139.42536491 405.65013654 152.1088241 405.6685791 164.79242706 C405.68997654 179.51513074 405.69841791 194.23774743 405.68613005 208.96046448 C405.68485583 210.52985889 405.68359834 212.09925332 405.68235779 213.66864777 C405.68174069 214.44085584 405.68112358 215.21306392 405.68048778 216.00867224 C405.67703149 221.45508503 405.68286922 226.90144273 405.692276 232.34784698 C405.70348488 238.98361947 405.70047953 245.61920264 405.67915303 252.25495338 C405.66862741 255.64182837 405.66454602 259.02838754 405.67774963 262.41526031 C405.68862401 266.0836188 405.67503826 269.75107945 405.6550293 273.41938019 C405.66395218 274.49446587 405.67287507 275.56955154 405.68206835 276.67721558 C405.67163736 277.65806374 405.66120637 278.6389119 405.65045929 279.64948273 C405.64980988 280.49636909 405.64916047 281.34325546 405.64849138 282.21580505 C404.94975363 285.40370862 403.74744357 286.57003362 401.14709473 288.50336456 C398.52150702 289.00015855 398.52150702 289.00015855 395.46993637 288.99555588 C394.30548485 289.00352007 393.14103332 289.01148427 391.94129539 289.0196898 C390.66115192 289.00803843 389.38100845 288.99638707 388.06207275 288.98438263 C386.68918358 288.98612659 385.3162957 288.98962828 383.94341493 288.99473929 C380.16695981 289.00369772 376.39095711 288.98766415 372.61455965 288.96762705 C368.54369896 288.95037873 364.47286448 288.95619689 360.40197754 288.95923615 C353.34763274 288.96133517 346.29343574 288.94876829 339.23912811 288.92628479 C329.03976578 288.8937985 318.84047504 288.88336123 308.64106658 288.87833282 C292.09388178 288.86957487 275.54677579 288.84294574 258.99963379 288.80512238 C242.92411691 288.76841522 226.84862153 288.74014298 210.77307129 288.72309113 C209.77233227 288.72201914 208.77159326 288.72094715 207.74052882 288.71984267 C199.91427713 288.71152515 192.08802498 288.70369739 184.26177263 288.69602442 C145.890141 288.65827883 107.5187066 288.5778083 69.14709473 288.50336456 C69.47709473 341.96336456 69.80709473 395.42336456 70.14709473 450.50336456 C74.10709473 446.21336456 78.06709473 441.92336456 82.14709473 437.50336456 C85.99475098 434.22211456 85.99475098 434.22211456 89.20959473 432.00336456 C89.78612793 431.60520538 90.36266113 431.2070462 90.95666504 430.79682159 C103.28982728 422.50336456 103.28982728 422.50336456 109.14709473 422.50336456 C108.7113916 422.04188019 108.27568848 421.58039581 107.82678223 421.10492706 C93.69707957 405.62953844 91.28856127 388.91004447 92.14709473 368.50336456 C93.56217962 351.75520785 98.91527326 340.27082517 111.75256348 329.29242706 C123.67201034 320.3868697 136.78164197 319.34833844 151.14709473 320.50336456 C163.52720241 322.73365365 174.52726883 330.6568152 181.80334473 340.81586456 C192.58678747 357.73106887 191.85141015 379.39689554 188.14709473 398.50336456 C185.84092826 406.75905294 182.00291332 412.43896739 176.03771973 418.54242706 C174.09145445 420.36559579 174.09145445 420.36559579 173.14709473 422.50336456 C173.86381348 422.61422394 174.58053223 422.72508331 175.31896973 422.83930206 C183.96493076 424.86943104 191.46838228 430.88989478 198.14709473 436.50336456 C198.8870166 437.09762238 199.62693848 437.69188019 200.38928223 438.30414581 C208.61642515 445.17907666 215.34876721 453.90670953 220.14709473 463.50336456 C220.14709473 464.16336456 220.14709473 464.82336456 220.14709473 465.50336456 C220.80709473 465.50336456 221.46709473 465.50336456 222.14709473 465.50336456 C222.40361816 464.62164581 222.6601416 463.73992706 222.92443848 462.83148956 C229.46083496 445.03912597 247.39988131 432.28823864 263.43225098 423.71820831 C266.14709473 422.50336456 266.14709473 422.50336456 269.14709473 422.50336456 C268.7113916 422.04188019 268.27568848 421.58039581 267.82678223 421.10492706 C253.69707957 405.62953844 251.28856127 388.91004447 252.14709473 368.50336456 C253.56217962 351.75520785 258.91527326 340.27082517 271.75256348 329.29242706 C283.67201034 320.3868697 296.78164197 319.34833844 311.14709473 320.50336456 C323.52720241 322.73365365 334.52726883 330.6568152 341.80334473 340.81586456 C352.58678747 357.73106887 351.85141015 379.39689554 348.14709473 398.50336456 C345.84092826 406.75905294 342.00291332 412.43896739 336.03771973 418.54242706 C334.09145445 420.36559579 334.09145445 420.36559579 333.14709473 422.50336456 C334.34334473 422.81273956 335.53959473 423.12211456 336.77209473 423.44086456 C356.12295831 429.9520042 371.43650566 446.71543234 380.45959473 464.44086456 C386.07703653 475.883195 389.29352089 487.37389392 389.45959473 500.12836456 C389.48859863 500.87859894 389.51760254 501.62883331 389.54748535 502.40180206 C389.58832295 505.94524949 389.45550663 508.06900078 387.37756348 510.99555206 C384.37964552 513.0221656 382.57410911 513.07791009 379.05334473 512.89398956 C376.06683784 512.28200045 374.80869838 510.99577005 373.14709473 508.50336456 C373.14709473 507.18336456 373.14709473 505.86336456 373.14709473 504.50336456 C365.22709473 504.50336456 357.30709473 504.50336456 349.14709473 504.50336456 C348.81709473 506.48336456 348.48709473 508.46336456 348.14709473 510.50336456 C344.47025715 512.95458962 341.41992219 513.20833811 337.14709473 512.50336456 C334.64709473 510.75336456 334.64709473 510.75336456 333.14709473 508.50336456 C333.14709473 507.18336456 333.14709473 505.86336456 333.14709473 504.50336456 C312.02709473 504.50336456 290.90709473 504.50336456 269.14709473 504.50336456 C268.81709473 506.48336456 268.48709473 508.46336456 268.14709473 510.50336456 C264.47025715 512.95458962 261.41992219 513.20833811 257.14709473 512.50336456 C254.64709473 510.75336456 254.64709473 510.75336456 253.14709473 508.50336456 C253.14709473 507.18336456 253.14709473 505.86336456 253.14709473 504.50336456 C245.22709473 504.50336456 237.30709473 504.50336456 229.14709473 504.50336456 C228.81709473 506.48336456 228.48709473 508.46336456 228.14709473 510.50336456 C224.47025715 512.95458962 221.41992219 513.20833811 217.14709473 512.50336456 C214.64709473 510.75336456 214.64709473 510.75336456 213.14709473 508.50336456 C213.14709473 507.18336456 213.14709473 505.86336456 213.14709473 504.50336456 C205.22709473 504.50336456 197.30709473 504.50336456 189.14709473 504.50336456 C188.81709473 506.48336456 188.48709473 508.46336456 188.14709473 510.50336456 C184.47025715 512.95458962 181.41992219 513.20833811 177.14709473 512.50336456 C174.64709473 510.75336456 174.64709473 510.75336456 173.14709473 508.50336456 C173.14709473 507.18336456 173.14709473 505.86336456 173.14709473 504.50336456 C152.02709473 504.50336456 130.90709473 504.50336456 109.14709473 504.50336456 C108.81709473 506.48336456 108.48709473 508.46336456 108.14709473 510.50336456 C104.47025715 512.95458962 101.41992219 513.20833811 97.14709473 512.50336456 C94.64709473 510.75336456 94.64709473 510.75336456 93.14709473 508.50336456 C93.14709473 507.18336456 93.14709473 505.86336456 93.14709473 504.50336456 C85.22709473 504.50336456 77.30709473 504.50336456 69.14709473 504.50336456 C68.81709473 506.48336456 68.48709473 508.46336456 68.14709473 510.50336456 C64.47025715 512.95458962 61.41992219 513.20833811 57.14709473 512.50336456 C54.64709473 510.75336456 54.64709473 510.75336456 53.14709473 508.50336456 C53.14709473 507.18336456 53.14709473 505.86336456 53.14709473 504.50336456 C45.22709473 504.50336456 37.30709473 504.50336456 29.14709473 504.50336456 C28.81709473 506.48336456 28.48709473 508.46336456 28.14709473 510.50336456 C24.47025715 512.95458962 21.41992219 513.20833811 17.14709473 512.50336456 C14.64709473 510.75336456 14.64709473 510.75336456 13.14709473 508.50336456 C13.14709473 507.18336456 13.14709473 505.86336456 13.14709473 504.50336456 C-7.97290527 504.50336456 -29.09290527 504.50336456 -50.85290527 504.50336456 C-51.18290527 506.48336456 -51.51290527 508.46336456 -51.85290527 510.50336456 C-55.52974285 512.95458962 -58.58007781 513.20833811 -62.85290527 512.50336456 C-65.35290527 510.75336456 -65.35290527 510.75336456 -66.85290527 508.50336456 C-66.85290527 507.18336456 -66.85290527 505.86336456 -66.85290527 504.50336456 C-74.77290527 504.50336456 -82.69290527 504.50336456 -90.85290527 504.50336456 C-91.18290527 506.48336456 -91.51290527 508.46336456 -91.85290527 510.50336456 C-95.06727056 512.64627476 -97.02717136 512.80362247 -100.81774902 512.96430206 C-103.92022068 512.26163094 -104.998473 511.07104002 -106.85290527 508.50336456 C-107.26509837 505.75136945 -107.42368114 503.49631562 -107.35290527 500.75336456 C-107.34154541 500.00546661 -107.33018555 499.25756866 -107.31848145 498.48700714 C-106.55472101 475.98326714 -95.47242557 454.43654149 -79.4329834 438.92035675 C-73.65188576 433.73594842 -66.92531884 428.73547494 -59.85290527 425.50336456 C-59.10357661 416.2477679 -59.98958042 409.68898458 -64.34509277 401.44086456 C-65.85290527 398.50336456 -65.85290527 398.50336456 -66.73181152 395.24945831 C-67.57943124 392.3360825 -67.57943124 392.3360825 -70.13806152 391.28852081 C-71.05458496 391.05004425 -71.9711084 390.81156769 -72.91540527 390.56586456 C-82.6526628 387.46012491 -89.44040658 381.07176282 -94.85290527 372.50336456 C-98.42909063 364.96758127 -99.43915431 358.10986132 -99.38635254 349.84418488 C-99.39496811 348.73525879 -99.40358368 347.6263327 -99.41246033 346.4838028 C-99.43500111 342.84945494 -99.42840121 339.21588592 -99.41931152 335.58148956 C-99.42455342 333.03239465 -99.43083197 330.48330168 -99.43809509 327.93421173 C-99.44847835 322.60169059 -99.44430318 317.26944681 -99.42932129 311.93695831 C-99.41243191 305.81161763 -99.42820529 299.68699133 -99.46054417 293.56172872 C-99.49067723 287.62487649 -99.49237938 281.68824227 -99.48304558 275.75131226 C-99.48223091 273.24614026 -99.48900056 270.7409529 -99.5038166 268.23582458 C-99.59517502 249.98995546 -98.88854109 235.1654209 -86.85290527 220.50336456 C-85.68888184 219.02223175 -85.68888184 219.02223175 -84.50134277 217.51117706 C-75.96354418 207.35042467 -62.58365381 201.33456818 -49.56774902 199.98383331 C-45.99851031 199.69584466 -42.4336624 199.55923453 -38.85290527 199.50336456 C-39.31181152 198.89750519 -39.77071777 198.29164581 -40.24353027 197.66742706 C-53.21138403 179.9592234 -53.69017268 158.41395097 -50.53259277 137.22992706 C-48.09447787 123.86233153 -39.8528892 112.38754709 -28.85290527 104.50336456 C-22.93242491 101.00455165 -17.66310788 98.54078955 -10.85290527 97.50336456 C-10.86178772 96.34713593 -10.87067017 95.19090729 -10.87982178 93.99964142 C-10.9608575 83.11099506 -11.02084665 72.22240975 -11.06015396 61.33353043 C-11.08104155 55.73522895 -11.10938091 50.13717062 -11.15466309 44.53900909 C-11.19807854 39.13791509 -11.22203355 33.73705518 -11.23241425 28.33580017 C-11.23981331 26.27366449 -11.25426174 24.21154182 -11.2758255 22.14950562 C-11.30480205 19.2642458 -11.30886365 16.37995707 -11.30700684 13.4945755 C-11.32138794 12.63933792 -11.33576904 11.78410034 -11.35058594 10.90294647 C-11.34508728 10.11493149 -11.33958862 9.3269165 -11.33392334 8.51502228 C-11.33761051 7.83289547 -11.34129768 7.15076866 -11.34509659 6.44797134 C-9.85005359 0.54118132 -5.36440993 0.00281916 0 0 Z " fill="#000000" transform="translate(106.8529052734375,-0.5033645629882813)"/>
<path d="M0 0 C126.72 0 253.44 0 384 0 C384 84.48 384 168.96 384 256 C278.4 256 172.8 256 64 256 C64 250.72 64 245.44 64 240 C66.42230957 239.99589111 68.84461914 239.99178223 71.34033203 239.98754883 C79.35119042 239.97033748 87.3617302 239.9258127 95.37239265 239.86790943 C100.2284676 239.83364499 105.08422813 239.8085303 109.94042969 239.80444336 C114.62859465 239.80015924 119.31605041 239.77168723 124.00399399 239.72656822 C125.79087058 239.71359683 127.57783206 239.70928428 129.36474991 239.71384621 C131.8717087 239.71875495 134.37659684 239.69265057 136.88330078 239.65942383 C137.61913895 239.66804947 138.35497711 239.67667511 139.1131134 239.68556213 C144.84611185 239.55850534 147.09691963 237.89483598 151 234 C152.76372342 231.9210348 154.42814248 229.86064306 156.0625 227.6875 C157.02346121 226.43781802 157.98575522 225.18916004 158.94921875 223.94140625 C159.44728027 223.29445801 159.9453418 222.64750977 160.45849609 221.98095703 C163.0468989 218.65465035 165.71053148 215.39046442 168.375 212.125 C168.91987061 211.45525146 169.46474121 210.78550293 170.02612305 210.09545898 C172.73647815 206.76616312 175.45590543 203.44470271 178.1875 200.1328125 C184.28754756 192.71793022 190.24219251 185.19926444 196.0625 177.5625 C197.00971924 176.33805176 197.00971924 176.33805176 197.97607422 175.08886719 C204.42193101 166.54658463 208.5142271 158.91505371 207 148 C204.81505867 139.4241053 199.12661362 134.75107575 192 130 C191.62641239 128.06278419 191.62641239 128.06278419 191.62818909 125.64834595 C191.62143158 124.73423447 191.61467407 123.82012299 191.60771179 122.87831116 C191.61543106 121.87255539 191.62315033 120.86679962 191.63110352 119.83056641 C191.6254538 118.2450573 191.6254538 118.2450573 191.61968994 116.6275177 C191.61324137 114.32650262 191.6136025 112.02546091 191.61987495 109.72444534 C191.62894687 106.0852695 191.61880556 102.44661313 191.60325623 98.8074646 C191.56304795 88.45889138 191.56195582 78.11035704 191.56420898 67.76171875 C191.56426 61.43751748 191.54513223 55.11359549 191.51487541 48.78947067 C191.50401404 45.19968673 191.51620352 41.61042778 191.52870178 38.0206604 C191.51979994 35.8231758 191.50972646 33.62569553 191.49829102 31.42822266 C191.50803452 30.42651535 191.51777802 29.42480804 191.52781677 28.39274597 C191.53081425 23.03871523 191.53081425 23.03871523 189.15635681 18.37948608 C186.19101414 16.4824675 184.45429708 16.42428382 181 17 C178.64345273 18.32321058 178.64345273 18.32321058 177 21 C176.38471209 24.44951892 176.43643389 27.87176821 176.45410156 31.36816406 C176.43859505 32.94911865 176.43859505 32.94911865 176.42277527 34.56201172 C176.39327109 38.04670403 176.39184644 41.53081742 176.390625 45.015625 C176.37564856 47.43130608 176.35892256 49.8469769 176.34051514 52.26263428 C176.29676957 58.62154604 176.27682639 64.98031966 176.26177979 71.33935547 C176.24223481 77.82788282 176.20026184 84.31626042 176.16015625 90.8046875 C176.08477594 103.53640767 176.03377022 116.26810497 176 129 C175.30903229 129.20119949 174.61806458 129.40239899 173.90615845 129.60969543 C172.55002945 130.00942818 172.55002945 130.00942818 171.16650391 130.41723633 C170.26928619 130.68031082 169.37206848 130.94338531 168.44766235 131.21443176 C156.78241253 134.95835082 148.65783025 146.16830261 141.33056641 155.33984375 C138.73822448 158.57432542 136.11571291 161.78441592 133.5 165 C132.99057861 165.62777344 132.48115723 166.25554687 131.95629883 166.90234375 C130.927445 168.17022095 129.88385989 169.42629199 128.82559204 170.66972351 C126.91837131 172.99627308 126.91837131 172.99627308 125.37550354 175.77742004 C122.92078762 179.57620207 120.57357899 183.17895463 116.07461166 184.614254 C110.33609413 185.56585421 104.53641193 185.26149909 98.74609375 185.07421875 C96.87570286 185.05367602 95.00525237 185.03803037 93.13478088 185.02705383 C88.23576479 184.98525594 83.34039517 184.87739722 78.44281006 184.75531006 C73.43568246 184.64233216 68.42795945 184.59244923 63.41992188 184.53710938 C53.61168791 184.41949781 43.80614833 184.23202092 34 184 C34.4851004 183.24681488 34.97020081 182.49362976 35.47000122 181.71762085 C36.1039682 180.72847687 36.73793518 179.73933289 37.39111328 178.72021484 C38.02058868 177.74015472 38.65006409 176.7600946 39.2986145 175.75033569 C41.1263859 172.79569378 42.59250066 169.85336041 43.875 166.625 C44.26429688 165.66851562 44.65359375 164.71203125 45.0546875 163.7265625 C47.44465429 156.83318721 47.25514121 149.87603953 47.29516602 142.66503906 C47.30660814 141.23590126 47.32693495 139.80680352 47.35668945 138.37792969 C47.71627816 121.0614234 43.36015267 107.02427673 31.37890625 94.29296875 C22.36276092 85.60252982 11.91966505 82.97991626 0 80 C0 53.6 0 27.2 0 0 Z " fill="#79C29E" transform="translate(112,16)"/>
<path d="M0 0 C2.31740989 1.56862415 3.72994563 3.43900914 4.77734375 6.02734375 C5.41896874 10.2731585 4.32419542 12.72827935 2.015625 16.31640625 C-0.3103565 19.39598789 -2.79907381 22.33078779 -5.31738281 25.25390625 C-8.12146367 28.530585 -10.81837192 31.89389803 -13.53125 35.24609375 C-14.35725708 36.25845093 -14.35725708 36.25845093 -15.19995117 37.29125977 C-19.35686602 42.39054826 -23.36845006 47.58303638 -27.35546875 52.81640625 C-30.93805992 57.47447586 -34.67765657 62.00764115 -38.41601562 66.54101562 C-38.93486328 67.17330078 -39.45371094 67.80558594 -39.98828125 68.45703125 C-40.67047729 69.28340088 -40.67047729 69.28340088 -41.36645508 70.12646484 C-42.95658057 72.06076117 -42.95658057 72.06076117 -43.92048073 73.88680172 C-45.12561633 75.90721615 -46.28294058 77.53738534 -47.96875 79.18359375 C-51.14124059 79.88141258 -53.29530064 80.09518686 -56.45922852 80.0065918 C-57.30209412 80.01094238 -58.14495972 80.01529297 -59.0133667 80.01977539 C-61.79250321 80.02677518 -64.56883688 79.98545935 -67.34765625 79.9453125 C-69.28149098 79.9445401 -71.21533033 79.94742547 -73.14915466 79.95381165 C-78.23610566 79.96340332 -83.32203683 79.93475695 -88.40881348 79.89465332 C-96.55392719 79.83319639 -104.69878229 79.81342184 -112.84409904 79.82447243 C-115.68959675 79.82036028 -118.53399176 79.79003628 -121.37928772 79.75749207 C-123.12207858 79.75361163 -124.86487184 79.75065731 -126.60766602 79.7487793 C-127.39894394 79.73275162 -128.19022186 79.71672394 -129.00547791 79.70021057 C-132.24347561 79.71704421 -134.46144795 79.83665383 -137.17070293 81.68949223 C-139.69634804 85.19285731 -139.52820117 88.40140689 -139.48773193 92.56109619 C-139.49523319 93.41389278 -139.50273444 94.26668937 -139.510463 95.14532828 C-139.53078951 98.00761318 -139.52262782 100.86910966 -139.51464844 103.73144531 C-139.52338075 105.78127834 -139.53386533 107.83110455 -139.54597473 109.88092041 C-139.57389712 115.45080781 -139.57723803 121.02047348 -139.57625484 126.59042072 C-139.57937858 132.40943208 -139.60498553 138.22834277 -139.62823486 144.04730225 C-139.66883975 155.0686167 -139.68914614 166.08987193 -139.70220876 177.11124969 C-139.71806359 189.6577108 -139.75647282 202.2040709 -139.79680204 214.7504735 C-139.87926245 240.5614797 -139.93331619 266.37248319 -139.96875 292.18359375 C-142.95766469 289.22275832 -145.75499276 286.25965058 -148.40625 282.99609375 C-157.57090594 272.68156525 -169.43087533 266.48672841 -181.96875 261.18359375 C-181.1025 260.21421875 -180.23625 259.24484375 -179.34375 258.24609375 C-168.01147054 244.9360108 -164.77733975 232.78018373 -164.67358398 215.44238281 C-164.65641089 213.45223895 -164.61251015 211.46238442 -164.56835938 209.47265625 C-164.47613736 195.31302958 -168.98119955 183.44358149 -178.59375 172.93359375 C-183.3994569 168.39385154 -188.91390307 165.71763008 -194.96875 163.18359375 C-195.78214844 162.84199219 -196.59554687 162.50039063 -197.43359375 162.1484375 C-208.79985881 158.08230274 -221.11876753 159.20501044 -231.96875 164.18359375 C-235.4039369 166.04258153 -238.69155099 168.06190116 -241.96875 170.18359375 C-242.62875 170.51359375 -243.28875 170.84359375 -243.96875 171.18359375 C-243.97239563 170.20275818 -243.97604126 169.22192261 -243.97979736 168.21136475 C-244.01672877 158.97067372 -244.07448092 149.73031651 -244.15265274 140.48987961 C-244.19217246 135.73916994 -244.2243388 130.98864688 -244.23974609 126.23779297 C-244.2548832 121.65344209 -244.28927591 117.06960406 -244.33705902 112.48548126 C-244.35190333 110.73603013 -244.35979276 108.98650579 -244.36063385 107.23699188 C-244.36299617 104.78732033 -244.39001426 102.33907461 -244.42285156 99.88964844 C-244.4178212 99.1653212 -244.41279083 98.44099396 -244.40760803 97.69471741 C-244.47801582 94.30298836 -244.74929623 92.47479886 -246.81536865 89.73321533 C-248.94403831 87.96020541 -248.94403831 87.96020541 -251.96875 87.68359375 C-255.6746032 88.30123595 -256.63706723 89.29458924 -258.96875 92.18359375 C-259.56845266 94.59851821 -259.56845266 94.59851821 -259.48773193 97.25823975 C-259.50860115 98.79365669 -259.50860115 98.79365669 -259.52989197 100.36009216 C-259.5248616 101.47715042 -259.51983124 102.59420868 -259.51464844 103.74511719 C-259.52498611 104.92588333 -259.53532379 106.10664948 -259.54597473 107.32319641 C-259.57040702 110.55648175 -259.5772395 113.78923022 -259.57625484 117.02258968 C-259.57938416 120.40326948 -259.60500264 123.78377703 -259.62823486 127.16436768 C-259.66879726 133.56389747 -259.68913604 139.96332537 -259.70220876 146.36296391 C-259.71807807 153.64958742 -259.75649331 160.93603749 -259.79680204 168.22256041 C-259.87920413 183.20951406 -259.93329422 198.19644999 -259.96875 213.18359375 C-264.17914917 211.87108505 -266.76274797 210.94446325 -269.65625 207.55859375 C-270.21699219 206.92695313 -270.77773438 206.2953125 -271.35546875 205.64453125 C-275.83134643 198.81692122 -276.41285928 192.4937034 -276.38867188 184.55175781 C-276.39714142 183.51647949 -276.40561096 182.48120117 -276.41433716 181.41455078 C-276.43763824 178.00931334 -276.43873075 174.60452973 -276.4375 171.19921875 C-276.44460681 168.8180117 -276.45230657 166.43680634 -276.46057129 164.05560303 C-276.47400115 159.06924682 -276.475592 154.08304889 -276.46972656 149.09667969 C-276.46383871 142.73049137 -276.49439235 136.36506783 -276.53484344 129.99902725 C-276.56079193 125.08140017 -276.56359121 120.16395533 -276.55995178 115.24626923 C-276.561637 112.90049064 -276.57122139 110.55470309 -276.58909607 108.208992 C-276.70413061 91.24405883 -275.79841148 78.16650515 -263.3125 65.50390625 C-255.7311045 58.57726763 -246.68962179 54.85835492 -236.40940857 54.93876648 C-235.66868687 54.93650191 -234.92796517 54.93423733 -234.16479737 54.93190414 C-231.69367944 54.92662563 -229.2228143 54.93542498 -226.75170898 54.9440918 C-224.97570719 54.94297845 -223.19970578 54.94091992 -221.42370605 54.93798828 C-217.60469448 54.93327157 -213.78574442 54.93438036 -209.96673393 54.93976402 C-203.92854762 54.9473764 -197.89047973 54.93671611 -191.85231018 54.92256165 C-174.68416877 54.88482694 -157.51608142 54.86664732 -140.34790039 54.87817383 C-130.86189921 54.88438567 -121.37608942 54.87283534 -111.89013535 54.84172851 C-105.88678432 54.82305296 -99.8839745 54.82641226 -93.88063228 54.84589612 C-90.14803455 54.85276982 -86.41573148 54.83883714 -82.68318939 54.81894684 C-80.9517888 54.81389292 -79.22033898 54.81740159 -77.48897743 54.83008003 C-75.12562578 54.84615725 -72.7643649 54.83157513 -70.40110779 54.80937195 C-69.71550307 54.82140945 -69.02989836 54.83344694 -68.32351774 54.84584922 C-64.56380271 54.77378286 -63.07726968 54.27486941 -60.16096592 51.82197285 C-59.07581904 50.51597519 -59.07581904 50.51597519 -57.96875 49.18359375 C-56.72738281 47.77787109 -56.72738281 47.77787109 -55.4609375 46.34375 C-54.58556812 45.3137176 -53.71329561 44.28104724 -52.84375 43.24609375 C-52.37146973 42.68688232 -51.89918945 42.1276709 -51.41259766 41.55151367 C-47.96190544 37.43775398 -44.63572639 33.23734376 -41.34375 28.99609375 C-37.42638118 23.95145944 -33.35833331 19.12299204 -29.01953125 14.4296875 C-27.07253555 12.29726364 -25.24332248 10.09797393 -23.40625 7.87109375 C-17.19124211 0.84357336 -9.48952033 -3.93513839 0 0 Z " fill="#A8C2E0" transform="translate(299.96875,160.81640625)"/>
<path d="M0 0 C3.56829833 2.79798323 6.8121593 5.77872041 10 9 C10.69609375 9.66257812 11.3921875 10.32515625 12.109375 11.0078125 C24.60794237 23.74860016 30 41.62969583 30 59 C22.08 59 14.16 59 6 59 C5.67 60.98 5.34 62.96 5 65 C1.32316242 67.45122505 -1.72717253 67.70497355 -6 67 C-8.5 65.25 -8.5 65.25 -10 63 C-10 61.68 -10 60.36 -10 59 C-31.12 59 -52.24 59 -74 59 C-74.33 60.98 -74.66 62.96 -75 65 C-78.67683758 67.45122505 -81.72717253 67.70497355 -86 67 C-88.5 65.25 -88.5 65.25 -90 63 C-90 61.68 -90 60.36 -90 59 C-97.92 59 -105.84 59 -114 59 C-114 40.55682003 -108.06028762 23.32640494 -95.05712891 9.95361328 C-93.71729587 8.62299188 -92.3591797 7.31085331 -91 6 C-90.36707031 5.33613281 -89.73414063 4.67226563 -89.08203125 3.98828125 C-65.37522832 -19.2998585 -25.98030616 -18.06900992 0 0 Z " fill="#E2E4E9" transform="translate(290,445)"/>
<path d="M0 0 C15.53358123 12.06646765 27.2366431 28.48055244 30.25 48.25 C30.25 51.88 30.25 55.51 30.25 59.25 C22.33 59.25 14.41 59.25 6.25 59.25 C5.92 61.23 5.59 63.21 5.25 65.25 C1.57316242 67.70122505 -1.47717253 67.95497355 -5.75 67.25 C-8.25 65.5 -8.25 65.5 -9.75 63.25 C-9.75 61.93 -9.75 60.61 -9.75 59.25 C-30.87 59.25 -51.99 59.25 -73.75 59.25 C-74.08 61.23 -74.41 63.21 -74.75 65.25 C-78.42683758 67.70122505 -81.47717253 67.95497355 -85.75 67.25 C-88.25 65.5 -88.25 65.5 -89.75 63.25 C-89.75 61.93 -89.75 60.61 -89.75 59.25 C-97.67 59.25 -105.59 59.25 -113.75 59.25 C-113.75 40.80682003 -107.81028762 23.57640494 -94.80712891 10.20361328 C-93.46729587 8.87299188 -92.1091797 7.56085331 -90.75 6.25 C-90.11707031 5.58613281 -89.48414063 4.92226563 -88.83203125 4.23828125 C-65.53826923 -18.6441119 -25.65960534 -17.8642822 0 0 Z " fill="#F1F2F3" transform="translate(449.75,444.75)"/>
<path d="M0 0 C15.53358123 12.06646765 27.2366431 28.48055244 30.25 48.25 C30.25 51.88 30.25 55.51 30.25 59.25 C22.33 59.25 14.41 59.25 6.25 59.25 C5.92 61.23 5.59 63.21 5.25 65.25 C1.57316242 67.70122505 -1.47717253 67.95497355 -5.75 67.25 C-8.25 65.5 -8.25 65.5 -9.75 63.25 C-9.75 61.93 -9.75 60.61 -9.75 59.25 C-30.87 59.25 -51.99 59.25 -73.75 59.25 C-74.08 61.23 -74.41 63.21 -74.75 65.25 C-78.42683758 67.70122505 -81.47717253 67.95497355 -85.75 67.25 C-88.25 65.5 -88.25 65.5 -89.75 63.25 C-89.75 61.93 -89.75 60.61 -89.75 59.25 C-97.67 59.25 -105.59 59.25 -113.75 59.25 C-113.75 40.80682003 -107.81028762 23.57640494 -94.80712891 10.20361328 C-93.46729587 8.87299188 -92.1091797 7.56085331 -90.75 6.25 C-90.11707031 5.58613281 -89.48414062 4.92226563 -88.83203125 4.23828125 C-65.53826923 -18.6441119 -25.65960534 -17.8642822 0 0 Z " fill="#F1F2F3" transform="translate(129.75,444.75)"/>
<path d="M0 0 C7.40041104 6.25136385 12.99725841 13.58730642 14.61328125 23.28515625 C14.85971966 27.8659236 14.84440576 32.44841148 14.86328125 37.03515625 C14.88390625 38.27265625 14.90453125 39.51015625 14.92578125 40.78515625 C14.97910225 53.31559099 11.96022978 62.67512762 3.42578125 71.97265625 C-2.34470555 77.46656198 -9.40543609 80.85758754 -17.38671875 81.28515625 C-18.14597656 81.33542969 -18.90523437 81.38570313 -19.6875 81.4375 C-29.80779606 81.83097963 -37.91441501 79.16713246 -45.38671875 72.28515625 C-54.86977771 62.91845384 -57.50838062 54.51898401 -57.62109375 41.38085938 C-57.62625 40.13240234 -57.63140625 38.88394531 -57.63671875 37.59765625 C-57.66765625 35.75397461 -57.66765625 35.75397461 -57.69921875 33.87304688 C-57.7530796 21.24941033 -55.44586868 12.43199749 -46.5 3.375 C-33.26465629 -8.87224339 -15.02039044 -10.79206449 0 0 Z " fill="#F7D3C3" transform="translate(129.38671875,118.71484375)"/>
<path d="M0 0 C9.68570743 0.05130987 19.37142806 0.09903556 29.05716479 0.14446676 C29.74977613 0.14771648 30.44238747 0.1509662 31.15598703 0.15431439 C34.63425845 0.17061649 38.11253014 0.1868616 41.59080195 0.20307851 C69.96708652 0.33545088 98.3433163 0.47764804 126.7195183 0.62664449 C126.7195183 5.90664449 126.7195183 11.18664449 126.7195183 16.62664449 C21.1195183 16.62664449 -84.4804817 16.62664449 -193.2804817 16.62664449 C-193.2804817 11.34664449 -193.2804817 6.06664449 -193.2804817 0.62664449 C-128.85050443 -0.53876492 -64.4368035 -0.34217456 0 0 Z " fill="#4CA57E" transform="translate(369.28048169612885,255.37335550785065)"/>
<path d="M0 0 C6.76213482 4.8078299 11.03654302 11.53523475 13.3125 19.4375 C13.76934179 24.13842019 13.728584 28.84146285 13.75 33.5625 C13.78287109 34.81804687 13.81574219 36.07359375 13.84960938 37.3671875 C13.90936171 47.84014231 11.65379399 58.03971889 4.25 65.90625 C-4.59475983 72.89646342 -14.60480527 75.51985396 -25.6875 74.4375 C-35.49049614 71.6838494 -42.46959181 65.6999992 -47.4609375 57 C-51.10930681 49.37792909 -51.05420523 42.44050821 -51.0625 34.125 C-51.08699219 32.84431641 -51.11148437 31.56363281 -51.13671875 30.24414062 C-51.1599833 22.71030248 -50.57285961 16.95948356 -46.6875 10.4375 C-46.00107422 9.24060547 -46.00107422 9.24060547 -45.30078125 8.01953125 C-34.09750287 -7.22096456 -15.91294342 -9.50468533 0 0 Z " fill="#F7D3C3" transform="translate(426.6875,341.5625)"/>
<path d="M0 0 C6.76213482 4.8078299 11.03654302 11.53523475 13.3125 19.4375 C13.76934179 24.13842019 13.728584 28.84146285 13.75 33.5625 C13.78287109 34.81804687 13.81574219 36.07359375 13.84960938 37.3671875 C13.90936171 47.84014231 11.65379399 58.03971889 4.25 65.90625 C-4.59475983 72.89646342 -14.60480527 75.51985396 -25.6875 74.4375 C-35.49049614 71.6838494 -42.46959181 65.6999992 -47.4609375 57 C-51.10930681 49.37792909 -51.05420523 42.44050821 -51.0625 34.125 C-51.08699219 32.84431641 -51.11148438 31.56363281 -51.13671875 30.24414062 C-51.1599833 22.71030248 -50.57285961 16.95948356 -46.6875 10.4375 C-46.00107422 9.24060547 -46.00107422 9.24060547 -45.30078125 8.01953125 C-34.09750287 -7.22096456 -15.91294342 -9.50468533 0 0 Z " fill="#F7D3C3" transform="translate(266.6875,341.5625)"/>
<path d="M0 0 C6.76213482 4.8078299 11.03654302 11.53523475 13.3125 19.4375 C13.76934179 24.13842019 13.728584 28.84146285 13.75 33.5625 C13.78287109 34.81804687 13.81574219 36.07359375 13.84960938 37.3671875 C13.90936171 47.84014231 11.65379399 58.03971889 4.25 65.90625 C-4.59475983 72.89646342 -14.60480527 75.51985396 -25.6875 74.4375 C-35.49049614 71.6838494 -42.46959181 65.6999992 -47.4609375 57 C-51.10930681 49.37792909 -51.05420523 42.44050821 -51.0625 34.125 C-51.08699219 32.84431641 -51.11148438 31.56363281 -51.13671875 30.24414062 C-51.1599833 22.71030248 -50.57285961 16.95948356 -46.6875 10.4375 C-46.00107422 9.24060547 -46.00107422 9.24060547 -45.30078125 8.01953125 C-34.09750287 -7.22096456 -15.91294342 -9.50468533 0 0 Z " fill="#F7D3C3" transform="translate(106.6875,341.5625)"/>
<path d="M0 0 C3.98964728 0.83117652 5.50348869 2.46764746 8 5.625 C8 6.615 8 7.605 8 8.625 C29.12 8.625 50.24 8.625 72 8.625 C72.33 6.975 72.66 5.325 73 3.625 C75.2520473 1.20613438 76.67219394 0.68079678 79.9375 0.125 C84.26750505 0.8319396 85.39957408 2.0840867 88 5.625 C88.7187764 9.49243205 88.65269689 13.26515406 88.5625 17.1875 C88.57345703 18.22841797 88.58441406 19.26933594 88.59570312 20.34179688 C88.52184731 27.99818302 88.52184731 27.99818302 86.08959961 30.91967773 C83.21887385 33.26247706 81.48269629 33.20245428 77.90625 33.015625 C74.91974312 32.40363588 73.66160366 31.11740549 72 28.625 C72 27.305 72 25.985 72 24.625 C50.88 24.625 29.76 24.625 8 24.625 C7.67 26.605 7.34 28.585 7 30.625 C3.78563471 32.76791019 1.82573391 32.92525791 -1.96484375 33.0859375 C-4.93965916 32.41217892 -6.07288969 30.94685233 -8 28.625 C-8.8098909 24.85057479 -8.60304431 21.0392094 -8.5625 17.1875 C-8.59827148 15.63192383 -8.59827148 15.63192383 -8.63476562 14.04492188 C-8.62016267 6.46598598 -8.62016267 6.46598598 -5.65234375 2.44140625 C-3 0.625 -3 0.625 0 0 Z " fill="#C7CDD8" transform="translate(368,479.375)"/>
<path d="M0 0 C3.98964728 0.83117652 5.50348869 2.46764746 8 5.625 C8 6.615 8 7.605 8 8.625 C29.12 8.625 50.24 8.625 72 8.625 C72.33 6.975 72.66 5.325 73 3.625 C75.2520473 1.20613438 76.67219394 0.68079678 79.9375 0.125 C84.26750505 0.8319396 85.39957408 2.0840867 88 5.625 C88.7187764 9.49243205 88.65269689 13.26515406 88.5625 17.1875 C88.57345703 18.22841797 88.58441406 19.26933594 88.59570312 20.34179688 C88.52184731 27.99818302 88.52184731 27.99818302 86.08959961 30.91967773 C83.21887385 33.26247706 81.48269629 33.20245428 77.90625 33.015625 C74.91974312 32.40363588 73.66160366 31.11740549 72 28.625 C72 27.305 72 25.985 72 24.625 C50.88 24.625 29.76 24.625 8 24.625 C7.67 26.605 7.34 28.585 7 30.625 C3.78563471 32.76791019 1.82573391 32.92525791 -1.96484375 33.0859375 C-4.93965916 32.41217892 -6.07288969 30.94685233 -8 28.625 C-8.8098909 24.85057479 -8.60304431 21.0392094 -8.5625 17.1875 C-8.59827148 15.63192383 -8.59827148 15.63192383 -8.63476562 14.04492188 C-8.62016267 6.46598598 -8.62016267 6.46598598 -5.65234375 2.44140625 C-3 0.625 -3 0.625 0 0 Z " fill="#C7CDD8" transform="translate(208,479.375)"/>
<path d="M0 0 C3.98964728 0.83117652 5.50348869 2.46764746 8 5.625 C8 6.615 8 7.605 8 8.625 C29.12 8.625 50.24 8.625 72 8.625 C72.33 6.975 72.66 5.325 73 3.625 C75.2520473 1.20613438 76.67219394 0.68079678 79.9375 0.125 C84.26750505 0.8319396 85.39957408 2.0840867 88 5.625 C88.7187764 9.49243205 88.65269689 13.26515406 88.5625 17.1875 C88.57345703 18.22841797 88.58441406 19.26933594 88.59570312 20.34179688 C88.52184731 27.99818302 88.52184731 27.99818302 86.08959961 30.91967773 C83.21887385 33.26247706 81.48269629 33.20245428 77.90625 33.015625 C74.91974312 32.40363588 73.66160366 31.11740549 72 28.625 C72 27.305 72 25.985 72 24.625 C50.88 24.625 29.76 24.625 8 24.625 C7.67 26.605 7.34 28.585 7 30.625 C3.78563471 32.76791019 1.82573391 32.92525791 -1.96484375 33.0859375 C-4.93965916 32.41217892 -6.07288969 30.94685233 -8 28.625 C-8.8098909 24.85057479 -8.60304431 21.0392094 -8.5625 17.1875 C-8.59827148 15.63192383 -8.59827148 15.63192383 -8.63476562 14.04492188 C-8.62016267 6.46598598 -8.62016267 6.46598598 -5.65234375 2.44140625 C-3 0.625 -3 0.625 0 0 Z " fill="#C7CDD8" transform="translate(48,479.375)"/>
<path d="M0 0 C4.22495712 0.8801994 5.42945074 2.13914702 8 5.625 C8.71926968 9.49230099 8.6526955 13.26521466 8.5625 17.1875 C8.57345703 18.22841797 8.58441406 19.26933594 8.59570312 20.34179688 C8.52184731 27.99818302 8.52184731 27.99818302 6.08959961 30.91967773 C3.81302198 32.77759277 2.88858845 33.17013419 0 33.125 C-0.99 33.14046875 -0.99 33.14046875 -2 33.15625 C-4.90894145 32.38356243 -6.09099299 30.91800408 -8 28.625 C-8.8098909 24.85057479 -8.60304431 21.0392094 -8.5625 17.1875 C-8.59827148 15.63192383 -8.59827148 15.63192383 -8.63476562 14.04492188 C-8.62016267 6.46598598 -8.62016267 6.46598598 -5.65234375 2.44140625 C-3 0.625 -3 0.625 0 0 Z " fill="#020202" transform="translate(448,479.375)"/>
<path d="M0 0 C4.22495712 0.8801994 5.42945074 2.13914702 8 5.625 C8.71926968 9.49230099 8.6526955 13.26521466 8.5625 17.1875 C8.57345703 18.22841797 8.58441406 19.26933594 8.59570312 20.34179688 C8.52184731 27.99818302 8.52184731 27.99818302 6.08959961 30.91967773 C3.81302198 32.77759277 2.88858845 33.17013419 0 33.125 C-0.99 33.14046875 -0.99 33.14046875 -2 33.15625 C-4.90894145 32.38356243 -6.09099299 30.91800408 -8 28.625 C-8.8098909 24.85057479 -8.60304431 21.0392094 -8.5625 17.1875 C-8.59827148 15.63192383 -8.59827148 15.63192383 -8.63476562 14.04492188 C-8.62016267 6.46598598 -8.62016267 6.46598598 -5.65234375 2.44140625 C-3 0.625 -3 0.625 0 0 Z " fill="#020202" transform="translate(368,479.375)"/>
<path d="M0 0 C4.22495712 0.8801994 5.42945074 2.13914702 8 5.625 C8.71926968 9.49230099 8.6526955 13.26521466 8.5625 17.1875 C8.57345703 18.22841797 8.58441406 19.26933594 8.59570312 20.34179688 C8.52184731 27.99818302 8.52184731 27.99818302 6.08959961 30.91967773 C3.81302198 32.77759277 2.88858845 33.17013419 0 33.125 C-0.99 33.14046875 -0.99 33.14046875 -2 33.15625 C-4.90894145 32.38356243 -6.09099299 30.91800408 -8 28.625 C-8.8098909 24.85057479 -8.60304431 21.0392094 -8.5625 17.1875 C-8.59827148 15.63192383 -8.59827148 15.63192383 -8.63476562 14.04492188 C-8.62016267 6.46598598 -8.62016267 6.46598598 -5.65234375 2.44140625 C-3 0.625 -3 0.625 0 0 Z " fill="#020202" transform="translate(288,479.375)"/>
<path d="M0 0 C4.22495712 0.8801994 5.42945074 2.13914702 8 5.625 C8.71926968 9.49230099 8.6526955 13.26521466 8.5625 17.1875 C8.57345703 18.22841797 8.58441406 19.26933594 8.59570312 20.34179688 C8.52184731 27.99818302 8.52184731 27.99818302 6.08959961 30.91967773 C3.81302198 32.77759277 2.88858845 33.17013419 0 33.125 C-0.99 33.14046875 -0.99 33.14046875 -2 33.15625 C-4.90894145 32.38356243 -6.09099299 30.91800408 -8 28.625 C-8.8098909 24.85057479 -8.60304431 21.0392094 -8.5625 17.1875 C-8.59827148 15.63192383 -8.59827148 15.63192383 -8.63476562 14.04492188 C-8.62016267 6.46598598 -8.62016267 6.46598598 -5.65234375 2.44140625 C-3 0.625 -3 0.625 0 0 Z " fill="#020202" transform="translate(208,479.375)"/>
<path d="M0 0 C4.22495712 0.8801994 5.42945074 2.13914702 8 5.625 C8.71926968 9.49230099 8.6526955 13.26521466 8.5625 17.1875 C8.57345703 18.22841797 8.58441406 19.26933594 8.59570312 20.34179688 C8.52184731 27.99818302 8.52184731 27.99818302 6.08959961 30.91967773 C3.81302198 32.77759277 2.88858845 33.17013419 0 33.125 C-0.99 33.14046875 -0.99 33.14046875 -2 33.15625 C-4.90894145 32.38356243 -6.09099299 30.91800408 -8 28.625 C-8.8098909 24.85057479 -8.60304431 21.0392094 -8.5625 17.1875 C-8.59827148 15.63192383 -8.59827148 15.63192383 -8.63476562 14.04492188 C-8.62016267 6.46598598 -8.62016267 6.46598598 -5.65234375 2.44140625 C-3 0.625 -3 0.625 0 0 Z " fill="#020202" transform="translate(128,479.375)"/>
<path d="M0 0 C4.22495712 0.8801994 5.42945074 2.13914702 8 5.625 C8.71926968 9.49230099 8.6526955 13.26521466 8.5625 17.1875 C8.57345703 18.22841797 8.58441406 19.26933594 8.59570312 20.34179688 C8.52184731 27.99818302 8.52184731 27.99818302 6.08959961 30.91967773 C3.81302198 32.77759277 2.88858845 33.17013419 0 33.125 C-0.99 33.14046875 -0.99 33.14046875 -2 33.15625 C-4.90894145 32.38356243 -6.09099299 30.91800408 -8 28.625 C-8.8098909 24.85057479 -8.60304431 21.0392094 -8.5625 17.1875 C-8.59827148 15.63192383 -8.59827148 15.63192383 -8.63476562 14.04492188 C-8.62016267 6.46598598 -8.62016267 6.46598598 -5.65234375 2.44140625 C-3 0.625 -3 0.625 0 0 Z " fill="#020202" transform="translate(48,479.375)"/>
<path d="M0 0 C0.66 0 1.32 0 2 0 C2 0.66 2 1.32 2 2 C2.58394531 2.27972656 3.16789062 2.55945313 3.76953125 2.84765625 C5.85878008 3.9270405 7.73873134 5.12606449 9.6875 6.4375 C18.64036093 12.08930606 29.37861747 14.33689997 39.828125 12.50390625 C48.82474699 10.46236511 57.06453225 7.24192097 64 1 C64.495 1.99 64.495 1.99 65 3 C59.73837167 11.62907046 53.51102385 17.30984627 44 21 C40.5 21.8125 40.5 21.8125 37 22 C36.24074219 22.05027344 35.48148438 22.10054687 34.69921875 22.15234375 C24.58801221 22.54546998 16.4600311 19.88855874 9 13 C5.12353525 9.10059759 1.52284717 5.41456771 0 0 Z " fill="#E5B099" transform="translate(75,178)"/>
<path d="M0 0 C0.33 0.66 0.66 1.32 1 2 C2.99706975 2.67539385 4.99765679 3.34040459 7 4 C16.33650966 8.94713759 29.77464623 16.55617126 35 26 C35.29296875 29.234375 35.29296875 29.234375 35.1875 32.75 C35.14689453 34.50570312 35.14689453 34.50570312 35.10546875 36.296875 C35.07066406 37.18890625 35.03585938 38.0809375 35 39 C32.67313125 36.7458459 30.4304911 34.5269626 28.37890625 32.015625 C18.88229713 20.49715716 6.55580754 13.7336889 -7 8 C-6.02133662 6.85373678 -5.04205413 5.70800212 -4.0625 4.5625 C-3.51722656 3.92441406 -2.97195312 3.28632813 -2.41015625 2.62890625 C-1.63204305 1.73008851 -0.84063472 0.84063472 0 0 Z " fill="#5A8BC5" transform="translate(125,414)"/>
<path d="M0 0 C0.68964844 0.47050781 1.37929688 0.94101562 2.08984375 1.42578125 C7.9023082 5.27683795 13.23157035 8.27687636 20 10 C20.845625 10.226875 21.69125 10.45375 22.5625 10.6875 C36.06329857 12.41837161 47.12643602 7.72595335 58 0 C56.64939924 5.53746312 54.29959713 9.33342195 50 13 C40.86745479 18.51165787 32.67049419 21.04209778 22 20 C12.91199393 17.44718931 5.56834239 11.80679169 0.8125 3.734375 C0 2 0 2 0 0 Z " fill="#E4AF97" transform="translate(379,396)"/>
<path d="M0 0 C0.68964844 0.47050781 1.37929687 0.94101562 2.08984375 1.42578125 C7.9023082 5.27683795 13.23157035 8.27687636 20 10 C20.845625 10.226875 21.69125 10.45375 22.5625 10.6875 C36.06329857 12.41837161 47.12643602 7.72595335 58 0 C56.64939924 5.53746312 54.29959713 9.33342195 50 13 C40.86745479 18.51165787 32.67049419 21.04209778 22 20 C12.91199393 17.44718931 5.56834239 11.80679169 0.8125 3.734375 C0 2 0 2 0 0 Z " fill="#E4AF97" transform="translate(219,396)"/>
<path d="M0 0 C0.68964844 0.47050781 1.37929688 0.94101562 2.08984375 1.42578125 C7.9023082 5.27683795 13.23157035 8.27687636 20 10 C20.845625 10.226875 21.69125 10.45375 22.5625 10.6875 C36.06329857 12.41837161 47.12643602 7.72595335 58 0 C56.64939924 5.53746312 54.29959713 9.33342195 50 13 C40.86745479 18.51165787 32.67049419 21.04209778 22 20 C12.91199393 17.44718931 5.56834239 11.80679169 0.8125 3.734375 C0 2 0 2 0 0 Z " fill="#E4AF97" transform="translate(59,396)"/>
<path d="M0 0 C7.59 0 15.18 0 23 0 C24 5 24 5 24 16 C16.08 16 8.16 16 0 16 C0 10.72 0 5.44 0 0 Z " fill="#C4CAD5" transform="translate(456,488)"/>
<path d="M0 0 C7.59 0 15.18 0 23 0 C23 5.28 23 10.56 23 16 C15.08 16 7.16 16 -1 16 C-1 5 -1 5 0 0 Z " fill="#C4CAD5" transform="translate(337,488)"/>
<path d="M0 0 C7.59 0 15.18 0 23 0 C24 5 24 5 24 16 C16.08 16 8.16 16 0 16 C0 10.72 0 5.44 0 0 Z " fill="#C4CAD5" transform="translate(296,488)"/>
<path d="M0 0 C7.59 0 15.18 0 23 0 C23 5.28 23 10.56 23 16 C15.08 16 7.16 16 -1 16 C-1 5 -1 5 0 0 Z " fill="#C4CAD5" transform="translate(177,488)"/>
<path d="M0 0 C7.59 0 15.18 0 23 0 C24 5 24 5 24 16 C16.08 16 8.16 16 0 16 C0 10.72 0 5.44 0 0 Z " fill="#C4CAD5" transform="translate(136,488)"/>
<path d="M0 0 C7.59 0 15.18 0 23 0 C23 5.28 23 10.56 23 16 C15.08 16 7.16 16 -1 16 C-1 5 -1 5 0 0 Z " fill="#C4CAD5" transform="translate(17,488)"/>
<path d="M0 0 C3.62819486 3.62819486 6.79441627 7.06171141 10 11 C6.7 12.32 3.4 13.64 0 15 C0 10.05 0 5.1 0 0 Z " fill="#5D8BC1" transform="translate(48,411)"/>
</svg>
