<?xml version="1.0" encoding="UTF-8"?>
<svg version="1.1" xmlns="http://www.w3.org/2000/svg" width="512" height="512">
<path d="M0 0 C0.93782822 -0.0065712 1.87565643 -0.0131424 2.84190369 -0.01991272 C5.93504946 -0.03955836 9.02814654 -0.05129739 12.12133789 -0.0612793 C13.18821901 -0.06535482 14.25510014 -0.06943035 15.35431099 -0.07362938 C21.01647875 -0.09446675 26.67862255 -0.10877087 32.34082031 -0.11816406 C38.12168531 -0.12914109 43.90215606 -0.16344571 49.68288326 -0.20333576 C54.18319793 -0.22980693 58.68342366 -0.2378832 63.18380928 -0.24144554 C65.31034529 -0.24624411 67.43687923 -0.25765883 69.56333733 -0.27648354 C122.96562956 -0.71932773 170.19377927 20.66836761 208.40649414 57.17700195 C209.13352539 57.85118164 209.86055664 58.52536133 210.60961914 59.2199707 C243.46151215 90.53610449 263.84536316 139.3177376 265.78930664 184.2668457 C265.8424032 186.61162201 265.88179519 188.95675461 265.90649414 191.30200195 C265.92502441 192.39859131 265.94355469 193.49518066 265.96264648 194.625 C265.91504736 200.59308961 265.66440207 204.61287462 261.40649414 209.17700195 C257.25962224 212.2708877 254.18175144 212.55328736 249.06131077 212.55731869 C248.32796169 212.56197861 247.59461262 212.56663853 246.83904085 212.57143965 C244.37424802 212.58341931 241.91000341 212.57398299 239.44520569 212.56468201 C237.66324939 212.56885363 235.88129575 212.5743302 234.09934705 212.58100182 C229.19669489 212.59549767 224.29421025 212.5911988 219.39154875 212.58383501 C214.10652105 212.57911587 208.82153026 212.59160204 203.53651428 212.60185242 C193.18052559 212.61907029 182.82459749 212.61987425 172.46859819 212.61463951 C164.0534299 212.61060221 155.63827954 212.61203613 147.22311211 212.61738777 C145.4282927 212.6185104 145.4282927 212.6185104 143.59721432 212.61965572 C141.16663237 212.62118715 138.73605043 212.6227255 136.30546849 212.62427069 C113.49927567 212.63800649 90.69311714 212.6325504 67.88692509 212.62108547 C47.01084834 212.61115147 26.1348602 212.62409476 5.25879712 212.64801966 C-16.16417448 212.67238685 -37.58710476 212.68202443 -59.01008993 212.67536694 C-71.04252388 212.67186948 -83.07488966 212.67414148 -95.10731316 212.69161797 C-105.35005274 212.70631017 -115.59267615 212.70701447 -125.83541339 212.68954705 C-131.06347716 212.68101017 -136.29133313 212.67895295 -141.51938629 212.69419861 C-146.30298062 212.70797573 -151.08618775 212.70337287 -155.86975927 212.68395937 C-157.60254378 212.68017754 -159.33535879 212.68318372 -161.0681163 212.69357102 C-163.42004108 212.70667018 -165.77061542 212.69522227 -168.12248135 212.6775732 C-170.08346851 212.6774122 -170.08346851 212.6774122 -172.08407158 212.67724794 C-177.16884377 211.95244825 -180.34223022 209.81346352 -183.44140625 205.76025391 C-184.71025945 202.9152156 -184.99385154 200.94968124 -185.02709961 197.8449707 C-185.03854004 196.81138428 -185.04998047 195.77779785 -185.06176758 194.71289062 C-185.05161621 193.60792236 -185.04146484 192.5029541 -185.03100586 191.36450195 C-185.02343262 190.21248291 -185.01585937 189.06046387 -185.00805664 187.87353516 C-184.03596209 135.97291067 -158.76220438 86.92327874 -121.93725586 51.27075195 C-92.82084368 23.86304941 -55.78847144 7.41831404 -16.59350586 1.17700195 C-15.58644089 1.00770172 -14.57937592 0.83840149 -13.54179382 0.66397095 C-8.99940993 0.10372809 -4.57120693 0.01409254 0 0 Z " fill="#43A4EC" transform="translate(215.593505859375,299.822998046875)"/>
<path d="M0 0 C0.79841309 0.22042969 1.59682617 0.44085938 2.41943359 0.66796875 C25.58400493 7.2652247 44.51441228 18.49870033 62 35 C62.73734375 35.67289063 63.4746875 36.34578125 64.234375 37.0390625 C81.86358538 53.73054892 92.61255006 75.86417074 99 99 C99.28810547 100.0216626 99.28810547 100.0216626 99.58203125 101.06396484 C104.71348695 120.28244158 104.38713665 145.89645419 99 165 C98.77957031 165.79841309 98.55914062 166.59682617 98.33203125 167.41943359 C91.7347753 190.58400493 80.50129967 209.51441228 64 227 C63.32710937 227.73734375 62.65421875 228.4746875 61.9609375 229.234375 C45.26945108 246.86358538 23.13582926 257.61255006 0 264 C-1.0216626 264.28810547 -1.0216626 264.28810547 -2.06396484 264.58203125 C-21.28244158 269.71348695 -46.89645419 269.38713665 -66 264 C-66.79841309 263.77957031 -67.59682617 263.55914062 -68.41943359 263.33203125 C-91.58400493 256.7347753 -110.51441228 245.50129967 -128 229 C-128.73734375 228.32710937 -129.4746875 227.65421875 -130.234375 226.9609375 C-147.86358538 210.26945108 -158.61255006 188.13582926 -165 165 C-165.19207031 164.3188916 -165.38414062 163.6377832 -165.58203125 162.93603516 C-170.71348695 143.71755842 -170.38713665 118.10354581 -165 99 C-164.66935547 97.80238037 -164.66935547 97.80238037 -164.33203125 96.58056641 C-157.7347753 73.41599507 -146.50129967 54.48558772 -130 37 C-129.32710937 36.26265625 -128.65421875 35.5253125 -127.9609375 34.765625 C-111.26945108 17.13641462 -89.13582926 6.38744994 -66 0 C-64.9783374 -0.28810547 -64.9783374 -0.28810547 -63.93603516 -0.58203125 C-44.71755842 -5.71348695 -19.10354581 -5.38713665 0 0 Z " fill="#44A4EC" transform="translate(289,3)"/>
<path d="M0 0 C0 69.96 0 139.92 0 212 C-53.92545978 212.16121214 -53.92545978 212.16121214 -76.48828125 212.1953125 C-92.07964325 212.21906545 -107.67091891 212.24701913 -123.26220703 212.30175781 C-134.61625557 212.34160121 -145.97023421 212.36742706 -157.32435071 212.37635398 C-163.33742194 212.38157291 -169.35029315 212.39385603 -175.36330032 212.42292023 C-181.02182217 212.45004967 -186.68006141 212.45844989 -192.33864212 212.45243073 C-194.41633642 212.45353206 -196.49404007 212.46150047 -198.57167816 212.4768219 C-201.40755924 212.49671087 -204.24237201 212.49194295 -207.07827759 212.48101807 C-207.90124537 212.49266943 -208.72421315 212.5043208 -209.57211936 212.51632524 C-214.84046863 212.46143203 -217.81045091 211.47394782 -222 208 C-224.65454418 204.5282953 -225.38717617 202.00245045 -225.43359375 197.66796875 C-225.44503418 196.63438232 -225.45647461 195.6007959 -225.46826172 194.53588867 C-225.45811035 193.43092041 -225.44795898 192.32595215 -225.4375 191.1875 C-225.42992676 190.03548096 -225.42235352 188.88346191 -225.41455078 187.6965332 C-224.44245624 135.79590871 -199.16869852 86.74627679 -162.34375 51.09375 C-115.69189084 7.179676 -62.08818542 0 0 0 Z " fill="#44C1F1" transform="translate(256,300)"/>
<path d="M0 0 C0 89.1 0 178.2 0 270 C-37.05783007 270 -68.03649712 257.44568981 -95 232 C-95.73734375 231.32710937 -96.4746875 230.65421875 -97.234375 229.9609375 C-114.86358538 213.26945108 -125.61255006 191.13582926 -132 168 C-132.19207031 167.3188916 -132.38414062 166.6377832 -132.58203125 165.93603516 C-137.71348695 146.71755842 -137.38713665 121.10354581 -132 102 C-131.66935547 100.80238037 -131.66935547 100.80238037 -131.33203125 99.58056641 C-124.7347753 76.41599507 -113.50129967 57.48558772 -97 40 C-96.32710937 39.26265625 -95.65421875 38.5253125 -94.9609375 37.765625 C-70.21808753 11.63272728 -35.19493491 0 0 0 Z " fill="#45C1F1" transform="translate(256,0)"/>
</svg>
