<?xml version="1.0" encoding="UTF-8"?>
<svg version="1.1" xmlns="http://www.w3.org/2000/svg" width="512" height="512">
<path d="M0 0 C1.97323242 -0.0299707 1.97323242 -0.0299707 3.98632812 -0.06054688 C12.85507079 -0.05615858 20.2777233 1.29763985 28.5625 4.4375 C29.32763916 4.72520264 30.09277832 5.01290527 30.88110352 5.30932617 C32.81989216 6.07751664 34.72348543 6.89409141 36.625 7.75 C37.29418457 8.04849854 37.96336914 8.34699707 38.65283203 8.65454102 C57.79538759 17.36712148 73.77181066 29.37121097 81.5625 49.4375 C90.04129653 79.99829126 79.14422092 115.42508843 64.5625 142.4375 C59.80875268 150.60666488 59.80875268 150.60666488 55.5625 153.4375 C54.56615968 156.63054875 54.56615968 156.63054875 53.8125 160.375 C51.59614525 169.43328603 47.79598778 176.20291182 41.21875 182.91015625 C40.62827881 183.51593506 40.03780762 184.12171387 39.42944336 184.74584961 C38.25293216 185.93031988 37.0537801 187.09284632 35.83032227 188.22875977 C32.65113532 191.37727483 31.18004233 193.43640362 31.11328125 198 C32.24390399 213.47529656 39.14161625 226.05640303 50.5625 236.4375 C54.03567505 238.89156467 57.72049427 240.62773561 61.5625 242.4375 C64.22190809 243.75543202 66.87476591 245.08609887 69.52783203 246.41674805 C71.46214408 247.3861763 73.39801271 248.3525051 75.33544922 249.31567383 C82.49512071 252.87712315 89.56420448 256.56863096 96.5625 260.4375 C104.66353764 251.5667907 104.66353764 251.5667907 110.6796875 241.27734375 C112.85962066 236.73420872 115.9865187 232.65274532 119.96875 229.58203125 C122.93540533 227.12917918 124.89414375 224.50595826 127.125 221.375 C130.77974855 216.25075116 133.10328597 213.05230351 139.3125 211.5 C146.157211 210.87653542 151.71926212 215.28696354 156.78637695 219.44628906 C157.66555786 220.18443848 157.66555786 220.18443848 158.5625 220.9375 C159.86671742 222.00737232 161.17277047 223.07501011 162.48046875 224.140625 C163.14868652 224.68525391 163.8169043 225.22988281 164.50537109 225.79101562 C167.89911224 228.50729741 171.38490204 231.09695025 174.875 233.6875 C194.97250373 248.64631372 194.97250373 248.64631372 196.21484375 252.41796875 C197.00983699 258.57099864 196.10356646 262.35406181 192.5625 267.4375 C190.29447348 270.28861844 187.97910673 273.07724211 185.5859375 275.82421875 C183.62413564 278.35789721 182.67205124 280.46428694 181.5625 283.4375 C180.23046875 285.5 180.23046875 285.5 178.75 287.4375 C178.26917969 288.076875 177.78835938 288.71625 177.29296875 289.375 C175.5625 291.4375 175.5625 291.4375 173.1640625 293.82421875 C170.494508 296.50579827 168.12589114 299.30673187 165.75 302.25 C164.95980469 303.22582031 164.16960937 304.20164062 163.35546875 305.20703125 C162.76378906 305.94308594 162.17210937 306.67914063 161.5625 307.4375 C162.91063907 311.01969811 164.5282975 314.24859928 166.4375 317.5625 C174.83798447 332.80249872 176.33244648 347.60149306 172.70703125 364.5625 C170.35507125 370.47049509 165.08466186 373.7280942 159.9375 377.125 C159.29071289 377.55216309 158.64392578 377.97932617 157.97753906 378.41943359 C114.4985169 406.53778844 59.11087743 420.92172969 7.5625 421.4375 C5.72265281 421.47640019 3.88280913 421.51546672 2.04296875 421.5546875 C-55.30826007 422.44950163 -140.54736655 417.22279943 -184.86328125 376.1015625 C-186.6213536 374.24315352 -187.4097906 373.17316495 -187.50683594 370.59667969 C-186.33745128 339.80288367 -177.60050242 316.48711873 -155 295.125 C-133.50253443 276.28154252 -107.3980343 261.42625371 -82.23046875 248.12890625 C-81.23571533 247.60103516 -80.24096191 247.07316406 -79.21606445 246.52929688 C-77.34037581 245.54137846 -75.45776741 244.56643889 -73.56713867 243.60742188 C-65.29183685 239.25753344 -60.64516452 233.63754167 -56.375 225.4375 C-56.03847412 224.7995752 -55.70194824 224.16165039 -55.35522461 223.50439453 C-50.48392077 213.96247291 -44.79101768 201.2311063 -46.4375 190.4375 C-48.17636667 188.36639329 -50.02903344 186.65301702 -52.1015625 184.91796875 C-59.76144496 176.78414707 -63.0736155 166.10460466 -66.8125 155.8125 C-70.55410815 145.52537023 -74.64949922 135.70602094 -79.65283203 125.96533203 C-90.13382288 105.2470943 -97.36269606 78.11129986 -90.46875 55.1953125 C-82.48537167 33.84582349 -66.157756 19.63179115 -46.08984375 9.796875 C-40.00898216 7.19191236 -33.80902946 5.18895969 -27.4375 3.4375 C-26.58921631 3.18170166 -25.74093262 2.92590332 -24.86694336 2.66235352 C-16.52719922 0.30962921 -8.6326134 -0.04638923 0 0 Z M56.5625 146.4375 C57.5625 149.4375 57.5625 149.4375 57.5625 149.4375 Z " fill="#4B9BC4" transform="translate(250.4375,45.5625)"/>
<path d="M0 0 C1.97323242 -0.0299707 1.97323242 -0.0299707 3.98632812 -0.06054688 C12.85507079 -0.05615858 20.2777233 1.29763985 28.5625 4.4375 C29.32763916 4.72520264 30.09277832 5.01290527 30.88110352 5.30932617 C32.81989216 6.07751664 34.72348543 6.89409141 36.625 7.75 C37.29418457 8.04849854 37.96336914 8.34699707 38.65283203 8.65454102 C57.79538759 17.36712148 73.77181066 29.37121097 81.5625 49.4375 C90.04129653 79.99829126 79.14422092 115.42508843 64.5625 142.4375 C59.80875268 150.60666488 59.80875268 150.60666488 55.5625 153.4375 C54.56615968 156.63054875 54.56615968 156.63054875 53.8125 160.375 C51.59614525 169.43328603 47.79598778 176.20291182 41.21875 182.91015625 C40.62827881 183.51593506 40.03780762 184.12171387 39.42944336 184.74584961 C38.25293216 185.93031988 37.0537801 187.09284632 35.83032227 188.22875977 C32.65113532 191.37727483 31.18004233 193.43640362 31.11328125 198 C32.2429065 213.46164349 39.13384047 226.07662764 50.5625 236.4375 C54.05471925 238.86373182 57.71920178 240.63210724 61.5625 242.4375 C63.13096073 243.21985299 64.69719432 244.00667972 66.26171875 244.796875 C70.68554907 247.0304756 75.12120605 249.23883963 79.5625 251.4375 C78.21510569 254.65735743 77.0550934 256.07796041 73.9921875 257.734375 C73.26878174 258.13172852 72.54537598 258.52908203 71.80004883 258.93847656 C70.63058716 259.55674316 70.63058716 259.55674316 69.4375 260.1875 C68.63143311 260.62288086 67.82536621 261.05826172 66.99487305 261.50683594 C64.52516977 262.83233776 62.04598538 264.13803089 59.5625 265.4375 C58.84562012 265.81519531 58.12874023 266.19289063 57.39013672 266.58203125 C48.04351822 271.47904499 38.55708402 276.0140071 28.5625 279.4375 C27.85770508 279.68161621 27.15291016 279.92573242 26.42675781 280.17724609 C15.5135847 283.79984644 5.04814234 284.89222919 -6.4375 284.9375 C-7.64164551 284.94378418 -8.84579102 284.95006836 -10.08642578 284.95654297 C-17.93102562 284.84504942 -24.92978929 283.67671513 -32.4375 281.4375 C-33.12521484 281.24430176 -33.81292969 281.05110352 -34.52148438 280.85205078 C-44.76432718 277.90377306 -54.08324258 273.48362831 -63.4375 268.4375 C-64.06076172 268.10314941 -64.68402344 267.76879883 -65.32617188 267.42431641 C-73.49445899 263.00522986 -81.06988503 258.09101679 -88.4375 252.4375 C-83.69275013 248.27527388 -78.41182984 245.75493094 -72.76367188 243.05664062 C-64.83268006 239.05942075 -60.41555201 233.19661436 -56.375 225.4375 C-56.03847412 224.7995752 -55.70194824 224.16165039 -55.35522461 223.50439453 C-50.48392077 213.96247291 -44.79101768 201.2311063 -46.4375 190.4375 C-48.17636667 188.36639329 -50.02903344 186.65301702 -52.1015625 184.91796875 C-59.76144496 176.78414707 -63.0736155 166.10460466 -66.8125 155.8125 C-70.55410815 145.52537023 -74.64949922 135.70602094 -79.65283203 125.96533203 C-90.13382288 105.2470943 -97.36269606 78.11129986 -90.46875 55.1953125 C-82.48537167 33.84582349 -66.157756 19.63179115 -46.08984375 9.796875 C-40.00898216 7.19191236 -33.80902946 5.18895969 -27.4375 3.4375 C-26.16507446 3.05380249 -26.16507446 3.05380249 -24.86694336 2.66235352 C-16.52719922 0.30962921 -8.6326134 -0.04638923 0 0 Z M56.5625 146.4375 C57.5625 149.4375 57.5625 149.4375 57.5625 149.4375 Z " fill="#F0D4B4" transform="translate(250.4375,45.5625)"/>
<path d="M0 0 C3.32152627 1.9535171 6.30445189 4.27737692 9.31884766 6.67236328 C11.15862395 8.12526823 13.01988366 9.54688504 14.88671875 10.96484375 C17.760456 13.14784981 20.62739706 15.33923761 23.48828125 17.5390625 C26.56030664 19.89967856 29.64156131 22.24745698 32.73046875 24.5859375 C33.49794434 25.16835205 34.26541992 25.7507666 35.05615234 26.35083008 C36.52479108 27.46494241 37.99508617 28.57687578 39.46728516 29.6862793 C48.4693807 36.52974236 48.4693807 36.52974236 49.75 40.078125 C50.45120417 46.16983624 49.50153294 49.97331482 46 55 C43.73197348 57.85111844 41.41660673 60.63974211 39.0234375 63.38671875 C37.06163564 65.92039721 36.10955124 68.02678694 35 71 C33.66796875 73.0625 33.66796875 73.0625 32.1875 75 C31.70667969 75.639375 31.22585938 76.27875 30.73046875 76.9375 C28.62751777 79.44395173 26.31337087 81.68662913 24 84 C22.24515762 85.98396927 20.51669419 87.97389216 18.8125 90 C18.3369165 90.56396484 17.86133301 91.12792969 17.37133789 91.70898438 C12.82144212 97.14502759 8.50035627 102.74289339 4.22070312 108.39257812 C2.22355131 111.02242763 0.20403933 113.63500384 -1.8125 116.25 C-7.89424074 124.15192918 -13.94563594 132.07709161 -20 140 C-21.12237255 141.46876779 -22.24476831 142.93751785 -23.3671875 144.40625 C-23.91769775 145.12675537 -24.46820801 145.84726074 -25.03540039 146.58959961 C-26.12992602 148.02087747 -27.22545412 149.45138932 -28.32202148 150.88110352 C-30.83237224 154.15499222 -33.33101439 157.43561454 -35.79296875 160.74609375 C-36.2310083 161.3297168 -36.66904785 161.91333984 -37.12036133 162.51464844 C-38.28076829 164.06185772 -39.4336897 165.61467357 -40.5859375 167.16796875 C-45.6958389 173.16259418 -51.15764243 176.944936 -58.33984375 180.0859375 C-59.10680069 180.43258453 -59.87375763 180.77923157 -60.66395569 181.13638306 C-63.08366682 182.22702533 -65.51026763 183.30121692 -67.9375 184.375 C-69.59228252 185.11740806 -71.24658453 185.86088813 -72.90039062 186.60546875 C-76.92815064 188.41607369 -80.96216805 190.21197619 -85 192 C-86.12014273 191.04579693 -87.23944719 190.09060975 -88.35839844 189.13500977 C-88.98180115 188.60319595 -89.60520386 188.07138214 -90.24749756 187.52345276 C-92.3138514 185.72716855 -94.27380583 183.83200111 -96.25 181.9375 C-101.97172363 176.81444728 -108.56532291 173.78562114 -116 172 C-114.59910131 161.33635319 -113.17794917 150.67686816 -111.4375 140.0625 C-111.32301514 139.34916504 -111.20853027 138.63583008 -111.09057617 137.90087891 C-109.63284478 129.21234522 -107.46309801 123.66664361 -102 116.875 C-101.41549072 116.13000244 -100.83098145 115.38500488 -100.22875977 114.61743164 C-99.04480427 113.10874146 -97.85677881 111.60323566 -96.66455078 110.10107422 C-94.39362756 107.23460821 -92.16460128 104.33816362 -89.9375 101.4375 C-89.13699219 100.39851563 -88.33648437 99.35953125 -87.51171875 98.2890625 C-84.72551553 94.65430868 -81.98943444 90.982545 -79.25 87.3125 C-71.16358195 76.48978872 -62.91921287 65.77836669 -54.375 55.3125 C-52.31683793 52.76802116 -50.53036911 50.3281972 -49 47.4375 C-47.19411081 44.33362796 -45.42263854 42.17218049 -43 39.5625 C-39.90513357 36.19354946 -37.86461305 33.12162396 -35.98828125 28.98046875 C-33.7033369 24.40154866 -30.64714975 20.27012359 -26.59375 17.14453125 C-23.62709467 14.69167918 -21.66835625 12.06845826 -19.4375 8.9375 C-14.21625054 1.61689201 -9.4237045 -2.97342262 0 0 Z " fill="#ECBA3F" transform="translate(397,258)"/>
<path d="M0 0 C1.97323242 -0.0299707 1.97323242 -0.0299707 3.98632812 -0.06054688 C12.85507079 -0.05615858 20.2777233 1.29763985 28.5625 4.4375 C29.32763916 4.72520264 30.09277832 5.01290527 30.88110352 5.30932617 C32.81989216 6.07751664 34.72348543 6.89409141 36.625 7.75 C37.29418457 8.04849854 37.96336914 8.34699707 38.65283203 8.65454102 C57.79538759 17.36712148 73.77181066 29.37121097 81.5625 49.4375 C90.03554244 79.97755134 79.16260039 115.44875183 64.5625 142.4375 C59.57991522 150.92879239 59.57991522 150.92879239 56.5625 152.4375 C56.7790625 151.14199219 56.995625 149.84648437 57.21875 148.51171875 C61.07222942 124.74271072 61.07222942 124.74271072 56.5625 101.4375 C56.14484375 100.33535156 56.14484375 100.33535156 55.71875 99.2109375 C52.36574996 91.49325638 46.06312448 87.0478774 38.6015625 83.53125 C29.98115925 80.42879125 20.63358376 79.5982873 11.55908203 78.77783203 C-7.15068313 77.03306433 -19.71967609 68.02244827 -32.4375 54.4375 C-36.64633306 55.92351557 -40.04010009 58.03220199 -43.7265625 60.53515625 C-44.60421768 61.12664711 -44.60421768 61.12664711 -45.49960327 61.73008728 C-47.35693128 62.98231204 -49.21006676 64.2405478 -51.0625 65.5 C-52.9223511 66.76259162 -54.78310828 68.02373761 -56.64682007 69.28062439 C-58.3329122 70.41791914 -60.01542678 71.56051242 -61.69775391 72.70336914 C-64.4375 74.4375 -64.4375 74.4375 -67.4375 75.4375 C-68.55950213 77.27979502 -68.55950213 77.27979502 -69.4375 79.4375 C-69.7675 80.06269531 -70.0975 80.68789062 -70.4375 81.33203125 C-70.7675 81.96496094 -71.0975 82.59789062 -71.4375 83.25 C-71.7675 83.87519531 -72.0975 84.50039062 -72.4375 85.14453125 C-75.43184562 92.01047218 -75.75561326 98.08112817 -75.6875 105.5 C-75.68169922 107.02548462 -75.68169922 107.02548462 -75.67578125 108.58178711 C-75.59792103 115.39077165 -75.09279644 121.89131894 -73.875 128.59765625 C-73.4146342 131.58592354 -73.36573285 134.41879442 -73.4375 137.4375 C-76.79218683 133.21035541 -78.70855999 128.68713413 -80.8125 123.75 C-81.40913452 122.35019897 -81.40913452 122.35019897 -82.01782227 120.92211914 C-91.35318845 98.55950934 -97.67426619 72.76541656 -88.21875 49.4296875 C-78.99621476 29.3962915 -60.44678013 15.17725045 -40.1640625 7.38671875 C-35.95240955 5.92048427 -31.73669634 4.6192993 -27.4375 3.4375 C-26.16507446 3.05380249 -26.16507446 3.05380249 -24.86694336 2.66235352 C-16.52719922 0.30962921 -8.6326134 -0.04638923 0 0 Z " fill="#523A2F" transform="translate(250.4375,45.5625)"/>
<path d="M0 0 C0.47308594 0.36351562 0.94617188 0.72703125 1.43359375 1.1015625 C19.01808376 14.61550718 19.01808376 14.61550718 39.9375 20.125 C51.95752153 18.41080449 64.92537172 9.74751397 73 1 C73.99 1.495 73.99 1.495 75 2 C74.9071875 3.85625 74.9071875 3.85625 74.8125 5.75 C74.88088287 20.29275731 81.47318651 32.25617461 91.32421875 42.57421875 C95.49815067 46.35817747 99.93051236 48.61860367 105 51 C106.56846073 51.78235299 108.13469432 52.56917972 109.69921875 53.359375 C114.12304907 55.5929756 118.55870605 57.80133963 123 60 C121.65260569 63.21985743 120.4925934 64.64046041 117.4296875 66.296875 C116.70628174 66.69422852 115.98287598 67.09158203 115.23754883 67.50097656 C114.06808716 68.11924316 114.06808716 68.11924316 112.875 68.75 C111.66589966 69.40307129 111.66589966 69.40307129 110.43237305 70.06933594 C107.96266977 71.39483776 105.48348538 72.70053089 103 74 C101.92468018 74.56654297 101.92468018 74.56654297 100.82763672 75.14453125 C91.48101822 80.04154499 81.99458402 84.5765071 72 88 C71.29520508 88.24411621 70.59041016 88.48823242 69.86425781 88.73974609 C58.9510847 92.36234644 48.48564234 93.45472919 37 93.5 C35.79585449 93.50628418 34.59170898 93.51256836 33.35107422 93.51904297 C25.50647438 93.40754942 18.50771071 92.23921513 11 90 C10.31228516 89.80680176 9.62457031 89.61360352 8.91601562 89.41455078 C-1.32682718 86.46627306 -10.64574258 82.04612831 -20 77 C-20.62326172 76.66564941 -21.24652344 76.33129883 -21.88867188 75.98681641 C-30.05695899 71.56772986 -37.63238503 66.65351679 -45 61 C-40.25525013 56.83777388 -34.97432984 54.31743094 -29.32617188 51.61914062 C-21.39577961 47.62222292 -16.97699355 41.75925482 -12.9375 34 C-12.60024902 33.3591748 -12.26299805 32.71834961 -11.91552734 32.05810547 C-7.65671042 23.70137384 -4.73673453 14.86800828 -2.8125 5.6875 C-2 2 -2 2 0 0 Z " fill="#F2D8BC" transform="translate(207,237)"/>
<path d="M0 0 C9.54183217 8.86321049 14.45964215 23.11145136 15.15625 35.859375 C15.40036756 44.3628032 15.56685614 54.81227014 9.80078125 61.58203125 C6.79148823 64.18001225 3.68814797 66.50096461 0.375 68.6875 C-0.27178711 69.11466309 -0.91857422 69.54182617 -1.58496094 69.98193359 C-38.54519457 93.88451725 -89.57963907 112 -134 112 C-133.38716379 103.85920244 -132.27232142 95.8638787 -130.9375 87.8125 C-130.75123047 86.66974609 -130.56496094 85.52699219 -130.37304688 84.34960938 C-129.91878934 81.56582605 -129.46105399 78.78266429 -129 76 C-115.80920966 77.77044531 -107.58046252 85.59800383 -99 95 C-90.57051725 91.51413799 -82.1569444 87.99775902 -73.8125 84.3125 C-72.70197266 83.84650391 -71.59144531 83.38050781 -70.44726562 82.90039062 C-62.38194513 79.29937526 -57.37713838 74.96500893 -52 68 C-51.2119397 67.00480347 -51.2119397 67.00480347 -50.40795898 65.98950195 C-49.00857775 64.18245918 -47.65546133 62.3492597 -46.3125 60.5 C-45.28924674 59.11348519 -44.26444362 57.72811315 -43.23828125 56.34375 C-42.71186035 55.63347656 -42.18543945 54.92320312 -41.64306641 54.19140625 C-38.8151059 50.4196717 -35.90567203 46.71198305 -33 43 C-28.11164729 36.74653992 -23.30706197 30.43943241 -18.56542969 24.07421875 C-12.50018043 15.95467649 -6.24695086 7.98004784 0 0 Z " fill="#3C8CB2" transform="translate(410,354)"/>
<path d="M0 0 C1.16702834 0.78398735 2.33230911 1.57058059 3.49609375 2.359375 C24.96350306 16.43122015 48.98058746 19.33218956 74.18359375 15.046875 C86.00471014 12.12234447 96.59253799 6.88400991 106.3828125 -0.2890625 C109.09504785 -1.9919974 110.76882004 -2.56029806 113.93359375 -2.890625 C116.18188477 -2.11791992 116.18188477 -2.11791992 118.4375 -0.87109375 C119.26056641 -0.42572266 120.08363281 0.01964844 120.93164062 0.47851562 C121.77791016 0.95482422 122.62417969 1.43113281 123.49609375 1.921875 C124.34623047 2.38658203 125.19636719 2.85128906 126.07226562 3.33007812 C127.65672079 4.19624695 129.23792908 5.06840184 130.81469727 5.94848633 C132.83173045 7.05356673 134.8697876 8.09483322 136.93359375 9.109375 C135.58619944 12.32923243 134.42618715 13.74983541 131.36328125 15.40625 C130.63987549 15.80360352 129.91646973 16.20095703 129.17114258 16.61035156 C128.39150146 17.0225293 127.61186035 17.43470703 126.80859375 17.859375 C125.59949341 18.51244629 125.59949341 18.51244629 124.3659668 19.17871094 C121.89626352 20.50421276 119.41707913 21.80990589 116.93359375 23.109375 C116.21671387 23.48707031 115.49983398 23.86476563 114.76123047 24.25390625 C105.41461197 29.15091999 95.92817777 33.6858821 85.93359375 37.109375 C85.22879883 37.35349121 84.52400391 37.59760742 83.79785156 37.84912109 C72.88467845 41.47172144 62.41923609 42.56410419 50.93359375 42.609375 C49.72944824 42.61565918 48.52530273 42.62194336 47.28466797 42.62841797 C39.44006813 42.51692442 32.44130446 41.34859013 24.93359375 39.109375 C24.24587891 38.91617676 23.55816406 38.72297852 22.84960938 38.52392578 C12.60676657 35.57564806 3.28785117 31.15550331 -6.06640625 26.109375 C-6.68966797 25.77502441 -7.31292969 25.44067383 -7.95507812 25.09619141 C-16.12336524 20.67710486 -23.69879128 15.76289179 -31.06640625 10.109375 C-27.13451347 6.73809892 -23.06146119 4.31044608 -18.50390625 1.921875 C-17.51487305 1.38916992 -17.51487305 1.38916992 -16.50585938 0.84570312 C-9.91156261 -2.64695456 -6.51545079 -4.01716966 0 0 Z " fill="#97D6FE" transform="translate(193.06640625,287.890625)"/>
<path d="M0 0 C6.02814537 0.84395359 9.63582064 4.13981179 14.3125 7.8125 C15.14845703 8.44220703 15.98441406 9.07191406 16.84570312 9.72070312 C17.63525391 10.33494141 18.42480469 10.94917969 19.23828125 11.58203125 C19.96055908 12.14124268 20.68283691 12.7004541 21.42700195 13.27661133 C23 15 23 15 23 19 C21.42355283 21.31310473 19.84009775 23.41517828 18.0625 25.5625 C17.30815674 26.49775513 17.30815674 26.49775513 16.53857422 27.4519043 C15.03602975 29.30998912 13.52077596 31.15682158 12 33 C10.87271484 34.36898437 10.87271484 34.36898437 9.72265625 35.765625 C9.03042969 36.60609375 8.33820313 37.4465625 7.625 38.3125 C2.12838131 44.99255438 -3.0782348 51.89101171 -8.31054688 58.77832031 C-11.03272244 62.35805986 -13.7667849 65.92868706 -16.5 69.5 C-17.57949366 70.91140741 -18.6589206 72.32286586 -19.73828125 73.734375 C-20.54193115 74.7852832 -20.54193115 74.7852832 -21.36181641 75.85742188 C-23.58504893 78.76518471 -25.80755826 81.67349981 -28.02978516 84.58203125 C-29.12354595 86.01245773 -30.21825271 87.44216145 -31.31396484 88.87109375 C-33.87221781 92.20801349 -36.41838225 95.55236037 -38.93359375 98.921875 C-39.38968018 99.52805664 -39.8457666 100.13423828 -40.31567383 100.75878906 C-41.54062134 102.38778882 -42.75884505 104.02183854 -43.9765625 105.65625 C-46 108 -46 108 -49 109 C-51.19856722 107.55333675 -53.1613224 106.09799706 -55.1875 104.4375 C-56.35127607 103.51135871 -57.5153383 102.58557689 -58.6796875 101.66015625 C-59.24526367 101.20527832 -59.81083984 100.75040039 -60.39355469 100.28173828 C-62.50007023 98.6010078 -64.65023785 96.98313404 -66.8125 95.375 C-67.864375 94.59125 -68.91625 93.8075 -70 93 C-66.70612205 87.84893555 -63.34476194 83.01241848 -59.19921875 78.5078125 C-57.77346952 76.89212487 -57.77346952 76.89212487 -57 74 C-56.01 73.505 -56.01 73.505 -55 73 C-54.67 72.01 -54.34 71.02 -54 70 C-52.53559123 68.40246316 -50.96693631 66.96947967 -49.375 65.5 C-47.751108 63.9332241 -47.751108 63.9332241 -47 61 C-46.01 60.505 -46.01 60.505 -45 60 C-43.86649466 57.98330173 -43.86649466 57.98330173 -43 56 C-42.34 56 -41.68 56 -41 56 C-40.87625 55.38125 -40.7525 54.7625 -40.625 54.125 C-40 52 -40 52 -38 50 C-35.22195575 46.68393433 -35.22195575 46.68393433 -33 43 C-32.34 43 -31.68 43 -31 43 C-30.67 41.68 -30.34 40.36 -30 39 C-29.34 39 -28.68 39 -28 39 C-27.896875 38.401875 -27.79375 37.80375 -27.6875 37.1875 C-26.88246919 34.62603834 -25.9536379 33.80892398 -24 32 C-21.92502529 29.53596753 -20.08627231 27.14493748 -18.4375 24.375 C-17.10336921 22.17078391 -15.8403303 20.76671709 -14 19 C-12.053418 16.62760319 -10.17177945 14.23784846 -8.375 11.75 C-7 10 -7 10 -5 9 C-4.32558869 7.3364521 -3.6599679 5.66933058 -3 4 C-2.04175747 2.63634717 -1.05278825 1.29205831 0 0 Z " fill="#EBB83A" transform="translate(400,320)"/>
<path d="M0 0 C-0.93410064 2.30189087 -1.51657111 3.70519874 -3.671875 5.01953125 C-4.35765625 5.28121094 -5.0434375 5.54289062 -5.75 5.8125 C-15.95439904 10.02592928 -25.73816425 14.5505781 -34 22 C-34.49886719 22.43521973 -34.99773437 22.87043945 -35.51171875 23.31884766 C-44.70897089 31.43198189 -50.21623069 39.74152178 -55 51 C-54.72027344 50.4328125 -54.44054687 49.865625 -54.15234375 49.28125 C-44.33270806 29.84170002 -28.9798451 17.13484752 -9 9 C-8.10023438 8.61070313 -7.20046875 8.22140625 -6.2734375 7.8203125 C-3.69708636 6.89070126 -2.5300897 7.06292974 0 8 C-0.99 8 -1.98 8 -3 8 C-3.10890351 21.37670177 -3.09848966 34.66119695 -2 48 C-2.60884033 48.38220703 -3.21768066 48.76441406 -3.8449707 49.15820312 C-18.82522677 58.48648506 -18.82522677 58.48648506 -33.171875 68.7421875 C-35 70 -35 70 -37 70 C-37.28875 70.58136719 -37.5775 71.16273437 -37.875 71.76171875 C-38.57064941 73.14577122 -39.27691019 74.52461502 -40 75.89453125 C-40.33 76.52746094 -40.66 77.16039062 -41 77.8125 C-41.33 78.43769531 -41.66 79.06289062 -42 79.70703125 C-44.99434562 86.57297218 -45.31811326 92.64362817 -45.25 100.0625 C-45.24419922 101.58798462 -45.24419922 101.58798462 -45.23828125 103.14428711 C-45.16042103 109.95327165 -44.65529644 116.45381894 -43.4375 123.16015625 C-42.9771342 126.14842354 -42.92823285 128.98129442 -43 132 C-46.35468683 127.77285541 -48.27105999 123.24963413 -50.375 118.3125 C-50.97163452 116.91269897 -50.97163452 116.91269897 -51.58032227 115.48461914 C-60.91568845 93.12200934 -67.23676619 67.32791656 -57.78125 43.9921875 C-48.44483583 23.71142117 -29.85017094 9.84482966 -9.453125 1.83984375 C-6.14401952 0.70694936 -3.51205752 0 0 0 Z " fill="#5C4030" transform="translate(220,51)"/>
<path d="M0 0 C3.32152627 1.9535171 6.30445189 4.27737692 9.31884766 6.67236328 C11.15862395 8.12526823 13.01988366 9.54688504 14.88671875 10.96484375 C17.760456 13.14784981 20.62739706 15.33923761 23.48828125 17.5390625 C26.56030664 19.89967856 29.64156131 22.24745698 32.73046875 24.5859375 C33.49794434 25.16835205 34.26541992 25.7507666 35.05615234 26.35083008 C36.52479108 27.46494241 37.99508617 28.57687578 39.46728516 29.6862793 C48.4693807 36.52974236 48.4693807 36.52974236 49.75 40.078125 C50.97322379 50.70488167 44.25574379 57.58568685 38.046875 65.4375 C37.37140625 66.283125 36.6959375 67.12875 36 68 C33.19403842 66.68227683 30.7982135 65.20727748 28.34765625 63.3125 C27.6609082 62.78422607 26.97416016 62.25595215 26.26660156 61.71166992 C25.53924805 61.14681885 24.81189453 60.58196777 24.0625 60 C23.3003418 59.41259033 22.53818359 58.82518066 21.75292969 58.2199707 C19.49975073 56.48281038 17.24972029 54.74163565 15 53 C12.9179697 51.39413174 10.83401307 49.79079708 8.75 48.1875 C7.73035156 47.40246094 6.71070313 46.61742187 5.66015625 45.80859375 C0.84574373 42.10956396 -3.98370371 38.43021944 -8.8125 34.75 C-9.69647461 34.07606201 -10.58044922 33.40212402 -11.49121094 32.70776367 C-16.64420951 28.78280255 -21.81107865 24.87735572 -27 21 C-26.40666003 17.98395794 -25.53342089 16.06203295 -23.63671875 13.65234375 C-23.16169922 13.04712891 -22.68667969 12.44191406 -22.19726562 11.81835938 C-21.44993164 10.88733398 -21.44993164 10.88733398 -20.6875 9.9375 C-20.20087891 9.31294922 -19.71425781 8.68839844 -19.21289062 8.04492188 C-13.91122901 1.35897715 -8.95739588 -2.82629018 0 0 Z " fill="#9D1313" transform="translate(397,258)"/>
<path d="M0 0 C6.47044458 4.82111557 12.86917569 9.73252948 19.25927734 14.65917969 C21.02175116 16.01675419 22.78598217 17.37201245 24.55078125 18.7265625 C25.4176355 19.39220215 25.4176355 19.39220215 26.30200195 20.07128906 C27.90952058 21.30553054 29.5172539 22.53949236 31.125 23.7734375 C32.95654509 25.19188954 34.77126696 26.63253296 36.5625 28.1015625 C38.92017381 30.01931353 38.92017381 30.01931353 41.37109375 31.41015625 C44.81859575 33.49504973 47.90783711 35.93852526 51.0625 38.4375 C51.97999023 39.15389648 51.97999023 39.15389648 52.91601562 39.88476562 C56.14274239 42.42777515 59.16650959 45.01105625 62 48 C57.92893227 51.59232414 53.75867409 53.70780335 48.85546875 55.890625 C48.08568192 56.24010193 47.31589508 56.58957886 46.52278137 56.949646 C44.0806677 58.05649981 41.63421883 59.15336931 39.1875 60.25 C37.52379164 61.0019476 35.86037681 61.75454502 34.19726562 62.5078125 C30.13486902 64.34607959 26.06855677 66.17540999 22 68 C20.87985727 67.04579693 19.76055281 66.09060975 18.64160156 65.13500977 C17.7064975 64.33728905 17.7064975 64.33728905 16.75250244 63.52345276 C14.6861486 61.72716855 12.72619417 59.83200111 10.75 57.9375 C5.02827637 52.81444728 -1.56532291 49.78562114 -9 48 C-7.59910131 37.33635319 -6.17794917 26.67686816 -4.4375 16.0625 C-4.32301514 15.34916504 -4.20853027 14.63583008 -4.09057617 13.90087891 C-2.1128169 2.1128169 -2.1128169 2.1128169 0 0 Z " fill="#F0DBB0" transform="translate(290,382)"/>
<path d="M0 0 C0.47453613 0.35771484 0.94907227 0.71542969 1.43798828 1.08398438 C5.04453617 3.7965716 8.66159077 6.49290672 12.3046875 9.15625 C22.66275635 16.73003743 32.85496426 24.4854811 42.95458984 32.39990234 C50.2018047 38.06930389 57.45196431 43.73392859 65 49 C63.22054913 53.04420651 60.60470327 56.46078487 58 60 C54.93737122 58.58219623 52.38845659 56.8916452 49.71875 54.83203125 C48.88690186 54.19362305 48.05505371 53.55521484 47.19799805 52.89746094 C46.30765869 52.20942383 45.41731934 51.52138672 44.5 50.8125 C42.60076018 49.35481737 40.70100804 47.89780204 38.80078125 46.44140625 C37.83479004 45.70035645 36.86879883 44.95930664 35.87353516 44.19580078 C29.07971422 39.00432877 22.22054556 33.89927572 15.37353516 28.77832031 C12.99966015 26.99974538 10.63003151 25.21566061 8.26171875 23.4296875 C7.14953979 22.59195801 7.14953979 22.59195801 6.01489258 21.73730469 C4.62448434 20.68969989 3.23494819 19.64093627 1.84643555 18.59082031 C-1.44033707 16.08215167 -1.44033707 16.08215167 -5 14 C-5 13.34 -5 12.68 -5 12 C-5.66 12 -6.32 12 -7 12 C-6.12047936 7.05687133 -3.0180658 3.85284995 0 0 Z " fill="#D6D5D4" transform="translate(368,277)"/>
<path d="M0 0 C3.39018107 1.59225124 5.35012184 3.27727448 7.875 6.0625 C20.82435137 19.22413582 35.23458132 23.7796478 53.32788086 25.29394531 C66.58413472 26.42091272 77.89750022 29.30353406 87.4375 39.25 C94.09985338 47.76086762 95.16314949 58.43011762 95.0625 68.8125 C95.05798828 69.69615234 95.05347656 70.57980469 95.04882812 71.49023438 C95.03709866 73.66018559 95.01916495 75.83010172 95 78 C94.67 78 94.34 78 94 78 C93.94392578 76.56720703 93.94392578 76.56720703 93.88671875 75.10546875 C93.24895244 62.56273123 91.97960025 50.6471169 82.40625 41.47265625 C74.19739125 35.10304651 64.59198199 33.32915102 54.5 32.375 C33.19795026 30.20606403 18.24151184 25.05252202 3.9140625 8.60546875 C3.28242188 8.07566406 2.65078125 7.54585938 2 7 C-1.3148506 7.41567313 -3.65520898 8.88302605 -6.4140625 10.6953125 C-7.25316162 11.24292236 -8.09226074 11.79053223 -8.95678711 12.35473633 C-9.83729736 12.93892334 -10.71780762 13.52311035 -11.625 14.125 C-12.52420166 14.71885498 -13.42340332 15.31270996 -14.34985352 15.92456055 C-16.11828522 17.09501834 -17.88502647 18.26803505 -19.64990234 19.44384766 C-21.54061763 20.69581308 -23.4492402 21.92071358 -25.36328125 23.13671875 C-34.23677923 28.91324475 -37.6412852 35.82288789 -40 46 C-40.42944625 48.33902276 -40.74279361 50.63370125 -41 53 C-41.33 53 -41.66 53 -42 53 C-42.67673056 42.39788789 -41.25554576 32.60676846 -34.7644043 23.86303711 C-30.89313865 19.77536198 -25.96890164 16.94694516 -21.25 13.9375 C-20.20328125 13.25623047 -19.1565625 12.57496094 -18.078125 11.87304688 C-16.02598667 10.53787437 -13.9707345 9.20747324 -11.91210938 7.88232422 C-7.91286632 5.29730041 -3.95253195 2.65572504 0 0 Z " fill="#BB8C6A" transform="translate(216,99)"/>
<path d="M0 0 C12.17375592 1.61837228 21.49496681 8.58916114 29 18 C29 18.99 29 19.98 29 21 C24.62390472 22.99859149 20.24562729 24.99229072 15.86523438 26.98144531 C14.37471151 27.65913291 12.88479898 28.33816455 11.39550781 29.01855469 C9.25744274 29.9950611 7.11724508 30.96674766 4.9765625 31.9375 C4.30879791 32.24373291 3.64103333 32.54996582 2.95303345 32.86547852 C-1.77225659 35 -1.77225659 35 -4 35 C-4.32208664 27.09322045 -3.33910806 19.65630357 -2 11.875 C-1.80921875 10.72773438 -1.6184375 9.58046875 -1.421875 8.3984375 C-0.9550807 5.59767171 -0.48099729 2.79835526 0 0 Z " fill="#1F1F1E" transform="translate(281,430)"/>
<path d="M0 0 C1.24523437 0.88751953 1.24523437 0.88751953 2.515625 1.79296875 C29.4723761 20.03896118 59.54126836 33.3281174 92.640625 27.91796875 C108.56876681 24.5025155 123.51158342 18.80346152 137.765625 10.98046875 C138.56291016 10.54702148 139.36019531 10.11357422 140.18164062 9.66699219 C148.9717482 5.52076973 148.9717482 5.52076973 156.765625 -0.01953125 C158.43179615 -0.06016957 160.09950595 -0.06225225 161.765625 -0.01953125 C160.41823069 3.20032618 159.2582184 4.62092916 156.1953125 6.27734375 C155.47190674 6.67469727 154.74850098 7.07205078 154.00317383 7.48144531 C153.22353271 7.89362305 152.4438916 8.30580078 151.640625 8.73046875 C150.43152466 9.38354004 150.43152466 9.38354004 149.19799805 10.04980469 C146.72829477 11.37530651 144.24911038 12.68099964 141.765625 13.98046875 C141.04874512 14.35816406 140.33186523 14.73585938 139.59326172 15.125 C130.24664322 20.02201374 120.76020902 24.55697585 110.765625 27.98046875 C110.06083008 28.22458496 109.35603516 28.46870117 108.62988281 28.72021484 C97.7167097 32.34281519 87.25126734 33.43519794 75.765625 33.48046875 C74.56147949 33.48675293 73.35733398 33.49303711 72.11669922 33.49951172 C64.27209938 33.38801817 57.27333571 32.21968388 49.765625 29.98046875 C49.07791016 29.78727051 48.39019531 29.59407227 47.68164062 29.39501953 C37.43879782 26.44674181 28.11988242 22.02659706 18.765625 16.98046875 C18.14236328 16.64611816 17.51910156 16.31176758 16.87695312 15.96728516 C8.70866601 11.54819861 1.13323997 6.63398554 -6.234375 0.98046875 C-3.71049454 -0.76193496 -2.8756812 -1.31215523 0 0 Z " fill="#B3E7FC" transform="translate(168.234375,297.01953125)"/>
<path d="M0 0 C-2.29917927 2.50773212 -4.6927154 4.14420671 -7.62109375 5.86328125 C-8.54680176 6.41330811 -9.47250977 6.96333496 -10.42626953 7.5300293 C-11.41997559 8.11824463 -12.41368164 8.70645996 -13.4375 9.3125 C-31.14370173 19.9559905 -48.65803968 31.36152008 -63.1875 46.1875 C-64.115625 47.115625 -65.04375 48.04375 -66 49 C-66.66 49 -67.32 49 -68 49 C-63.9134952 40.31853127 -56.4638284 34.72800725 -49 29 C-48.32243652 28.47986328 -47.64487305 27.95972656 -46.94677734 27.42382812 C-35.9617711 19.05015075 -24.67331158 11.32898278 -12.87475586 4.14624023 C-11.29250889 3.1788422 -9.72804819 2.18244201 -8.16796875 1.1796875 C-5.34637416 -0.35566667 -3.15954563 -0.22043342 0 0 Z " fill="#75B5CF" transform="translate(157,309)"/>
<path d="M0 0 C3.11808981 1.44565982 5.74062634 3.20806349 8.5 5.25 C27.61087475 18.7087566 50.38161704 23.30491992 73.4375 20.3125 C84.2895375 18.38649579 94.43850992 15.12456207 104.1875 10 C105.10474854 9.52022705 105.10474854 9.52022705 106.04052734 9.03076172 C110.05527427 6.81252735 112.92659572 4.33386228 116 1 C117.32 1.66 118.64 2.32 120 3 C119.20722656 3.36351562 119.20722656 3.36351562 118.3984375 3.734375 C115.94421902 5.02943492 113.68078934 6.51963062 111.38305664 8.07177734 C89.97819852 22.41698569 65.61374618 26.30554264 40.19921875 22.37890625 C27.49482282 19.83893636 15.19126533 13.26942605 5.11328125 5.25 C2.56565469 3.74308595 0.91107862 3.75528586 -2 4 C-1.34 2.68 -0.68 1.36 0 0 Z " fill="#D7B8A3" transform="translate(186,282)"/>
<path d="M0 0 C3.27912271 1.98414713 6.27232644 4.29437125 9.28515625 6.65917969 C11.18774973 8.14679976 13.10784052 9.60971215 15.03125 11.0703125 C17.94666741 13.28584433 20.85534364 15.50971871 23.7578125 17.7421875 C26.43247498 19.79934076 29.11363769 21.84714752 31.8046875 23.8828125 C32.38943848 24.32705566 32.97418945 24.77129883 33.57666016 25.22900391 C35.13815851 26.41505007 36.70180981 27.59826027 38.265625 28.78125 C45.88485694 34.96371249 45.88485694 34.96371249 46.3125 38.8125 C46.209375 39.534375 46.10625 40.25625 46 41 C45.15501953 39.88625 45.15501953 39.88625 44.29296875 38.75 C37.22905848 30.27812125 27.00930117 23.88982352 18.25 17.23828125 C15.52752905 15.16991847 12.8186253 13.08625485 10.125 10.98046875 C9.53122559 10.51761475 8.93745117 10.05476074 8.32568359 9.57788086 C6.72813646 8.33052816 5.13349731 7.07945359 3.5390625 5.828125 C-0.60583823 2.84379647 -3.97327662 2.48880779 -9 3 C-14.44856327 6.36187947 -17.6370381 11.37746349 -21.265625 16.57421875 C-23 19 -23 19 -25 21 C-25 16.76939697 -22.70923674 14.35673816 -20.3125 11.0625 C-19.87744141 10.44181641 -19.44238281 9.82113281 -18.99414062 9.18164062 C-14.16691461 2.46643288 -8.77578837 -3.06019189 0 0 Z " fill="#D13939" transform="translate(397,260)"/>
<path d="M0 0 C3.31963737 1.95240616 6.30166058 4.27445134 9.31445312 6.66796875 C11.86024749 8.67982478 14.4464306 10.6379325 17.02783203 12.60375977 C19.20194281 14.26100925 21.37074929 15.92501857 23.5390625 17.58984375 C30.31677127 22.78309477 37.1593031 27.89019276 44 33 C43.67 33.99 43.34 34.98 43 36 C42.608125 35.63390625 42.21625 35.2678125 41.8125 34.890625 C35.97571265 29.60732611 29.7085363 24.96785893 23.39453125 20.28125 C20.34874632 18.01768582 17.32867836 15.72438637 14.32421875 13.40625 C13.55972412 12.81666504 12.79522949 12.22708008 12.00756836 11.61962891 C10.53112833 10.47864908 9.05659819 9.33519243 7.58422852 8.18896484 C6.91190186 7.67027832 6.2395752 7.1515918 5.546875 6.6171875 C4.95745117 6.15940918 4.36802734 5.70163086 3.76074219 5.22998047 C-0.34469136 2.36209719 -2.80472973 1.81359142 -7.90234375 2.3203125 C-13.80921395 4.23427044 -16.89899315 9.35455258 -20.1875 14.25 C-21.74044748 16.55540657 -23.32258808 18.77928475 -25 21 C-25.66 21 -26.32 21 -27 21 C-26.40666003 17.98395794 -25.53342089 16.06203295 -23.63671875 13.65234375 C-23.16169922 13.04712891 -22.68667969 12.44191406 -22.19726562 11.81835938 C-21.44993164 10.88733398 -21.44993164 10.88733398 -20.6875 9.9375 C-20.20087891 9.31294922 -19.71425781 8.68839844 -19.21289062 8.04492188 C-13.91122901 1.35897715 -8.95739588 -2.82629018 0 0 Z " fill="#AD1919" transform="translate(397,258)"/>
<path d="M0 0 C0.66 0 1.32 0 2 0 C0.2850816 3.9657488 -2.34773418 7.19412241 -5 10.5625 C-7.42111879 13.65807332 -9.8181773 16.72726594 -12 20 C-12.66 20 -13.32 20 -14 20 C-13.40560789 16.94419887 -12.50746889 15.04024951 -10.56640625 12.6171875 C-10.08236328 12.00746094 -9.59832031 11.39773438 -9.09960938 10.76953125 C-8.59236328 10.14433594 -8.08511719 9.51914062 -7.5625 8.875 C-7.05912109 8.24207031 -6.55574219 7.60914063 -6.03710938 6.95703125 C-4.0976819 4.53081521 -2.19835723 2.19835723 0 0 Z " fill="#9F1313" transform="translate(384,259)"/>
<path d="M0 0 C2.31 0 4.62 0 7 0 C7.66 1.32 8.32 2.64 9 4 C8.01 4.495 8.01 4.495 7 5 C4.5249829 3.88568235 2.32116581 2.41849022 0 1 C0 0.67 0 0.34 0 0 Z " fill="#7AB6CC" transform="translate(335,309)"/>
<path d="M0 0 C0.66 0 1.32 0 2 0 C0.47291037 3.43595166 -1.59927045 6.11912454 -4 9 C-4 4.9666466 -2.39120082 3.16482462 0 0 Z " fill="#CC3F3F" transform="translate(376,272)"/>
</svg>
