<?xml version="1.0" encoding="UTF-8"?>
<svg version="1.1" xmlns="http://www.w3.org/2000/svg" width="512" height="512">
<path d="M0 0 C1.24831197 -0.00720654 2.49662394 -0.01441309 3.78276354 -0.02183801 C5.17565969 -0.01466026 6.56855441 -0.00720133 7.96144772 0.00050831 C9.43516815 -0.00223055 10.90888664 -0.00628113 12.38260025 -0.01153535 C16.44239898 -0.02215656 20.50197865 -0.01397112 24.56176794 -0.00278485 C28.93603736 0.00603375 33.31027739 -0.00237952 37.68454647 -0.00864697 C46.25744693 -0.01815048 54.83026341 -0.0115217 63.40315766 0.00061598 C73.37807168 0.0142144 83.35296553 0.01260005 93.32788645 0.01048265 C111.12005905 0.00729054 128.91219165 0.01897353 146.70435238 0.03854847 C163.98561477 0.05755644 181.26683028 0.06463555 198.54810238 0.05905628 C217.34877932 0.05300447 236.14943563 0.05316436 254.95011085 0.06454211 C256.95311606 0.06574946 258.95612127 0.06695544 260.95912647 0.06816006 C261.94474745 0.0687636 262.93036843 0.06936713 263.94585671 0.06998896 C270.90601785 0.07387523 277.86617134 0.07347176 284.82633305 0.07157421 C293.30263766 0.06945655 301.77890113 0.07464377 310.25519414 0.08918776 C314.58347559 0.09645305 318.91169699 0.10049069 323.23998356 0.0959444 C327.19683724 0.09188922 331.15356653 0.09697242 335.11040127 0.10957048 C336.5470777 0.11251562 337.98376575 0.11204062 339.42043931 0.1079274 C341.36293223 0.10286805 343.30544658 0.11116014 345.2479248 0.12025452 C346.87106821 0.12155468 346.87106821 0.12155468 348.52700239 0.12288111 C351.06104183 0.37473011 351.06104183 0.37473011 353.06104183 2.37473011 C353.31104183 5.87473011 353.31104183 5.87473011 353.06104183 9.37473011 C352.40104183 10.03473011 351.74104183 10.69473011 351.06104183 11.37473011 C350.07104183 11.37473011 349.08104183 11.37473011 348.06104183 11.37473011 C348.06104183 14.67473011 348.06104183 17.97473011 348.06104183 21.37473011 C349.38104183 21.70473011 350.70104183 22.03473011 352.06104183 22.37473011 C353.06104183 23.37473011 353.06104183 23.37473011 353.24854183 26.81223011 C353.06104183 30.37473011 353.06104183 30.37473011 351.06104183 32.37473011 C350.07104183 32.37473011 349.08104183 32.37473011 348.06104183 32.37473011 C348.06104183 112.23473011 348.06104183 192.09473011 348.06104183 274.37473011 C349.38104183 274.70473011 350.70104183 275.03473011 352.06104183 275.37473011 C353.06104183 276.37473011 353.06104183 276.37473011 353.24854183 279.81223011 C353.06104183 283.37473011 353.06104183 283.37473011 351.06104183 285.37473011 C350.07104183 285.37473011 349.08104183 285.37473011 348.06104183 285.37473011 C348.06104183 288.34473011 348.06104183 291.31473011 348.06104183 294.37473011 C349.71104183 295.03473011 351.36104183 295.69473011 353.06104183 296.37473011 C353.06104183 299.01473011 353.06104183 301.65473011 353.06104183 304.37473011 C351.41104183 305.03473011 349.76104183 305.69473011 348.06104183 306.37473011 C348.06104183 311.65473011 348.06104183 316.93473011 348.06104183 322.37473011 C349.71104183 323.03473011 351.36104183 323.69473011 353.06104183 324.37473011 C353.35401058 330.42941761 353.35401058 330.42941761 353.06104183 332.37473011 C349.72030456 334.60188829 348.71531604 334.61663346 344.82553768 334.58591175 C343.19810131 334.58097958 343.19810131 334.58097958 341.53778744 334.57594776 C340.34711666 334.5623975 339.15644588 334.54884724 337.92969418 334.53488636 C336.67574856 334.52886906 335.42180294 334.52285175 334.12985897 334.51665211 C331.40096671 334.5034367 328.67229228 334.48685097 325.94346905 334.46573353 C321.62250201 334.43424544 317.30169771 334.42639497 312.98062801 334.42404652 C312.25087053 334.42353291 311.52111304 334.42301929 310.76924169 334.42249012 C309.27683547 334.42144861 307.78442922 334.42044435 306.29202294 334.41947651 C296.23345277 334.41158616 286.1754422 334.3864985 276.11719418 334.30295277 C269.33127218 334.24677041 262.54624981 334.2262714 255.76011145 334.24615288 C252.17138943 334.25521367 248.58477444 334.2462172 244.99638653 334.19336414 C240.98598337 334.13456369 236.97951139 334.15403834 232.96875668 334.17941761 C231.79023129 334.1496735 230.61170589 334.11992939 229.39746761 334.08928394 C224.44036616 334.17597761 221.30495204 334.34432492 217.40429211 337.57547474 C214.99485484 340.20226398 214.99485484 340.20226398 212.96662998 342.93628407 C210.39885448 346.22208431 207.50777844 348.0769057 204.06104183 350.37473011 C203.73104183 351.03473011 203.40104183 351.69473011 203.06104183 352.37473011 C203.70041683 352.68410511 204.33979183 352.99348011 204.99854183 353.31223011 C207.06104183 354.37473011 207.06104183 354.37473011 208.06104183 355.37473011 C208.53649125 360.34193725 207.48283975 363.08765602 204.93994808 367.32004261 C204.44380756 368.15779476 204.44380756 368.15779476 203.937644 369.0124712 C202.84540626 370.84933685 201.73476266 372.67429676 200.62354183 374.49973011 C199.84625571 375.79815544 199.07006935 377.09723971 198.29492855 378.39694691 C195.90131627 382.40033345 193.48254796 386.38817611 191.06104183 390.37473011 C190.33833882 391.56779983 189.61583777 392.76099192 188.89356136 393.95431995 C186.13273868 398.51389951 183.36784367 403.07097894 180.59180355 407.62131214 C175.49498062 415.97965569 170.46968785 424.37861109 165.47836971 432.80035877 C164.26024905 434.85498336 163.04037886 436.90855976 161.82007504 438.96188831 C158.34455045 444.81331811 154.88165023 450.67024656 151.47510433 456.56223011 C150.94247982 457.47424183 150.40985531 458.38625355 149.86109066 459.32590199 C148.91843602 460.9410857 147.9848191 462.56160643 147.06372738 464.18918324 C142.57657028 471.83441865 136.90694254 478.07693121 128.74854183 481.81223011 C127.74178402 482.28531605 126.73502621 482.75840199 125.69776058 483.24582386 C122.23268399 484.72938999 119.57266131 485.49892599 115.83057308 485.47238636 C115.02813168 485.4691637 114.22569027 485.46594105 113.39893246 485.46262074 C112.56555355 485.45424183 111.73217464 485.44586292 110.87354183 485.43723011 C110.02856136 485.43271839 109.18358089 485.42820667 108.31299496 485.42355824 C106.22898028 485.41178414 104.14500206 485.39384901 102.06104183 485.37473011 C102.10180843 486.08605091 102.14257504 486.79737171 102.18457699 487.53024769 C102.36281252 490.74873977 102.52461438 493.9678531 102.68604183 497.18723011 C102.75049496 498.30678089 102.81494808 499.42633167 102.88135433 500.57980824 C102.93291683 501.65295277 102.98447933 502.7260973 103.03760433 503.83176136 C103.11615658 505.31639881 103.11615658 505.31639881 103.19629574 506.83102894 C103.06104183 509.37473011 103.06104183 509.37473011 101.06104183 512.37473011 C98.25553378 512.67338394 95.66992554 512.77452212 92.86157894 512.74895191 C92.00373523 512.75292632 91.14589151 512.75690072 90.26205254 512.76099557 C87.37066459 512.77066517 84.47976026 512.75877244 81.58838558 512.74704456 C79.52239454 512.74947099 77.45640467 512.75318886 75.39041805 512.75810719 C69.76655233 512.7675402 64.14285991 512.75807052 58.51900768 512.74477506 C52.64491646 512.73348946 46.77083413 512.73756582 40.89673519 512.73952198 C31.0305767 512.74040587 21.1644868 512.72930465 11.29834652 512.71091175 C-0.12264029 512.68974269 -11.54352658 512.68623369 -22.96452904 512.69247371 C-33.93265268 512.69816042 -44.90074077 512.69252989 -55.86885929 512.68130016 C-60.54507445 512.67664498 -65.22126793 512.67578429 -69.89748478 512.67788601 C-75.40004079 512.67976408 -80.90249389 512.6717022 -86.40502644 512.65582561 C-88.4295557 512.6515684 -90.45409537 512.65074179 -92.4786272 512.65351582 C-95.23236436 512.65671763 -97.98579016 512.64770665 -100.73949528 512.63542652 C-101.5494045 512.63920584 -102.35931372 512.64298517 -103.19376564 512.64687902 C-108.71062935 512.60305893 -108.71062935 512.60305893 -110.93895817 510.37473011 C-111.3586701 504.39383503 -110.43731966 499.15412444 -108.93895817 493.37473011 C-109.72270817 493.27160511 -110.50645817 493.16848011 -111.31395817 493.06223011 C-113.93895817 492.37473011 -113.93895817 492.37473011 -115.93895817 489.37473011 C-115.51746549 481.92835954 -113.56041483 474.63559265 -111.93895817 467.37473011 C-113.05013004 466.73406605 -114.16130192 466.09340199 -115.30614567 465.43332386 C-135.29645213 453.8425893 -151.66200058 442.93019459 -157.93895817 419.37473011 C-159.11436837 414.74408724 -159.194115 410.18906691 -159.25145817 405.43723011 C-159.28046207 404.67088245 -159.30946598 403.9045348 -159.33934879 403.11496449 C-159.47708562 390.13591715 -154.1284693 378.85788129 -147.93895817 367.74973011 C-147.26729835 366.52362125 -146.59632913 365.29713385 -145.92601871 364.07028675 C-140.2137384 353.66767492 -134.2114889 343.44879461 -127.93895817 333.37473011 C-127.41108707 332.52459339 -126.88321598 331.67445667 -126.33934879 330.79855824 C-121.3919176 322.84838505 -116.45143243 314.94812941 -110.93895817 307.37473011 C-112.38434039 304.34565157 -114.06830409 301.57468331 -115.87645817 298.74973011 C-127.24618877 279.67076754 -122.56308951 257.06822168 -117.75145817 236.62473011 C-117.57268131 235.92299671 -117.39390446 235.22126331 -117.20971012 234.49826527 C-115.10633513 225.91469211 -115.90015557 218.35644355 -117.81395817 209.81223011 C-119.67363835 201.01611436 -121.04226344 192.32279961 -121.93895817 183.37473011 C-122.05110661 182.27644886 -122.16325504 181.17816761 -122.27880192 180.04660511 C-123.21920549 169.17399401 -123.1195399 158.27687216 -122.93895817 147.37473011 C-122.92638981 146.53635609 -122.91382145 145.69798206 -122.90087223 144.83420277 C-122.17980941 108.06735693 -113.43977772 70.26173609 -86.41503239 43.7839098 C-67.37302588 25.60487216 -41.08778909 15.17800727 -14.68895817 15.12473011 C-12.77147815 15.1865843 -10.85403695 15.26058634 -8.93895817 15.37473011 C-8.97376286 14.5432848 -9.00856754 13.71183949 -9.04442692 12.85519886 C-9.07149723 11.76851917 -9.09856754 10.68183949 -9.12645817 9.56223011 C-9.16126286 8.4832848 -9.19606754 7.40433949 -9.23192692 6.29269886 C-8.93895817 3.37473011 -8.93895817 3.37473011 -7.79183251 1.7157777 C-5.15464044 -0.19293245 -3.23943726 -0.00016467 0 0 Z M114.06104183 334.37473011 C115.38104183 339.65473011 116.70104183 344.93473011 118.06104183 350.37473011 C119.15071498 354.87338073 120.23622498 359.3725636 121.31104183 363.87473011 C121.57916683 364.99492542 121.84729183 366.11512074 122.12354183 367.26926136 C122.77009117 369.97091394 123.41592442 372.67273532 124.06104183 375.37473011 C124.72104183 375.37473011 125.38104183 375.37473011 126.06104183 375.37473011 C126.47354183 374.65519154 126.88604183 373.93565296 127.31104183 373.19431019 C129.22562283 369.85741561 131.14267982 366.52195181 133.06104183 363.18723011 C133.403298 362.59192493 133.74555416 361.99661976 134.09818172 361.38327503 C138.53876185 353.6651706 143.03790798 346.00111336 147.83838558 338.49973011 C149.2272787 336.49441306 149.2272787 336.49441306 149.06104183 334.37473011 C137.51104183 334.37473011 125.96104183 334.37473011 114.06104183 334.37473011 Z " fill="#322E3E" transform="translate(158.93895816802979,-0.37473011016845703)"/>
<path d="M0 0 C1.39061983 0.00056531 2.78124026 0.00024522 4.17185974 -0.00088501 C7.91706927 -0.00145485 11.66214864 0.01023922 15.40732813 0.02426291 C19.33240746 0.03683222 23.25749032 0.03794562 27.18258667 0.04031372 C34.60192732 0.04651037 42.02120848 0.06289642 49.44052303 0.0830127 C57.89282273 0.10542845 66.34512538 0.11637936 74.79744744 0.12640357 C92.17212818 0.14726441 109.54675114 0.1824048 126.92138672 0.22705078 C126.96800942 10.39867479 127.00340648 20.5702728 127.02501106 30.74198246 C127.03538733 35.46661758 127.04943207 40.19117885 127.07226562 44.91577148 C127.0942161 49.48696543 127.10600145 54.05808895 127.1111412 58.62933159 C127.11479756 60.36137435 127.12193561 62.09341385 127.13284683 63.8254261 C127.30281016 91.95902743 127.30281016 91.95902743 121.79638672 103.47705078 C121.53857422 104.08033203 121.28076172 104.68361328 121.01513672 105.30517578 C115.3032162 117.88188151 105.20683423 127.41636875 95.59716797 137.02001953 C94.20456326 138.41974422 92.81225008 139.819759 91.42021179 141.220047 C88.51469056 144.13893859 85.60339006 147.05191551 82.68823242 149.96118164 C78.98098735 153.66253203 75.29232629 157.38181085 71.60828876 161.10624218 C68.74198361 163.99857957 65.86409383 166.87917758 62.98293114 169.75670815 C61.61922452 171.12209087 60.25942277 172.49138682 58.90389442 173.86488914 C45.06625799 187.8657635 29.26783648 200.08280257 8.5925293 200.24536133 C7.40373169 200.24209839 7.40373169 200.24209839 6.19091797 200.23876953 C4.98786011 200.23623169 4.98786011 200.23623169 3.76049805 200.23364258 C3.15359131 200.23146729 2.54668457 200.22929199 1.92138672 200.22705078 C4.4254272 186.52877297 7.13565227 172.92966798 10.47631836 159.40991211 C13.02631928 149.0029775 15.26798221 138.53505699 17.49938965 128.05621338 C19.69010331 117.76875812 21.92291523 107.50454886 24.63842773 97.33935547 C25.75354408 92.95556332 26.03151882 89.63266937 24.92138672 85.22705078 C22.40297857 84.54983178 19.88229948 83.88513904 17.35888672 83.22705078 C16.65441406 83.03626953 15.94994141 82.84548828 15.22412109 82.64892578 C10.70901584 81.48373733 6.62418449 80.84750594 1.92138672 81.22705078 C-0.26021783 83.40865533 -0.48057492 84.17827986 -1.11254883 87.09301758 C-1.29027832 87.8949202 -1.46800781 88.69682281 -1.65112305 89.52302551 C-1.83731201 90.39859604 -2.02350098 91.27416656 -2.21533203 92.17626953 C-2.41545898 93.08813522 -2.61558594 94.00000092 -2.82177734 94.9394989 C-3.4766026 97.92976122 -4.12125086 100.92212568 -4.76611328 103.91455078 C-5.21752131 105.98260142 -5.66975582 108.05047183 -6.12280273 110.11816406 C-7.02741036 114.24844639 -7.92906823 118.3793545 -8.82861328 122.51074219 C-10.43694183 129.88311175 -12.09526586 137.24361541 -13.76611328 144.60205078 C-14.31562173 147.02912748 -14.86510114 149.45621076 -15.41455078 151.88330078 C-15.81818848 153.66414063 -15.81818848 153.66414063 -16.22998047 155.48095703 C-17.63218995 161.67068726 -19.03021626 167.86136165 -20.4281311 174.05206299 C-20.87547331 176.03280028 -21.32310735 178.01347165 -21.77075195 179.99414062 C-22.0437915 181.20279785 -22.31683105 182.41145508 -22.59814453 183.65673828 C-22.85418457 184.78692383 -23.11022461 185.91710937 -23.37402344 187.08154297 C-23.82053669 189.07491675 -24.25874638 191.07018381 -24.68554688 193.06787109 C-25.98062148 199.12905898 -25.98062148 199.12905898 -27.07861328 200.22705078 C-30.06159542 200.32233298 -33.02137673 200.35257253 -36.00463867 200.34057617 C-36.94112747 200.3407222 -37.87761627 200.34086823 -38.84248352 200.34101868 C-41.95376867 200.34031915 -45.06499477 200.33252493 -48.17626953 200.32470703 C-50.32718371 200.32284299 -52.47809831 200.32141902 -54.62901306 200.32041931 C-60.30243086 200.31659303 -65.97582323 200.3067618 -71.64923096 200.29571533 C-77.43363094 200.28550358 -83.21803502 200.2809222 -89.00244141 200.27587891 C-100.36117656 200.26513963 -111.71989281 200.24806189 -123.07861328 200.22705078 C-122.62143695 198.48777654 -122.15957906 196.74973251 -121.69580078 195.01220703 C-121.43911621 194.04420166 -121.18243164 193.07619629 -120.91796875 192.07885742 C-120.16165748 189.509203 -119.26840226 187.11893558 -118.20361328 184.66455078 C-112.16270725 169.95425289 -109.1294708 153.93656949 -107.07861328 138.22705078 C-106.97249725 137.44059174 -106.86638123 136.65413269 -106.75704956 135.84384155 C-106.07082746 129.91785897 -106.22326572 124.59098129 -107.06297302 118.69363403 C-112.48510108 80.07736163 -112.48510108 80.07736163 -101.91113281 65.53076172 C-91.68716723 52.30183042 -78.20719387 41.27134216 -65.07182312 31.09066772 C-62.84313552 29.00688312 -61.55659583 26.88227346 -60.07861328 24.22705078 C-57.82925143 21.52194715 -55.35845635 19.04578792 -52.89111328 16.53955078 C-52.25625 15.8634375 -51.62138672 15.18732422 -50.96728516 14.49072266 C-46.45526461 9.90570684 -43.39014494 8.35568631 -37.07861328 7.22705078 C-33.89007815 6.03991121 -30.75964762 4.75031567 -27.61767578 3.44580078 C-18.44856096 0.28822482 -9.64068214 -0.05405205 0 0 Z " fill="#265A67" transform="translate(380.07861328125,52.77294921875)"/>
<path d="M0 0 C0.14695312 1.26972656 0.29390625 2.53945313 0.4453125 3.84765625 C1.86643275 15.11220495 4.08499114 24.7330926 9 35 C9.42925781 35.92554688 9.85851562 36.85109375 10.30078125 37.8046875 C15.66572417 48.47127018 25.61999643 65.1951096 37 70 C43.91024811 70.98034662 49.21939104 69.94078042 55 66 C57.46721963 63.55715657 59.47874491 60.87951497 61.5 58.0625 C62.05751953 57.30614258 62.61503906 56.54978516 63.18945312 55.77050781 C75.5983453 38.73883599 83.78377216 21.30495672 85 0 C90.75342976 1.26357376 95.69970699 3.00985234 100.9375 5.6875 C101.63697754 6.04271729 102.33645508 6.39793457 103.05712891 6.76391602 C108.55928686 9.62996927 113.34291824 12.88873879 118 17 C119.19302734 17.98033203 119.19302734 17.98033203 120.41015625 18.98046875 C143.48981562 38.564291 151.27489335 65.5099673 158.4375 93.75 C158.66499939 94.63838562 158.89249878 95.52677124 159.12689209 96.44207764 C159.78211677 99.01600068 160.42280399 101.59309014 161.05859375 104.171875 C161.25510025 104.94212006 161.45160675 105.71236511 161.65406799 106.50595093 C163.0132168 112.13206598 164.27322778 118.09668821 161.87109375 123.57421875 C161.39800781 124.27160156 160.92492187 124.96898437 160.4375 125.6875 C158.60564361 128.40301611 157.93668092 129.39890246 158.28515625 132.70703125 C158.78709487 134.94196437 158.78709487 134.94196437 160 136 C162.33297433 136.04092937 164.66705225 136.04241723 167 136 C167.2789209 135.2692627 167.5578418 134.53852539 167.84521484 133.78564453 C168.91383574 131.20785079 170.10574199 128.85710765 171.4765625 126.4296875 C171.97438232 125.54684082 172.47220215 124.66399414 172.98510742 123.75439453 C173.52627197 122.80419434 174.06743652 121.85399414 174.625 120.875 C175.19259033 119.87452637 175.76018066 118.87405273 176.3449707 117.84326172 C182.80693986 106.50448293 189.48544034 95.29548922 196.16552734 84.08447266 C198.79158874 79.66902687 201.39829955 75.24233182 204 70.8125 C204.41531982 70.10561035 204.83063965 69.3987207 205.25854492 68.67041016 C206.17277127 67.11384633 207.08646178 65.55696779 208 64 C210.8974797 65.37820348 213.51466368 66.94457236 216.16015625 68.7578125 C216.9493042 69.29768799 217.73845215 69.83756348 218.55151367 70.39379883 C219.7944519 71.25074341 219.7944519 71.25074341 221.0625 72.125 C221.90852783 72.70596436 222.75455566 73.28692871 223.6262207 73.88549805 C229.82629038 78.15660447 235.9586733 82.50633902 242 87 C240.45139163 91.27624211 238.29941356 95.07810445 235.96484375 98.9609375 C235.56729385 99.6285611 235.16974396 100.29618469 234.76014709 100.98403931 C233.48929098 103.11638527 232.21347551 105.24571436 230.9375 107.375 C230.10709618 108.76673281 229.27701532 110.15865836 228.44726562 111.55078125 C224.83747685 117.60295892 221.2131202 123.64636817 217.58473206 129.68740845 C212.5275422 138.1078471 207.50874781 146.55067328 202.5 155 C197.71099863 163.07863338 192.91790199 171.15480138 188.09765625 179.21484375 C187.73075684 179.83025024 187.36385742 180.44565674 186.98583984 181.07971191 C181.48574443 190.26036549 175.65984768 198.60053919 165 202 C155.99630201 202.96759198 148.2963803 202.83118426 141 197 C140.35417969 196.49210938 139.70835937 195.98421875 139.04296875 195.4609375 C131.40892318 188.6786907 129.33216794 178.30808468 126.625 168.8125 C126.32899902 167.78600342 126.03299805 166.75950684 125.72802734 165.7019043 C118.20331746 139.3854856 118.20331746 139.3854856 116 128 C113.66705225 127.95758277 111.33297433 127.95907063 109 128 C107.68017482 129.10410965 107.68017482 129.10410965 107.765625 131.8671875 C107.84609507 137.13261239 109.36683166 142.07740323 110.75 147.125 C111.02513428 148.15254395 111.30026855 149.18008789 111.58374023 150.23876953 C113.26748161 156.4740822 115.03269786 162.67540899 117.01171875 168.82421875 C117.77567037 171.27913049 118.47744963 173.72557635 119.14453125 176.20703125 C122.87602821 190.79901198 122.87602821 190.79901198 132.75 201.5625 C136.1694723 204.17428238 136.62141641 206.96657327 137.19433594 211.13842773 C137.82864893 217.13574244 138 222.95425714 138 229 C106.32 229 74.64 229 42 229 C42.33 227.35 42.66 225.7 43 224 C44.35931641 223.88785156 44.35931641 223.88785156 45.74609375 223.7734375 C57.28723609 222.5277269 64.18221849 219.03013313 71.5625 210.078125 C77.01046608 202.20226099 77.7824756 192.31857307 77 183 C75.28779835 178.67443792 73.11804666 177.03104747 69 175 C66.31616445 174.63566585 63.87150946 174.40309082 61.1875 174.3125 C58.79166667 174.20833333 56.39583333 174.10416667 54 174 C56.01778407 164.23916898 58.08774479 154.49455078 60.32421875 144.78125 C60.51815216 143.93578613 60.71208557 143.09032227 60.91189575 142.21923828 C61.70345892 138.7705038 62.49591193 135.32203137 63.29907227 131.87597656 C66.54014913 118.0791297 66.54014913 118.0791297 68 104 C67.06027344 103.79246094 66.12054688 103.58492188 65.15234375 103.37109375 C54.65092173 101.04668888 44.15896605 98.68156815 33.66873169 96.30722046 C20.91013374 93.4206909 8.1417044 90.57918347 -4.63037109 87.75292969 C-6.06868862 87.43426162 -7.50700251 87.1155771 -8.9453125 86.796875 C-9.63356613 86.64477066 -10.32181976 86.49266632 -11.03092957 86.33595276 C-16.47701867 85.12810782 -21.90564523 83.85174797 -27.32836914 82.54272461 C-30.66428272 81.86505524 -33.61401838 81.76376872 -37 82 C-39.20595475 87.50035617 -40.7001764 92.73204342 -41.76171875 98.55078125 C-42.07833045 100.15203926 -42.39674232 101.75294221 -42.71679688 103.35351562 C-43.20963319 105.8438306 -43.69142184 108.33418038 -44.14331055 110.83227539 C-44.58805586 113.26683361 -45.07696599 115.68897933 -45.57421875 118.11328125 C-45.69850754 118.86015701 -45.82279633 119.60703278 -45.95085144 120.37654114 C-46.4050293 122.48168945 -46.4050293 122.48168945 -48 126 C-50.06108074 127.14881918 -51.95043948 127.79050997 -54.23762512 128.35856628 C-54.81920883 128.57023941 -55.40079254 128.78191254 -56 129 C-57.13440778 131.57080135 -57.13440778 131.57080135 -57 134 C-52.21276663 138.29200233 -46.64280252 141.01520401 -41 144 C-38.85203556 145.15340538 -36.70491748 146.30838811 -34.55859375 147.46484375 C-33.47175293 148.04991699 -32.38491211 148.63499023 -31.26513672 149.23779297 C-26.18013378 151.9821889 -21.10934645 154.74852211 -16.0625 157.5625 C-15.16337891 158.05041016 -14.26425781 158.53832031 -13.33789062 159.04101562 C-12.10522461 159.73420898 -12.10522461 159.73420898 -10.84765625 160.44140625 C-10.12586182 160.84045166 -9.40406738 161.23949707 -8.66040039 161.65063477 C-7 163 -7 163 -6.19238281 164.83105469 C-5.95205129 167.54057912 -6.40984472 169.62251667 -7.07421875 172.26171875 C-7.32800293 173.29111572 -7.58178711 174.3205127 -7.84326172 175.38110352 C-8.12186035 176.47221436 -8.40045898 177.5633252 -8.6875 178.6875 C-9.24642929 180.94002093 -9.80502148 183.19262554 -10.36328125 185.4453125 C-10.7802124 187.10868652 -10.7802124 187.10868652 -11.20556641 188.80566406 C-12.30226304 193.21536867 -13.34399348 197.6370581 -14.375 202.0625 C-14.69521893 203.42840736 -15.01552061 204.79429532 -15.3359375 206.16015625 C-15.55507812 207.09730469 -15.77421875 208.03445313 -16 209 C-19.54434427 207.65544302 -22.80799193 206.08771656 -26.11328125 204.234375 C-27.10231445 203.68088379 -28.09134766 203.12739258 -29.11035156 202.55712891 C-30.16706055 201.96077637 -31.22376953 201.36442383 -32.3125 200.75 C-33.41174805 200.1317334 -34.51099609 199.5134668 -35.64355469 198.87646484 C-46.31595734 192.85515921 -56.92144408 186.72148045 -67.47119141 180.48779297 C-69.66434433 179.19747883 -71.86644509 177.9251965 -74.07421875 176.66015625 C-87.12459092 169.00575678 -95.09456841 159.73372972 -99.875 145.37109375 C-100.46278268 142.89342647 -100.78725985 140.53768613 -101 138 C-101.0928125 136.93265625 -101.185625 135.8653125 -101.28125 134.765625 C-102.05128528 117.43983124 -92.9890405 104.12009551 -84.56005859 89.69287109 C-82.85780789 86.75455728 -81.21783675 83.78702054 -79.58911133 80.80761719 C-68.78805904 61.13197854 -56.57399917 41.26556219 -41 25 C-40.30519531 24.24203125 -39.61039063 23.4840625 -38.89453125 22.703125 C-29.76989947 13.063259 -13.97346152 0 0 0 Z " fill="#F3D392" transform="translate(112,272)"/>
<path d="M0 0 C0.77730469 0.71671875 1.55460938 1.4334375 2.35546875 2.171875 C3.24621094 2.97109375 4.13695312 3.7703125 5.0546875 4.59375 C23.5510987 22.03248636 32.88303452 45.50735301 37.35546875 70.171875 C37.63040161 71.58073975 37.63040161 71.58073975 37.91088867 73.01806641 C47.09734488 126.65842896 34.06268351 178.48361211 12.35546875 227.171875 C1.72819085 227.63315063 1.72819085 227.63315063 -2.26953125 224.671875 C-2.92179688 224.2078125 -3.5740625 223.74375 -4.24609375 223.265625 C-4.93832031 222.72421875 -4.93832031 222.72421875 -5.64453125 222.171875 C-5.27199219 221.23085938 -4.89945313 220.28984375 -4.515625 219.3203125 C-4.03701343 218.06278405 -3.55919046 216.80495526 -3.08203125 215.546875 C-2.60636719 214.31710937 -2.13070312 213.08734375 -1.640625 211.8203125 C-0.61420722 208.06080579 -0.68600408 205.90266936 -1.64453125 202.171875 C-3.62453125 202.171875 -5.60453125 202.171875 -7.64453125 202.171875 C-8.43876986 203.73306922 -9.22980248 205.29589464 -10.01953125 206.859375 C-10.68082031 208.16455078 -10.68082031 208.16455078 -11.35546875 209.49609375 C-12.57117393 212.01960299 -13.63714083 214.55925032 -14.64453125 217.171875 C-20.67026019 216.37791626 -26.61596932 215.26330084 -32.58203125 214.109375 C-35.90265625 213.47 -39.22328125 212.830625 -42.64453125 212.171875 C-42.64453125 203.921875 -42.64453125 195.671875 -42.64453125 187.171875 C-40.58203125 186.2025 -38.51953125 185.233125 -36.39453125 184.234375 C-15.64839831 174.03996592 -3.02467983 157.87352194 4.4453125 136.42578125 C5.39832947 133.01864334 5.87401518 129.67217255 6.35546875 126.171875 C8.21909695 124.3082468 11.48272827 124.95139702 13.98046875 124.859375 C20.01622059 124.44840409 23.67513454 124.03823805 28.35546875 120.171875 C32.29959514 114.82782721 33.89766418 109.78665919 33.35546875 103.171875 C31.72164079 97.68762445 28.99058232 93.97084096 23.9453125 91.22216797 C20.82754908 89.95778088 17.89956986 89.50361004 14.5703125 89.0390625 C13.40491943 88.8726123 12.23952637 88.70616211 11.03881836 88.53466797 C9.7105603 88.35508545 9.7105603 88.35508545 8.35546875 88.171875 C8.34960251 87.5646611 8.34373627 86.9574472 8.33769226 86.33183289 C8.27384147 80.02144925 8.18944372 73.71157955 8.09301758 67.40161133 C8.05972855 65.04556039 8.03170914 62.68942894 8.0090332 60.33325195 C7.97556072 56.94968293 7.92324783 53.56685446 7.8671875 50.18359375 C7.85760262 48.59909676 7.85760262 48.59909676 7.8478241 46.98258972 C7.82802994 46.00179947 7.80823578 45.02100922 7.7878418 44.01049805 C7.77673874 43.14668015 7.76563568 42.28286224 7.75419617 41.39286804 C7.27093685 38.70101509 6.55707727 37.76146159 4.35546875 36.171875 C1.0372789 36.41392849 1.0372789 36.41392849 -1.64453125 38.171875 C-1.80311967 40.31574157 -1.89582423 42.46454338 -1.9609375 44.61328125 C-2.00283203 45.91845703 -2.04472656 47.22363281 -2.08789062 48.56835938 C-2.12770733 49.9570283 -2.1674195 51.34570022 -2.20703125 52.734375 C-2.25021114 54.12696683 -2.29382525 55.51954528 -2.33789062 56.91210938 C-2.44439001 60.33192301 -2.54640048 63.75181263 -2.64453125 67.171875 C-11.0503313 66.40607328 -18.73377392 63.7522787 -24.64453125 57.359375 C-28.47755366 51.25049553 -29.63388055 45.24642991 -30.64453125 38.171875 C-31.30453125 37.511875 -31.96453125 36.851875 -32.64453125 36.171875 C-35.74379944 36.49386466 -35.74379944 36.49386466 -38.64453125 37.171875 C-38.97453125 38.161875 -39.30453125 39.151875 -39.64453125 40.171875 C-47.56453125 40.171875 -55.48453125 40.171875 -63.64453125 40.171875 C-61.44072494 52.29280969 -59.68932362 56.55880396 -49.92578125 63.37109375 C-48.51046261 64.32242822 -47.07902152 65.24970268 -45.64453125 66.171875 C-45.97453125 68.481875 -46.30453125 70.791875 -46.64453125 73.171875 C-50.21063961 74.23412004 -52.3666405 74.72867026 -55.83203125 73.21875 C-65.40041176 67.1720651 -72.09430489 59.32094154 -74.64453125 48.171875 C-74.90690092 45.39950214 -74.85506166 42.96140298 -74.64453125 40.171875 C-79.26453125 40.171875 -83.88453125 40.171875 -88.64453125 40.171875 C-88.64453125 42.811875 -88.64453125 45.451875 -88.64453125 48.171875 C-88.97453125 48.171875 -89.30453125 48.171875 -89.64453125 48.171875 C-89.97453125 44.541875 -90.30453125 40.911875 -90.64453125 37.171875 C-93.54526306 36.49386466 -93.54526306 36.49386466 -96.64453125 36.171875 C-99.29220416 38.81954791 -99.09675629 40.54587919 -99.51953125 44.234375 C-101.02810654 54.61154444 -104.29367743 61.58061387 -112.64453125 68.171875 C-119.60256203 72.6143988 -128.30119533 76.171875 -136.64453125 76.171875 C-136.97453125 63.301875 -137.30453125 50.431875 -137.64453125 37.171875 C-143.10537386 35.65722476 -143.10537386 35.65722476 -145.64453125 37.171875 C-145.97453125 54.331875 -146.30453125 71.491875 -146.64453125 89.171875 C-151.26453125 89.501875 -155.88453125 89.831875 -160.64453125 90.171875 C-166.16526976 92.43035894 -168.76922794 94.97421132 -171.64453125 100.171875 C-173.68586542 106.2958775 -172.81883564 111.41362544 -170.01171875 117.0859375 C-167.55834661 120.82908242 -164.87900626 122.74965771 -160.64453125 124.171875 C-155.9749756 124.83967167 -151.35848303 125.09904709 -146.64453125 125.171875 C-145.54836442 128.37605496 -144.52888337 131.57815857 -143.6015625 134.8359375 C-137.73062626 155.43339766 -125.58905656 171.6999157 -106.921875 182.3515625 C-103.8679061 184.04865779 -100.76909366 185.59242587 -97.64453125 187.171875 C-97.64453125 195.421875 -97.64453125 203.671875 -97.64453125 212.171875 C-106.83203125 213.609375 -106.83203125 213.609375 -109.69995117 214.05639648 C-110.83847534 214.23537476 -110.83847534 214.23537476 -112 214.41796875 C-113.15471802 214.59863892 -113.15471802 214.59863892 -114.33276367 214.78295898 C-116.78165766 215.19494421 -119.21191803 215.67331158 -121.64453125 216.171875 C-122.92149239 212.88255385 -124.18993041 209.59000573 -125.45703125 206.296875 C-125.81345703 205.3790625 -126.16988281 204.46125 -126.53710938 203.515625 C-128.596008 198.15115518 -130.4430539 192.78212475 -132.0378418 187.26123047 C-132.5339173 185.55281431 -133.08196777 183.85956544 -133.64453125 182.171875 C-137.98637327 182.35651866 -137.98637327 182.35651866 -141.64453125 184.171875 C-141.33236018 192.07473219 -138.84525567 198.71711712 -136.01953125 206.046875 C-135.16478614 208.27022984 -134.31801185 210.49667069 -133.48046875 212.7265625 C-132.91658447 214.18811768 -132.91658447 214.18811768 -132.34130859 215.67919922 C-131.64453125 218.171875 -131.64453125 218.171875 -132.64453125 221.171875 C-135.3671875 222.99609375 -135.3671875 222.99609375 -138.70703125 224.859375 C-140.36412109 225.79330078 -140.36412109 225.79330078 -142.0546875 226.74609375 C-142.90933594 227.21660156 -143.76398438 227.68710937 -144.64453125 228.171875 C-147.06542917 225.95725374 -148.5643709 223.77607138 -150.09765625 220.8828125 C-150.54858643 220.03267578 -150.9995166 219.18253906 -151.46411133 218.30664062 C-151.9361499 217.39591797 -152.40818848 216.48519531 -152.89453125 215.546875 C-153.38397217 214.60263672 -153.87341309 213.65839844 -154.37768555 212.68554688 C-164.56802724 192.76493165 -170.95878349 172.23332922 -174.64453125 150.171875 C-174.80937012 149.43251709 -174.97420898 148.69315918 -175.14404297 147.93139648 C-177.46385023 135.14077139 -176.8309169 121.49716885 -176.82983398 108.54223633 C-176.83203124 105.60939225 -176.8503047 102.67691926 -176.86914062 99.74414062 C-176.91398244 85.07878399 -175.92022242 70.98152885 -172.45703125 56.671875 C-172.2441748 55.79023682 -172.03131836 54.90859863 -171.81201172 54.00024414 C-167.48729356 37.00720623 -159.16952861 21.38289402 -147.64453125 8.171875 C-146.84982422 7.25148438 -146.84982422 7.25148438 -146.0390625 6.3125 C-134.73858346 -5.85295398 -119.12149098 -13.21395814 -103.39453125 -17.703125 C-102.68659424 -17.90647461 -101.97865723 -18.10982422 -101.24926758 -18.31933594 C-69.3863789 -26.78675644 -25.66202225 -22.18024033 0 0 Z " fill="#353C5F" transform="translate(224.64453125,46.828125)"/>
<path d="M0 0 C4.62 0 9.24 0 14 0 C14.226875 1.77375 14.45375 3.5475 14.6875 5.375 C16.50312827 16.07964169 21.07570095 23.81446938 29.7578125 30.31640625 C33.894537 32.97837919 37.16036358 33.39507236 42 33 C42.75413353 29.75643424 42.75413353 29.75643424 42 26 C39.93377096 24.20836785 37.74784469 22.92490828 35.39453125 21.53515625 C30.5307966 18.41697074 26.38730555 13.68795276 25 8 C25 5.36 25 2.72 25 0 C32.92 0 40.84 0 49 0 C49.226875 1.93875 49.45375 3.8775 49.6875 5.875 C51.16413876 15.24401832 54.17555522 22.46725792 61.70703125 28.47265625 C69.20371871 33.46619083 77.37823281 35.74462127 86 38 C86.04987886 43.90412196 86.0859438 49.80811804 86.10986328 55.71240234 C86.11984748 57.71600484 86.13343955 59.71959305 86.15087891 61.72314453 C86.38320544 89.12400899 86.38320544 89.12400899 81 100.9375 C80.69803711 101.60789307 80.39607422 102.27828613 80.08496094 102.96899414 C71.73828921 120.61272188 57.56290972 131.67150356 39.625 138.8125 C24.53212227 143.75671857 5.2574955 142.92793795 -9 136 C-26.73924792 126.57848833 -39.63457118 112.75265472 -45.8581543 93.32055664 C-48.46703884 83.60002333 -48.34543368 74.15917429 -48.1875 64.1875 C-48.17241177 62.51238195 -48.15873075 60.83725061 -48.14648438 59.16210938 C-48.11383883 55.10773724 -48.06229092 51.05402056 -48 47 C-44.79217586 45.90211089 -41.68776747 44.93001685 -38.375 44.1875 C-26.61606851 41.25336662 -14.29264287 35.75846869 -7.5625 25.25 C-3.34077232 17.31900869 -0.68880303 8.95443945 0 0 Z " fill="#FCA89E" transform="translate(136,87)"/>
<path d="M0 0 C3.65321661 3.5610634 7.03587215 7.27530925 10.3125 11.1875 C10.79106445 11.75557373 11.26962891 12.32364746 11.76269531 12.90893555 C14.64117063 16.33855706 17.46537597 19.80593641 20.25 23.3125 C21.49876149 24.87599 22.74869618 26.43854395 24 28 C24.58265625 28.7321875 25.1653125 29.464375 25.765625 30.21875 C26.33796875 30.9096875 26.9103125 31.600625 27.5 32.3125 C27.9846875 32.90675781 28.469375 33.50101562 28.96875 34.11328125 C34.47538378 39.22809686 40.53476428 41.83160544 47.765625 43.52734375 C48.99469574 43.83296486 48.99469574 43.83296486 50.24859619 44.14476013 C52.82860598 44.78034201 55.41308351 45.39319167 58 46 C58.82266357 46.19507141 59.64532715 46.39014282 60.49291992 46.59112549 C66.23753542 47.94940271 71.99213033 49.26173201 77.75 50.5625 C96.41828196 54.78374172 96.41828196 54.78374172 105.390625 57.08984375 C106.55110352 57.38624756 107.71158203 57.68265137 108.90722656 57.98803711 C114.39839737 59.78476137 117.73800036 62.22350052 121 67 C123.23640591 72.59101478 121.94688454 79.09921922 120.79296875 84.8125 C120.51490991 86.22502406 120.23814975 87.63780414 119.96240234 89.05078125 C119.80898376 89.83146973 119.65556519 90.6121582 119.49749756 91.41650391 C118.53095798 96.43572699 117.64000863 101.46880646 116.73828125 106.5 C116.33789515 108.72656331 115.93750447 110.9531258 115.53710938 113.1796875 C115.12889317 115.45312265 114.7206902 117.72656018 114.3125 120 C113.89263277 122.33594732 113.47271129 124.67188489 113.05273438 127.0078125 C112.03453155 132.67176292 111.01706039 138.33584433 110 144 C106.7 144 103.4 144 100 144 C102.01778407 134.23916898 104.08774479 124.49455078 106.32421875 114.78125 C106.51815216 113.93578613 106.71208557 113.09032227 106.91189575 112.21923828 C107.70345892 108.7705038 108.49591193 105.32203137 109.29907227 101.87597656 C112.54014913 88.0791297 112.54014913 88.0791297 114 74 C113.06027344 73.79246094 112.12054688 73.58492188 111.15234375 73.37109375 C100.65092173 71.04668888 90.15896605 68.68156815 79.66873169 66.30722046 C66.91013374 63.4206909 54.1417044 60.57918347 41.36962891 57.75292969 C39.93131138 57.43426162 38.49299749 57.1155771 37.0546875 56.796875 C36.36643387 56.64477066 35.67818024 56.49266632 34.96907043 56.33595276 C29.52298133 55.12810782 24.09435477 53.85174797 18.67163086 52.54272461 C15.33571728 51.86505524 12.38598162 51.76376872 9 52 C6.79404525 57.50035617 5.2998236 62.73204342 4.23828125 68.55078125 C3.92166955 70.15203926 3.60325768 71.75294221 3.28320312 73.35351562 C2.79036681 75.8438306 2.30857816 78.33418038 1.85668945 80.83227539 C1.41194414 83.26683361 0.92303401 85.68897933 0.42578125 88.11328125 C0.30149246 88.86015701 0.17720367 89.60703278 0.04914856 90.37654114 C-0.4050293 92.48168945 -0.4050293 92.48168945 -2 96 C-4.06108074 97.14881918 -5.95043948 97.79050997 -8.23762512 98.35856628 C-9.11000069 98.67607597 -9.11000069 98.67607597 -10 99 C-11.13440778 101.57080135 -11.13440778 101.57080135 -11 104 C-6.21276663 108.29200233 -0.64280252 111.01520401 5 114 C7.14796444 115.15340538 9.29508252 116.30838811 11.44140625 117.46484375 C12.52824707 118.04991699 13.61508789 118.63499023 14.73486328 119.23779297 C19.81986622 121.9821889 24.89065355 124.74852211 29.9375 127.5625 C30.83662109 128.05041016 31.73574219 128.53832031 32.66210938 129.04101562 C33.89477539 129.73420898 33.89477539 129.73420898 35.15234375 130.44140625 C35.87413818 130.84045166 36.59593262 131.23949707 37.33959961 131.65063477 C39 133 39 133 39.80761719 134.83105469 C40.04794871 137.54057912 39.59015528 139.62251667 38.92578125 142.26171875 C38.67199707 143.29111572 38.41821289 144.3205127 38.15673828 145.38110352 C37.87813965 146.47221436 37.59954102 147.5633252 37.3125 148.6875 C36.75357071 150.94002093 36.19497852 153.19262554 35.63671875 155.4453125 C35.2197876 157.10868652 35.2197876 157.10868652 34.79443359 158.80566406 C33.69773696 163.21536867 32.65600652 167.6370581 31.625 172.0625 C31.30478107 173.42840736 30.98447939 174.79429532 30.6640625 176.16015625 C30.44492188 177.09730469 30.22578125 178.03445313 30 179 C26.45565573 177.65544302 23.19200807 176.08771656 19.88671875 174.234375 C18.89768555 173.68088379 17.90865234 173.12739258 16.88964844 172.55712891 C15.83293945 171.96077637 14.77623047 171.36442383 13.6875 170.75 C12.58825195 170.1317334 11.48900391 169.5134668 10.35644531 168.87646484 C-0.31595734 162.85515921 -10.92144408 156.72148045 -21.47119141 150.48779297 C-23.66434433 149.19747883 -25.86644509 147.9251965 -28.07421875 146.66015625 C-41.12459092 139.00575678 -49.09456841 129.73372972 -53.875 115.37109375 C-54.46278268 112.89342647 -54.78725985 110.53768613 -55 108 C-55.0928125 106.93265625 -55.185625 105.8653125 -55.28125 104.765625 C-56.05128528 87.43983124 -46.9890405 74.12009551 -38.56005859 59.69287109 C-36.85780789 56.75455728 -35.21783675 53.78702054 -33.58911133 50.80761719 C-23.85771559 33.08050866 -12.74670752 15.71709412 0 0 Z " fill="#F2B574" transform="translate(66,302)"/>
<path d="M0 0 C94.05 0 188.1 0 285 0 C285 6.93 285 13.86 285 21 C282.40360657 21.00546844 282.40360657 21.00546844 279.75476074 21.01104736 C263.395276 21.04808332 247.03598396 21.10571629 230.67664337 21.18390274 C222.26733617 21.2235731 213.85812092 21.25602615 205.44873047 21.27099609 C198.11206853 21.28407528 190.77560994 21.31119787 183.4390626 21.35461307 C179.56075087 21.37708831 175.68268864 21.39291917 171.80430603 21.39188385 C145.70394683 21.12749812 145.70394683 21.12749812 121.08984375 29.0703125 C119 30 119 30 115.73828125 30.66015625 C110.68085919 32.4727955 107.90186628 35.4740153 104.25 39.3125 C103.59128906 39.97701172 102.93257813 40.64152344 102.25390625 41.32617188 C98.59710833 45.05675666 98.59710833 45.05675666 95.65611267 49.34884644 C93.95938172 52.06502293 92.16367944 54.07732782 89.89575195 56.33129883 C89.07512772 57.151772 88.25450348 57.97224518 87.40901184 58.81758118 C86.52767075 59.6885997 85.64632965 60.55961823 84.73828125 61.45703125 C83.37959175 62.81147591 83.37959175 62.81147591 81.99345398 64.19328308 C79.59517736 66.58227964 77.19266672 68.96684857 74.78796387 71.34936523 C72.33090897 73.78588877 69.87957074 76.22814906 67.42773438 78.66992188 C62.62372406 83.45190223 57.81404655 88.22812447 53 93 C51.0619695 90.09295426 50.57864914 88.67201604 49.95703125 85.34375 C49.77422607 84.41304688 49.5914209 83.48234375 49.40307617 82.5234375 C49.20818604 81.52570313 49.0132959 80.52796875 48.8125 79.5 C42.71092934 50.11303126 29.3595922 23.72953746 5.3828125 4.91015625 C3 3 3 3 0 0 Z " fill="#264653" transform="translate(222,32)"/>
<path d="M0 0 C0.33 0 0.66 0 1 0 C1 46.53 1 93.06 1 141 C-19.3775 141.103125 -39.755 141.20625 -60.75 141.3125 C-70.40588379 141.38078003 -70.40588379 141.38078003 -80.25683594 141.45043945 C-88.10986328 141.47302246 -88.10986328 141.47302246 -91.784729 141.47721863 C-94.35504007 141.48490433 -96.92412929 141.50063729 -99.49420166 141.52787781 C-103.38392546 141.56855975 -107.27313975 141.56953358 -111.16308594 141.56762695 C-112.31037045 141.58561749 -113.45765495 141.60360804 -114.63970566 141.62214375 C-122.3417846 141.57146163 -122.3417846 141.57146163 -125.72467041 138.63444519 C-127.21949772 135.54658411 -127.32152984 133.88222601 -126.875 130.5 C-126.76929688 129.5821875 -126.66359375 128.664375 -126.5546875 127.71875 C-125.99242628 124.96287811 -125.12728564 122.57132924 -124 120 C-123.43716309 119.94054199 -122.87432617 119.88108398 -122.29443359 119.81982422 C-96.55166798 116.971175 -81.3423587 106.82871408 -63.390625 88.82421875 C-62.0110008 87.44916738 -60.63100918 86.07448456 -59.25067139 84.70014954 C-56.37480553 81.83316498 -53.50460875 78.96065078 -50.63818359 76.08422852 C-46.98660991 72.42115429 -43.31939414 68.77420417 -39.64752579 65.13148785 C-36.79893287 62.30134289 -33.95981845 59.46183322 -31.12328339 56.61960793 C-29.77572198 55.27189445 -28.42510629 53.92722697 -27.07123566 52.58585167 C-19.67932172 45.25262077 -13.03050117 38.2293876 -8 29 C-7.6543248 28.36992538 -7.3086496 27.73985077 -6.95249939 27.09068298 C-2.39811888 18.27492342 -0.79264634 9.7577498 0 0 Z " fill="#254653" transform="translate(506,133)"/>
<path d="M0 0 C8.10456784 0.51652433 15.74992679 2.20360466 23.625 4.125 C26.28419674 4.76316529 28.94469563 5.39578665 31.60546875 6.02734375 C32.28865677 6.18993179 32.97184479 6.35251984 33.67573547 6.52003479 C38.62324058 7.6912946 43.5818415 8.8024186 48.55078125 9.87890625 C49.25479065 10.0314386 49.95880005 10.18397095 50.68414307 10.34112549 C54.0631429 11.07119061 57.44334758 11.79507442 60.82470703 12.51416016 C69.63403447 14.40946222 78.31518554 16.6059162 87 19 C85.60343732 28.15892751 83.70069464 37.16133367 81.625 46.1875 C81.31217853 47.55927144 80.99959885 48.93109805 80.68725586 50.30297852 C78.50318042 59.87914511 76.28523346 69.44744024 74 79 C73.34 79 72.68 79 72 79 C71.94392578 77.98679687 71.94392578 77.98679687 71.88671875 76.953125 C71.82097656 76.06109375 71.75523437 75.1690625 71.6875 74.25 C71.62949219 73.36828125 71.57148438 72.4865625 71.51171875 71.578125 C70.91514017 68.5724619 70.19985871 67.13141866 68 65 C63.24983717 63.88808581 59.02228914 64.49849967 54.6875 66.625 C51.73980234 69.22994212 49.45448748 71.93189065 47 75 C44.47946405 76.26026798 43.1457902 75.91874445 40.375 75.5625 C39.14910156 75.40974609 39.14910156 75.40974609 37.8984375 75.25390625 C37.27195313 75.17011719 36.64546875 75.08632813 36 75 C35 70 35 70 34.7097168 67.49243164 C34.22265645 64.92399723 34.22265645 64.92399723 32.30786133 63.52124023 C31.5733374 63.12106689 30.83881348 62.72089355 30.08203125 62.30859375 C29.24953857 61.84420898 28.4170459 61.37982422 27.55932617 60.90136719 C26.19964722 60.17675293 26.19964722 60.17675293 24.8125 59.4375 C23.88735596 58.92735352 22.96221191 58.41720703 22.0090332 57.89160156 C19.01446856 56.24508134 16.00753009 54.62269616 13 53 C10.90275748 51.85188166 8.80640005 50.70214504 6.7109375 49.55078125 C1.48350088 46.68277441 -3.75426426 43.83438335 -9 41 C-3.85613795 13.05485809 -3.85613795 13.05485809 0 0 Z " fill="#FC4A6D" transform="translate(82,365)"/>
<path d="M0 0 C9.02067752 2.25516938 9.02067752 2.25516938 11.96484375 3.69921875 C12.61501465 4.01753662 13.26518555 4.33585449 13.93505859 4.66381836 C14.59586426 5.0016333 15.25666992 5.33944824 15.9375 5.6875 C16.63697754 6.04271729 17.33645508 6.39793457 18.05712891 6.76391602 C23.55928686 9.62996927 28.34291824 12.88873879 33 17 C33.79535156 17.65355469 34.59070313 18.30710937 35.41015625 18.98046875 C58.48981562 38.564291 66.27489335 65.5099673 73.4375 93.75 C73.66499939 94.63838562 73.89249878 95.52677124 74.12689209 96.44207764 C74.78211677 99.01600068 75.42280399 101.59309014 76.05859375 104.171875 C76.25510025 104.94212006 76.45160675 105.71236511 76.65406799 106.50595093 C78.0132168 112.13206598 79.27322778 118.09668821 76.87109375 123.57421875 C76.39800781 124.27160156 75.92492187 124.96898437 75.4375 125.6875 C73.60564361 128.40301611 72.93668092 129.39890246 73.28515625 132.70703125 C73.78709487 134.94196437 73.78709487 134.94196437 75 136 C77.33297433 136.04092937 79.66705225 136.04241723 82 136 C82.2789209 135.2692627 82.5578418 134.53852539 82.84521484 133.78564453 C83.91383574 131.20785079 85.10574199 128.85710765 86.4765625 126.4296875 C86.97438232 125.54684082 87.47220215 124.66399414 87.98510742 123.75439453 C88.52627197 122.80419434 89.06743652 121.85399414 89.625 120.875 C90.19259033 119.87452637 90.76018066 118.87405273 91.3449707 117.84326172 C97.80693986 106.50448293 104.48544034 95.29548922 111.16552734 84.08447266 C113.79158874 79.66902687 116.39829955 75.24233182 119 70.8125 C119.41531982 70.10561035 119.83063965 69.3987207 120.25854492 68.67041016 C121.17277127 67.11384633 122.08646178 65.55696779 123 64 C126.66398299 65.68970089 129.90832572 67.87300211 133.25 70.125 C134.32765625 70.84945312 135.4053125 71.57390625 136.515625 72.3203125 C137.33546875 72.87460937 138.1553125 73.42890625 139 74 C138.4410143 77.54809222 137.58584621 80.07527116 135.65625 83.09765625 C135.16068604 83.88446777 134.66512207 84.6712793 134.15454102 85.48193359 C133.60854248 86.33352051 133.06254395 87.18510742 132.5 88.0625 C131.30985905 89.95097981 130.12113021 91.84035007 128.93359375 93.73046875 C128.29663574 94.74157715 127.65967773 95.75268555 127.00341797 96.79443359 C123.83450807 101.8648439 120.73720544 106.9781754 117.64151001 112.09344482 C116.56140015 113.87681597 115.47869727 115.65858785 114.39526367 117.43994141 C110.90441709 123.18299312 107.43718509 128.93789999 104.015625 134.72265625 C103.38970459 135.77275879 102.76378418 136.82286133 102.11889648 137.90478516 C100.95042706 139.86649987 99.79048053 141.83332719 98.64086914 143.80615234 C92.11765352 154.71323327 92.11765352 154.71323327 85.875 156.6640625 C85.25625 156.65117187 84.6375 156.63828125 84 156.625 C83.38125 156.63789063 82.7625 156.65078125 82.125 156.6640625 C78.60898506 155.56530783 76.24619135 153.85131576 74 151 C72.26919676 147.13577553 71.17694272 143.1410118 70.0625 139.0625 C69.38145034 136.70927561 68.69913766 134.35641642 68.015625 132.00390625 C67.67982422 130.82586426 67.34402344 129.64782227 66.99804688 128.43408203 C65.54119232 123.42133345 63.92880805 118.46310533 62.3125 113.5 C60.20382709 106.95254124 58.23427561 100.3896587 56.4375 93.75 C48.65479729 65.28402198 37.23965857 39.42266204 10.29443359 24.02539062 C6.56209899 21.94774111 2.78999402 19.97563518 -1 18 C-0.505 9.09 -0.505 9.09 0 0 Z " fill="#F2F4B9" transform="translate(197,272)"/>
<path d="M0 0 C113.85 0 227.7 0 345 0 C345 3.3 345 6.6 345 10 C305.50839321 10.09134239 266.01680309 10.16208614 226.52511161 10.20426132 C221.85780535 10.20926386 217.19049931 10.21444118 212.52319336 10.21972656 C211.12948763 10.22130043 211.12948763 10.22130043 209.70762623 10.22290608 C194.68305305 10.24028913 179.65854139 10.27181519 164.63400465 10.30861118 C149.20587675 10.34607915 133.77778096 10.36824821 118.34960943 10.37635398 C108.83732029 10.38182963 99.32520504 10.39909459 89.81296945 10.43166587 C83.28114245 10.45288612 76.74940473 10.45918313 70.2175458 10.45400551 C66.45464829 10.45145535 62.69205367 10.45523438 58.92921066 10.4768219 C31.49760556 10.62663133 31.49760556 10.62663133 18 6 C14.69362845 5.40613655 11.4082738 5.03249278 8.0625 4.75 C7.27166016 4.67265625 6.48082031 4.5953125 5.66601562 4.515625 C3.7783933 4.33258284 1.88933044 4.16447779 0 4 C0 2.68 0 1.36 0 0 Z " fill="#F4D39C" transform="translate(162,11)"/>
<path d="M0 0 C10.23199469 4.904463 20.20694515 10.24382652 30.125 15.75 C30.71681061 16.07751251 31.30862122 16.40502502 31.91836548 16.74246216 C33.63744911 17.69491575 35.35391708 18.65208553 37.0703125 19.609375 C38.06820801 20.16592773 39.06610352 20.72248047 40.09423828 21.29589844 C43.15256417 23.08947218 46.06899723 25.00680926 49 27 C47.59524416 35.56143217 45.5963196 43.91313386 43.4375 52.3125 C42.80899349 54.76636352 42.18261367 57.22077295 41.55859375 59.67578125 C41.28329834 60.74739502 41.00800293 61.81900879 40.72436523 62.9230957 C40.01481823 65.93705623 39.47282942 68.94080228 39 72 C35.45565573 70.65544302 32.19200807 69.08771656 28.88671875 67.234375 C27.89720215 66.68056152 26.90768555 66.12674805 25.88818359 65.55615234 C24.83195801 64.96012207 23.77573242 64.3640918 22.6875 63.75 C21.04515381 62.82695068 21.04515381 62.82695068 19.36962891 61.88525391 C8.65463875 55.84321982 -1.96727159 49.64466668 -12.57519531 43.41699219 C-15.70410456 41.58853978 -18.84869025 39.78952492 -22 38 C-20.47880562 33.84388835 -18.43538309 30.10665829 -16.19140625 26.30859375 C-15.64032448 25.36790794 -15.64032448 25.36790794 -15.07810974 24.40821838 C-14.30398504 23.08863 -13.52816062 21.77003743 -12.75073242 20.45239258 C-11.56566404 18.44286528 -10.38694039 16.42971854 -9.20898438 14.41601562 C-8.45349949 13.12998826 -7.69765224 11.84417369 -6.94140625 10.55859375 C-6.59130997 9.96058456 -6.24121368 9.36257538 -5.88050842 8.7464447 C-4.07448363 5.69286873 -2.19724281 2.78688265 0 0 Z " fill="#F2D292" transform="translate(57,409)"/>
<path d="M0 0 C1.57625585 2.90962424 2.52224778 5.64633459 3.296875 8.859375 C3.64685547 10.27464478 3.64685547 10.27464478 4.00390625 11.71850586 C4.25011719 12.71889893 4.49632812 13.71929199 4.75 14.75 C9.40785308 36.21449012 9.40785308 36.21449012 22.6015625 52.68359375 C25.89190875 55.86140373 26.00028863 58.96034868 26.3125 63.3125 C26.42174805 64.41368164 26.42174805 64.41368164 26.53320312 65.53710938 C26.95561906 70.07104044 27 74.41168276 27 79 C-4.68 79 -36.36 79 -69 79 C-68.67 77.35 -68.34 75.7 -68 74 C-66.64068359 73.88785156 -66.64068359 73.88785156 -65.25390625 73.7734375 C-53.46376676 72.50085102 -47.0875893 68.90267415 -39.41015625 60.02734375 C-37.84799982 57.78147342 -36.97825003 55.54606923 -36 53 C-35.40864258 53.28294922 -34.81728516 53.56589844 -34.20800781 53.85742188 C-27.56251692 56.80579171 -21.97727993 57.61913099 -14.75 57.5 C-13.79609375 57.51546875 -12.8421875 57.5309375 -11.859375 57.546875 C-5.9522547 57.51405766 -2.49008685 56.93249436 2 53 C5.38163464 46.23673073 1.7957414 37.06397878 0.0625 30.25 C-0.21529297 29.12722656 -0.49308594 28.00445312 -0.77929688 26.84765625 C-2.13629129 21.36090364 -2.13629129 21.36090364 -3.56860352 15.89355469 C-4.47489565 11.91551179 -4.90475723 7.87272893 -3.10546875 4.1484375 C-2.14339143 2.71382044 -1.07906353 1.34882941 0 0 Z " fill="#F2B474" transform="translate(223,422)"/>
<path d="M0 0 C0.74719299 0.16041779 1.49438599 0.32083557 2.26422119 0.4861145 C3.45921234 0.73967209 3.45921234 0.73967209 4.67834473 0.99835205 C6.34598432 1.35405544 8.01311689 1.71214374 9.67974854 2.07254028 C12.22282342 2.62010634 14.76870993 3.1529578 17.31500244 3.68533325 C18.94410056 4.03470017 20.5730138 4.38493055 22.20172119 4.7361145 C22.95701111 4.89248383 23.71230103 5.04885315 24.49047852 5.20996094 C28.64632738 6.12551385 32.01861338 7.21622809 35.46734619 9.743927 C38.85302345 16.51528152 34.14985732 29.45357272 32.12359619 36.49002075 C30.8266247 40.31494611 29.47666936 42.36310002 25.96734619 44.556427 C25.19261963 44.927677 24.41789307 45.298927 23.61968994 45.681427 C20.29521031 47.32254943 18.69761945 49.83781336 16.46734619 52.743927 C13.94681024 54.00419498 12.61313639 53.66267146 9.84234619 53.306427 C8.61644775 53.1536731 8.61644775 53.1536731 7.36578369 52.99783325 C6.73929932 52.91404419 6.11281494 52.83025513 5.46734619 52.743927 C4.46734619 47.743927 4.46734619 47.743927 4.21002197 45.25393677 C3.22833899 41.93615808 2.02334921 41.40244582 -0.97796631 39.77127075 C-1.89062256 39.26402466 -2.80327881 38.75677856 -3.74359131 38.23416138 C-4.70523193 37.72175903 -5.66687256 37.20935669 -6.65765381 36.681427 C-7.59609131 36.16515747 -8.53452881 35.64888794 -9.50140381 35.11697388 C-11.33149148 34.11093829 -13.16505862 33.11120116 -15.00238037 32.11843872 C-18.20895849 30.37654034 -21.37279463 28.56894262 -24.53265381 26.743927 C-23.63235938 20.1770735 -22.61718701 13.64963153 -21.15765381 7.181427 C-20.94366943 6.23138794 -20.72968506 5.28134888 -20.50921631 4.30252075 C-16.82409303 -5.35250225 -8.20658596 -1.70499626 0 0 Z " fill="#FE8B86" transform="translate(112.53265380859375,387.2560729980469)"/>
<path d="M0 0 C38.94 0 77.88 0 118 0 C118 5.94 118 11.88 118 18 C77.74 18 37.48 18 -4 18 C-2.68 12.06 -1.36 6.12 0 0 Z " fill="#E97243" transform="translate(389,305)"/>
<path d="M0 0 C2.11212504 3.16818756 2.33156464 5.13219252 2.55859375 8.8671875 C1.64750195 12.34590165 -0.23080272 13.77154752 -3 16 C-5.99254554 16.48964905 -8.41222553 16.67587606 -11.39868164 16.63110352 C-12.23179367 16.63825882 -13.0649057 16.64541412 -13.92326355 16.65278625 C-16.66945693 16.66965713 -19.41401425 16.65028256 -22.16015625 16.62890625 C-24.07157018 16.62973502 -25.98298404 16.63219471 -27.89439392 16.63621521 C-31.8966929 16.639072 -35.89843187 16.62438223 -39.90063477 16.59692383 C-45.03124458 16.56281818 -50.16085461 16.56886804 -55.29151249 16.5875864 C-59.23693683 16.59815272 -63.18212836 16.58922231 -67.12753105 16.57420158 C-69.01936591 16.56901816 -70.91122506 16.56950352 -72.80305672 16.57574654 C-75.44614114 16.58119525 -78.08779183 16.56083646 -80.73071289 16.53344727 C-81.90360367 16.54323608 -81.90360367 16.54323608 -83.10018921 16.55322266 C-86.64893372 16.49067041 -88.61185824 16.3017958 -91.45433044 14.09165955 C-94.05597406 10.57101526 -94.43030243 8.38908475 -94 4 C-91.10740279 -0.5828924 -88.33240809 -2.01740739 -83.25 -3.6875 C-82.00347656 -4.09871094 -80.75695312 -4.50992188 -79.47265625 -4.93359375 C-54.68019239 -12.54702753 -23.38421873 -12.18390772 0 0 Z " fill="#345EA0" transform="translate(201,51)"/>
<path d="M0 0 C32.01 0.33 64.02 0.66 97 1 C94 18 94 18 93 22 C60 22 27 22 -7 22 C-6 16 -6 16 0 0 Z " fill="#264552" transform="translate(256,252)"/>
<path d="M0 0 C0.33 0 0.66 0 1 0 C1.10957031 0.68707031 1.21914062 1.37414062 1.33203125 2.08203125 C1.49058594 2.98308594 1.64914063 3.88414062 1.8125 4.8125 C1.96332031 5.70582031 2.11414063 6.59914063 2.26953125 7.51953125 C3.1034885 10.35141816 3.67393465 11.22140836 6 13 C8.81212272 13.65709343 8.81212272 13.65709343 12.0234375 13.87890625 C13.209375 13.99556641 14.3953125 14.11222656 15.6171875 14.23242188 C16.85726562 14.34134766 18.09734375 14.45027344 19.375 14.5625 C21.82092556 14.78636871 24.26627913 15.01659939 26.7109375 15.25390625 C28.33974854 15.39807983 28.33974854 15.39807983 30.00146484 15.54516602 C32.94176965 15.99116731 35.29985428 16.77820753 38 18 C37.69824375 26.2077701 36.932394 32.83725656 31.1328125 38.9765625 C24.19036901 45.34265219 19.22383908 46.39094417 10 46 C8.85144531 45.95875 7.70289063 45.9175 6.51953125 45.875 C-4.58503937 45.30370376 -10.16691056 44.17706895 -17.703125 36.0078125 C-21.82419423 32.40538124 -26.88455632 30.77335381 -32 29 C-31.59060025 22.23784552 -30.43046191 16.32837252 -28 10 C-27.175 10.165 -26.35 10.33 -25.5 10.5 C-17.86362749 11.59091036 -12.39764395 11.5772834 -6 7 C-4.23380625 5.21081891 -2.66337157 3.3808307 -1.12890625 1.390625 C-0.75636719 0.93171875 -0.38382813 0.4728125 0 0 Z " fill="#FBA79E" transform="translate(142,440)"/>
<path d="M0 0 C1.32 0 2.64 0 4 0 C4.17273438 0.556875 4.34546875 1.11375 4.5234375 1.6875 C7.22819016 9.03251641 11.63822841 12.66457047 18 17 C18.73605469 17.53109375 19.47210938 18.0621875 20.23046875 18.609375 C26.21182951 22.48799873 31.99777063 23.28313104 39 22 C42.71652334 20.45688212 45.77452527 18.38611224 49 16 C49.81855469 15.45859375 50.63710937 14.9171875 51.48046875 14.359375 C57.14788437 10.40235398 59.87046726 6.56730025 62 0 C62.99 0 63.98 0 65 0 C65.19726818 6.25710024 64.73300763 11.55670904 63 17.5625 C62.77779785 18.33625977 62.5555957 19.11001953 62.32666016 19.90722656 C57.5729441 35.59929127 49.05861146 49.78024846 37 61 C34.14905147 62.42547426 32.15807767 62.32561546 29 62 C13.6842842 50.15905393 2.9915751 27.21295602 0.53515625 8.44921875 C0.29339911 5.63092662 0.10353136 2.82640607 0 0 Z " fill="#487BAE" transform="translate(122,270)"/>
<path d="M0 0 C3.625 0.5 3.625 0.5 6.375 2.25 C12.85934508 11.61627622 12.73192907 24.4946198 11.625 35.5 C9.08452528 48.3746092 1.89012147 57.6165073 -8.375 65.5 C-10.685 66.82 -12.995 68.14 -15.375 69.5 C-20.325 65.87 -25.275 62.24 -30.375 58.5 C-28.14839673 38.46057061 -20.23527044 24.87196829 -9.51953125 8.18359375 C-8.98690674 7.35400146 -8.45428223 6.52440918 -7.90551758 5.66967773 C-4.36189924 0.64620729 -4.36189924 0.64620729 0 0 Z " fill="#FDA89F" transform="translate(366.375,274.5)"/>
<path d="M0 0 C0.33 0 0.66 0 1 0 C1.31495462 19.55302875 1.57342029 38.68651414 -2 58 C-4.31 58 -6.62 58 -9 58 C-9.79423861 59.56119422 -10.58527123 61.12401964 -11.375 62.6875 C-11.81585938 63.55761719 -12.25671875 64.42773438 -12.7109375 65.32421875 C-13.92664268 67.84772799 -14.99260958 70.38737532 -16 73 C-22.02572894 72.20604126 -27.97143807 71.09142584 -33.9375 69.9375 C-37.258125 69.298125 -40.57875 68.65875 -44 68 C-44 59.75 -44 51.5 -44 43 C-41.9375 42.030625 -39.875 41.06125 -37.75 40.0625 C-20.80007705 31.73350447 -9.47469202 19.62509736 -1 3 C-0.67 2.01 -0.34 1.02 0 0 Z " fill="#342D50" transform="translate(226,191)"/>
<path d="M0 0 C3.26051568 4.00251488 6.21115987 8.14209252 9.12109375 12.40234375 C17.76501815 24.35288373 29.07837898 31.46819157 42 38 C42 46.25 42 54.5 42 63 C32.8125 64.4375 32.8125 64.4375 29.94458008 64.88452148 C29.18556396 65.00384033 28.42654785 65.12315918 27.64453125 65.24609375 C26.87471924 65.36654053 26.10490723 65.4869873 25.31176758 65.61108398 C22.86287359 66.02306921 20.43261322 66.50143658 18 67 C16.72303886 63.71067885 15.45460084 60.41813073 14.1875 57.125 C13.83107422 56.2071875 13.47464844 55.289375 13.10742188 54.34375 C11.04852325 48.97928018 9.20147735 43.61024975 7.60668945 38.08935547 C7.11061395 36.38093931 6.56256348 34.68769044 6 33 C4.35 32.67 2.7 32.34 1 32 C0.12842148 21.30759925 -0.11813543 10.72407184 0 0 Z " fill="#342D50" transform="translate(85,196)"/>
<path d="M0 0 C2.96282181 2.77564409 3.92103551 4.47930421 4.53344727 8.51757812 C4.56632933 9.85510973 4.57615987 11.19334982 4.56640625 12.53125 C4.57570412 13.60155457 4.57570412 13.60155457 4.58518982 14.69348145 C4.59226704 16.19619386 4.58915055 17.69898503 4.57641602 19.20166016 C4.56253641 21.49398644 4.59665607 23.7822361 4.63476562 26.07421875 C4.63571685 27.53906349 4.63385782 29.00391332 4.62890625 30.46875 C4.64216446 31.14909302 4.65542267 31.82943604 4.66908264 32.53039551 C4.59894255 36.13541026 4.02749164 37.96071128 1.94726562 40.93359375 C-1.68980386 43.48363982 -4.49600231 43.69344721 -8.78515625 43.59375 C-9.52326035 43.59379028 -10.26136444 43.59383057 -11.02183533 43.59387207 C-12.57592322 43.5885299 -14.13001161 43.57100253 -15.68383789 43.54199219 C-18.05894662 43.50006273 -20.43122339 43.50093222 -22.80664062 43.5078125 C-24.32033215 43.49732126 -25.8340091 43.4843835 -27.34765625 43.46875 C-28.05503433 43.46854858 -28.76241241 43.46834717 -29.4912262 43.46813965 C-33.57730677 43.37026129 -36.10014652 42.97844638 -39 40 C-40.01877743 37.23474698 -40.16043157 35.61107904 -39.41210938 32.76074219 C-37.42980637 28.88524384 -34.62092656 26.23104832 -31.53125 23.203125 C-30.89513794 22.56888611 -30.25902588 21.93464722 -29.6036377 21.28118896 C-28.26220817 19.94646453 -26.91719416 18.61533414 -25.56884766 17.28759766 C-23.50028156 15.2502773 -21.44266181 13.20239445 -19.38671875 11.15234375 C-18.08135175 9.85614354 -16.77538274 8.56054927 -15.46875 7.265625 C-14.85100708 6.65213196 -14.23326416 6.03863892 -13.59680176 5.40655518 C-8.88409961 0.77273431 -6.74801202 -0.69807021 0 0 Z " fill="#255966" transform="translate(503,210)"/>
<path d="M0 0 C0.09917794 4.46567763 0.17161225 8.93076507 0.21972656 13.3972168 C0.23979203 14.9152341 0.26705134 16.43317459 0.30175781 17.95092773 C0.35050393 20.13805122 0.37301805 22.32414952 0.390625 24.51171875 C0.41157227 25.82615967 0.43251953 27.14060059 0.45410156 28.49487305 C-0.07375352 32.5692899 -1.14148772 34.11637013 -4 37 C-6.62109375 39.01953125 -6.62109375 39.01953125 -9.4375 40.8125 C-10.82775391 41.71935547 -10.82775391 41.71935547 -12.24609375 42.64453125 C-15.30967037 44.15241932 -16.65134043 44.61485252 -20 44 C-22.40123564 42.61729796 -24.5310255 41.25058581 -26.75 39.625 C-27.63365234 39.00625 -27.63365234 39.00625 -28.53515625 38.375 C-32.84995815 35.30008371 -32.84995815 35.30008371 -34 33 C-34.08639869 30.59161322 -34.11567764 28.21266119 -34.09765625 25.8046875 C-34.0962413 25.09724396 -34.09482635 24.38980042 -34.09336853 23.66091919 C-34.087766 21.39890331 -34.07521318 19.13698602 -34.0625 16.875 C-34.05748532 15.34244935 -34.05292236 13.80989714 -34.04882812 12.27734375 C-34.03779577 8.51819112 -34.02052952 4.75911228 -34 1 C-33.20827393 1.00523682 -32.41654785 1.01047363 -31.60083008 1.01586914 C-28.00472816 1.03668937 -24.40863895 1.04967627 -20.8125 1.0625 C-19.56662109 1.07087891 -18.32074219 1.07925781 -17.03710938 1.08789062 C-15.2340332 1.09272461 -15.2340332 1.09272461 -13.39453125 1.09765625 C-12.28956299 1.10289307 -11.18459473 1.10812988 -10.04614258 1.11352539 C-6.62918584 0.98618029 -3.38925059 0 0 0 Z " fill="#FA7B80" transform="translate(172,237)"/>
<path d="M0 0 C39.6 0 79.2 0 120 0 C120 3.3 120 6.6 120 10 C81.06 10 42.12 10 2 10 C1.34 6.7 0.68 3.4 0 0 Z " fill="#EA9D61" transform="translate(387,285)"/>
<path d="M0 0 C23.76 0 47.52 0 72 0 C71.67 1.32 71.34 2.64 71 4 C70.23635895 7.39903274 69.47528441 10.7985966 68.71875 14.19921875 C68 17 68 17 67 18 C65.18944975 18.09376053 63.37522799 18.1174411 61.56225586 18.11352539 C59.82056374 18.11341209 59.82056374 18.11341209 58.04368591 18.11329651 C56.14840904 18.10555458 56.14840904 18.10555458 54.21484375 18.09765625 C52.92888809 18.0962413 51.64293243 18.09482635 50.31800842 18.09336853 C46.89356557 18.08954418 43.46916491 18.07971462 40.04473877 18.06866455 C36.55261811 18.05844864 33.06049066 18.05387053 29.56835938 18.04882812 C22.71222222 18.03809227 15.85611313 18.02101684 9 18 C7.68462636 15.56401192 6.37260857 13.1263175 5.0625 10.6875 C4.68931641 9.99720703 4.31613281 9.30691406 3.93164062 8.59570312 C3.57392578 7.92861328 3.21621094 7.26152344 2.84765625 6.57421875 C2.51773682 5.96151123 2.18781738 5.34880371 1.84790039 4.7175293 C1 3 1 3 0 0 Z " fill="#EC7242" transform="translate(259,305)"/>
<path d="M0 0 C5.58669908 -0.09914961 11.17288186 -0.17160105 16.76025391 -0.21972656 C18.65943325 -0.23979629 20.55855115 -0.26705851 22.45751953 -0.30175781 C25.19318839 -0.35048109 27.92803771 -0.37301507 30.6640625 -0.390625 C31.50804596 -0.41127014 32.35202942 -0.43191528 33.22158813 -0.45318604 C38.63448191 -0.45522928 41.71580318 0.37600183 46 4 C47.84139786 6.96224873 47.99660254 8.81993459 48.0625 12.3125 C45.60316319 20.84784541 36.72981799 27.39728727 30.5625 33.5 C29.73556641 34.32242188 28.90863281 35.14484375 28.05664062 35.9921875 C26.04005041 37.99712113 24.02114764 39.99966253 22 42 C19.4232035 39.4232035 18.56365017 36.53180069 17.3125 33.1875 C13.2182573 22.64149251 8.05352092 13.01472809 1.28515625 3.92578125 C0 2 0 2 0 0 Z " fill="#265966" transform="translate(246,53)"/>
<path d="M0 0 C3.05014297 0.71949827 3.87104938 1.14160882 5.69921875 3.63671875 C6.0868988 6.44494629 6.0868988 6.44494629 6.10327148 9.89648438 C6.11595566 11.18792358 6.12863983 12.47936279 6.14170837 13.80993652 C6.13965708 15.22094889 6.13666918 16.63196016 6.1328125 18.04296875 C6.13737286 19.48881272 6.142678 20.93465453 6.1486969 22.38049316 C6.15763234 25.41016448 6.15519978 28.43957225 6.14526367 31.46923828 C6.13376673 35.35347409 6.15399305 39.23680179 6.18318081 43.12091827 C6.20151782 46.10636174 6.20125557 49.0915865 6.19554329 52.07707214 C6.1953898 53.50922419 6.20145704 54.94139081 6.21383476 56.37348938 C6.22869464 58.37459341 6.21546367 60.37584671 6.20092773 62.37695312 C6.20076157 63.51596069 6.2005954 64.65496826 6.20042419 65.82849121 C5.69921875 68.63671875 5.69921875 68.63671875 3.83192444 70.53967285 C1.69921875 71.63671875 1.69921875 71.63671875 -0.92578125 71.44921875 C-3.30078125 70.63671875 -3.30078125 70.63671875 -5.30078125 68.63671875 C-5.57925415 66.53598022 -5.57925415 66.53598022 -5.61962891 63.91162109 C-5.6394986 62.93075531 -5.65936829 61.94988953 -5.67984009 60.93930054 C-5.6913913 59.87780792 -5.7029425 58.81631531 -5.71484375 57.72265625 C-5.7342099 56.63787994 -5.75357605 55.55310364 -5.77352905 54.43545532 C-5.83344551 50.96095716 -5.87975864 47.48642608 -5.92578125 44.01171875 C-5.9639499 41.66014157 -6.00300096 39.30857854 -6.04296875 36.95703125 C-6.13915684 31.18371905 -6.22416878 25.41032209 -6.30078125 19.63671875 C-7.06003906 20.46171875 -7.81929688 21.28671875 -8.6015625 22.13671875 C-11.30078125 24.63671875 -11.30078125 24.63671875 -14.48828125 24.63671875 C-17.30078125 23.63671875 -17.30078125 23.63671875 -19.30078125 20.63671875 C-18.87247973 14.70370882 -15.13260032 11.80544001 -11.11328125 7.82421875 C-10.45263672 7.13134766 -9.79199219 6.43847656 -9.11132812 5.72460938 C-4.20814865 0.81174938 -4.20814865 0.81174938 0 0 Z " fill="#F7F9F9" transform="translate(429.30078125,62.36328125)"/>
<path d="M0 0 C32.67 0 65.34 0 99 0 C93 10 93 10 89.02272034 11.25637817 C87.49726286 11.3092515 85.96929319 11.30789184 84.44360352 11.26220703 C83.60541077 11.27651764 82.76721802 11.29082825 81.90362549 11.30557251 C79.14314109 11.33929028 76.38918457 11.30060797 73.62890625 11.2578125 C71.70368412 11.25947077 69.77846229 11.26439291 67.85325623 11.27243042 C63.82179336 11.2781423 59.79255541 11.24880053 55.76147461 11.19384766 C50.60445923 11.12571656 45.45142629 11.13770025 40.29422092 11.17517281 C36.3192602 11.19635587 32.34521944 11.17839987 28.37034416 11.14840317 C26.46984531 11.13806628 24.56924982 11.13897089 22.66876411 11.15149307 C7.80270241 11.21267235 7.80270241 11.21267235 3.24020386 8.14349365 C1.4897639 6.1651385 0.16771655 4.36173123 -1 2 C-0.67 1.34 -0.34 0.68 0 0 Z " fill="#EB9E60" transform="translate(244,285)"/>
<path d="M0 0 C3.0625 0.3125 3.0625 0.3125 4.7421875 1.3203125 C6.8371505 4.48135135 6.37446267 7.84590377 6.25 11.5 C6.22969727 12.62438477 6.22969727 12.62438477 6.20898438 13.77148438 C6.17368539 15.61879767 6.11987917 17.46574066 6.0625 19.3125 C7.19429688 19.28929688 8.32609375 19.26609375 9.4921875 19.2421875 C10.97395175 19.22343099 12.45572312 19.20523066 13.9375 19.1875 C14.68386719 19.17074219 15.43023437 19.15398437 16.19921875 19.13671875 C18.15444461 19.1191041 20.10992021 19.20929811 22.0625 19.3125 C24.0625 21.3125 24.0625 21.3125 24.375 24.25 C24.0625 27.3125 24.0625 27.3125 23.0234375 28.9921875 C19.99960334 31.02815552 16.88311542 30.6277465 13.375 30.5 C12.3221582 30.47969727 12.3221582 30.47969727 11.24804688 30.45898438 C9.51920171 30.42370182 7.79075235 30.36989583 6.0625 30.3125 C6.10890625 31.34890625 6.1553125 32.3853125 6.203125 33.453125 C6.24065275 34.82288779 6.27705184 36.19268182 6.3125 37.5625 C6.36277344 38.58537109 6.36277344 38.58537109 6.4140625 39.62890625 C6.48185348 43.12014193 6.31937313 44.96675094 4.2109375 47.8046875 C2.0625 49.3125 2.0625 49.3125 -0.5625 49.1875 C-2.9375 48.3125 -2.9375 48.3125 -4.9375 46.3125 C-5.08257695 43.56764407 -5.12402423 40.92769457 -5.0625 38.1875 C-5.05347656 37.43339844 -5.04445313 36.67929688 -5.03515625 35.90234375 C-5.0115687 34.03892746 -4.97569719 32.17567407 -4.9375 30.3125 C-6.61779297 30.36470703 -6.61779297 30.36470703 -8.33203125 30.41796875 C-9.80467251 30.44610839 -11.27732998 30.47340837 -12.75 30.5 C-13.85698242 30.53770508 -13.85698242 30.53770508 -14.98632812 30.57617188 C-20.42818912 30.65004329 -20.42818912 30.65004329 -22.9296875 28.9921875 C-24.49020266 26.39132891 -24.25194514 24.26828428 -23.9375 21.3125 C-21.9375 19.3125 -21.9375 19.3125 -18.0234375 19.1171875 C-16.45300649 19.13049624 -14.88263779 19.15436398 -13.3125 19.1875 C-12.51070313 19.19652344 -11.70890625 19.20554687 -10.8828125 19.21484375 C-8.90091477 19.23843777 -6.91917019 19.27430935 -4.9375 19.3125 C-4.96070313 18.10851562 -4.98390625 16.90453125 -5.0078125 15.6640625 C-5.02656863 14.08854785 -5.04476899 12.51302652 -5.0625 10.9375 C-5.07925781 10.1434375 -5.09601563 9.349375 -5.11328125 8.53125 C-5.13085473 6.45757985 -5.04085168 4.38366759 -4.9375 2.3125 C-2.9375 0.3125 -2.9375 0.3125 0 0 Z " fill="#F5F8F8" transform="translate(379.9375,73.6875)"/>
<path d="M0 0 C2.6015625 0.60546875 2.6015625 0.60546875 4.6015625 2.60546875 C4.86225891 5.37609863 4.86225891 5.37609863 4.8762207 8.95117188 C4.8838871 9.92702492 4.8838871 9.92702492 4.89170837 10.92259216 C4.9056317 13.07739407 4.9046458 15.23187716 4.90234375 17.38671875 C4.90622884 18.8812268 4.91056312 20.37573375 4.91532898 21.87023926 C4.92279682 25.00418679 4.92249563 28.13802168 4.91723633 31.27197266 C4.91143716 35.29405528 4.92838032 39.31567808 4.951581 43.33768463 C4.96629004 46.42428293 4.96719401 49.51076972 4.96407127 52.59739685 C4.9645858 54.08061129 4.96984798 55.56383175 4.97988319 57.04701233 C4.9921779 59.11823706 4.98549954 61.18855612 4.97387695 63.25976562 C4.97450638 64.43953979 4.9751358 65.61931396 4.9757843 66.83483887 C4.85229111 67.74914673 4.72879791 68.66345459 4.6015625 69.60546875 C1.6015625 71.60546875 1.6015625 71.60546875 -1.5234375 71.35546875 C-2.9465625 70.98421875 -2.9465625 70.98421875 -4.3984375 70.60546875 C-5.60797145 68.18640084 -5.55523658 66.58380567 -5.60375977 63.88037109 C-5.62370499 62.89950531 -5.64365021 61.91863953 -5.66419983 60.90805054 C-5.68091232 59.84655792 -5.69762482 58.78506531 -5.71484375 57.69140625 C-5.73562485 56.60662994 -5.75640594 55.52185364 -5.77781677 54.40420532 C-5.84334384 50.92969254 -5.90221197 47.45510251 -5.9609375 43.98046875 C-6.00411971 41.62889817 -6.0477339 39.27733549 -6.09179688 36.92578125 C-6.19902843 31.15242605 -6.30078894 25.37899355 -6.3984375 19.60546875 C-7.33171875 20.43175781 -8.265 21.25804688 -9.2265625 22.109375 C-12.0546875 24.61328125 -12.0546875 24.61328125 -15.1484375 24.54296875 C-17.3984375 23.60546875 -17.3984375 23.60546875 -19.3984375 21.60546875 C-19.81922401 18.58133763 -19.74814669 17.1239409 -18.02490234 14.5690918 C-15.95574606 12.46064106 -13.88354887 10.36058226 -11.7734375 8.29296875 C-11.06058594 7.55240234 -10.34773438 6.81183594 -9.61328125 6.04882812 C-4.30755242 0.7674375 -4.30755242 0.7674375 0 0 Z " fill="#FDFDFD" transform="translate(337.3984375,62.39453125)"/>
<path d="M0 0 C28.05 0 56.1 0 85 0 C85 3.3 85 6.6 85 10 C56.62 10 28.24 10 -1 10 C-0.67 6.7 -0.34 3.4 0 0 Z " fill="#F4A261" transform="translate(422,11)"/>
<path d="M0 0 C1.98 0 3.96 0 6 0 C7.28439345 3.85318035 6.52543445 5.80939471 5.55859375 9.74609375 C5.39597046 10.42009216 5.23334717 11.09409058 5.0657959 11.78851318 C4.71390275 13.24446382 4.35849194 14.69956776 3.99996948 16.15390015 C3.04508109 20.03070246 2.1173631 23.91400825 1.1875 27.796875 C0.99905014 28.58124435 0.81060028 29.36561371 0.61643982 30.17375183 C-1.05406291 37.15528708 -2.58497326 44.16261544 -4.0625 51.1875 C-6.96649882 64.94678131 -10.05510408 78.66011863 -13.17724609 92.37109375 C-13.96595507 95.84983862 -14.74470485 99.33063985 -15.51953125 102.8125 C-15.75019287 103.84391113 -15.98085449 104.87532227 -16.21850586 105.93798828 C-16.64526216 107.84720297 -17.06939906 109.75700572 -17.49047852 111.66748047 C-18.88738897 117.88738897 -18.88738897 117.88738897 -20 119 C-21.99958364 119.04080783 -24.00045254 119.04254356 -26 119 C-25.32675209 111.52298794 -23.91640885 104.32918374 -22.3125 97 C-22.0448584 95.76306396 -21.7772168 94.52612793 -21.50146484 93.25170898 C-19.59015131 84.49628065 -17.52800691 75.7846501 -15.39404297 67.08129883 C-13.06549487 57.48711018 -10.9988691 47.84171127 -8.9375 38.1875 C-6.20510997 25.39105946 -3.34421893 12.65336682 0 0 Z " fill="#EA9C5F" transform="translate(388,145)"/>
<path d="M0 0 C13.53 0 27.06 0 41 0 C41 5.28 41 10.56 41 16 C27.47 16 13.94 16 0 16 C0 10.72 0 5.44 0 0 Z " fill="#F4A160" transform="translate(466,306)"/>
<path d="M0 0 C0.66 0 1.32 0 2 0 C2.22550537 0.55236328 2.45101074 1.10472656 2.68334961 1.67382812 C6.99845529 12.17185292 11.33600575 22.41437402 17.43139648 32.0234375 C20.10823277 36.41643568 20.10823277 36.41643568 19.62109375 39.04296875 C17.20576658 41.95882154 14.59163449 44.61530577 11.875 47.25 C11.03001953 48.08144531 11.03001953 48.08144531 10.16796875 48.9296875 C8.78313972 50.29104485 7.39216796 51.64614859 6 53 C0.52875393 47.85953188 0.52875393 47.85953188 -0.75 43.9375 C-0.97171875 43.28652344 -1.1934375 42.63554687 -1.421875 41.96484375 C-5.3197413 28.71736572 -3.75998198 13.11517526 0 0 Z " fill="#343B5F" transform="translate(51,244)"/>
<path d="M0 0 C26.07 0 52.14 0 79 0 C79 3.3 79 6.6 79 10 C72.72359697 10.09998559 66.44767258 10.17198895 60.1706543 10.21972656 C58.04199126 10.23965817 55.91338163 10.26681353 53.78491211 10.30175781 C42.38951543 10.48395555 32.04817572 10.39788113 21.12670898 6.96191406 C16.80470715 5.63227502 12.55214595 5.12907301 8.0625 4.75 C7.27166016 4.67265625 6.48082031 4.5953125 5.66601562 4.515625 C3.7783933 4.33258284 1.88933044 4.16447779 0 4 C0 2.68 0 1.36 0 0 Z " fill="#F3A160" transform="translate(162,11)"/>
<path d="M0 0 C2.875 0.75 2.875 0.75 3.875 1.75 C4.1737027 3.43279043 4.43863602 5.12162045 4.6875 6.8125 C6.48969302 16.89433342 10.38774695 22.17911273 18.66015625 28.0078125 C20.04868527 28.94662881 21.4594996 29.8523656 22.875 30.75 C22.545 33.06 22.215 35.37 21.875 37.75 C18.30889164 38.81224504 16.15289075 39.30679526 12.6875 37.796875 C4.05205928 32.33975621 -2.39687811 25.35336517 -5.50390625 15.53515625 C-6.44821735 11.30060397 -7.01211103 7.0337073 -6.125 2.75 C-4.02316546 -0.08531932 -3.65756359 -0.29260509 0 0 Z " fill="#342F3F" transform="translate(156.125,82.25)"/>
<path d="M0 0 C15.51 0 31.02 0 47 0 C48 7 48 7 47 9 C32.15 9 17.3 9 2 9 C1.34 6.03 0.68 3.06 0 0 Z " fill="#F3D39C" transform="translate(387,285)"/>
<path d="M0 0 C0.75 2.75 0.75 2.75 1 6 C-1.39218949 9.805756 -5.00998274 11.21073451 -9.17578125 12.45703125 C-17.53694666 14.06450289 -26.76315739 14.35033542 -34.4453125 10.27734375 C-36 9 -36 9 -37.25 5.9375 C-37 3 -37 3 -36 1.0625 C-32.31041323 -0.89759297 -28.45737241 0.66368329 -24.5625 1.5625 C-19.23012465 2.47290555 -15.36630181 2.59925518 -10.4375 0.4375 C-6.42559151 -1.24020719 -4.18203175 -0.93882345 0 0 Z " fill="#342F3F" transform="translate(174,200)"/>
<path d="M0 0 C5.76308899 1.82878816 10.20247695 3.87152266 14.625 8.0625 C21.38375408 14.43064308 27.91461783 15.46008999 37 16 C36.67 17.98 36.34 19.96 36 22 C27.10993335 22.66774867 18.92947215 20.62183459 10.375 18.5 C8.97551088 18.16172256 7.57577236 17.82447515 6.17578125 17.48828125 C2.78089946 16.67069744 -0.61040497 15.83926756 -4 15 C-3.5253725 12.6865641 -3.04517721 10.37426981 -2.5625 8.0625 C-2.29566406 6.77472656 -2.02882813 5.48695313 -1.75390625 4.16015625 C-1 1 -1 1 0 0 Z " fill="#F94A6C" transform="translate(107,479)"/>
<path d="M0 0 C10.23 0 20.46 0 31 0 C29.35 2.97 27.7 5.94 26 9 C17.42 9 8.84 9 0 9 C0 6.03 0 3.06 0 0 Z " fill="#F2D29C" transform="translate(312,285)"/>
<path d="M0 0 C1.01900391 0.00322266 2.03800781 0.00644531 3.08789062 0.00976562 C4.10302734 -0.00634766 5.11816406 -0.02246094 6.1640625 -0.0390625 C7.62489258 -0.0400293 7.62489258 -0.0400293 9.11523438 -0.04101562 C10.45509399 -0.04548706 10.45509399 -0.04548706 11.82202148 -0.05004883 C14.15039062 0.32226562 14.15039062 0.32226562 15.97680664 1.68481445 C17.15039062 3.32226562 17.15039062 3.32226562 16.96289062 5.88476562 C16.15039062 8.32226562 16.15039062 8.32226562 14.15039062 10.32226562 C10.50285396 10.77458912 6.82275802 10.64632849 3.15039062 10.63476562 C1.61511719 10.65893555 1.61511719 10.65893555 0.04882812 10.68359375 C-1.41683594 10.68456055 -1.41683594 10.68456055 -2.91210938 10.68554688 C-3.81058594 10.68852783 -4.7090625 10.69150879 -5.63476562 10.69458008 C-6.73111328 10.51028442 -6.73111328 10.51028442 -7.84960938 10.32226562 C-9.99876722 7.09852885 -10.2324774 6.05522889 -9.84960938 2.32226562 C-6.86312374 -0.66422001 -4.08413445 0.02977169 0 0 Z " fill="#332F3E" transform="translate(121.849609375,132.677734375)"/>
<path d="M0 0 C1.45116211 -0.0309375 1.45116211 -0.0309375 2.93164062 -0.0625 C4.32479492 -0.07023438 4.32479492 -0.07023438 5.74609375 -0.078125 C7.02311157 -0.09214355 7.02311157 -0.09214355 8.32592773 -0.10644531 C10.5625 0.25 10.5625 0.25 12.37524414 1.61035156 C13.5625 3.25 13.5625 3.25 13.375 5.8125 C12.5625 8.25 12.5625 8.25 10.5625 10.25 C6.91496333 10.7023235 3.23486739 10.57406287 -0.4375 10.5625 C-1.97277344 10.58666992 -1.97277344 10.58666992 -3.5390625 10.61132812 C-5.00472656 10.61229492 -5.00472656 10.61229492 -6.5 10.61328125 C-7.39847656 10.61626221 -8.29695312 10.61924316 -9.22265625 10.62231445 C-10.31900391 10.4380188 -10.31900391 10.4380188 -11.4375 10.25 C-13.4375 7.25 -13.4375 7.25 -13.1875 4.125 C-12.81625 2.701875 -12.81625 2.701875 -12.4375 1.25 C-8.67595432 -0.63077284 -4.13926726 0.02197355 0 0 Z " fill="#332E3E" transform="translate(189.4375,132.75)"/>
<path d="M0 0 C0 5.28 0 10.56 0 16 C-10.08839779 16.60773481 -10.08839779 16.60773481 -14.1875 13.875 C-16.34663968 10.45015775 -16.82630866 8.96628159 -16 5 C-11.92038459 -1.4711141 -6.93643086 -0.41785728 0 0 Z " fill="#F0A198" transform="translate(78,146)"/>
<path d="M0 0 C9.10714286 -0.60714286 9.10714286 -0.60714286 13.125 2.125 C15.35696906 5.54735256 15.83328611 7.00022668 15 11 C13.125 13.875 13.125 13.875 10 16 C6.55181651 16.41588778 3.49485035 16.23299002 0 16 C0 10.72 0 5.44 0 0 Z " fill="#F7A59C" transform="translate(233,146)"/>
<path d="M0 0 C0 3.63 0 7.26 0 11 C-6.7386928 13.65128897 -12.73900177 14.8804675 -20 14 C-22.32421875 12.98046875 -22.32421875 12.98046875 -24 12 C-24 11.34 -24 10.68 -24 10 C-17.48464985 5.0534218 -8.3376861 0 0 0 Z " fill="#EFF1B7" transform="translate(112,272)"/>
<path d="M0 0 C10.14950674 5.40546764 20.06585493 11.21164918 30 17 C26.26240509 18.33996754 23.51631774 17.6665074 19.703125 16.78515625 C18.49785156 16.51123047 17.29257813 16.23730469 16.05078125 15.95507812 C14.79652344 15.66052734 13.54226562 15.36597656 12.25 15.0625 C10.98027344 14.77181641 9.71054688 14.48113281 8.40234375 14.18164062 C5.26628149 13.46246845 2.13239172 12.73496575 -1 12 C-2.13905625 7.388017 -1.50576582 4.51729745 0 0 Z " fill="#F3496B" transform="translate(58,472)"/>
<path d="M0 0 C1.8125 1 1.8125 1 3 3 C3.54833739 6.60550612 3.62641341 9.78402103 1.9375 13.0625 C-1.2029116 14.582054 -3.70647317 13.79288609 -7 13 C-8.59211531 9.81576939 -8.38981631 6.46582137 -8 3 C-5.99552859 -0.37595184 -3.7543224 -0.56314836 0 0 Z " fill="#3B3342" transform="translate(133,152)"/>
<path d="M0 0 C3.5625 0.25 3.5625 0.25 7 1 C8.59211531 4.18423061 8.38981631 7.53417863 8 11 C6.8125 13 6.8125 13 5 14 C2.4375 14.3125 2.4375 14.3125 0 14 C-2 12 -2 12 -2.265625 9.6875 C-2.26046875 8.800625 -2.2553125 7.91375 -2.25 7 C-2.25515625 6.113125 -2.2603125 5.22625 -2.265625 4.3125 C-2 2 -2 2 0 0 Z " fill="#35303F" transform="translate(180,152)"/>
<path d="M0 0 C5.5021816 -0.23136637 10.13853778 0.5649654 15.4375 2 C16.16904297 2.19078125 16.90058594 2.3815625 17.65429688 2.578125 C19.43819666 3.04450403 21.21939845 3.52118278 23 4 C23 4.33 23 4.66 23 5 C15.41 5 7.82 5 0 5 C0 3.35 0 1.7 0 0 Z " fill="#E8CA8E" transform="translate(60,496)"/>
</svg>
