<?xml version="1.0" encoding="UTF-8"?>
<svg version="1.1" xmlns="http://www.w3.org/2000/svg" width="512" height="512">
<path d="M0 0 C1.00880722 0.00555908 1.00880722 0.00555908 2.03799438 0.01123047 C33.04936554 0.25323824 60.71879937 11.5666429 82.75 33.4375 C83.58402344 34.23414063 84.41804687 35.03078125 85.27734375 35.8515625 C89.88723503 40.31571679 94.3844573 44.93384782 97.75 50.4375 C97.75 51.0975 97.75 51.7575 97.75 52.4375 C98.55129837 52.32424881 99.35259674 52.21099762 100.17817688 52.09431458 C160.32762002 43.9993991 160.32762002 43.9993991 176.31868744 56.00709248 C183.86439274 62.36191907 190.02746789 70.16870632 196.125 77.875 C211.29369558 97.4044175 211.29369558 97.4044175 233.57329178 106.22594547 C250.76326658 108.12597136 268.56945309 107.05892374 285.71064758 105.02049255 C297.54648166 103.69175387 297.54648166 103.69175387 303.15058899 107.52432251 C309.63360888 115.27915703 309.31893039 123.2594676 309.25793457 132.84790039 C309.26254667 134.42478288 309.26890166 136.00166107 309.27684355 137.57853031 C309.29351768 141.90052938 309.28529929 146.22217445 309.27289867 150.54417467 C309.26384265 155.20955822 309.27782066 159.8748812 309.28881836 164.54025269 C309.30660225 173.67530576 309.30276416 182.81022734 309.2911678 191.94528556 C309.28213325 199.36971347 309.28090957 206.79410454 309.28526306 214.21853638 C309.28587599 215.27533067 309.28648893 216.33212496 309.28712043 217.42094332 C309.28839934 219.56781921 309.28969619 221.71469509 309.2910108 223.86157095 C309.30241622 243.99153068 309.28930347 264.12141753 309.26780933 284.2513653 C309.2499384 301.52275659 309.25304251 318.79404034 309.27148438 336.06542969 C309.29289174 356.12349309 309.30131758 376.18149262 309.28903532 396.23956585 C309.28776113 398.37853176 309.28650364 400.51749769 309.28526306 402.65646362 C309.28433741 404.23507041 309.28433741 404.23507041 309.28339306 405.84556824 C309.27993976 413.26084079 309.28576807 420.67607283 309.29518127 428.09133911 C309.30640113 437.1284293 309.30336144 446.16538053 309.2820583 455.20245481 C309.27154775 459.81308595 309.26742617 464.42348542 309.28065491 469.03411484 C309.2925845 473.25580791 309.28600701 477.4770548 309.2647447 481.69870746 C309.26028103 483.22484105 309.26253967 484.75101242 309.27224785 486.27712166 C309.31884002 494.21065592 309.27885988 500.6514911 304.75 507.4375 C300.57820789 511.40579005 297.42091908 512.56044817 291.74643326 512.57172108 C290.70672512 512.57617892 289.66701699 512.58063676 288.59580255 512.58522969 C287.44981332 512.58504533 286.30382409 512.58486097 285.12310791 512.58467102 C283.90858499 512.58834771 282.69406208 512.5920244 281.44273543 512.5958125 C278.06534517 512.60494189 274.68800351 512.60954958 271.31060553 512.61220181 C267.67040088 512.61610427 264.03021031 512.62568261 260.39001465 512.63441467 C251.59620199 512.65418008 242.80238819 512.6642451 234.00855887 512.67314246 C229.86827178 512.67752498 225.72798597 512.68289186 221.58769989 512.68813133 C207.82619111 512.70514321 194.06468312 512.71963789 180.30316544 512.72688007 C176.73173268 512.72878999 173.16029992 512.73071032 169.58886719 512.73266602 C168.70119666 512.73314976 167.81352614 512.7336335 166.89895651 512.7341319 C152.51581502 512.74243412 138.13275665 512.76777445 123.74965146 512.80024669 C108.98590899 512.83330683 94.22220878 512.85132786 79.4584291 512.85452431 C71.16783351 512.85669032 62.87735916 512.86545215 54.58679962 512.89098549 C47.52695013 512.91267817 40.46725131 512.92074998 33.40737227 512.91101871 C29.80544246 512.90646988 26.20382362 512.90839364 22.60193634 512.92778015 C18.69610361 512.94862102 14.79070064 512.93843972 10.88482666 512.92524719 C9.17922715 512.94170106 9.17922715 512.94170106 7.43917108 512.95848733 C0.98758747 512.90577018 -3.03108747 512.33979097 -8.25 508.4375 C-12.87050048 502.47948622 -13.39284068 497.94598663 -13.34765625 490.61328125 C-13.3462413 489.75188034 -13.34482635 488.89047943 -13.34336853 488.00297546 C-13.3377714 485.25194831 -13.32521946 482.50100256 -13.3125 479.75 C-13.30748463 477.8847668 -13.30292179 476.01953233 -13.29882812 474.15429688 C-13.28780292 469.58199989 -13.27054027 465.00976375 -13.25 460.4375 C-14.15766113 460.45321045 -15.06532227 460.4689209 -16.00048828 460.48510742 C-19.38873072 460.5364313 -22.77655619 460.57394416 -26.16503906 460.60229492 C-27.62767075 460.61732196 -29.09025782 460.63774955 -30.55273438 460.66381836 C-32.6628728 460.70047267 -34.77241226 460.71728676 -36.8828125 460.73046875 C-38.15012207 460.7461792 -39.41743164 460.76188965 -40.72314453 460.77807617 C-45.20058716 460.3457051 -48.55652344 458.98214371 -51.89453125 455.9375 C-56.2227743 450.37881996 -56.39291929 446.25577369 -56.37025452 439.42097473 C-56.37110894 438.48736152 -56.37196337 437.55374831 -56.37284368 436.59184378 C-56.37449633 433.4502887 -56.3689806 430.30878652 -56.36352539 427.16723633 C-56.36324345 424.92051698 -56.36340139 422.67379754 -56.3639679 420.42707825 C-56.36425559 414.31587252 -56.35836338 408.2046863 -56.35139394 402.09348512 C-56.34515574 395.71130614 -56.34455623 389.32912675 -56.34336853 382.94694519 C-56.34061048 372.23098345 -56.33435818 361.51503027 -56.32543945 350.79907227 C-56.31626217 339.76098669 -56.30918288 328.72290307 -56.30493164 317.68481445 C-56.30466892 317.00456763 -56.30440619 316.32432081 -56.30413551 315.62346045 C-56.30283048 312.21090412 -56.30156677 308.79834777 -56.30032361 305.38579142 C-56.28995481 277.06968934 -56.27226555 248.75359505 -56.25 220.4375 C-57.01570313 220.14343262 -57.78140625 219.84936523 -58.5703125 219.54638672 C-82.07513038 209.81981212 -99.30755304 184.92139861 -109.09375 162.47265625 C-120.76795227 131.82787528 -120.61617481 98.28875212 -107.25683594 68.20068359 C-93.96412986 39.98316047 -70.5939554 18.0677518 -41.4296875 6.9375 C-27.74108816 2.13648812 -14.50620524 -0.11700764 0 0 Z M-75.03515625 52.44921875 C-92.15185752 72.19925868 -101.10131784 98.25457622 -99.25 124.4375 C-96.79496962 153.62508342 -82.53879075 177.90425079 -60.515625 196.78125 C-58.44864705 198.63421872 -58.44864705 198.63421872 -56.25 198.4375 C-56.25 178.3075 -56.25 158.1775 -56.25 137.4375 C-57.9525473 139.99132095 -58.89098874 141.90839007 -59.90625 144.74609375 C-60.20660156 145.57560547 -60.50695312 146.40511719 -60.81640625 147.25976562 C-61.12449219 148.12279297 -61.43257812 148.98582031 -61.75 149.875 C-62.36240447 151.58281414 -62.97691658 153.28987427 -63.59375 154.99609375 C-63.86380859 155.75204834 -64.13386719 156.50800293 -64.41210938 157.28686523 C-66.70157197 163.16328599 -66.70157197 163.16328599 -69.25 164.4375 C-76.3021327 165.00622038 -76.3021327 165.00622038 -79.75 162.9375 C-81.87502078 159.3957987 -81.78383193 156.42036614 -81.25 152.4375 C-79.9408041 147.72913625 -78.24709675 143.17032504 -76.54296875 138.59375 C-76.05580235 137.25711713 -75.56976328 135.92007289 -75.08479309 134.5826416 C-73.81000892 131.07660842 -72.51992294 127.57640241 -71.22650146 124.07720947 C-69.91952515 120.53279325 -68.627472 116.98294943 -67.33398438 113.43359375 C-65.43375376 108.22565083 -63.52672252 103.02029658 -61.61010742 97.81835938 C-61.20115234 96.70800323 -60.79219727 95.59764709 -60.37084961 94.4536438 C-59.41550421 91.8828626 -58.43763865 89.3223884 -57.4519043 86.76318359 C-56.26767252 83.48640007 -55.9229038 81.02115442 -55.875 77.5625 C-55.40173618 70.49033126 -53.48678628 64.58927978 -48.31640625 59.5546875 C-43.41222015 55.71662881 -38.73290464 53.20169464 -32.39677429 53.1590271 C-31.44751572 53.14786362 -30.49825714 53.13670013 -29.52023315 53.12519836 C-28.49092682 53.12303818 -27.46162048 53.12087799 -26.40112305 53.11865234 C-24.76142799 53.10358391 -24.76142799 53.10358391 -23.08860779 53.08821106 C-19.47965006 53.05734918 -15.87076664 53.04033531 -12.26171875 53.0234375 C-9.75779073 53.0047283 -7.25386902 52.98515508 -4.74995422 52.9647522 C1.16431336 52.91864626 7.0785953 52.88124736 12.99294585 52.84807932 C20.38924436 52.80606583 27.7854308 52.75051107 35.18164062 52.6953125 C48.37103278 52.59851533 61.56047385 52.5137462 74.75 52.4375 C73.78919204 51.30971864 72.82741837 50.18275995 71.86523438 49.05615234 C71.06200745 48.11465836 71.06200745 48.11465836 70.24255371 47.15414429 C55.76750985 30.50583128 32.28511135 20.84543439 10.75 18.4375 C-22.86582664 16.4056383 -52.26622297 27.48392534 -75.03515625 52.44921875 Z " fill="#EBEFF0" transform="translate(160.25,-0.4375)"/>
<path d="M0 0 C1.00880722 0.00555908 1.00880722 0.00555908 2.03799438 0.01123047 C33.04936554 0.25323824 60.71879937 11.5666429 82.75 33.4375 C83.58402344 34.23414063 84.41804687 35.03078125 85.27734375 35.8515625 C93.21590989 43.539159 98.76042809 51.59488675 103.75 61.4375 C104.33007812 62.57316406 104.91015625 63.70882812 105.5078125 64.87890625 C119.1651408 92.38581544 121.91004348 123.80393541 112.44213867 153.12524414 C107.4325228 167.71750574 100.61373962 180.4946388 90.75 192.4375 C89.53570312 193.91669922 89.53570312 193.91669922 88.296875 195.42578125 C70.29261226 216.20615037 42.45303202 232.27675883 14.75 234.4375 C-21.93550648 236.4436951 -53.54522397 227.96018359 -81.375 203.1875 C-102.0375308 184.1548125 -116.0744992 154.89562426 -117.37109375 126.81494141 C-118.50803342 92.81476057 -109.36216522 62.15923276 -85.99609375 36.875 C-63.25746997 12.95230751 -33.13184415 -0.2672428 0 0 Z M-75.03515625 52.44921875 C-92.15185752 72.19925868 -101.10131784 98.25457622 -99.25 124.4375 C-96.79496962 153.62508342 -82.53879075 177.90425079 -60.515625 196.78125 C-58.44864705 198.63421872 -58.44864705 198.63421872 -56.25 198.4375 C-56.25 178.3075 -56.25 158.1775 -56.25 137.4375 C-57.9525473 139.99132095 -58.89098874 141.90839007 -59.90625 144.74609375 C-60.20660156 145.57560547 -60.50695312 146.40511719 -60.81640625 147.25976562 C-61.12449219 148.12279297 -61.43257812 148.98582031 -61.75 149.875 C-62.36240447 151.58281414 -62.97691658 153.28987427 -63.59375 154.99609375 C-63.86380859 155.75204834 -64.13386719 156.50800293 -64.41210938 157.28686523 C-66.70157197 163.16328599 -66.70157197 163.16328599 -69.25 164.4375 C-76.3021327 165.00622038 -76.3021327 165.00622038 -79.75 162.9375 C-81.87502078 159.3957987 -81.78383193 156.42036614 -81.25 152.4375 C-79.9408041 147.72913625 -78.24709675 143.17032504 -76.54296875 138.59375 C-76.05580235 137.25711713 -75.56976328 135.92007289 -75.08479309 134.5826416 C-73.81000892 131.07660842 -72.51992294 127.57640241 -71.22650146 124.07720947 C-69.91952515 120.53279325 -68.627472 116.98294943 -67.33398438 113.43359375 C-65.43375376 108.22565083 -63.52672252 103.02029658 -61.61010742 97.81835938 C-61.20115234 96.70800323 -60.79219727 95.59764709 -60.37084961 94.4536438 C-59.41550421 91.8828626 -58.43763865 89.3223884 -57.4519043 86.76318359 C-56.26767252 83.48640007 -55.9229038 81.02115442 -55.875 77.5625 C-55.40173618 70.49033126 -53.48678628 64.58927978 -48.31640625 59.5546875 C-43.41222015 55.71662881 -38.73290464 53.20169464 -32.39677429 53.1590271 C-31.44751572 53.14786362 -30.49825714 53.13670013 -29.52023315 53.12519836 C-28.49092682 53.12303818 -27.46162048 53.12087799 -26.40112305 53.11865234 C-24.76142799 53.10358391 -24.76142799 53.10358391 -23.08860779 53.08821106 C-19.47965006 53.05734918 -15.87076664 53.04033531 -12.26171875 53.0234375 C-9.75779073 53.0047283 -7.25386902 52.98515508 -4.74995422 52.9647522 C1.16431336 52.91864626 7.0785953 52.88124736 12.99294585 52.84807932 C20.38924436 52.80606583 27.7854308 52.75051107 35.18164062 52.6953125 C48.37103278 52.59851533 61.56047385 52.5137462 74.75 52.4375 C73.78919204 51.30971864 72.82741837 50.18275995 71.86523438 49.05615234 C71.06200745 48.11465836 71.06200745 48.11465836 70.24255371 47.15414429 C55.76750985 30.50583128 32.28511135 20.84543439 10.75 18.4375 C-22.86582664 16.4056383 -52.26622297 27.48392534 -75.03515625 52.44921875 Z " fill="#EBEFEF" transform="translate(160.25,-0.4375)"/>
<path d="M0 0 C9.64051811 -0.11611466 19.2807936 -0.20482664 28.92185974 -0.25906086 C33.3991678 -0.28509753 37.87599563 -0.32038604 42.35302734 -0.37719727 C46.67784307 -0.43173028 51.00219839 -0.4614651 55.32733154 -0.47438622 C56.97311648 -0.4835881 58.61887768 -0.50155741 60.26446533 -0.52865028 C76.53242035 -0.78570767 76.53242035 -0.78570767 81.40940905 3.38669205 C88.34301203 10.41932153 87.5662228 19.24759448 87.50793457 28.41040039 C87.51254667 29.98728288 87.51890166 31.56416107 87.52684355 33.14103031 C87.54351768 37.46302938 87.53529929 41.78467445 87.52289867 46.10667467 C87.51384265 50.77205822 87.52782066 55.4373812 87.53881836 60.10275269 C87.55660225 69.23780576 87.55276416 78.37272734 87.5411678 87.50778556 C87.53213325 94.93221347 87.53090957 102.35660454 87.53526306 109.78103638 C87.53587599 110.83783067 87.53648893 111.89462496 87.53712043 112.98344332 C87.53839934 115.13031921 87.53969619 117.27719509 87.5410108 119.42407095 C87.55241622 139.55403068 87.53930347 159.68391753 87.51780933 179.8138653 C87.4999384 197.08525659 87.50304251 214.35654034 87.52148438 231.62792969 C87.54289174 251.68599309 87.55131758 271.74399262 87.53903532 291.80206585 C87.53776113 293.94103176 87.53650364 296.07999769 87.53526306 298.21896362 C87.53433741 299.79757041 87.53433741 299.79757041 87.53339306 301.40806824 C87.52993976 308.82334079 87.53576807 316.23857283 87.54518127 323.65383911 C87.55640113 332.6909293 87.55336144 341.72788053 87.5320583 350.76495481 C87.52154775 355.37558595 87.51742617 359.98598542 87.53065491 364.59661484 C87.5425845 368.81830791 87.53600701 373.0395548 87.5147447 377.26120746 C87.51028103 378.78734105 87.51253967 380.31351242 87.52224785 381.83962166 C87.56884002 389.77315592 87.52885988 396.2139911 83 403 C78.82820789 406.96829005 75.67091908 408.12294817 69.99643326 408.13422108 C68.95672512 408.13867892 67.91701699 408.14313676 66.84580255 408.14772969 C65.69981332 408.14754533 64.55382409 408.14736097 63.37310791 408.14717102 C62.15858499 408.15084771 60.94406208 408.1545244 59.69273543 408.1583125 C56.31534517 408.16744189 52.93800351 408.17204958 49.56060553 408.17470181 C45.92040088 408.17860427 42.28021031 408.18818261 38.64001465 408.19691467 C29.84620199 408.21668008 21.05238819 408.2267451 12.25855887 408.23564246 C8.11827178 408.24002498 3.97798597 408.24539186 -0.16230011 408.25063133 C-13.92380889 408.26764321 -27.68531688 408.28213789 -41.44683456 408.28938007 C-45.01826732 408.29128999 -48.58970008 408.29321032 -52.16113281 408.29516602 C-53.4926386 408.29589163 -53.4926386 408.29589163 -54.85104349 408.2966319 C-69.23418498 408.30493412 -83.61724335 408.33027445 -98.00034854 408.36274669 C-112.76409101 408.39580683 -127.52779122 408.41382786 -142.2915709 408.41702431 C-150.58216649 408.41919032 -158.87264084 408.42795215 -167.16320038 408.45348549 C-174.22304987 408.47517817 -181.28274869 408.48324998 -188.34262773 408.47351871 C-191.94455754 408.46896988 -195.54617638 408.47089364 -199.14806366 408.49028015 C-203.05389639 408.51112102 -206.95929936 408.50093972 -210.86517334 408.48774719 C-212.57077285 408.50420106 -212.57077285 408.50420106 -214.31082892 408.52098733 C-220.76241253 408.46827018 -224.78108747 407.90229097 -230 404 C-234.62050048 398.04198622 -235.14284068 393.50848663 -235.09765625 386.17578125 C-235.09553383 384.88367989 -235.09553383 384.88367989 -235.09336853 383.56547546 C-235.0877714 380.81444831 -235.07521946 378.06350256 -235.0625 375.3125 C-235.05748463 373.4472668 -235.05292179 371.58203233 -235.04882812 369.71679688 C-235.03780292 365.14449989 -235.02054027 360.57226375 -235 356 C-234.44154636 355.99902319 -233.88309273 355.99804638 -233.30771625 355.99703997 C-200.21445491 355.93877699 -167.12126895 355.8649871 -134.02809035 355.77101372 C-130.05518555 355.75974546 -126.08228039 355.74860702 -122.109375 355.73754883 C-120.92296642 355.7342433 -120.92296642 355.7342433 -119.71258999 355.730871 C-106.90323145 355.69549171 -94.09387296 355.67063115 -81.28448366 355.64965298 C-68.14237133 355.62789595 -55.00032245 355.59484647 -41.85826409 355.55129844 C-33.7478991 355.52478001 -25.63761317 355.50708606 -17.52720697 355.50065396 C-11.30974582 355.49477993 -5.09242973 355.47320008 1.12497139 355.44572449 C3.67672922 355.43691574 6.22851055 355.43322752 8.78028297 355.43499184 C12.25974751 355.43663829 15.73865923 355.41999807 19.2180481 355.39872742 C20.73848447 355.40599878 20.73848447 355.40599878 22.28963673 355.41341704 C28.35713162 355.35205374 32.96547028 354.76783708 37.64453125 350.5 C40.95600842 346.247133 42.1061481 343.38333183 42.24036694 338.06296444 C42.26825934 337.03787397 42.29615174 336.01278351 42.32488936 334.95662969 C42.35062555 333.82673276 42.37636174 332.69683582 42.40287781 331.53269958 C42.433366 330.33470437 42.46385419 329.13670915 42.49526626 327.90241104 C42.57816297 324.56987424 42.65634656 321.2372968 42.7317456 317.9045862 C42.78035574 315.7725473 42.83066997 313.64055463 42.88142967 311.5085659 C43.52331315 284.4215602 43.92496912 257.33166827 44.22846125 230.23891052 C44.278317 225.79491646 44.32990202 221.35094402 44.38256836 216.90698242 C44.3930199 216.02251153 44.40347143 215.13804064 44.41423968 214.22676761 C44.5868699 199.99271777 44.91113329 185.7661457 45.29455294 171.53638851 C45.68634071 156.87118912 45.91270199 142.2098325 45.99238712 127.53959233 C46.04150759 119.32218141 46.16137099 111.11981171 46.47122765 102.90774345 C48.49756037 61.55463831 48.49756037 61.55463831 29.56571156 26.28781396 C21.06122526 17.36331666 11.52320222 9.4921432 1.56664592 2.24624783 C0.79115619 1.62935515 0.79115619 1.62935515 0 1 C0 0.67 0 0.34 0 0 Z " fill="#95A5A5" transform="translate(382,104)"/>
<path d="M0 0 C1.00880722 0.00555908 1.00880722 0.00555908 2.03799438 0.01123047 C33.04936554 0.25323824 60.71879937 11.5666429 82.75 33.4375 C83.58402344 34.23414063 84.41804687 35.03078125 85.27734375 35.8515625 C93.21590989 43.539159 98.76042809 51.59488675 103.75 61.4375 C104.33007812 62.57316406 104.91015625 63.70882812 105.5078125 64.87890625 C119.1651408 92.38581544 121.91004348 123.80393541 112.44213867 153.12524414 C107.4325228 167.71750574 100.61373962 180.4946388 90.75 192.4375 C89.53570312 193.91669922 89.53570312 193.91669922 88.296875 195.42578125 C70.29261226 216.20615037 42.45303202 232.27675883 14.75 234.4375 C-21.93550648 236.4436951 -53.54522397 227.96018359 -81.375 203.1875 C-102.0375308 184.1548125 -116.0744992 154.89562426 -117.37109375 126.81494141 C-118.50803342 92.81476057 -109.36216522 62.15923276 -85.99609375 36.875 C-63.25746997 12.95230751 -33.13184415 -0.2672428 0 0 Z M-75.03515625 52.44921875 C-92.15185752 72.19925868 -101.10131784 98.25457622 -99.25 124.4375 C-96.79496962 153.62508342 -82.53879075 177.90425079 -60.515625 196.78125 C-58.44864705 198.63421872 -58.44864705 198.63421872 -56.25 198.4375 C-56.25 199.0975 -56.25 199.7575 -56.25 200.4375 C-46.51382296 206.24127307 -37.1813038 211.22981016 -26.25 214.4375 C-25.20199219 214.75589844 -24.15398437 215.07429687 -23.07421875 215.40234375 C2.51912028 222.05354683 29.65208016 216.44050609 52.1875 203.45703125 C58.98726292 199.11177459 64.93350149 194.01079997 70.75 188.4375 C71.38679687 187.85226563 72.02359375 187.26703125 72.6796875 186.6640625 C88.57650777 171.61507265 98.93235819 147.76548501 99.85473633 125.96166992 C100.49521591 99.00959674 95.38956788 73.85998307 76.75 53.4375 C76.31703613 52.9621582 75.88407227 52.48681641 75.43798828 51.99707031 C61.21108483 36.57675101 43.21211324 25.42825933 22.75 20.4375 C21.85925781 20.21320312 20.96851563 19.98890625 20.05078125 19.7578125 C-15.61119517 12.33035379 -50.98953241 26.08408135 -75.03515625 52.44921875 Z " fill="#E64D3D" transform="translate(160.25,-0.4375)"/>
<path d="M0 0 C5.72772379 4.11776899 9.05395524 9.58149131 11.37890625 16.1640625 C11.8016835 17.30273018 11.8016835 17.30273018 12.23300171 18.46440125 C13.22709858 21.15694294 14.19726716 23.8575332 15.16796875 26.55859375 C15.98121258 28.78759478 16.79539516 31.01625345 17.61035156 33.24462891 C20.1220014 40.1311788 22.60983195 47.02618328 25.09197998 53.92340088 C26.72319939 58.45573371 28.35614201 62.98744386 29.99130249 67.51835632 C30.8553571 69.91320543 31.71810817 72.30852546 32.57925415 74.704422 C35.01017769 81.44509634 37.53938417 88.13471652 40.18930054 94.79264832 C41.49206273 98.47455918 41.88842554 100.71615755 41.16796875 104.55859375 C39.10777836 108.34934407 37.86959883 109.34172627 33.73046875 110.62109375 C30.16796875 110.55859375 30.16796875 110.55859375 27.7265625 109.265625 C23.86371717 105.17867567 22.49626941 100.43629873 20.66796875 95.18359375 C20.28068604 94.10899902 19.89340332 93.0344043 19.49438477 91.92724609 C18.72540524 89.78852681 17.96295913 87.64744555 17.20751953 85.50390625 C16.31445453 82.97362534 15.40323974 80.45170137 14.4765625 77.93359375 C11.16796875 68.88444845 11.16796875 68.88444845 11.16796875 66.55859375 C-3.02203125 66.88859375 -17.21203125 67.21859375 -31.83203125 67.55859375 C-35.60912694 78.75913674 -35.60912694 78.75913674 -39.37011719 89.96508789 C-39.85163782 91.38317088 -40.33369915 92.80107044 -40.81640625 94.21875 C-41.05504395 94.93865112 -41.29368164 95.65855225 -41.53955078 96.40026855 C-45.67851009 108.48183317 -45.67851009 108.48183317 -49.83203125 110.55859375 C-56.80345982 111.24430804 -56.80345982 111.24430804 -60.83203125 108.55859375 C-63.38562908 104.728197 -63.45982437 101.9824408 -62.83203125 97.55859375 C-61.51920203 92.85117345 -59.82916044 88.2915059 -58.125 83.71484375 C-57.6378336 82.37821088 -57.15179453 81.04116664 -56.66682434 79.70373535 C-55.39204017 76.19770217 -54.10195419 72.69749616 -52.80853271 69.19830322 C-51.5015564 65.653887 -50.20950325 62.10404318 -48.91601562 58.5546875 C-47.01578501 53.34674458 -45.10875377 48.14139033 -43.19213867 42.93945312 C-42.78318359 41.82909698 -42.37422852 40.71874084 -41.95288086 39.57473755 C-40.99753546 37.00395635 -40.0196699 34.44348215 -39.03393555 31.88427734 C-37.84970377 28.60749382 -37.50493505 26.14224817 -37.45703125 22.68359375 C-36.94231948 14.84413759 -34.30616437 8.48279911 -28.45703125 3.12109375 C-19.58322035 -3.60091322 -10.11159812 -4.4005988 0 0 Z " fill="#C03B2D" transform="translate(140.83203125,54.44140625)"/>
<path d="M0 0 C6.10400764 5.05364269 11.68623029 10.54119017 17.28125 16.1484375 C18.26324165 17.12975367 19.24538155 18.11092151 20.22766113 19.09194946 C22.27661099 21.13943315 24.32376263 23.18869311 26.36962891 25.23925781 C28.97163869 27.8469566 31.57810337 30.45014886 34.18595123 33.05200768 C36.21255763 35.07497266 38.23674195 37.10034781 40.26023865 39.12642288 C41.68065318 40.54781447 43.10305605 41.96721822 44.5255127 43.38656616 C48.94109273 47.81800225 53.19730361 52.30626497 57.27310181 57.05072021 C60.53666484 60.7345491 64.06061249 64.16174738 67.55859375 67.62109375 C68.34774673 68.40646011 69.13689972 69.19182648 69.94996643 70.00099182 C72.44337877 72.48228934 74.94003072 74.96028634 77.4375 77.4375 C80.75152255 80.72503812 84.06229074 84.01580338 87.37109375 87.30859375 C88.51933876 88.44439125 88.51933876 88.44439125 89.69078064 89.60313416 C90.38893387 90.29798416 91.0870871 90.99283417 91.80639648 91.70874023 C92.42481918 92.32192612 93.04324188 92.935112 93.68040466 93.56687927 C95 95 95 95 95 96 C84.57715422 96.09285808 74.15440756 96.16384514 63.73123169 96.20724869 C58.89082177 96.22808485 54.05069577 96.25632966 49.21044922 96.30175781 C44.53552476 96.34535758 39.86087266 96.36916696 35.1857605 96.37950897 C33.40603348 96.38687504 31.62632064 96.40125922 29.84671021 96.42292023 C27.34540094 96.45214278 24.84520368 96.45594825 22.34375 96.45410156 C21.61510239 96.46848267 20.88645477 96.48286377 20.13572693 96.49768066 C14.13706407 96.4500525 8.857346 94.70091987 4.43127441 90.51715469 C0.08508921 85.50137431 -0.14338693 81.39690072 -0.11352539 75.0402832 C-0.11367142 74.23029877 -0.11381744 73.42031433 -0.1139679 72.58578491 C-0.113271 69.90742315 -0.10548903 67.22913087 -0.09765625 64.55078125 C-0.09579128 62.69418882 -0.09436775 60.8375959 -0.09336853 58.98100281 C-0.0895496 54.09344119 -0.07972461 49.20590926 -0.06866455 44.31835938 C-0.05843704 39.33138429 -0.05386803 34.34440442 -0.04882812 29.35742188 C-0.03810181 19.57160153 -0.02103284 9.78580324 0 0 Z " fill="#BDC3C7" transform="translate(330,52)"/>
<path d="M0 0 C1.43104159 -0.00677845 2.86207444 -0.01568287 4.29309082 -0.02655029 C8.17339 -0.0493239 12.0530237 -0.04051582 15.93333435 -0.02465487 C19.99626443 -0.0119856 24.05913797 -0.02373882 28.12207031 -0.03158569 C34.9447654 -0.04067931 41.76718977 -0.02870207 48.58984375 -0.00488281 C56.4749941 0.02232814 64.35949803 0.01351375 72.24463272 -0.01401484 C79.01763564 -0.03671328 85.79044408 -0.03990247 92.56347275 -0.02682149 C96.60740503 -0.01903094 100.65103358 -0.01797425 104.69494629 -0.03450394 C108.49716919 -0.04896041 112.29855968 -0.03890681 116.10069275 -0.01003265 C117.49505736 -0.00342793 118.88949216 -0.00530921 120.28382874 -0.01634598 C132.13431118 -0.10149113 132.13431118 -0.10149113 135.45019531 2.9960022 C137.47067197 6.22423839 137.6672432 7.90128619 137.109375 11.64697266 C136.25894734 14.19825562 135.67041736 15.28779845 133.40325832 16.73921299 C130.53290186 17.87510068 128.24513298 17.90756837 125.15724182 17.92112732 C123.93891663 17.93110245 122.72059143 17.94107758 121.46534729 17.95135498 C120.11825575 17.95225073 118.77116403 17.95291433 117.42407227 17.95336914 C116.00303716 17.96099199 114.58200618 17.96941971 113.16098022 17.97859192 C109.3035584 18.00052867 105.44621583 18.00933443 101.58873868 18.01441836 C99.17853878 18.01806224 96.76835964 18.02430239 94.35816765 18.03141975 C85.94929975 18.05590924 77.54049353 18.06896552 69.1315918 18.07250977 C61.29365986 18.07614696 53.45611904 18.10605652 45.6183067 18.14791435 C38.88782901 18.18259831 32.1574811 18.19805786 25.42691463 18.1987558 C21.40750377 18.19954913 17.38849156 18.20831309 13.36917305 18.23675346 C9.58920475 18.26290288 5.80996655 18.2651576 2.02994919 18.24909782 C0.64361798 18.24728092 -0.74275492 18.25399613 -2.1289959 18.26991653 C-13.91180877 18.39697689 -13.91180877 18.39697689 -17.21498108 15.32826233 C-19.45005469 11.75179855 -19.63059149 9.79078501 -18.890625 5.64697266 C-14.5230064 -1.3539645 -7.48933644 -0.05928129 0 0 Z " fill="#95A5A5" transform="translate(157.890625,329.35302734375)"/>
<path d="M0 0 C2.43119623 1.87015094 3.64069173 3.28138345 5 6 C5.08342159 7.44848582 5.10732861 8.90070869 5.09765625 10.3515625 C5.09443359 11.20234375 5.09121094 12.053125 5.08789062 12.9296875 C5.07532227 14.26386719 5.07532227 14.26386719 5.0625 15.625 C5.05798828 16.5221875 5.05347656 17.419375 5.04882812 18.34375 C5.03702591 20.56256648 5.02056155 22.78125018 5 25 C6.31355469 24.96519531 7.62710938 24.93039063 8.98046875 24.89453125 C10.71613301 24.86638534 12.45181115 24.83908604 14.1875 24.8125 C15.48397461 24.77479492 15.48397461 24.77479492 16.80664062 24.73632812 C21.70954503 24.6799729 25.02802714 24.77522996 29 28 C30.92863839 30.54229606 31.00902291 31.78345018 30.875 35 C29.87788701 38.41867312 28.72757889 39.76834454 26 42 C23.65147472 43.17426264 22.26225935 43.11508173 19.6484375 43.09765625 C18.37226563 43.09282227 18.37226563 43.09282227 17.0703125 43.08789062 C16.18085938 43.07951172 15.29140625 43.07113281 14.375 43.0625 C13.02921875 43.05573242 13.02921875 43.05573242 11.65625 43.04882812 C9.43743352 43.03702591 7.21874982 43.02056155 5 43 C5.05220703 44.97033203 5.05220703 44.97033203 5.10546875 46.98046875 C5.13361466 48.71613301 5.16091396 50.45181115 5.1875 52.1875 C5.21263672 53.05181641 5.23777344 53.91613281 5.26367188 54.80664062 C5.32005415 59.71189848 5.2209099 63.02308191 2 67 C-0.71437679 69.13272462 -2.04826833 68.99745956 -5.5625 68.8125 C-10.10367893 67.73913043 -10.10367893 67.73913043 -12 65 C-12.94137255 62.17588235 -13.11725382 60.47081968 -13.09765625 57.55078125 C-13.09443359 56.70322266 -13.09121094 55.85566406 -13.08789062 54.98242188 C-13.07951172 54.10134766 -13.07113281 53.22027344 -13.0625 52.3125 C-13.05798828 51.41982422 -13.05347656 50.52714844 -13.04882812 49.60742188 C-13.03704983 47.40488013 -13.02060164 45.20247401 -13 43 C-13.57967529 43.02094727 -14.15935059 43.04189453 -14.7565918 43.06347656 C-17.40004924 43.14696807 -20.0432288 43.19876153 -22.6875 43.25 C-24.05551758 43.30027344 -24.05551758 43.30027344 -25.45117188 43.3515625 C-29.81769795 43.41507561 -32.28725121 43.43722486 -36.08203125 41.109375 C-38.35706375 38.60730259 -38.92753731 37.54347021 -39.375 34.1875 C-38.87761245 29.95970586 -37.20618923 28.67182436 -34 26 C-31.65147472 24.82573736 -30.26225935 24.88491827 -27.6484375 24.90234375 C-26.79765625 24.90556641 -25.946875 24.90878906 -25.0703125 24.91210938 C-24.18085938 24.92048828 -23.29140625 24.92886719 -22.375 24.9375 C-21.4778125 24.94201172 -20.580625 24.94652344 -19.65625 24.95117188 C-17.43743352 24.96297409 -15.21874982 24.97943845 -13 25 C-13.02618408 24.42032471 -13.05236816 23.84064941 -13.0793457 23.2434082 C-13.18370612 20.60005125 -13.24844327 17.95712801 -13.3125 15.3125 C-13.35439453 14.40048828 -13.39628906 13.48847656 -13.43945312 12.54882812 C-13.52341232 7.9310724 -13.52349855 5.71845663 -10.734375 1.890625 C-6.61707511 -0.95619378 -4.916056 -0.70229371 0 0 Z " fill="#C14031" transform="translate(221,70)"/>
<path d="M0 0 C3.35234564 2.4251011 4.77884572 3.8450832 5.5625 7.9375 C4.12746213 15.75048398 -2.85704599 21.13225474 -8.25390625 26.484375 C-9.15116928 27.38117981 -10.04843231 28.27798462 -10.97288513 29.20196533 C-12.86428508 31.09035214 -14.75744091 32.97673544 -16.65405273 34.85986328 C-19.08244578 37.27120673 -21.5041431 39.68914155 -23.92364597 42.1094017 C-26.23927537 44.42469379 -28.55914286 46.73572597 -30.87890625 49.046875 C-31.74769913 49.91455505 -32.616492 50.78223511 -33.51161194 51.6762085 C-34.31932541 52.47754211 -35.12703888 53.27887573 -35.95922852 54.10449219 C-37.02367943 55.1632254 -37.02367943 55.1632254 -38.1096344 56.24334717 C-41.64686842 59.53037913 -44.05541201 60.45329332 -48.89971924 60.3187561 C-52.40343316 59.78700329 -55.02437401 57.97086487 -57.8359375 55.94921875 C-58.744077 55.327304 -58.744077 55.327304 -59.67056274 54.69282532 C-60.9385622 53.8195808 -62.20052558 52.93751171 -63.45654297 52.04711914 C-65.3789456 50.68470374 -67.31795353 49.34929016 -69.26171875 48.01757812 C-70.49583278 47.16295981 -71.72894287 46.30688952 -72.9609375 45.44921875 C-73.53798431 45.0491008 -74.11503113 44.64898285 -74.70956421 44.23674011 C-77.43317781 42.29993967 -79.11992403 40.82011396 -81 38 C-81.65753425 31.09589041 -81.65753425 31.09589041 -79.5 27.5 C-76.03384033 25.4203042 -72.90037773 25.36876042 -69 26 C-66.18315418 27.27582861 -63.7917306 28.97669485 -61.3125 30.8125 C-60.03832043 31.71563436 -58.7635924 32.6179955 -57.48828125 33.51953125 C-55.41792746 34.9891202 -53.35335879 36.465619 -51.29296875 37.94921875 C-50.15794922 38.46935547 -50.15794922 38.46935547 -49 39 C-45.76541556 37.79008591 -43.67722656 35.91711316 -41.27294922 33.48413086 C-40.55895966 32.76676254 -39.84497009 32.04939423 -39.10934448 31.31028748 C-38.34880768 30.53629105 -37.58827087 29.76229462 -36.8046875 28.96484375 C-36.01603302 28.1709877 -35.22737854 27.37713165 -34.41482544 26.55921936 C-31.89676055 24.0233426 -29.38548213 21.48088208 -26.875 18.9375 C-24.35651636 16.39142771 -21.83660341 13.84681279 -19.31375122 11.30506897 C-17.74399988 9.72303024 -16.17692895 8.13832669 -14.61276245 6.55076599 C-13.90507721 5.83654984 -13.19739197 5.12233368 -12.46826172 4.38647461 C-11.84523163 3.7551915 -11.22220154 3.12390839 -10.58029175 2.47349548 C-7.28675144 -0.59746706 -4.38129061 -0.44555498 0 0 Z " fill="#52BB71" transform="translate(394,226)"/>
<path d="M0 0 C3.4375 1.9375 3.4375 1.9375 6 5 C6.66576577 8.2483667 6.12249505 10.90510348 5 14 C2.05389907 18.04812016 -1.48997866 21.44790338 -5.08984375 24.90625 C-6.1166275 25.92063206 -7.14171384 26.93673488 -8.16517639 27.95446777 C-10.85125493 30.61579475 -13.56090325 33.25181242 -16.27593994 35.88354492 C-18.49372385 38.0411245 -20.69451773 40.21559006 -22.8945837 42.39121246 C-27.43453675 46.88061983 -31.98763127 51.35657749 -36.56616211 55.80664062 C-37.78075356 56.98836853 -37.78075356 56.98836853 -39.0198822 58.19396973 C-41.41252363 60.37625548 -42.48577751 60.94014856 -45.7121582 61.31567383 C-49.81025656 60.92220526 -52.33823437 59.26900606 -55.60546875 56.94921875 C-56.51429558 56.327304 -56.51429558 56.327304 -57.44148254 55.69282532 C-59.36605237 54.37054575 -61.27637611 53.02911716 -63.1875 51.6875 C-64.48289448 50.79631913 -65.77911118 49.90633216 -67.07617188 49.01757812 C-68.31583691 48.16251969 -69.55479417 47.30643403 -70.79296875 46.44921875 C-71.37112839 46.0491008 -71.94928802 45.64898285 -72.54496765 45.23674011 C-78.27315068 41.21138488 -78.27315068 41.21138488 -80 39 C-80.64003318 34.03974283 -80.78789129 32.11231711 -77.875 28 C-74.43384593 25.60615369 -73.11165628 25.57205856 -69 26 C-66.20751953 27.37695312 -66.20751953 27.37695312 -63.3828125 29.28125 C-61.85527344 30.29638672 -61.85527344 30.29638672 -60.296875 31.33203125 C-59.25015625 32.04746094 -58.2034375 32.76289063 -57.125 33.5 C-55.52011719 34.57314453 -55.52011719 34.57314453 -53.8828125 35.66796875 C-51.24671164 37.43321486 -48.61982558 39.21072702 -46 41 C-45.73774628 40.4127565 -45.47549255 39.825513 -45.20529175 39.22047424 C-43.936452 36.88292735 -42.5940327 35.34655588 -40.71533203 33.47241211 C-40.04768829 32.80169174 -39.38004456 32.13097137 -38.69216919 31.43992615 C-37.97133148 30.72627396 -37.25049377 30.01262177 -36.5078125 29.27734375 C-35.76546356 28.53545303 -35.02311462 27.79356232 -34.25827026 27.02919006 C-32.68870524 25.46264363 -31.11671298 23.89852589 -29.54248047 22.33666992 C-27.13583752 19.94825543 -24.73726493 17.55196414 -22.33984375 15.15429688 C-20.81297055 13.63234029 -19.28564184 12.11084051 -17.7578125 10.58984375 C-17.04102325 9.87416733 -16.32423401 9.15849091 -15.58572388 8.42112732 C-14.91177582 7.75355911 -14.23782776 7.08599091 -13.54345703 6.39819336 C-12.65981979 5.52027382 -12.65981979 5.52027382 -11.7583313 4.62461853 C-7.83392814 0.99864765 -5.53323621 -0.88531779 0 0 Z " fill="#52BB71" transform="translate(393,295)"/>
<path d="M0 0 C3.33377678 2.36142522 4.69652395 3.8619648 5.75 7.8125 C3.83721575 15.94183306 -5.61648765 22.76327272 -11.36328125 28.49609375 C-12.23647507 29.37024429 -13.10966888 30.24439484 -14.00932312 31.14503479 C-15.84100616 32.97739427 -17.67393635 34.80850784 -19.50805664 36.63842773 C-21.3884643 38.51523402 -23.26746483 40.39330548 -25.14379883 42.27416992 C-27.86013205 44.99665351 -30.57987311 47.71568323 -33.30078125 50.43359375 C-34.14345047 51.2782872 -34.98611969 52.12298065 -35.85432434 52.99327087 C-37.0214521 54.15567039 -37.0214521 54.15567039 -38.2121582 55.34155273 C-39.23971977 56.36792091 -39.23971977 56.36792091 -40.28804016 57.4150238 C-42.72681274 59.67290182 -43.82632914 59.98288833 -47.20385742 60.31567383 C-51.62613905 59.94793248 -54.22612839 58.4517568 -57.73828125 55.94921875 C-58.64854317 55.327304 -58.64854317 55.327304 -59.57719421 54.69282532 C-60.85041514 53.81852157 -62.11833993 52.93645973 -63.38110352 52.04711914 C-65.31366569 50.6866794 -67.26125883 49.35047763 -69.21289062 48.01757812 C-70.45146104 47.16281913 -71.68912433 46.30674385 -72.92578125 45.44921875 C-73.50596512 45.0491008 -74.08614899 44.64898285 -74.68391418 44.23674011 C-77.42177061 42.3014954 -79.1137945 40.82930826 -81 38 C-81.65753425 31.09589041 -81.65753425 31.09589041 -79.5 27.5 C-75.97222705 25.38333623 -72.9512489 25.2087591 -69 26 C-65.33994752 27.86924109 -62.07425968 30.21811762 -58.75 32.625 C-57.00505496 33.88156392 -55.25021886 35.12454109 -53.484375 36.3515625 C-52.71834961 36.90666504 -51.95232422 37.46176758 -51.16308594 38.03369141 C-49.06055569 39.27670889 -49.06055569 39.27670889 -47.09753418 38.28686523 C-44.78647923 36.86900216 -43.14983579 35.33567357 -41.27636719 33.37646484 C-40.56172302 32.63584808 -39.84707886 31.89523132 -39.11077881 31.13217163 C-37.96539642 29.93366074 -37.96539642 29.93366074 -36.796875 28.7109375 C-35.16106957 27.03036053 -33.52432127 25.35070088 -31.88671875 23.671875 C-29.31207678 21.0229976 -26.74406473 18.36878944 -24.19189453 15.69824219 C-21.72423756 13.12159902 -19.23190709 10.57108866 -16.734375 8.0234375 C-15.97888367 7.22038177 -15.22339233 6.41732605 -14.44500732 5.5899353 C-9.60299229 0.70091757 -6.94168947 -1.20907142 0 0 Z " fill="#50BA70" transform="translate(394,365)"/>
<path d="M0 0 C0.80078476 -0.0087616 1.60156952 -0.01752319 2.42662048 -0.02655029 C5.06036372 -0.04846649 7.69241308 -0.03402027 10.32617188 -0.01708984 C12.16410645 -0.02046024 14.00203885 -0.02531472 15.83996582 -0.03158569 C19.68665852 -0.03894645 23.53276959 -0.0282774 27.37939453 -0.00488281 C32.30254667 0.02360471 37.22433588 0.00719643 42.14743805 -0.02274513 C45.94112357 -0.04083979 49.73448761 -0.03505019 53.52818298 -0.02210617 C55.34301415 -0.01877814 57.15787479 -0.02283799 58.97267151 -0.03450394 C61.51251176 -0.04724884 64.05016577 -0.02778728 66.58984375 0 C67.70751381 -0.01518173 67.70751381 -0.01518173 68.84776306 -0.03067017 C72.70177278 0.04718356 75.26330632 0.62909258 78.26867676 2.96865845 C80.79492188 5.64697266 80.79492188 5.64697266 81.41992188 9.14697266 C80.71055509 13.11942667 79.6226048 14.81928973 76.79492188 17.64697266 C73.69955509 19.19465605 70.42635339 18.81196823 67.02807617 18.82397461 C66.22626923 18.83054581 65.42446228 18.837117 64.59835815 18.84388733 C61.93861808 18.86363626 59.2789345 18.87528639 56.61914062 18.88525391 C55.25769897 18.8913672 55.25769897 18.8913672 53.86875343 18.89760399 C49.06492972 18.91847144 44.26113464 18.93277028 39.45727539 18.94213867 C34.49382242 18.95320512 29.53081753 18.98760571 24.567523 19.02731037 C20.75251936 19.05344792 16.93762293 19.06182795 13.12253761 19.06542015 C11.29289537 19.07029346 9.46325814 19.08192859 7.63370323 19.10045815 C5.0720908 19.12478932 2.51164363 19.12389588 -0.05004883 19.11694336 C-0.80504166 19.12975342 -1.56003448 19.14256348 -2.33790588 19.15576172 C-6.01070434 19.11945082 -8.03659706 18.75583937 -11.15226746 16.74259949 C-13.78171328 14.05831043 -14.14471144 13.10403472 -14.64257812 9.33447266 C-14.20507812 5.64697266 -14.20507812 5.64697266 -11.69055176 2.9569397 C-8.0410976 0.13602046 -4.49150304 -0.06100977 0 0 Z " fill="#98A7A7" transform="translate(153.205078125,398.35302734375)"/>
<path d="M0 0 C0.80239105 -0.0071553 1.6047821 -0.01431061 2.43148804 -0.02168274 C5.07006667 -0.0385204 7.70693448 -0.01919909 10.34545898 0.00219727 C12.18578736 0.00136819 14.02611565 -0.00109266 15.86643982 -0.00511169 C19.71733982 -0.0079662 23.56765706 0.00669884 27.41845703 0.03417969 C32.35053481 0.068286 37.2815725 0.06223306 42.21370029 0.04351711 C46.01161852 0.0329418 49.8092953 0.04188935 53.60719109 0.05690193 C55.4256309 0.06207869 57.24409598 0.06160809 59.06253242 0.05535698 C61.60473881 0.0498973 64.14546264 0.07030171 66.6875 0.09765625 C67.43620865 0.09113037 68.1849173 0.08460449 68.95631409 0.07788086 C72.5464038 0.14346145 74.64266956 0.54683792 77.72227478 2.44960022 C80.56398315 5.463633 80.77905273 7.53426077 80.77905273 11.63110352 C79.19066339 15.20497954 78.06270916 16.44199923 74.77905273 18.63110352 C72.12356075 18.84082226 69.57142031 18.93516378 66.91455078 18.9375 C66.1142041 18.94582352 65.31385742 18.95414703 64.48925781 18.96272278 C61.83971306 18.98684514 59.19041446 18.9955981 56.54077148 19.00219727 C54.69855169 19.01116278 52.85633266 19.02028461 51.01411438 19.02955627 C47.14969106 19.04605551 43.28535447 19.05374793 39.42089844 19.05664062 C34.47424049 19.06202162 29.52840025 19.09968572 24.58197308 19.14538479 C20.7754877 19.17516211 16.96919892 19.18236435 13.16260719 19.18336678 C11.33936638 19.1875687 9.51612495 19.20000196 7.69299889 19.22088432 C5.13863856 19.24780993 2.58616914 19.24297043 0.03173828 19.23046875 C-1.09300148 19.25272018 -1.09300148 19.25272018 -2.24046326 19.27542114 C-7.9957546 19.19540745 -10.34649633 17.59336996 -14.22094727 13.63110352 C-15.01782227 11.56860352 -15.01782227 11.56860352 -14.97094727 9.63110352 C-14.98641602 8.99172852 -15.00188477 8.35235352 -15.01782227 7.69360352 C-12.42481357 0.9822869 -6.43521656 -0.10076792 0 0 Z " fill="#98A7A7" transform="translate(214.220947265625,259.368896484375)"/>
<path d="M0 0 C2.12795051 0.02680038 4.25062944 0.0002105 6.37841797 -0.03173828 C17.67741496 -0.06134162 17.67741496 -0.06134162 21.56201172 2.97216797 C23.63232422 5.65185547 23.63232422 5.65185547 24.25732422 9.15185547 C23.54795743 13.12430948 22.46000714 14.82417254 19.63232422 17.65185547 C15.25107591 19.84247962 9.37901078 18.92018349 4.51147461 18.94702148 C2.33822183 18.96420996 0.16650076 19.00809354 -2.00634766 19.05224609 C-3.39370628 19.06237572 -4.78107782 19.07089099 -6.16845703 19.07763672 C-7.42827393 19.09221924 -8.68809082 19.10680176 -9.98608398 19.12182617 C-13.94657039 18.5714012 -15.56087391 17.43984369 -18.36767578 14.65185547 C-19.95706925 11.47306853 -19.78344289 9.15617827 -19.36767578 5.65185547 C-14.39643934 -0.84754095 -7.57714909 -0.11377101 0 0 Z " fill="#98A7A7" transform="translate(158.36767578125,259.34814453125)"/>
<path d="M0 0 C2.17325278 -0.01718848 4.34497385 -0.06107205 6.51782227 -0.10522461 C7.90518089 -0.11535424 9.29255243 -0.1238695 10.67993164 -0.13061523 C11.93974854 -0.14519775 13.19956543 -0.15978027 14.49755859 -0.17480469 C18.48378782 0.379198 20.10583088 1.42249032 22.87915039 4.29516602 C24.0192481 8.21425188 24.28803671 10.32675105 22.69165039 14.10766602 C20.72984535 16.47536175 19.71957738 17.20798155 16.87915039 18.29516602 C12.60217129 18.69232599 8.32881414 18.66678294 4.03466797 18.66577148 C1.95139849 18.67014555 -0.12975137 18.70649158 -2.21264648 18.74438477 C-3.53200195 18.74825195 -4.85135742 18.75211914 -6.21069336 18.75610352 C-7.41588623 18.76432129 -8.6210791 18.77253906 -9.86279297 18.78100586 C-13.73018846 18.2043017 -15.36195095 17.00948983 -18.12084961 14.29516602 C-19.66671837 11.2034285 -19.41444482 8.70087049 -19.12084961 5.29516602 C-14.01390841 -1.17362618 -7.56143246 0.04169126 0 0 Z " fill="#98A7A7" transform="translate(271.120849609375,398.704833984375)"/>
<path d="M0 0 C4.59343321 1.96861423 5.9148136 7.35261332 7.69482422 11.79492188 C8.78547117 14.66551659 9.8367055 17.54758031 10.875 20.4375 C11.23851562 21.42556641 11.60203125 22.41363281 11.9765625 23.43164062 C12.31945312 24.37845703 12.66234375 25.32527344 13.015625 26.30078125 C13.32532227 27.15583252 13.63501953 28.01088379 13.95410156 28.8918457 C14.625 31.125 14.625 31.125 14.625 34.125 C4.725 34.125 -5.175 34.125 -15.375 34.125 C-13.19005282 26.84184273 -10.90203483 19.75462837 -8.3125 12.625 C-7.96123047 11.63757813 -7.60996094 10.65015625 -7.24804688 9.6328125 C-6.90708984 8.69179687 -6.56613281 7.75078125 -6.21484375 6.78125 C-5.90925537 5.93369141 -5.60366699 5.08613281 -5.28881836 4.21289062 C-4.01732458 1.30778381 -3.25069143 0.17108902 0 0 Z " fill="#EBECED" transform="translate(130.375,69.875)"/>
<path d="M0 0 C0.66 0.33 1.32 0.66 2 1 C0.63875 1.99 0.63875 1.99 -0.75 3 C-7.94697106 9.08455867 -10.04888665 19.38855449 -13 28 C-13.33 28 -13.66 28 -14 28 C-14.69827359 19.83795759 -13.77121507 13.78889308 -9 7 C-6.29951271 4.14884174 -3.51997732 1.75998866 0 0 Z " fill="#EAEAEB" transform="translate(118,54)"/>
</svg>
